<svg width="55" height="54" viewBox="0 0 55 54" fill="none" xmlns="http://www.w3.org/2000/svg">
<path fill-rule="evenodd" clip-rule="evenodd" d="M27.0188 54C32.3589 54 37.5791 52.4165 42.0192 49.4497C46.4593 46.4829 49.92 42.2661 51.9635 37.3325C54.0071 32.3989 54.5418 26.9701 53.5 21.7326C52.4582 16.4951 49.8867 11.6842 46.1107 7.90814C42.3346 4.13212 37.5237 1.56061 32.2862 0.518813C27.0487 -0.522988 21.6199 0.0116881 16.6863 2.05525C11.7527 4.09882 7.53593 7.55948 4.56913 11.9996C1.60233 16.4397 0.0187988 21.6599 0.0187988 27C0.0332358 34.1564 2.8825 41.0156 7.94286 46.0759C13.0032 51.1363 19.8624 53.9856 27.0188 54Z" fill="#1B263E"/>
<path fill-rule="evenodd" clip-rule="evenodd" d="M18.1352 23.7711C18.8298 23.7701 19.5084 23.5631 20.0854 23.1764C20.6624 22.7898 21.1118 22.2407 21.3769 21.5987C21.6419 20.9567 21.7107 20.2506 21.5746 19.5695C21.4384 18.8884 21.1034 18.263 20.6119 17.7722C20.1203 17.2815 19.4944 16.9475 18.8131 16.8123C18.1318 16.6772 17.4258 16.7471 16.7842 17.0132C16.1426 17.2792 15.5942 17.7295 15.2085 18.3071C14.8227 18.8847 14.6168 19.5636 14.6168 20.2582C14.6183 21.1904 14.9896 22.0839 15.6493 22.7425C16.3089 23.4012 17.203 23.7711 18.1352 23.7711Z" fill="white"/>
<path fill-rule="evenodd" clip-rule="evenodd" d="M35.9076 23.7711C36.6024 23.7711 37.2816 23.5651 37.8593 23.1791C38.437 22.7931 38.8873 22.2444 39.1531 21.6025C39.419 20.9606 39.4886 20.2543 39.3531 19.5728C39.2175 18.8914 38.8829 18.2654 38.3916 17.7741C37.9003 17.2828 37.2744 16.9483 36.5929 16.8127C35.9115 16.6772 35.2051 16.7468 34.5632 17.0126C33.9213 17.2785 33.3727 17.7288 32.9867 18.3065C32.6007 18.8842 32.3947 19.5634 32.3947 20.2582C32.3961 21.1894 32.7666 22.0821 33.4251 22.7406C34.0836 23.3991 34.9764 23.7697 35.9076 23.7711Z" fill="white"/>
<path d="M18.1572 37.4459L39.9889 28.4259" stroke="white" stroke-width="3.6" stroke-linecap="round" stroke-linejoin="round"/>
</svg>
