<svg width="54" height="55" viewBox="0 0 54 55" fill="none" xmlns="http://www.w3.org/2000/svg">
<path fill-rule="evenodd" clip-rule="evenodd" d="M27 54.1014C32.3401 54.1014 37.5603 52.5179 42.0004 49.5511C46.4405 46.5843 49.9012 42.3675 51.9447 37.4339C53.9883 32.5003 54.523 27.0715 53.4812 21.834C52.4394 16.5965 49.8679 11.7856 46.0919 8.00958C42.3158 4.23356 37.5049 1.66205 32.2674 0.620254C27.0299 -0.421547 21.6011 0.113129 16.6675 2.15669C11.7339 4.20026 7.51713 7.66092 4.55033 12.101C1.58354 16.5412 0 21.7614 0 27.1014C0.014437 34.2579 2.8637 41.117 7.92406 46.1774C12.9844 51.2377 19.8436 54.087 27 54.1014Z" fill="#111827"/>
<path fill-rule="evenodd" clip-rule="evenodd" d="M18.1164 23.8726C18.811 23.8715 19.4896 23.6645 20.0666 23.2779C20.6436 22.8912 21.093 22.3422 21.3581 21.7002C21.6231 21.0582 21.6919 20.352 21.5558 19.671C21.4196 18.9899 21.0846 18.3644 20.5931 17.8737C20.1015 17.3829 19.4756 17.0489 18.7943 16.9138C18.113 16.7787 17.407 16.8485 16.7654 17.1146C16.1238 17.3806 15.5754 17.8309 15.1897 18.4085C14.8039 18.9861 14.598 19.665 14.598 20.3596C14.5995 21.2918 14.9708 22.1853 15.6305 22.844C16.2901 23.5026 17.1842 23.8726 18.1164 23.8726Z" fill="white"/>
<path fill-rule="evenodd" clip-rule="evenodd" d="M35.8888 23.8726C36.5836 23.8726 37.2628 23.6665 37.8405 23.2805C38.4182 22.8945 38.8685 22.3459 39.1343 21.704C39.4002 21.0621 39.4698 20.3557 39.3343 19.6743C39.1987 18.9928 38.8641 18.3669 38.3728 17.8756C37.8815 17.3843 37.2556 17.0497 36.5741 16.9142C35.8927 16.7786 35.1863 16.8482 34.5444 17.1141C33.9025 17.38 33.3539 17.8302 32.9679 18.4079C32.5819 18.9856 32.3759 19.6648 32.3759 20.3596C32.3773 21.2909 32.7478 22.1836 33.4063 22.8421C34.0648 23.5006 34.9576 23.8711 35.8888 23.8726Z" fill="white"/>
<path d="M18.1384 37.5474L39.9701 28.5273" stroke="white" stroke-width="3.6" stroke-linecap="round" stroke-linejoin="round"/>
</svg>
