<svg width="54" height="55" viewBox="0 0 54 55" fill="none" xmlns="http://www.w3.org/2000/svg">
<path fill-rule="evenodd" clip-rule="evenodd" d="M26.9945 54.1014C32.3351 54.1025 37.556 52.5198 41.997 49.5534C46.4379 46.587 49.8995 42.3702 51.9437 37.4364C53.988 32.5026 54.5231 27.0733 53.4815 21.8354C52.4398 16.5974 49.8682 11.7859 46.0919 8.00957C42.3155 4.23322 37.5041 1.66161 32.2661 0.619984C27.0281 -0.421642 21.5989 0.113505 16.665 2.15775C11.7312 4.20199 7.51443 7.6635 4.54805 12.1045C1.58166 16.5454 -0.00107977 21.7664 5.52669e-07 27.1069C0.0144346 34.2619 2.86313 41.1197 7.92246 46.179C12.9818 51.2383 19.8396 54.087 26.9945 54.1014Z" fill="#1F2937"/>
<path fill-rule="evenodd" clip-rule="evenodd" d="M18.1129 23.8787C18.8073 23.8776 19.4859 23.6707 20.0627 23.2841C20.6396 22.8976 21.0889 22.3486 21.3539 21.7068C21.6189 21.0649 21.6877 20.3589 21.5515 19.6779C21.4154 18.997 21.0805 18.3717 20.589 17.881C20.0976 17.3904 19.4718 17.0564 18.7907 16.9213C18.1095 16.7863 17.4036 16.8561 16.7621 17.1221C16.1207 17.3881 15.5724 17.8383 15.1867 18.4158C14.8011 18.9932 14.5952 19.6721 14.5952 20.3665C14.5967 21.2985 14.9679 22.1918 15.6275 22.8503C16.287 23.5089 17.1809 23.8787 18.1129 23.8787Z" fill="white"/>
<path fill-rule="evenodd" clip-rule="evenodd" d="M35.8816 23.8787C36.5763 23.8787 37.2553 23.6727 37.8329 23.2868C38.4105 22.9009 38.8607 22.3523 39.1265 21.7106C39.3923 21.0688 39.4619 20.3626 39.3264 19.6813C39.1909 19 38.8563 18.3742 38.3651 17.883C37.8739 17.3918 37.2481 17.0573 36.5668 16.9217C35.8855 16.7862 35.1793 16.8558 34.5375 17.1216C33.8957 17.3874 33.3472 17.8376 32.9613 18.4152C32.5754 18.9928 32.3694 19.6718 32.3694 20.3665C32.3708 21.2975 32.7413 22.1901 33.3997 22.8484C34.058 23.5068 34.9506 23.8773 35.8816 23.8787Z" fill="white"/>
<path d="M30.7934 33.8577C28.1157 33.2957 25.0803 33.9211 22.3308 37.4489" stroke="white" stroke-width="3.6" stroke-linecap="round" stroke-linejoin="round"/>
</svg>
