<svg width="55" height="54" viewBox="0 0 55 54" fill="none" xmlns="http://www.w3.org/2000/svg">
<path fill-rule="evenodd" clip-rule="evenodd" d="M27.0188 54C32.3589 54 37.5791 52.4165 42.0192 49.4497C46.4593 46.4829 49.92 42.2661 51.9635 37.3325C54.0071 32.3989 54.5418 26.9701 53.5 21.7326C52.4582 16.4951 49.8867 11.6842 46.1107 7.90814C42.3346 4.13212 37.5237 1.56061 32.2862 0.518813C27.0487 -0.522988 21.6199 0.0116881 16.6863 2.05525C11.7527 4.09882 7.53593 7.55948 4.56913 11.9996C1.60233 16.4397 0.0187988 21.6599 0.0187988 27C0.0332358 34.1564 2.8825 41.0156 7.94286 46.0759C13.0032 51.1363 19.8624 53.9856 27.0188 54Z" fill="#5F6E86"/>
<path fill-rule="evenodd" clip-rule="evenodd" d="M18.5177 24.0245C19.2121 24.0234 19.8906 23.8165 20.4675 23.4299C21.0444 23.0433 21.4937 22.4944 21.7587 21.8525C22.0237 21.2107 22.0925 20.5046 21.9563 19.8237C21.8202 19.1427 21.4852 18.5174 20.9938 18.0268C20.5024 17.5361 19.8766 17.2022 19.1955 17.0671C18.5143 16.932 17.8084 17.0019 17.1669 17.2679C16.5254 17.5339 15.9772 17.984 15.5915 18.5615C15.2058 19.139 15 19.8178 15 20.5122C15.0014 21.4442 15.3727 22.3376 16.0322 22.9961C16.6918 23.6546 17.5857 24.0245 18.5177 24.0245Z" fill="white"/>
<path fill-rule="evenodd" clip-rule="evenodd" d="M36.2864 24.0245C36.9811 24.0245 37.6601 23.8185 38.2377 23.4326C38.8153 23.0466 39.2655 22.4981 39.5313 21.8563C39.7971 21.2145 39.8667 20.5083 39.7312 19.827C39.5956 19.1457 39.2611 18.5199 38.7699 18.0287C38.2787 17.5375 37.6529 17.203 36.9716 17.0675C36.2903 16.932 35.5841 17.0015 34.9423 17.2674C34.3005 17.5332 33.752 17.9834 33.3661 18.5609C32.9801 19.1385 32.7742 19.8176 32.7742 20.5122C32.7756 21.4433 33.1461 22.3358 33.8044 22.9942C34.4628 23.6525 35.3553 24.023 36.2864 24.0245Z" fill="white"/>
<path d="M22.4151 36.4383C24.8561 37.6742 27.9499 37.8558 31.5188 35.1598" stroke="white" stroke-width="3.6" stroke-linecap="round" stroke-linejoin="round"/>
</svg>
