<svg width="54" height="54" viewBox="0 0 54 54" fill="none" xmlns="http://www.w3.org/2000/svg">
<path fill-rule="evenodd" clip-rule="evenodd" d="M26.9945 54C32.3351 54.0011 37.556 52.4183 41.997 49.452C46.4379 46.4856 49.8995 42.2688 51.9437 37.335C53.988 32.4012 54.5231 26.9719 53.4815 21.7339C52.4398 16.4959 49.8682 11.6845 46.0919 7.90813C42.3155 4.13178 37.5041 1.56017 32.2661 0.518544C27.0281 -0.523083 21.5989 0.0120646 16.665 2.05631C11.7312 4.10055 7.51443 7.56206 4.54805 12.003C1.58166 16.444 -0.00107977 21.6649 5.52669e-07 27.0055C0.0144346 34.1604 2.86313 41.0182 7.92246 46.0775C12.9818 51.1369 19.8396 53.9856 26.9945 54Z" fill="#374151"/>
<path fill-rule="evenodd" clip-rule="evenodd" d="M18.1129 23.7774C18.8073 23.7763 19.4859 23.5694 20.0627 23.1828C20.6396 22.7962 21.0889 22.2473 21.3539 21.6055C21.6189 20.9636 21.6877 20.2576 21.5515 19.5766C21.4154 18.8957 21.0805 18.2704 20.589 17.7797C20.0976 17.2891 19.4718 16.9551 18.7907 16.82C18.1095 16.6849 17.4036 16.7548 16.7621 17.0208C16.1207 17.2868 15.5724 17.737 15.1867 18.3144C14.8011 18.8919 14.5952 19.5707 14.5952 20.2652C14.5967 21.1972 14.9679 22.0905 15.6275 22.749C16.287 23.4075 17.1809 23.7774 18.1129 23.7774Z" fill="white"/>
<path fill-rule="evenodd" clip-rule="evenodd" d="M35.8816 23.7774C36.5763 23.7774 37.2553 23.5714 37.8329 23.1855C38.4105 22.7996 38.8607 22.251 39.1265 21.6092C39.3923 20.9675 39.4619 20.2613 39.3264 19.58C39.1909 18.8987 38.8563 18.2728 38.3651 17.7816C37.8739 17.2904 37.2481 16.9559 36.5668 16.8204C35.8855 16.6849 35.1793 16.7545 34.5375 17.0203C33.8957 17.2861 33.3472 17.7363 32.9613 18.3139C32.5754 18.8915 32.3694 19.5705 32.3694 20.2652C32.3708 21.1962 32.7413 22.0887 33.3997 22.7471C34.058 23.4055 34.9506 23.776 35.8816 23.7774Z" fill="white"/>
<path d="M22.0103 36.1911C24.4514 37.427 27.5451 37.6086 31.114 34.9126" stroke="white" stroke-width="3.6" stroke-linecap="round" stroke-linejoin="round"/>
</svg>
