<svg width="55" height="54" viewBox="0 0 55 54" fill="none" xmlns="http://www.w3.org/2000/svg">
<path fill-rule="evenodd" clip-rule="evenodd" d="M27.0188 54C32.3589 54 37.5791 52.4165 42.0192 49.4497C46.4593 46.4829 49.92 42.2661 51.9635 37.3325C54.0071 32.3989 54.5418 26.9701 53.5 21.7326C52.4582 16.4951 49.8867 11.6842 46.1107 7.90814C42.3346 4.13212 37.5237 1.56061 32.2862 0.518813C27.0487 -0.522988 21.6199 0.0116881 16.6863 2.05525C11.7527 4.09882 7.53593 7.55948 4.56913 11.9996C1.60233 16.4397 0.0187988 21.6599 0.0187988 27C0.0332358 34.1564 2.8825 41.0156 7.94286 46.0759C13.0032 51.1363 19.8624 53.9856 27.0188 54Z" fill="#FB923C"/>
<path d="M15.6587 32.194C19.5164 40.8464 33.2611 40.7251 37.3613 32.194" stroke="white" stroke-width="3.6" stroke-linecap="round" stroke-linejoin="round"/>
<path fill-rule="evenodd" clip-rule="evenodd" d="M17.5491 24.0983C18.2513 24.0983 18.9377 23.89 19.5215 23.4998C20.1053 23.1095 20.5602 22.5549 20.8286 21.9061C21.0971 21.2572 21.1671 20.5433 21.0297 19.8547C20.8923 19.1661 20.5537 18.5337 20.0568 18.0376C19.5599 17.5414 18.927 17.2038 18.2382 17.0675C17.5493 16.9312 16.8355 17.0023 16.1871 17.2717C15.5387 17.5412 14.9848 17.997 14.5955 18.5814C14.2061 19.1657 13.9989 19.8525 14 20.5546C14.0015 21.495 14.376 22.3963 15.0415 23.0607C15.7069 23.7251 16.6088 24.0983 17.5491 24.0983Z" fill="white"/>
<path fill-rule="evenodd" clip-rule="evenodd" d="M35.4765 24.0983C36.1789 24.0994 36.8659 23.892 37.4504 23.5024C38.0349 23.1129 38.4906 22.5586 38.7599 21.9099C39.0292 21.2611 39.1 20.5471 38.9632 19.8581C38.8264 19.1691 38.4883 18.5362 37.9916 18.0395C37.4949 17.5428 36.862 17.2047 36.1731 17.0679C35.4841 16.9312 34.77 17.0019 34.1213 17.2712C33.4725 17.5405 32.9183 17.9963 32.5287 18.5808C32.1391 19.1653 31.9318 19.8522 31.9329 20.5546C31.9343 21.494 32.3081 22.3945 32.9724 23.0588C33.6366 23.723 34.5371 24.0968 35.4765 24.0983Z" fill="white"/>
</svg>
