<svg width="67" height="67" viewBox="0 0 67 67" fill="none" xmlns="http://www.w3.org/2000/svg">
<path d="M59.6463 40.8536C63.7077 26.4134 55.2939 11.4149 40.8537 7.35358C26.4134 3.29226 11.415 11.706 7.35366 26.1463C3.29235 40.5865 11.7061 55.5849 26.1463 59.6463C40.5866 63.7076 55.585 55.2938 59.6463 40.8536Z" fill="#FB923C"/>
<path d="M23.0746 38.5236C26.9323 47.176 40.677 47.0547 44.7772 38.5236" stroke="white" stroke-width="3.6" stroke-linecap="round" stroke-linejoin="round"/>
<path fill-rule="evenodd" clip-rule="evenodd" d="M24.9649 30.4279C25.6671 30.4279 26.3535 30.2196 26.9373 29.8293C27.521 29.4391 27.9759 28.8845 28.2444 28.2356C28.5129 27.5868 28.5828 26.8729 28.4454 26.1843C28.3081 25.4957 27.9695 24.8633 27.4726 24.3672C26.9757 23.871 26.3428 23.5334 25.6539 23.3971C24.9651 23.2608 24.2513 23.3319 23.6029 23.6013C22.9545 23.8708 22.4006 24.3266 22.0112 24.9109C21.6219 25.4953 21.4147 26.1821 21.4158 26.8842C21.4172 27.8246 21.7918 28.7259 22.4572 29.3903C23.1227 30.0547 24.0246 30.4279 24.9649 30.4279Z" fill="white"/>
<path fill-rule="evenodd" clip-rule="evenodd" d="M42.8923 30.4279C43.5947 30.429 44.2816 30.2216 44.8661 29.832C45.4506 29.4425 45.9064 28.8882 46.1757 28.2395C46.445 27.5907 46.5157 26.8767 46.379 26.1877C46.2422 25.4987 45.9041 24.8658 45.4074 24.3691C44.9107 23.8724 44.2778 23.5343 43.5888 23.3975C42.8998 23.2608 42.1858 23.3315 41.537 23.6008C40.8883 23.8701 40.334 24.3259 39.9445 24.9104C39.5549 25.4949 39.3475 26.1818 39.3486 26.8842C39.3501 27.8236 39.7239 28.7241 40.3881 29.3883C41.0524 30.0526 41.9529 30.4264 42.8923 30.4279Z" fill="white"/>
</svg>
