<svg width="55" height="54" viewBox="0 0 55 54" fill="none" xmlns="http://www.w3.org/2000/svg">
<path fill-rule="evenodd" clip-rule="evenodd" d="M27.0188 54C32.3589 54 37.5791 52.4165 42.0192 49.4497C46.4593 46.4829 49.92 42.2661 51.9635 37.3325C54.0071 32.3989 54.5418 26.9701 53.5 21.7326C52.4582 16.4951 49.8867 11.6842 46.1107 7.90814C42.3346 4.13212 37.5237 1.56061 32.2862 0.518813C27.0487 -0.522988 21.6199 0.0116881 16.6863 2.05525C11.7527 4.09882 7.53593 7.55948 4.56913 11.9996C1.60233 16.4397 0.0187988 21.6599 0.0187988 27C0.0332358 34.1564 2.8825 41.0156 7.94286 46.0759C13.0032 51.1363 19.8624 53.9856 27.0188 54Z" fill="#F97316"/>
<path fill-rule="evenodd" clip-rule="evenodd" d="M17.5994 24.1988C18.3113 24.1988 19.0072 23.9877 19.5991 23.5922C20.191 23.1967 20.6524 22.6345 20.9248 21.9768C21.1972 21.3191 21.2685 20.5954 21.1296 19.8972C20.9907 19.199 20.6479 18.5576 20.1445 18.0542C19.6412 17.5509 18.9998 17.208 18.3016 17.0692C17.6034 16.9303 16.8797 17.0016 16.222 17.274C15.5643 17.5464 15.0021 18.0078 14.6066 18.5997C14.2111 19.1916 14 19.8875 14 20.5994C14.003 21.5531 14.3831 22.4669 15.0575 23.1413C15.7319 23.8157 16.6457 24.1958 17.5994 24.1988Z" fill="white"/>
<path fill-rule="evenodd" clip-rule="evenodd" d="M35.8147 24.1988C36.5264 24.1977 37.2217 23.9856 37.8129 23.5894C38.4041 23.1933 38.8645 22.6307 39.1361 21.9729C39.4077 21.3151 39.4782 20.5916 39.3387 19.8938C39.1991 19.1959 38.8559 18.5551 38.3523 18.0523C37.8487 17.5494 37.2073 17.2072 36.5093 17.0688C35.8112 16.9303 35.0878 17.0019 34.4304 17.2745C33.773 17.5471 33.2112 18.0085 32.8159 18.6003C32.4207 19.192 32.2097 19.8877 32.2097 20.5994C32.2112 21.5545 32.5917 22.47 33.2676 23.1449C33.9435 23.8197 34.8596 24.1988 35.8147 24.1988Z" fill="white"/>
<path fill-rule="evenodd" clip-rule="evenodd" d="M14.0896 31.0334H39.3245C35.0142 48.0508 19.0549 48.3475 14.0896 31.0334Z" fill="white"/>
</svg>
