<svg width="67" height="67" viewBox="0 0 67 67" fill="none" xmlns="http://www.w3.org/2000/svg">
<path d="M60.3542 40.1458C64.0246 25.3146 54.977 10.3161 40.1458 6.64575C25.3146 2.97541 10.3161 12.0231 6.64575 26.8543C2.9754 41.6854 12.0231 56.6839 26.8542 60.3543C41.6854 64.0246 56.6839 54.977 60.3542 40.1458Z" fill="#F97316"/>
<path fill-rule="evenodd" clip-rule="evenodd" d="M24.3998 30.1989C25.1117 30.1989 25.8076 29.9878 26.3995 29.5923C26.9914 29.1968 27.4528 28.6346 27.7252 27.9769C27.9976 27.3192 28.0689 26.5955 27.93 25.8973C27.7911 25.1991 27.4483 24.5577 26.945 24.0544C26.4416 23.551 25.8002 23.2082 25.102 23.0693C24.4038 22.9304 23.6801 23.0017 23.0224 23.2741C22.3647 23.5465 21.8025 24.0079 21.407 24.5998C21.0115 25.1917 20.8004 25.8876 20.8004 26.5995C20.8034 27.5532 21.1835 28.467 21.8579 29.1414C22.5323 29.8158 23.4461 30.196 24.3998 30.1989Z" fill="white"/>
<path fill-rule="evenodd" clip-rule="evenodd" d="M42.615 30.1989C43.3267 30.1978 44.022 29.9857 44.6132 29.5896C45.2044 29.1934 45.6648 28.6309 45.9364 27.9731C46.208 27.3153 46.2785 26.5917 46.1389 25.8939C45.9994 25.196 45.6562 24.5552 45.1526 24.0524C44.649 23.5496 44.0076 23.2073 43.3095 23.0689C42.6115 22.9304 41.8881 23.0021 41.2307 23.2746C40.5733 23.5472 40.0115 24.0086 39.6162 24.6004C39.221 25.1922 39.01 25.8878 39.01 26.5995C39.0115 27.5546 39.392 28.4701 40.0679 29.145C40.7438 29.8199 41.6599 30.1989 42.615 30.1989Z" fill="white"/>
<path fill-rule="evenodd" clip-rule="evenodd" d="M20.8898 37.0336H46.1247C41.8144 54.0509 25.855 54.3476 20.8898 37.0336Z" fill="white"/>
</svg>
