<svg width="55" height="54" viewBox="0 0 55 54" fill="none" xmlns="http://www.w3.org/2000/svg">
<path fill-rule="evenodd" clip-rule="evenodd" d="M27.0188 54C32.3589 54 37.5791 52.4165 42.0192 49.4497C46.4593 46.4829 49.92 42.2661 51.9635 37.3325C54.0071 32.3989 54.5418 26.9701 53.5 21.7326C52.4582 16.4951 49.8867 11.6842 46.1107 7.90814C42.3346 4.13212 37.5237 1.56061 32.2862 0.518813C27.0487 -0.522988 21.6199 0.0116881 16.6863 2.05525C11.7527 4.09882 7.53593 7.55948 4.56913 11.9996C1.60233 16.4397 0.0187988 21.6599 0.0187988 27C0.0332358 34.1564 2.8825 41.0156 7.94286 46.0759C13.0032 51.1363 19.8624 53.9856 27.0188 54Z" fill="#EA580C"/>
<path fill-rule="evenodd" clip-rule="evenodd" d="M16.1899 15H38.6098V15.0474C40.5846 15.2114 42.4265 15.8098 43.589 16.8828C46.8377 19.8812 45.8963 26.7541 44.0842 28.8546C40.6192 32.9261 28.5343 26.2432 29.2797 19.9084H24.4578C25.2003 26.2431 13.1238 32.9259 9.64885 28.8544C7.83675 26.7539 6.9062 19.881 10.1495 16.8826C11.5165 15.6188 13.8282 15.0133 16.1899 15.0007V15ZM29.8541 18.1289C29.8294 18.1742 29.8055 18.2196 29.7823 18.265H23.9561C23.933 18.2195 23.9091 18.1741 23.8844 18.1288C23.5732 17.559 23.0901 17.0627 22.4849 16.6434H31.2534C30.6484 17.0627 30.1653 17.5591 29.8541 18.1289ZM41.9187 32.7856C42.3496 31.8898 41.9726 30.8142 41.0767 30.3833C40.1808 29.9525 39.1053 30.3294 38.6744 31.2253C35.6579 37.4974 28.0193 40.6661 20.8809 37.6954C19.9631 37.3135 18.9095 37.7479 18.5275 38.6657C18.1456 39.5835 18.58 40.6372 19.4978 41.0191C28.3907 44.72 38.0678 40.7927 41.9187 32.7856Z" fill="white"/>
</svg>
