<svg width="55" height="55" viewBox="0 0 55 55" fill="none" xmlns="http://www.w3.org/2000/svg">
<path fill-rule="evenodd" clip-rule="evenodd" d="M27.8743 54.0708C33.1947 54.0719 38.396 52.4951 42.8203 49.5399C47.2446 46.5846 50.6931 42.3837 52.7296 37.4684C54.7662 32.5532 55.2993 27.1443 54.2616 21.926C53.2239 16.7077 50.662 11.9144 46.8998 8.1522C43.1377 4.39005 38.3443 1.82811 33.126 0.790398C27.9077 -0.247313 22.4989 0.285823 17.5836 2.32238C12.6683 4.35894 8.46738 7.80744 5.51215 12.2317C2.55692 16.656 0.980125 21.8573 0.981202 27.1778C0.994148 34.3063 3.83168 41.1391 8.8723 46.1797C13.9129 51.2203 20.7458 54.0579 27.8743 54.0708Z" fill="#EA580C"/>
<path fill-rule="evenodd" clip-rule="evenodd" d="M17.3771 13.1109H39.7971V13.1583C41.7718 13.3223 43.6137 13.9207 44.7763 14.9937C48.025 17.9921 47.0836 24.865 45.2715 26.9655C41.8065 31.037 29.7216 24.3541 30.4669 18.0193H25.645C26.3876 24.354 14.311 31.0368 10.8361 26.9653C9.024 24.8648 8.09346 17.9919 11.3367 14.9935C12.7038 13.7297 15.0154 13.1242 17.3771 13.1116V13.1109ZM31.0413 16.2398C31.0166 16.2851 30.9927 16.3305 30.9696 16.3759H25.1434C25.1203 16.3304 25.0964 16.285 25.0717 16.2397C24.7605 15.6699 24.2773 15.1736 23.6721 14.7543H32.4407C31.8356 15.1736 31.3525 15.67 31.0413 16.2398ZM43.106 30.8965C43.5368 30.0007 43.1599 28.9251 42.264 28.4942C41.3681 28.0634 40.2926 28.4403 39.8617 29.3362C36.8452 35.6083 29.2066 38.777 22.0682 35.8063C21.1504 35.4244 20.0967 35.8588 19.7148 36.7766C19.3328 37.6944 19.7672 38.7481 20.685 39.13C29.578 42.8309 39.255 38.9036 43.106 30.8965Z" fill="white"/>
</svg>
