<svg width="363" height="242" viewBox="0 0 363 242" fill="none" xmlns="http://www.w3.org/2000/svg">
<path d="M168.986 44H65.0136C60.5878 44 57 47.6177 57 52.0804V156.92C57 161.382 60.5878 165 65.0136 165H168.986C173.412 165 177 161.382 177 156.92V52.0804C177 47.6177 173.412 44 168.986 44Z" fill="#111827"/>
<path d="M117 185C126.389 185 134 177.389 134 168C134 158.611 126.389 151 117 151C107.611 151 100 158.611 100 168C100 177.389 107.611 185 117 185Z" fill="#FF7634"/>
<path d="M48.5 126C57.6127 126 65 118.837 65 110C65 101.163 57.6127 94 48.5 94C39.3873 94 32 101.163 32 110C32 118.837 39.3873 126 48.5 126Z" fill="#FF7634"/>
<path d="M181.5 101C190.613 101 198 93.6127 198 84.5C198 75.3873 190.613 68 181.5 68C172.387 68 165 75.3873 165 84.5C165 93.6127 172.387 101 181.5 101Z" fill="#FF7634"/>
<path d="M121.923 26.8068C121.923 26.8068 111.97 25.2087 109.297 42.9484C106.327 62.6706 98.3967 59.426 85.8027 75.4399C78.4421 84.7977 86.1879 101.323 101.928 100.995C117.669 100.676 131.884 96.081 140.939 98.0465C149.993 100.012 150.491 76.599 141.557 69.3749C132.623 62.1511 151.67 41.4062 140.064 32.1689C128.457 22.9311 121.923 26.8068 121.923 26.8068Z" fill="#7C4F2C"/>
<path d="M61.748 105.158C60.8343 103.239 60.8899 101.011 61.2196 98.9307C62.6477 90.0032 68.7712 82.5431 75.7895 77.0764C82.8313 71.5956 90.8907 67.6827 98.2993 62.771C100.222 61.4919 102.149 60.1143 104.357 59.4228C106.564 58.7317 109.13 58.8063 110.953 60.2605C112.24 61.281 112.984 62.8592 113.417 64.4374C114.365 67.8935 114.001 71.5527 113.423 75.0583C112.7 79.4799 111.638 83.8557 109.894 87.9197C108.496 91.198 106.22 94.5714 102.801 95.2134C101.811 99.1313 99.7741 102.803 96.9163 105.612C93.6482 108.833 89.5042 110.94 85.2038 112.411C81.2415 113.769 76.9077 114.656 72.9221 113.388C70.5564 112.65 68.4729 111.229 66.4354 109.779C64.6175 108.545 62.7307 107.193 61.748 105.158ZM97.5584 99.205L99.8975 95.4107C99.3988 95.463 98.9281 95.5623 98.4528 95.7595C97.1686 96.3275 96.3951 98.3941 97.5584 99.205Z" fill="#7C4F2C"/>
<path d="M142.129 41.7496C142.253 42.4146 142.275 43.1115 142.23 43.9068C141.957 48.5461 140.949 53.1413 139.241 57.4605C138.196 60.0316 136.918 62.566 135.109 64.695C134.358 65.5788 133.508 66.3953 132.398 66.7105C131.253 67.0248 129.812 67.0693 128.677 66.7872C127.676 70.8848 128.094 78.619 131.668 81.5249C132.76 82.4038 134.058 82.9537 135.357 83.4375C137.889 84.4042 140.525 85.1407 143.163 85.711C146.169 86.3532 149.445 86.8337 151.556 89.021C151.82 89.2905 152.082 89.6591 151.976 90.0225C151.905 90.2535 151.735 90.4168 151.532 90.5462C149.87 91.8812 147.815 92.6132 145.76 93.3117C142.157 94.5181 138.456 95.5236 134.693 96.1968C130.761 96.9006 126.702 97.2374 122.722 96.8128C119.644 96.4678 116.607 95.6926 113.814 94.3241C110.887 92.8871 107.89 91.7142 104.862 90.3421C102.3 89.1758 99.7739 87.8445 97 87.3717C98.3111 84.9039 101.046 83.5187 103.77 82.8631C106.494 82.2409 109.343 82.1842 112.098 81.6616C113.006 81.4763 113.914 81.2579 114.693 80.7059C116.827 79.1791 116.243 75.7874 116.276 73.5657L116.385 66.5358C116.067 63.1812 114.67 60.3745 113.444 57.3045C111.572 52.5999 111.186 47.2544 112.834 42.4367C114.482 37.6521 118.232 33.4965 123.049 31.8113C127.866 30.1257 133.648 31.0752 137.347 34.58C139.691 36.8376 141.604 38.8564 142.129 41.7496Z" fill="#F8AE9D"/>
<path d="M126.739 27.0751C131.709 26.5449 136.238 28.8718 139.595 32.4786C142.42 35.5018 144.081 39.493 143.997 43.5027C143.985 44.0757 143.918 44.6994 143.58 45.2141C142.682 46.4471 140.73 45.9932 139.27 45.4443C136.891 44.5655 135.119 43.2811 132.962 42.1983C130.805 41.115 128.186 41.2734 126.255 39.7779C124.433 38.3363 118.175 35.2993 118.006 32.9516C117.793 30.0823 123.292 27.7387 125.59 27.262C125.92 27.1641 126.302 27.1192 126.739 27.0751Z" fill="#7C4F2C"/>
<path d="M113.243 33.9497C109.151 36.5147 107.23 41.0068 107.017 45.7805C106.831 49.7887 108.146 53.8429 110.79 56.8688C111.168 57.301 111.621 57.7388 112.207 57.9319C113.678 58.3411 114.859 56.8256 115.608 55.5318C116.838 53.4354 117.348 51.3911 118.279 49.2708C119.21 47.1502 121.289 45.7061 121.783 43.4045C122.231 41.2092 125 35.1385 123.616 33.2368C121.93 30.9089 116.272 32.3982 114.23 33.4064C113.919 33.528 113.601 33.7219 113.243 33.9497Z" fill="#7C4F2C"/>
<path d="M149.055 87.8594C149.685 87.5743 150.438 87.7824 150.857 88.3453C155.56 94.9031 157.376 103.12 158.967 111.039C160.77 120.043 162.376 129.076 163.916 138.108C164.008 138.568 164.066 139.061 163.862 139.483C163.658 139.906 163.194 140.128 162.764 140.319C160.046 141.621 157.296 142.889 154.578 144.191C151.653 137.563 149.522 130.552 148.282 123.425C146.538 127.821 143.387 131.639 139.368 134.134C142.362 138.405 145.757 146.271 149.352 150.027C149.825 151.378 149.104 150.275 147.865 150.275C145.82 150.571 145.896 150.083 144.146 150.027C141.617 149.727 140.772 149.912 138.235 150.169C134.017 150.629 129.917 151.943 126.169 153.917C124.306 154.905 122.519 156.027 120.821 157.276C119.357 158.368 115.732 160.934 115.732 160.934C115.465 161.126 114.22 160.845 113.925 160.775C113.065 160.63 112.2 160.518 111.331 160.441C109.162 160.277 106.962 159.982 104.83 159.589C100.532 158.804 96.3061 157.593 92.252 155.927C91.8617 155.626 93.2543 152.764 93.3284 152.209C93.2547 152.732 85.2702 152.086 84.4825 151.944C81.334 151.306 78.1481 150.963 75 150.293C76.4097 137.669 80.2807 125.476 84.084 113.379C85.5714 108.619 87.0916 103.859 89.1999 99.3702C91.4441 94.5886 94.3416 90.1115 97.8239 86.1348C97.9243 86.038 98.0895 85.9747 98.2207 86.0098C99.892 86.4279 110.084 89.0393 115.155 90.9176C117.739 91.9067 120.357 92.7983 123.009 93.6898C124.056 94.0334 125.137 94.3773 126.222 94.3612C126.946 94.339 127.673 94.1866 128.366 94.033C135.43 92.4692 142.496 90.7744 149.055 87.8594Z" fill="#858484"/>
<path d="M102.939 113.359C102.645 115.133 102.252 116.937 101.859 118.709C100.903 122.73 99.6758 126.686 98.1864 130.55C97.426 132.479 96.6324 134.374 95.7391 136.268C95.2927 137.199 94.8467 138.13 94.3671 139.06C94.1276 139.509 93.8876 139.99 93.648 140.439C93.4428 140.824 93.2048 141.176 93 141.529C94.4289 141.486 101.481 141.881 102.94 142M145.949 113C146.877 116.907 147.547 120.853 148 124.879" stroke="white" stroke-width="1.376" stroke-miterlimit="10" stroke-linecap="round"/>
<path d="M285.92 215H181.08C176.618 215 173 211.382 173 206.92V102.08C173 97.6177 176.618 94 181.08 94H285.92C290.382 94 294 97.6177 294 102.08V206.92C294 211.382 290.382 215 285.92 215Z" fill="#111827"/>
<path d="M234 75C243.389 75 251 82.3873 251 91.5C251 100.613 243.389 108 234 108C224.611 108 217 100.613 217 91.5C217 82.3873 224.611 75 234 75Z" fill="#FF7634"/>
<path d="M165.5 132C174.613 132 182 139.387 182 148.5C182 157.613 174.613 165 165.5 165C156.387 165 149 157.613 149 148.5C149 139.387 156.387 132 165.5 132Z" fill="#FF7634"/>
<path d="M298.5 158C307.613 158 315 165.611 315 175C315 184.389 307.613 192 298.5 192C289.387 192 282 184.389 282 175C282 165.611 289.387 158 298.5 158Z" fill="#FF7634"/>
<path d="M244.822 78.7153C245.348 80.6987 244.65 82.7611 243.498 84.4935C242.684 85.7175 241.547 84.3661 239.888 84.1493C237.322 83.8105 235.697 81.2502 235.142 75.0124C234.885 70.4561 235.006 68.1832 235.275 67.7855C236.233 66.3618 238.699 65.8852 240.643 66.0226" fill="#7C4F2C"/>
<path fill-rule="evenodd" clip-rule="evenodd" d="M184.152 99.609C184.152 99.609 185.787 90.5139 185.199 88.6723C184.697 87.0808 179.951 84.7854 179.951 84.7854C179.951 84.7854 171.695 71.7694 169.889 73.0948C168.419 74.1691 174.188 83.7652 174.188 83.7652C174.188 83.7652 168.927 89.2737 169.001 91.7361C169.074 94.1988 177.587 101.907 177.587 101.907L184.152 99.609ZM269 101.746C269 101.746 263.563 100.472 263.374 91.5803C263.186 82.6884 263.318 79.6535 263.318 79.6535L250.429 79.4375C250.429 79.4375 250.298 89.3472 250.296 92.9317C250.291 100.735 244.485 102.843 244.485 102.843C244.485 102.843 244.967 111.376 255.819 111.985C264.292 112.461 269 101.746 269 101.746Z" fill="#F8AE9D"/>
<path fill-rule="evenodd" clip-rule="evenodd" d="M264.404 75.5538C269.774 75.3489 268.898 83.0976 263.32 83.0872C263.32 83.0872 257.325 94.9693 247.913 95C243.379 95.0147 241.899 91.034 240.54 88.2397C239.181 85.445 238.184 81.2654 238.101 78.7059C238.011 75.977 238 67.012 238 67.012L264.613 67L264.404 75.5538Z" fill="#F8AE9D"/>
<path fill-rule="evenodd" clip-rule="evenodd" d="M243.917 102.831C243.917 102.831 230.116 107.164 226.79 112.342C216.077 121.81 202.678 134.813 202.678 134.813C202.678 134.813 189.916 102.592 185.744 98.9179C182.889 96.4046 177.202 99.5124 176.142 102.707C174.781 106.809 183.522 130.873 187.65 142.238L187.65 142.239C188.45 144.441 189.076 146.165 189.423 147.176C191.94 154.523 198.064 158.737 205.517 154.067C208.522 152.185 217.463 146.017 225.09 140.426C225.21 146.3 225.411 152.49 225.601 158.368V158.369C226.065 172.651 226.469 185.096 225.498 186.713C220.687 194.729 227.084 200.232 248.262 202.253C269.44 204.275 288.228 202.62 284.819 191.923C284.108 189.693 284.117 184.895 284.472 178.663C286.546 178.551 288.62 178.414 290.691 178.25C299.53 177.549 306.066 173.729 306.978 163.807C307.616 156.858 294.458 124.238 289.523 113.512C288.369 111.003 286.585 109.44 284.563 108.661C284.092 108.133 283.562 107.761 282.966 107.564C279.342 106.362 266.347 100.87 266.347 100.87L250.888 111.045L243.917 102.831ZM285.903 160.251L285.938 160.341L285.895 160.347L285.903 160.251Z" fill="#6E6C6C"/>
<path fill-rule="evenodd" clip-rule="evenodd" d="M252.054 167.865C252.054 167.865 247.196 166.951 245.208 165.492C243.22 164.032 237.2 163 237.2 163L239.126 166.794C239.126 166.794 224.37 165.499 224.02 166.86C223.671 168.222 227.939 169.702 227.939 169.702C227.939 169.702 230.043 173.379 232.081 175.51C234.009 177.527 243.586 177.287 246.944 176.028C249.845 174.941 253 175.485 253 175.485L252.054 167.865Z" fill="#F8AE9D"/>
<path d="M262.879 67.0078C262.056 68.0612 260.605 68.293 259.41 68.5015C257.804 68.7809 257.009 69.3642 256.175 70.9288C255.647 71.9287 255.119 73.0232 254.174 73.5646C253.404 74.0078 253.427 72.8868 253.314 72.0204C253.303 71.9394 253.287 71.8593 253.265 71.7803C253.081 71.0876 252.33 71.2037 252.112 71.8869C251.912 72.5058 251.483 73.0294 250.939 73.3209C250.85 73.3685 250.755 73.41 250.661 73.3922C250.533 73.3743 250.433 73.2554 250.35 73.1484C250.176 72.9258 250.004 72.643 249.826 72.3441C249.238 71.3554 248.116 71.7024 247.459 72.6484C247.048 73.2375 246.559 73.8445 245.886 73.9813C245.669 74.0289 245.397 73.9933 245.297 73.7848C245.169 73.529 245.369 73.2732 245.336 73.0116C245.308 72.7674 245.202 72.6605 245.085 72.4519C244.63 71.6489 243.575 71.6195 242.932 72.289C242.485 72.7544 242.018 73.2018 241.534 73.6301C241.328 73.8088 241.028 73.9871 240.822 73.8088C240.711 73.7135 240.683 73.553 240.661 73.398C240.544 72.6426 240.433 71.8869 240.316 71.1311C240.249 70.7087 240.022 70.1556 239.632 70.2626C239.443 70.3161 239.332 70.5126 239.227 70.6908C239.099 70.9172 236.814 73.4933 236.77 73.2972C236.414 71.8334 235.686 70.5005 235.33 69.0367C233.029 59.6181 243.24 52.0439 251.039 52.0021C252.773 51.9901 254.357 52.0182 256.042 52.4171C257.837 52.8453 259.733 53.5252 261.361 54.4833C263.646 55.8219 265.375 58.2554 264.93 61.1591" fill="#7C4F2C"/>
<path d="M257.401 63.6975C256.398 64.9454 256.133 66.7005 256.04 68.359C255.902 70.8598 256.089 73.4579 257.141 75.6778C257.44 76.31 257.662 79.4375 258.124 79.2647C258.271 79.2104 258.247 76.7852 258.635 75.478C259.235 73.4524 261.997 72.6802 263.241 73.9605C265.227 75.9966 264.062 78.4706 263.403 80.01C263.01 80.9391 262.386 81.9813 262.278 82.9647C262.145 84.2231 262.106 88.8089 262.853 89.8785C263.477 90.7752 264.141 86.443 264.706 85.5896C269.968 81.7643 272.901 63.0438 265.758 59.5331C264.672 58.9981 261.319 58.7226 260.302 59.4031" fill="#7C4F2C"/>
<path d="M302.646 49.6333L310.453 54.3956L311 56.4366L309.985 58.903C308.501 59.4417 305.253 60.5017 304.129 60.4339C303.005 60.3657 301.526 61.5395 300.928 62.1349C300.72 63.4386 300.287 66.1999 300.225 66.8119C300.163 67.4244 299.054 70.5258 298.507 72H294.682L293.276 68.5981L286.483 50.9941L285 44.7005L286.015 43L291.012 45.3811L302.646 49.6333Z" fill="#FF7634"/>
<path fill-rule="evenodd" clip-rule="evenodd" d="M287.505 42.3165C284.235 40.9539 280.954 44.2348 282.316 47.5053L291.718 70.0682C293.556 74.481 300.023 73.7351 300.809 69.02L301.982 61.9825L309.02 60.8094C313.735 60.0238 314.481 53.5565 310.068 51.7179L287.505 42.3165ZM285.247 46.2844C284.974 45.6302 285.63 44.9739 286.284 45.2466L308.847 54.648C310.318 55.2606 310.07 57.4164 308.498 57.6786L301.46 58.8514C300.808 58.9601 300.206 59.27 299.738 59.7378C299.27 60.2056 298.96 60.8079 298.851 61.4604L297.678 68.4979C297.416 70.0698 295.261 70.3185 294.648 68.8474L285.247 46.2844Z" fill="#FF7634"/>
<path fill-rule="evenodd" clip-rule="evenodd" d="M57.0255 201.614H59.3753C59.6473 201.614 59.9081 201.722 60.1004 201.916C60.2928 202.11 60.401 202.372 60.4012 202.646V205.013C60.401 205.287 60.2928 205.55 60.1005 205.744C59.9081 205.938 59.6473 206.046 59.3753 206.047H57.0255C56.7538 206.046 56.4936 205.936 56.3016 205.743C56.1095 205.549 56.0011 205.287 56 205.013V202.646C55.9952 202.079 56.4572 201.614 57.0255 201.614ZM65.1724 201.614H67.5221C67.7938 201.615 68.0541 201.724 68.2462 201.917C68.4384 202.111 68.5469 202.373 68.548 202.646V205.013C68.5478 205.287 68.4397 205.55 68.2473 205.744C68.055 205.938 67.7942 206.046 67.5221 206.047H65.1724C64.9007 206.046 64.6405 205.936 64.4484 205.743C64.2563 205.549 64.148 205.287 64.1469 205.013V202.646C64.1479 202.373 64.2562 202.111 64.4483 201.917C64.6404 201.724 64.9007 201.614 65.1724 201.614ZM73.3249 201.614H75.6747C75.9464 201.615 76.2066 201.724 76.3988 201.917C76.5909 202.111 76.6994 202.373 76.7006 202.646V205.013C76.7004 205.287 76.5922 205.55 76.3999 205.744C76.2075 205.938 75.9467 206.046 75.6747 206.047H73.3249C73.0532 206.046 72.793 205.936 72.601 205.743C72.4089 205.549 72.3005 205.287 72.2994 205.013V202.646C72.2946 202.079 72.757 201.614 73.3249 201.614ZM81.4718 201.614H83.8216C84.0932 201.615 84.3535 201.724 84.5456 201.917C84.7378 202.111 84.8463 202.373 84.8474 202.646V205.013C84.8472 205.287 84.7391 205.55 84.5467 205.744C84.3544 205.938 84.0936 206.046 83.8216 206.047H81.4718C81.1993 206.047 80.938 205.938 80.7449 205.744C80.5518 205.551 80.4427 205.288 80.4414 205.013V202.646C80.4443 202.373 80.5539 202.111 80.7467 201.918C80.9394 201.724 81.1999 201.615 81.4718 201.614ZM89.6199 201.614H91.9696C92.2421 201.614 92.5034 201.722 92.6965 201.916C92.8896 202.109 92.9987 202.372 93 202.646V205.013C92.9997 205.149 92.9729 205.284 92.9209 205.41C92.869 205.535 92.793 205.649 92.6973 205.745C92.6017 205.841 92.4881 205.917 92.3633 205.969C92.2384 206.021 92.1047 206.047 91.9696 206.047H89.6199C89.3481 206.046 89.0878 205.936 88.8956 205.743C88.7035 205.549 88.595 205.287 88.594 205.013V202.646C88.5951 202.373 88.7036 202.111 88.8958 201.917C89.0879 201.724 89.3482 201.615 89.6199 201.614ZM65.4716 210.562H67.8214C68.093 210.563 68.3533 210.672 68.5454 210.866C68.7375 211.059 68.8459 211.322 68.8468 211.595V213.967C68.8459 214.241 68.7375 214.503 68.5454 214.696C68.3533 214.89 68.093 214.999 67.8214 215H65.4716C65.1996 215 64.9388 214.891 64.7464 214.697C64.5541 214.504 64.4459 214.241 64.4457 213.967V211.6C64.4449 211.464 64.4708 211.329 64.5221 211.203C64.5733 211.077 64.6487 210.963 64.7441 210.866C64.8395 210.77 64.9529 210.693 65.0777 210.641C65.2026 210.589 65.3364 210.562 65.4716 210.562ZM73.6184 210.562H75.9682C76.2399 210.563 76.5002 210.672 76.6923 210.866C76.8844 211.059 76.9927 211.322 76.9937 211.595V213.967C76.9927 214.241 76.8844 214.503 76.6923 214.696C76.5002 214.89 76.2399 214.999 75.9682 215H73.6184C73.3468 214.999 73.0865 214.89 72.8944 214.696C72.7022 214.503 72.5937 214.241 72.5926 213.967V211.6C72.5918 211.464 72.6178 211.329 72.669 211.203C72.7203 211.077 72.7957 210.963 72.8911 210.866C72.9864 210.77 73.0998 210.693 73.2246 210.641C73.3495 210.589 73.4833 210.562 73.6184 210.562ZM81.7661 210.562H84.1159C84.3883 210.562 84.6497 210.671 84.8429 210.864C85.036 211.058 85.1451 211.321 85.1463 211.595V213.967C85.1451 214.241 85.036 214.504 84.8429 214.698C84.6497 214.891 84.3883 215 84.1159 215H81.7661C81.4944 214.999 81.2342 214.89 81.042 214.696C80.8499 214.503 80.7414 214.241 80.7402 213.967V211.6C80.7403 211.326 80.8483 211.062 81.0405 210.868C81.2328 210.674 81.4937 210.564 81.7661 210.562ZM73.3249 192H75.6747C75.9464 192.001 76.2066 192.11 76.3988 192.304C76.5909 192.497 76.6994 192.759 76.7006 193.033V195.4C76.7004 195.674 76.5922 195.937 76.3999 196.13C76.2075 196.324 75.9467 196.433 75.6747 196.433H73.3249C73.0532 196.432 72.793 196.323 72.601 196.129C72.4089 195.936 72.3005 195.673 72.2994 195.4V193.033C72.2946 192.465 72.757 192 73.3249 192ZM65.1805 192H67.5307C67.8024 192.001 68.0626 192.11 68.2548 192.304C68.4469 192.497 68.5552 192.759 68.5562 193.033V195.4C68.556 195.674 68.4479 195.936 68.2556 196.13C68.0634 196.324 67.8026 196.433 67.5307 196.433H65.1805C64.9088 196.432 64.6486 196.323 64.4566 196.129C64.2645 195.936 64.1561 195.673 64.155 195.4V193.033C64.1501 192.465 64.6126 192 65.1805 192ZM81.4718 192H83.8216C84.0932 192.001 84.3535 192.11 84.5456 192.304C84.7378 192.497 84.8463 192.759 84.8474 193.033V195.4C84.8472 195.674 84.7391 195.937 84.5467 196.13C84.3544 196.324 84.0936 196.433 83.8216 196.433H81.4718C81.1993 196.433 80.938 196.324 80.7449 196.131C80.5518 195.937 80.4427 195.674 80.4414 195.4V193.033C80.4443 192.759 80.5539 192.497 80.7467 192.304C80.9394 192.111 81.1999 192.002 81.4718 192Z" fill="#111827"/>
<path d="M44 65C41.7909 65 40 62.9853 40 60.5C40 58.0147 41.7909 56 44 56C46.2091 56 48 58.0147 48 60.5C48 62.9853 46.2091 65 44 65Z" fill="#FF7634"/>
<path d="M319.5 108C317.567 108 316 106.433 316 104.5C316 102.567 317.567 101 319.5 101C321.433 101 323 102.567 323 104.5C323 106.433 321.433 108 319.5 108Z" fill="#FF7634"/>
<path d="M145.5 188C142.462 188 140 185.538 140 182.5C140 179.462 142.462 177 145.5 177C148.538 177 151 179.462 151 182.5C151 185.538 148.538 188 145.5 188Z" fill="#111827"/>
<path d="M123 218C120.791 218 119 216.433 119 214.5C119 212.567 120.791 211 123 211C125.209 211 127 212.567 127 214.5C127 216.433 125.209 218 123 218Z" fill="#111827"/>
<path d="M89.5 36C86.4624 36 84 33.7614 84 31C84 28.2386 86.4624 26 89.5 26C92.5376 26 95 28.2386 95 31C95 33.7614 92.5376 36 89.5 36Z" fill="#111827"/>
<path d="M227 44C223.686 44 221 41.3137 221 38C221 34.6863 223.686 32 227 32C230.314 32 233 34.6863 233 38C233 41.3137 230.314 44 227 44Z" fill="#111827"/>
<path d="M43.6215 166.958C44.395 169.845 42.6818 172.812 39.7949 173.586C36.9081 174.36 33.9407 172.646 33.1672 169.759C32.3937 166.873 34.1069 163.905 36.9937 163.132C39.8806 162.358 42.8479 164.071 43.6215 166.958Z" fill="#111827"/>
<path d="M311.5 134C308.462 134 306 132.209 306 130C306 127.791 308.462 126 311.5 126C314.538 126 317 127.791 317 130C317 132.209 314.538 134 311.5 134Z" fill="#111827"/>
<path d="M272.19 35.0176C272.994 38.0201 271.212 41.1062 268.21 41.9106C265.208 42.7151 262.122 40.9334 261.317 37.931C260.513 34.9286 262.294 31.8425 265.297 31.038C268.299 30.2335 271.385 32.0152 272.19 35.0176Z" fill="#111827"/>
<path d="M322.917 146.516H323.019C323.624 154.968 330 155.098 330 155.098C330 155.098 322.969 155.234 322.969 165C322.969 155.234 315.938 155.098 315.938 155.098C315.938 155.098 322.312 154.968 322.917 146.516ZM206.799 55H206.928C207.691 65.9588 215.731 66.1276 215.731 66.1276C215.731 66.1276 206.865 66.3027 206.865 78.9655C206.865 66.3027 198 66.1276 198 66.1276C198 66.1276 206.036 65.9588 206.799 55Z" fill="#111827"/>
</svg>
