<svg width="352" height="235" viewBox="0 0 352 235" fill="none" xmlns="http://www.w3.org/2000/svg">
<path d="M181.5 180C224.854 180 260 144.854 260 101.5C260 58.1456 224.854 23 181.5 23C138.146 23 103 58.1456 103 101.5C103 144.854 138.146 180 181.5 180Z" fill="black"/>
<path d="M235.132 187.193C238.926 185.815 242.213 182.878 244.132 179.113C244.675 178.074 245.118 176.881 244.972 175.7C244.935 175.459 244.878 175.175 244.677 175.062C244.496 174.95 244.251 175.012 244.048 175.074C237.712 176.913 231.014 180.011 224.364 179.684C224.06 179.679 223.756 179.653 223.49 179.779C223.164 179.926 222.956 180.25 222.81 180.597C222.307 181.724 221.871 183.856 222.035 185.124C222.237 186.633 223.593 186.852 224.786 187.177C228.181 188.105 231.747 188.425 235.132 187.193Z" fill="#F8AE9D"/>
<path d="M235.214 178.484C235.694 178.248 236.192 178.013 236.707 178C237.222 177.987 237.79 178.308 237.954 178.886C238.063 179.287 237.962 179.706 237.824 180.081C237.449 181.049 236.791 181.835 236.095 182.531C233.43 185.143 230.017 186.723 226.525 186.971C224.98 187.077 223.361 186.915 222 186.072C222.68 185.108 222.545 183.733 222.618 182.515C222.837 178.952 225.449 180.305 227.546 180.298C230.178 180.234 232.797 179.637 235.214 178.484Z" fill="#F8AE9D"/>
<path d="M149.15 154.596L149.022 154.965C148.119 157.595 147.42 160.31 147.131 163.094C146.602 168.208 147.601 174.192 151.429 177.905C156.533 182.857 164.721 183.622 171.376 182.444C174.101 181.965 176.666 180.82 178.846 179.109C181.015 181.083 183.346 183.246 185.285 185.444C189.181 184.074 192.89 182.216 196.323 179.913C204.445 183.651 212.73 186.173 221.478 188C222.477 185.5 223.179 182.891 223.568 180.225C223.636 179.793 218.184 176.095 217.555 175.569C215.668 173.971 211.737 170.317 211.737 170.317C211.737 170.317 216.692 166.077 218.859 164.086C221.152 162.017 223.352 159.845 225.452 157.578C227.186 155.704 228.88 153.727 229.943 151.389C231.006 149.071 231.396 146.33 230.508 143.921C227.703 136.423 216.381 139.059 211.122 141.643C206.774 143.786 202.966 146.908 199.301 150.074C197.823 151.332 196.365 152.631 194.928 153.911C193.794 152.737 192.543 151.21 191.473 149.975C190.322 148.636 189.005 147.377 187.414 146.588C185.742 145.737 184.199 145.858 182.414 145.603C181.615 145.488 180.837 145.249 180.059 145.113C177.722 144.685 175.249 145.143 173.196 146.35C171.247 147.498 169.665 148.858 167.377 149.298C164.78 149.795 161.764 149.501 159.159 149.151C156.821 148.827 154.445 148.295 152.116 148.755C151.147 148.947 150.777 150.304 150.457 151.084C150.029 152.213 149.58 153.384 149.15 154.596Z" fill="#111827"/>
<path d="M185 122C185.452 124.961 185.779 127.95 186 131" stroke="white" stroke-width="1.376" stroke-miterlimit="10" stroke-linecap="round"/>
<path d="M163.095 195.449C163.35 193.924 164.069 192.364 164.743 190.999C167.526 185.409 172.5 181.47 177.857 178.76C178.409 178.484 178.962 178.209 179.535 178C179.492 178.065 179.448 178.13 179.405 178.216L179.405 178.238H179.383C179.447 178.195 179.49 178.152 179.554 178.109C181.719 180.13 184.028 182.35 186 184.586C184.697 185.679 182.806 186.567 181.867 187.294C179.648 188.984 177.511 190.785 175.209 192.364C172.118 194.521 168.825 196.085 165.144 196.769C163.726 197.031 162.984 197.303 163 196.168C163.024 195.994 163.049 195.754 163.095 195.449Z" fill="#F8AE9D"/>
<path d="M166.486 191.821C167.905 189.125 170.106 187.074 172.513 185.257C174.202 183.977 175.994 182.825 177.702 181.65C178.187 181.321 179.14 180.43 179.96 180C181.669 181.564 183.418 183.212 185 184.922C179.775 188.128 175.12 192.311 169.388 194.582C168.863 194.785 168.317 194.987 167.753 195C167.19 195.012 166.588 194.771 166.261 194.303C165.75 193.579 166.078 192.594 166.486 191.821Z" fill="#F8AE9D"/>
<path d="M265.939 184.481C265.58 184.32 265.354 183.965 265.385 183.612C265.4 183.424 265.477 183.246 265.606 183.099C265.735 182.953 265.911 182.846 266.108 182.793C266.22 182.763 266.338 182.753 266.455 182.741C267.151 182.669 267.85 182.609 268.535 182.46C268.682 182.427 268.835 182.421 268.985 182.444C269.135 182.467 269.278 182.518 269.405 182.594C269.761 182.801 269.919 183.105 269.875 183.479C269.829 183.854 269.588 184.112 269.199 184.246C269.126 184.271 269.049 184.289 268.972 184.298C268.172 184.406 267.374 184.525 266.566 184.58C266.345 184.595 266.136 184.571 265.939 184.481ZM269.162 187.077C269.012 187.358 268.757 187.547 268.438 187.62C267.654 187.797 266.862 187.961 266.052 187.99C265.312 188.016 264.819 187.384 265.061 186.755C265.2 186.395 265.505 186.192 265.913 186.153C266.439 186.103 266.949 185.997 267.468 185.92C267.633 185.895 267.787 185.842 267.944 185.796C268.135 185.739 268.341 185.735 268.535 185.786C268.728 185.837 268.901 185.939 269.03 186.079C269.29 186.358 269.341 186.746 269.162 187.077ZM271.452 185.195C271.584 184.95 271.797 184.793 272.081 184.716C272.51 184.599 272.945 184.503 273.384 184.426C273.585 184.394 273.779 184.336 273.962 184.255C274.095 184.195 274.24 184.159 274.389 184.152C274.537 184.145 274.686 184.165 274.825 184.212C274.965 184.26 275.092 184.333 275.199 184.427C275.306 184.521 275.391 184.634 275.448 184.759C275.68 185.27 275.402 185.831 274.812 186.032C274.73 186.061 274.646 186.084 274.56 186.099C273.909 186.204 273.264 186.337 272.62 186.476C272.221 186.561 271.867 186.477 271.589 186.19C271.318 185.909 271.269 185.532 271.452 185.195ZM272.579 187.677C273.008 187.884 273.177 188.199 273.183 188.589C273.188 188.974 272.996 189.272 272.623 189.46C272.486 189.528 272.34 189.579 272.188 189.612C271.657 189.728 271.129 189.848 270.599 189.965C270.261 190.038 269.937 190.004 269.658 189.801C269.35 189.576 269.219 189.278 269.29 188.925C269.365 188.554 269.617 188.304 270.015 188.193C270.324 188.111 270.635 188.038 270.949 187.974C271.187 187.924 271.409 187.863 271.617 187.728C271.926 187.526 272.272 187.541 272.579 187.677ZM278.89 188.69C278.785 188.887 278.626 189.042 278.406 189.135C278.284 189.189 278.156 189.233 278.025 189.264C277.581 189.365 277.141 189.476 276.701 189.587C276.035 189.755 275.425 189.366 275.389 188.764C275.366 188.386 275.599 188.047 276.006 187.876C276.308 187.749 276.63 187.675 276.951 187.606C277.123 187.569 277.283 187.519 277.436 187.435C277.852 187.208 278.32 187.263 278.673 187.564C279.007 187.85 279.096 188.307 278.89 188.69ZM260.111 183.802C260.228 183.606 260.386 183.466 260.595 183.379C260.736 183.318 260.887 183.278 261.043 183.263C261.458 183.227 261.876 183.179 262.293 183.162C263.05 183.133 263.565 183.744 263.326 184.388C263.201 184.725 262.924 184.924 262.544 184.993C262.421 185.015 262.292 185.014 262.167 185.029C261.83 185.064 261.49 185.078 261.153 185.127C260.754 185.186 260.422 185.051 260.19 184.748C259.954 184.447 259.95 184.123 260.111 183.802ZM271.883 180.093C272.28 180.278 272.489 180.609 272.459 180.976C272.425 181.371 272.198 181.634 271.799 181.778C271.709 181.812 271.613 181.832 271.516 181.838C271.147 181.855 270.777 181.865 270.408 181.867C270.201 181.867 270 181.806 269.833 181.694C269.491 181.467 269.338 181.097 269.437 180.732C269.54 180.363 269.86 180.079 270.271 180.043C270.676 180.008 271.087 180.008 271.495 180C271.643 179.997 271.784 180.038 271.883 180.093Z" fill="#6E6C6C"/>
<path d="M66.0434 95.0855C66.0434 95.0855 63.1481 83.5158 67.6183 78.2889C72.4196 72.6667 76.007 78.2146 72.2308 86.1325C69.6412 91.5685 66.0434 95.0855 66.0434 95.0855ZM64.1812 107.901C64.1812 107.901 54.1735 102.018 53.7001 95.0559C53.1868 87.5763 59.5246 88.7608 62.3478 97.0783C64.2748 102.782 64.1812 107.901 64.1812 107.901ZM64.197 115.504C64.197 115.504 75.0514 111.461 76.6984 104.691C78.4719 97.4104 72.0225 97.4687 67.84 105.163C64.9777 110.44 64.197 115.504 64.197 115.504ZM64.7333 121C64.7333 121 53.2535 120.038 50.0071 113.944C46.5152 107.387 52.7606 105.7 58.6848 112C62.7445 116.312 64.7333 121 64.7333 121Z" fill="#FF7634"/>
<path d="M67.3108 85.256C65.2444 92.2724 63.6777 99.4815 63.1753 106.836C62.6831 114.076 63.2535 121.338 64.5583 128.442C64.8978 130.305 65.2908 132.162 65.7178 134L66.3615 133.636C65.2381 128.743 64.3724 123.774 63.9631 118.741C63.3898 111.745 63.768 104.703 65.0058 97.8119C65.7571 93.6412 66.7906 89.537 67.981 85.492C68.1209 85.0163 67.4474 84.7892 67.3108 85.256Z" fill="#111827"/>
<path d="M33.8343 118.573C33.8343 118.573 28.1352 108.204 31.4665 102.131C35.0415 95.5985 40.0222 100.042 38.0377 108.523C36.6784 114.344 33.8343 118.573 33.8343 118.573ZM34.9661 131.278C34.9661 131.278 23.3441 128.057 21.2115 121.513C18.916 114.483 25.6739 114.091 30.5291 121.368C33.8488 126.359 34.9661 131.278 34.9661 131.278ZM36.7828 138.545C36.7828 138.545 46.9188 132.068 46.9991 125.198C47.0875 117.808 40.5099 119.415 38.0574 127.779C36.3815 133.515 36.7828 138.545 36.7828 138.545ZM38.6322 143.673C38.6322 143.673 26.6714 145.513 21.9106 140.465C16.7887 135.034 22.7725 131.919 30.319 136.519C35.4893 139.667 38.6322 143.673 38.6322 143.673Z" fill="#FF7634"/>
<path d="M33.3537 108.349C32.7896 115.831 32.8182 123.373 34.0452 130.783C35.2554 138.076 37.6332 145.113 40.7746 151.802C41.5986 153.557 42.4687 155.29 43.3841 157L44 156.472C41.5903 151.922 39.4438 147.231 37.7813 142.358C35.4652 135.585 34.1778 128.516 33.8664 121.375C33.6805 117.052 33.8187 112.72 34.1431 108.407C34.1809 107.9 33.3903 107.851 33.3537 108.349Z" fill="#111827"/>
<path d="M308.802 133.477C308.802 133.477 307.015 125.07 310.679 121.5C314.615 117.659 317.174 121.776 313.942 127.303C311.724 131.097 308.802 133.477 308.802 133.477ZM306.859 142.589C306.859 142.589 299.345 137.978 299.251 132.97C299.147 127.588 304.005 128.687 305.864 134.76C307.132 138.924 306.859 142.589 306.859 142.589ZM306.574 148.04C306.574 148.04 315.132 145.569 316.672 140.781C318.33 135.633 313.337 135.421 309.798 140.771C307.376 144.441 306.574 148.04 306.574 148.04ZM306.773 152C306.773 152 297.927 150.859 295.653 146.363C293.208 141.525 298.107 140.562 302.445 145.311C305.418 148.561 306.773 152 306.773 152Z" fill="#FF7634"/>
<path d="M311.464 126.18C309.58 131.4 308.081 136.788 307.409 142.332C306.75 147.789 306.922 153.31 307.676 158.743C307.873 160.168 308.106 161.588 308.373 163L308.891 162.752C308.196 159 307.706 155.202 307.576 151.375C307.392 146.056 307.954 140.743 309.184 135.582C309.93 132.458 310.895 129.398 311.98 126.388C312.107 126.034 311.589 125.833 311.464 126.18Z" fill="#111827"/>
<path d="M287.43 105.898C287.43 105.898 285.561 97.2284 289.392 93.5466C293.507 89.5854 296.182 93.8317 292.802 99.5315C290.485 103.444 287.43 105.898 287.43 105.898ZM285.398 115.295C285.398 115.295 277.542 110.54 277.444 105.375C277.335 99.8253 282.414 100.958 284.358 107.221C285.683 111.515 285.398 115.295 285.398 115.295ZM285.1 120.916C285.1 120.916 294.047 118.368 295.657 113.431C297.39 108.121 292.17 107.902 288.471 113.42C285.939 117.205 285.1 120.916 285.1 120.916ZM285.309 125C285.309 125 276.06 123.823 273.683 119.187C271.126 114.198 276.248 113.205 280.783 118.102C283.891 121.454 285.309 125 285.309 125Z" fill="#FF7634"/>
<path d="M289.464 99.1804C287.58 104.4 286.081 109.788 285.409 115.332C284.75 120.789 284.922 126.31 285.675 131.743C285.871 133.168 286.109 134.591 286.373 136L286.892 135.752C286.196 132 285.706 128.202 285.576 124.375C285.391 119.056 285.954 113.743 287.184 108.582C287.93 105.458 288.895 102.398 289.98 99.3882C290.107 99.0339 289.589 98.8331 289.464 99.1804Z" fill="#111827"/>
<path d="M198.372 199.088C197.996 198.902 197.76 198.492 197.791 198.084C197.807 197.868 197.888 197.661 198.024 197.492C198.159 197.323 198.343 197.2 198.551 197.139C198.667 197.105 198.791 197.092 198.913 197.079C199.644 196.996 200.376 196.926 201.095 196.755C201.249 196.716 201.41 196.71 201.567 196.736C201.724 196.763 201.874 196.822 202.007 196.909C202.38 197.148 202.546 197.499 202.5 197.93C202.453 198.364 202.2 198.661 201.791 198.816C201.714 198.845 201.635 198.865 201.553 198.877C200.715 199.001 199.877 199.139 199.03 199.202C198.799 199.22 198.579 199.192 198.372 199.088ZM201.752 202.085C201.596 202.409 201.328 202.627 200.994 202.711C200.171 202.916 199.341 203.106 198.491 203.14C197.715 203.169 197.198 202.439 197.452 201.713C197.598 201.298 197.918 201.062 198.345 201.017C198.897 200.96 199.432 200.838 199.976 200.748C200.149 200.72 200.31 200.659 200.475 200.606C200.676 200.54 200.892 200.536 201.095 200.594C201.298 200.653 201.479 200.771 201.614 200.933C201.887 201.255 201.94 201.703 201.752 202.085ZM204.154 199.912C204.292 199.629 204.516 199.448 204.814 199.359C205.264 199.224 205.72 199.113 206.181 199.024C206.391 198.987 206.595 198.92 206.787 198.827C206.926 198.757 207.078 198.716 207.234 198.708C207.39 198.699 207.546 198.723 207.692 198.777C207.838 198.832 207.971 198.916 208.084 199.025C208.196 199.133 208.285 199.264 208.345 199.408C208.588 199.998 208.296 200.646 207.678 200.878C207.592 200.912 207.504 200.938 207.414 200.956C206.731 201.076 206.054 201.231 205.379 201.39C204.961 201.489 204.589 201.392 204.298 201.061C204.014 200.736 203.962 200.301 204.154 199.912ZM205.336 202.777C205.786 203.016 205.963 203.38 205.969 203.83C205.975 204.275 205.773 204.619 205.382 204.837C205.239 204.915 205.085 204.974 204.926 205.011C204.37 205.146 203.816 205.285 203.259 205.419C202.904 205.503 202.565 205.464 202.272 205.23C201.95 204.97 201.812 204.626 201.887 204.219C201.965 203.79 202.23 203.501 202.647 203.374C202.97 203.276 203.297 203.196 203.627 203.12C203.876 203.063 204.109 202.992 204.327 202.837C204.651 202.603 205.014 202.621 205.336 202.777ZM211.955 203.947C211.844 204.175 211.678 204.353 211.447 204.461C211.319 204.524 211.185 204.574 211.047 204.61C210.582 204.726 210.121 204.855 209.659 204.983C208.96 205.177 208.32 204.727 208.283 204.033C208.259 203.597 208.504 203.205 208.93 203.008C209.247 202.861 209.584 202.776 209.921 202.696C210.102 202.652 210.269 202.595 210.43 202.498C210.866 202.236 211.356 202.3 211.726 202.648C212.077 202.978 212.17 203.506 211.955 203.947ZM192.261 198.304C192.384 198.077 192.549 197.916 192.768 197.815C192.916 197.744 193.075 197.699 193.238 197.681C193.674 197.64 194.112 197.585 194.549 197.565C195.343 197.532 195.883 198.237 195.632 198.98C195.502 199.37 195.211 199.599 194.812 199.679C194.684 199.704 194.549 199.704 194.417 199.72C194.064 199.761 193.707 199.777 193.353 199.834C192.935 199.901 192.588 199.745 192.344 199.397C192.097 199.049 192.092 198.674 192.261 198.304ZM204.606 194.021C205.023 194.235 205.242 194.618 205.21 195.041C205.175 195.497 204.936 195.801 204.518 195.966C204.424 196.006 204.323 196.03 204.221 196.036C203.833 196.055 203.446 196.069 203.059 196.07C202.842 196.069 202.631 195.999 202.456 195.87C202.098 195.608 201.937 195.18 202.042 194.76C202.149 194.333 202.485 194.005 202.915 193.964C203.34 193.923 203.771 193.923 204.198 193.914C204.354 193.91 204.502 193.958 204.606 194.021ZM134.39 192.45C134.014 192.264 133.778 191.854 133.809 191.446C133.825 191.23 133.906 191.024 134.041 190.854C134.177 190.685 134.361 190.562 134.568 190.501C134.685 190.467 134.809 190.454 134.931 190.441C135.662 190.358 136.394 190.288 137.113 190.117C137.267 190.078 137.428 190.072 137.585 190.098C137.742 190.125 137.892 190.184 138.025 190.271C138.398 190.51 138.564 190.861 138.518 191.292C138.47 191.726 138.217 192.023 137.809 192.178C137.732 192.207 137.652 192.227 137.571 192.239C136.733 192.363 135.895 192.501 135.048 192.564C134.817 192.582 134.597 192.554 134.39 192.45ZM137.77 195.447C137.613 195.772 137.346 195.989 137.011 196.073C136.189 196.278 135.359 196.468 134.509 196.502C133.733 196.531 133.215 195.801 133.47 195.075C133.616 194.66 133.936 194.424 134.363 194.379C134.915 194.322 135.45 194.2 135.994 194.11C136.167 194.082 136.328 194.021 136.493 193.968C136.694 193.902 136.91 193.898 137.113 193.956C137.316 194.015 137.497 194.133 137.632 194.295C137.905 194.617 137.958 195.065 137.77 195.447ZM140.172 193.274C140.31 192.991 140.534 192.81 140.832 192.721C141.282 192.586 141.738 192.475 142.199 192.386C142.409 192.349 142.612 192.282 142.804 192.189C142.944 192.119 143.096 192.078 143.252 192.07C143.408 192.061 143.563 192.085 143.71 192.14C143.856 192.194 143.989 192.278 144.102 192.387C144.214 192.495 144.303 192.626 144.362 192.77C144.606 193.36 144.314 194.008 143.696 194.24C143.61 194.274 143.522 194.3 143.431 194.318C142.749 194.439 142.072 194.593 141.397 194.753C140.979 194.851 140.607 194.754 140.316 194.423C140.032 194.098 139.98 193.664 140.172 193.274ZM141.354 196.139C141.804 196.378 141.981 196.742 141.987 197.192C141.993 197.637 141.791 197.981 141.4 198.199C141.256 198.277 141.103 198.336 140.944 198.373C140.387 198.508 139.834 198.646 139.277 198.781C138.922 198.865 138.583 198.826 138.29 198.592C137.968 198.332 137.83 197.988 137.905 197.581C137.983 197.152 138.247 196.863 138.665 196.736C138.987 196.638 139.314 196.558 139.645 196.482C139.894 196.425 140.127 196.354 140.345 196.199C140.669 195.965 141.032 195.983 141.354 196.139ZM147.972 197.309C147.862 197.537 147.696 197.715 147.465 197.823C147.337 197.886 147.203 197.935 147.065 197.972C146.6 198.088 146.138 198.217 145.677 198.345C144.978 198.539 144.338 198.089 144.301 197.395C144.277 196.959 144.521 196.567 144.948 196.37C145.265 196.223 145.602 196.138 145.939 196.058C146.12 196.014 146.286 195.957 146.448 195.86C146.883 195.598 147.374 195.662 147.744 196.01C148.095 196.34 148.188 196.867 147.972 197.309ZM128.279 191.666C128.402 191.439 128.567 191.278 128.786 191.177C128.934 191.106 129.093 191.061 129.256 191.043C129.692 191.002 130.129 190.947 130.567 190.927C131.36 190.894 131.901 191.599 131.65 192.342C131.52 192.732 131.229 192.961 130.83 193.041C130.702 193.066 130.566 193.066 130.435 193.082C130.081 193.123 129.725 193.139 129.371 193.196C128.953 193.264 128.605 193.107 128.362 192.759C128.114 192.411 128.109 192.036 128.279 191.666ZM140.624 187.383C141.041 187.597 141.26 187.98 141.228 188.403C141.193 188.859 140.954 189.163 140.536 189.328C140.441 189.368 140.341 189.392 140.239 189.398C139.851 189.417 139.464 189.431 139.077 189.432C138.858 189.433 138.656 189.362 138.474 189.232C138.116 188.97 137.955 188.542 138.059 188.122C138.167 187.695 138.502 187.367 138.933 187.326C139.358 187.285 139.789 187.285 140.216 187.276C140.372 187.272 140.52 187.32 140.624 187.383ZM92.0297 179.174C91.6535 178.987 91.4168 178.578 91.4488 178.17C91.4642 177.954 91.5452 177.747 91.6808 177.578C91.8163 177.409 92.0001 177.286 92.2075 177.225C92.3245 177.191 92.4485 177.178 92.5705 177.165C93.3016 177.082 94.0334 177.012 94.7519 176.841C94.9064 176.802 95.0672 176.795 95.2243 176.822C95.3813 176.849 95.5311 176.908 95.6643 176.995C96.0374 177.234 96.2035 177.584 96.1571 178.016C96.1099 178.45 95.8565 178.747 95.4483 178.902C95.3716 178.931 95.2918 178.952 95.2105 178.963C94.3722 179.087 93.5347 179.225 92.6879 179.288C92.4563 179.305 92.2368 179.277 92.0297 179.174ZM95.4097 182.171C95.2526 182.495 94.9851 182.713 94.651 182.797C93.8287 183.002 92.9982 183.192 92.1483 183.225C91.3724 183.255 90.855 182.525 91.1096 181.799C91.255 181.384 91.5751 181.149 92.0024 181.104C92.5541 181.046 93.0891 180.924 93.6334 180.835C93.8069 180.806 93.9679 180.745 94.1328 180.692C94.3335 180.626 94.5493 180.622 94.7523 180.68C94.9552 180.739 95.1362 180.857 95.2717 181.019C95.5442 181.341 95.5972 181.789 95.4097 182.171ZM97.811 179.998C97.9494 179.715 98.1732 179.534 98.4715 179.445C98.9211 179.31 99.3772 179.199 99.8381 179.11C100.048 179.072 100.252 179.006 100.444 178.913C100.583 178.843 100.736 178.802 100.891 178.794C101.047 178.785 101.203 178.809 101.349 178.863C101.495 178.918 101.629 179.002 101.741 179.111C101.853 179.219 101.942 179.35 102.002 179.494C102.246 180.085 101.953 180.732 101.335 180.964C101.249 180.998 101.161 181.024 101.071 181.042C100.388 181.162 99.7114 181.316 99.0368 181.477C98.6185 181.575 98.2461 181.478 97.9553 181.147C97.6714 180.822 97.6192 180.387 97.811 179.998ZM98.9932 182.864C99.4431 183.102 99.6201 183.466 99.6264 183.916C99.6322 184.362 99.4302 184.705 99.0396 184.923C98.896 185.001 98.7426 185.06 98.5834 185.097C98.0266 185.232 97.473 185.37 96.9162 185.505C96.5618 185.589 96.2222 185.55 95.9294 185.316C95.6074 185.056 95.4693 184.712 95.5442 184.305C95.6222 183.876 95.8869 183.587 96.3041 183.46C96.6278 183.365 96.9546 183.28 97.2839 183.206C97.533 183.149 97.7658 183.078 97.9841 182.923C98.3081 182.69 98.6711 182.707 98.9932 182.864ZM105.612 184.033C105.501 184.26 105.335 184.439 105.104 184.547C104.976 184.61 104.842 184.66 104.705 184.696C104.239 184.812 103.778 184.941 103.316 185.069C102.617 185.263 101.978 184.814 101.94 184.119C101.917 183.683 102.161 183.291 102.587 183.094C102.904 182.947 103.241 182.862 103.579 182.781C103.759 182.738 103.926 182.681 104.087 182.584C104.523 182.322 105.014 182.386 105.384 182.734C105.734 183.064 105.827 183.591 105.612 184.033ZM85.9182 178.389C86.0414 178.163 86.2063 178.002 86.4258 177.901C86.5736 177.83 86.7323 177.785 86.8953 177.767C87.3312 177.726 87.7686 177.67 88.2065 177.651C88.9999 177.617 89.5399 178.323 89.2896 179.066C89.1594 179.455 88.8681 179.685 88.4693 179.765C88.341 179.791 88.2057 179.789 88.0747 179.806C87.7211 179.847 87.3643 179.863 87.0107 179.92C86.5923 179.987 86.2449 179.831 86.0009 179.482C85.7541 179.135 85.749 178.76 85.9182 178.389ZM98.2637 174.107C98.6797 174.321 98.8992 174.704 98.8672 175.127C98.8322 175.583 98.5932 175.887 98.1748 176.052C98.0808 176.092 97.9807 176.116 97.8789 176.122C97.4901 176.14 97.1038 176.155 96.7162 176.156C96.4992 176.155 96.288 176.085 96.1134 175.956C95.7547 175.694 95.5941 175.266 95.6986 174.846C95.8066 174.419 96.1419 174.091 96.5723 174.05C96.9977 174.009 97.4282 174.009 97.8559 174C98.0114 173.996 98.1592 174.044 98.2637 174.107ZM49.228 197.76C48.8517 197.574 48.615 197.165 48.647 196.757C48.6625 196.541 48.7434 196.334 48.879 196.165C49.0146 195.996 49.1983 195.873 49.4057 195.811C49.5227 195.777 49.6467 195.765 49.7687 195.752C50.4998 195.669 51.2316 195.599 51.9502 195.427C52.1046 195.389 52.2654 195.382 52.4225 195.409C52.5795 195.435 52.7293 195.494 52.8625 195.582C53.2356 195.82 53.4017 196.171 53.3553 196.603C53.3082 197.037 53.0547 197.334 52.6469 197.489C52.57 197.518 52.4903 197.538 52.4091 197.549C51.5704 197.673 50.7329 197.811 49.8861 197.874C49.6545 197.892 49.435 197.864 49.228 197.76ZM52.6079 200.757C52.4508 201.082 52.1833 201.3 51.8492 201.384C51.0269 201.588 50.1964 201.778 49.3469 201.812C48.5706 201.842 48.0532 201.111 48.3078 200.386C48.4532 199.97 48.7733 199.735 49.2007 199.69C49.7524 199.632 50.2873 199.51 50.832 199.421C51.0051 199.392 51.1661 199.332 51.331 199.278C51.5317 199.212 51.7475 199.208 51.9505 199.267C52.1535 199.325 52.3344 199.443 52.4699 199.605C52.7424 199.927 52.7954 200.376 52.6079 200.757ZM55.0092 198.585C55.1477 198.302 55.3715 198.121 55.6697 198.031C56.1194 197.897 56.5755 197.785 57.0363 197.697C57.2463 197.659 57.4502 197.593 57.6422 197.499C57.7816 197.429 57.9339 197.389 58.0897 197.38C58.2454 197.372 58.4012 197.395 58.5474 197.45C58.6936 197.505 58.827 197.589 58.9393 197.697C59.0516 197.806 59.1404 197.936 59.2002 198.081C59.4439 198.671 59.1514 199.318 58.5335 199.551C58.4477 199.585 58.3591 199.611 58.2687 199.629C57.586 199.749 56.9096 199.903 56.2351 200.063C55.8167 200.162 55.4448 200.065 55.1535 199.734C54.8697 199.409 54.8174 198.974 55.0092 198.585ZM56.1914 201.45C56.6413 201.688 56.8183 202.052 56.8246 202.503C56.8304 202.948 56.6285 203.291 56.2378 203.509C56.0942 203.588 55.9408 203.646 55.7816 203.684C55.2249 203.818 54.6712 203.957 54.1148 204.092C53.76 204.176 53.4208 204.137 53.1276 203.902C52.8056 203.643 52.6676 203.298 52.7424 202.891C52.8204 202.463 53.0851 202.174 53.5023 202.047C53.8252 201.949 54.1523 201.869 54.4825 201.793C54.7316 201.735 54.964 201.665 55.1827 201.509C55.5067 201.276 55.8693 201.294 56.1914 201.45ZM62.8102 202.62C62.6994 202.847 62.5334 203.026 62.3025 203.134C62.1744 203.196 62.0406 203.246 61.9029 203.283C61.4374 203.399 60.9761 203.527 60.5149 203.655C59.8154 203.85 59.176 203.4 59.1382 202.705C59.1148 202.269 59.3589 201.878 59.7854 201.68C60.1024 201.533 60.4396 201.448 60.7769 201.368C60.9574 201.325 61.1243 201.267 61.2853 201.171C61.7212 200.909 62.2121 200.972 62.5821 201.32C62.9326 201.651 63.0258 202.178 62.8102 202.62ZM43.1164 196.976C43.2396 196.75 43.4045 196.589 43.6241 196.488C43.7718 196.417 43.9306 196.371 44.0935 196.353C44.5294 196.312 44.9668 196.257 45.4047 196.238C46.1981 196.204 46.7381 196.909 46.4878 197.653C46.3576 198.042 46.0663 198.271 45.6675 198.351C45.5396 198.377 45.4043 198.376 45.2729 198.393C44.9193 198.434 44.5625 198.45 44.2089 198.506C43.7905 198.574 43.4431 198.418 43.1991 198.069C42.9523 197.722 42.9472 197.346 43.1164 196.976ZM55.4619 192.694C55.8779 192.908 56.0974 193.29 56.0655 193.714C56.0304 194.169 55.7914 194.473 55.3734 194.639C55.2798 194.677 55.1765 194.704 55.0771 194.709C54.6884 194.727 54.302 194.741 53.9144 194.742C53.6961 194.743 53.4934 194.672 53.3117 194.543C52.953 194.28 52.7923 193.852 52.8968 193.432C53.0048 193.005 53.3401 192.678 53.7706 192.637C54.1959 192.596 54.6264 192.596 55.0541 192.587C55.2097 192.583 55.3574 192.631 55.4619 192.694ZM300.303 202.628C299.926 202.442 299.69 202.033 299.722 201.624C299.737 201.408 299.818 201.202 299.954 201.033C300.089 200.864 300.273 200.74 300.481 200.679C300.597 200.645 300.721 200.633 300.843 200.619C301.574 200.536 302.306 200.466 303.025 200.295C303.179 200.256 303.34 200.25 303.497 200.276C303.654 200.303 303.804 200.362 303.937 200.45C304.31 200.688 304.476 201.039 304.43 201.471C304.383 201.904 304.129 202.201 303.722 202.357C303.645 202.385 303.565 202.406 303.484 202.417C302.645 202.541 301.808 202.679 300.961 202.742C300.729 202.76 300.51 202.732 300.303 202.628ZM303.683 205.625C303.526 205.95 303.258 206.168 302.924 206.252C302.102 206.456 301.271 206.646 300.421 206.68C299.645 206.71 299.128 205.979 299.382 205.253C299.528 204.838 299.848 204.603 300.275 204.558C300.827 204.5 301.362 204.378 301.907 204.289C302.08 204.26 302.241 204.2 302.406 204.146C302.606 204.08 302.822 204.076 303.025 204.135C303.228 204.193 303.409 204.311 303.545 204.473C303.817 204.795 303.87 205.244 303.683 205.625ZM306.084 203.452C306.222 203.17 306.446 202.989 306.744 202.899C307.194 202.765 307.65 202.653 308.111 202.564C308.321 202.527 308.525 202.461 308.717 202.367C308.856 202.297 309.009 202.256 309.164 202.248C309.32 202.239 309.476 202.263 309.622 202.318C309.768 202.372 309.902 202.457 310.014 202.565C310.126 202.674 310.215 202.804 310.275 202.949C310.518 203.539 310.226 204.186 309.608 204.419C309.522 204.452 309.434 204.478 309.343 204.497C308.661 204.617 307.984 204.771 307.31 204.931C306.891 205.029 306.519 204.933 306.228 204.602C305.944 204.277 305.892 203.842 306.084 203.452ZM307.266 206.318C307.716 206.556 307.893 206.92 307.899 207.371C307.905 207.816 307.703 208.159 307.313 208.377C307.169 208.455 307.016 208.514 306.857 208.552C306.3 208.686 305.746 208.825 305.189 208.959C304.835 209.044 304.495 209.004 304.203 208.77C303.881 208.511 303.742 208.166 303.817 207.759C303.895 207.33 304.16 207.042 304.577 206.914C304.901 206.819 305.228 206.734 305.557 206.661C305.806 206.603 306.039 206.532 306.257 206.377C306.581 206.144 306.944 206.161 307.266 206.318ZM313.885 207.488C313.774 207.715 313.608 207.894 313.377 208.001C313.249 208.064 313.115 208.114 312.978 208.15C312.512 208.267 312.051 208.395 311.59 208.523C310.89 208.717 310.251 208.268 310.213 207.573C310.189 207.137 310.434 206.746 310.86 206.548C311.177 206.401 311.514 206.316 311.852 206.236C312.032 206.193 312.199 206.135 312.36 206.039C312.796 205.777 313.287 205.84 313.657 206.188C314.007 206.518 314.1 207.046 313.885 207.488ZM294.191 201.844C294.314 201.618 294.48 201.457 294.699 201.356C294.847 201.284 295.005 201.239 295.169 201.221C295.604 201.18 296.042 201.125 296.48 201.105C297.273 201.072 297.813 201.777 297.563 202.521C297.432 202.91 297.141 203.139 296.742 203.219C296.614 203.245 296.479 203.244 296.348 203.26C295.994 203.301 295.637 203.317 295.284 203.374C294.865 203.442 294.518 203.285 294.274 202.937C294.027 202.589 294.022 202.214 294.191 201.844ZM306.537 197.562C306.953 197.775 307.172 198.158 307.14 198.581C307.105 199.037 306.866 199.341 306.448 199.507C306.354 199.546 306.254 199.57 306.152 199.577C305.763 199.595 305.377 199.609 304.989 199.61C304.772 199.609 304.561 199.539 304.387 199.41C304.028 199.148 303.867 198.72 303.972 198.3C304.079 197.873 304.415 197.546 304.845 197.505C305.271 197.463 305.701 197.463 306.129 197.454C306.285 197.451 306.432 197.499 306.537 197.562Z" fill="#6E6C6C"/>
<path d="M87.3909 109.537C87.3909 109.537 82.7376 91.0252 89.9217 82.6626C97.6377 73.6664 103.404 82.5433 97.3345 95.2121C93.1724 103.909 87.3909 109.537 87.3909 109.537ZM84.3983 130.042C84.3983 130.042 68.3143 120.628 67.5535 109.489C66.7285 97.5222 76.914 99.4172 81.4512 112.726C84.5482 121.851 84.3983 130.042 84.3983 130.042ZM84.4239 142.206C84.4239 142.206 101.868 135.737 104.515 124.906C107.366 113.256 97.0004 113.35 90.2788 125.662C85.6786 134.105 84.4239 142.206 84.4239 142.206ZM85.2856 151C85.2856 151 66.8359 149.461 61.6187 139.71C56.0065 129.219 66.0438 126.521 75.5649 136.599C82.0892 143.498 85.2856 151 85.2856 151Z" fill="#FF7634"/>
<path d="M91.7594 94.4128C88.0402 105.725 85.2203 117.348 84.3157 129.206C83.4294 140.878 84.4564 152.586 86.8053 164.039C87.4158 167.044 88.1235 170.037 88.8921 173L90.0508 172.413C88.0283 164.524 86.4702 156.513 85.7336 148.399C84.7018 137.12 85.3823 125.765 87.6106 114.656C88.9629 107.932 90.8233 101.315 92.9659 94.7936C93.2172 94.0258 92.0056 93.6604 91.7594 94.4128Z" fill="#111827"/>
<path d="M117.608 120.536C117.608 120.536 112.748 102.025 120.252 93.6626C128.31 84.6664 134.333 93.5433 127.994 106.212C123.647 114.909 117.608 120.536 117.608 120.536ZM114.483 141.041C114.483 141.041 97.6838 131.628 96.8892 120.489C96.0275 108.522 106.666 110.417 111.405 123.726C114.639 132.851 114.483 141.041 114.483 141.041ZM114.509 153.206C114.509 153.206 132.729 146.737 135.494 135.905C138.471 124.256 127.645 124.35 120.625 136.662C115.82 145.105 114.509 153.206 114.509 153.206ZM115.409 162C115.409 162 96.1397 160.461 90.6906 150.71C84.8291 140.219 95.3124 137.521 105.257 147.599C112.071 154.498 115.409 162 115.409 162Z" fill="#FF7634"/>
<path d="M121.759 104.418C118.04 115.873 115.22 127.643 114.316 139.651C113.429 151.471 114.456 163.327 116.805 174.925C117.416 177.968 118.123 180.999 118.892 184L120.051 183.405C118.028 175.416 116.47 167.303 115.734 159.087C114.702 147.666 115.382 136.167 117.61 124.917C118.963 118.108 120.823 111.407 122.966 104.803C123.217 104.026 122.006 103.656 121.759 104.418Z" fill="#111827"/>
<path d="M289.043 149.661C289.043 149.661 286.148 138.349 290.618 133.238C295.419 127.741 299.007 133.165 295.23 140.908C292.641 146.222 289.043 149.661 289.043 149.661ZM287.181 162.193C287.181 162.193 277.173 156.44 276.7 149.632C276.187 142.319 282.524 143.477 285.347 151.61C287.274 157.187 287.181 162.193 287.181 162.193ZM287.197 169.626C287.197 169.626 298.051 165.673 299.698 159.053C301.472 151.935 295.023 151.992 290.84 159.516C287.978 164.675 287.197 169.626 287.197 169.626ZM287.733 175C287.733 175 276.253 174.059 273.007 168.101C269.515 161.69 275.761 160.04 281.685 166.2C285.744 170.416 287.733 175 287.733 175Z" fill="#FF7634"/>
<path d="M290.31 139.261C288.245 146.421 286.678 153.777 286.175 161.282C285.683 168.67 286.254 176.08 287.558 183.328C287.898 185.23 288.291 187.125 288.718 189L289.361 188.629C288.238 183.635 287.372 178.565 286.963 173.43C286.39 166.291 286.768 159.104 288.006 152.073C288.757 147.818 289.79 143.63 290.981 139.502C291.121 139.016 290.448 138.785 290.31 139.261Z" fill="#111827"/>
<path d="M315.652 160.085C315.652 160.085 312.653 148.516 317.283 143.289C322.255 137.667 325.971 143.215 322.06 151.133C319.378 156.568 315.652 160.085 315.652 160.085ZM313.723 172.901C313.723 172.901 303.358 167.018 302.868 160.056C302.336 152.576 308.9 153.761 311.824 162.078C313.82 167.782 313.723 172.901 313.723 172.901ZM313.74 180.504C313.74 180.504 324.982 176.461 326.688 169.691C328.524 162.41 321.845 162.469 317.513 170.163C314.548 175.44 313.74 180.504 313.74 180.504ZM314.295 186C314.295 186 302.405 185.038 299.043 178.944C295.426 172.387 301.895 170.7 308.03 177C312.235 181.312 314.295 186 314.295 186Z" fill="#FF7634"/>
<path d="M318.173 150.261C315.693 157.421 313.813 164.777 313.211 172.282C312.62 179.67 313.304 187.079 314.87 194.328C315.28 196.23 315.744 198.121 316.261 200L317.034 199.628C315.685 194.635 314.647 189.565 314.155 184.429C313.468 177.291 313.921 170.105 315.407 163.073C316.309 158.817 317.549 154.63 318.977 150.502C319.145 150.017 318.337 149.785 318.173 150.261Z" fill="#111827"/>
<path d="M263.13 119.599C263.13 119.599 259.201 104.687 265.268 97.9505C271.783 90.7035 276.652 97.8542 271.527 108.06C268.013 115.066 263.13 119.599 263.13 119.599ZM260.603 136.117C260.603 136.117 247.021 128.534 246.378 119.561C245.682 109.921 254.283 111.447 258.115 122.168C260.73 129.519 260.603 136.117 260.603 136.117ZM260.625 145.916C260.625 145.916 275.355 140.705 277.591 131.979C279.998 122.595 271.245 122.671 265.569 132.588C261.684 139.39 260.625 145.916 260.625 145.916ZM261.352 153C261.352 153 245.773 151.76 241.367 143.905C236.628 135.454 245.104 133.281 253.144 141.4C258.653 146.957 261.352 153 261.352 153Z" fill="#FF7634"/>
<path d="M266.035 106.345C263.143 115.796 260.949 125.506 260.245 135.412C259.556 145.164 260.355 154.945 262.182 164.514C262.657 167.024 263.207 169.525 263.805 172L264.706 171.51C263.133 164.919 261.921 158.226 261.348 151.447C260.546 142.024 261.075 132.538 262.808 123.257C263.86 117.639 265.307 112.111 266.973 106.663C267.169 106.022 266.227 105.716 266.035 106.345Z" fill="#111827"/>
<path d="M52.6233 147.119C52.6233 147.119 44.4138 133.875 48.0885 125.505C52.0319 116.505 58.779 121.947 57.0398 133.389C55.8495 141.243 52.6233 147.119 52.6233 147.119ZM55.2394 163.883C55.2394 163.883 40.1578 160.674 36.8393 152.181C33.2682 143.058 41.8281 141.918 48.6776 151.133C53.3631 157.455 55.2394 163.883 55.2394 163.883ZM58.2238 173.365C58.2238 173.365 70.5173 163.835 69.9831 154.705C69.4111 144.886 61.193 147.623 58.8479 158.954C57.2473 166.723 58.2238 173.365 58.2238 173.365ZM61.0509 180.003C61.0509 180.003 46.0071 183.544 39.4834 177.28C32.4653 170.538 39.7883 165.854 49.8138 171.269C56.682 174.973 61.0509 180.003 61.0509 180.003Z" fill="#FF7634"/>
<path d="M52.0012 133.492C51.9668 143.298 52.6942 153.129 54.9394 162.675C57.1523 172.072 60.8319 181.029 65.4551 189.462C66.6641 191.676 67.9437 193.858 69.2626 196L70 195.255C66.5071 189.545 63.3374 183.625 60.769 177.424C57.1917 168.806 54.9005 159.709 53.8492 150.427C53.216 144.808 52.9961 139.149 53.015 133.496C53.0162 132.831 52.0027 132.84 52.0012 133.492Z" fill="#111827"/>
<path d="M123.44 191.486C123.541 191.19 123.752 190.952 123.913 190.69C125.106 188.715 126.128 186.665 126.91 184.501C127.386 183.186 127.857 181.868 128.175 180.507C128.456 179.311 128.699 178.108 128.825 176.884C128.891 176.25 128.954 175.618 128.976 174.98C128.989 174.638 129.049 174.297 129.021 173.955C128.967 173.332 128.986 172.704 128.816 172.094C128.784 171.981 128.752 171.865 128.705 171.758C128.437 171.132 127.834 171.007 127.323 171.462C127.077 171.682 126.901 171.95 126.736 172.228C125.976 173.513 125.345 174.858 124.787 176.235C123.929 178.346 123.156 180.488 122.437 182.646C122.307 183.036 122.181 183.43 121.998 183.818C121.998 183.607 121.966 183.39 122.005 183.186C122.064 182.89 122.046 182.597 122.064 182.304C122.181 180.485 122.165 178.663 122.118 176.842C122.099 176.116 122.03 175.383 121.941 174.657C121.881 174.166 121.837 173.671 121.768 173.183C121.563 171.77 121.361 170.354 120.815 169.015C120.708 168.749 120.566 168.499 120.358 168.295C119.938 167.876 119.417 167.907 119.036 168.365C118.667 168.807 118.487 169.338 118.329 169.872C118.133 170.543 118.032 171.23 117.941 171.923C117.787 173.095 117.752 174.272 117.708 175.453C117.679 176.256 117.648 177.062 117.673 177.864C117.701 178.761 117.698 179.662 117.749 180.559C117.799 181.456 117.831 182.35 117.878 183.247C117.878 183.272 117.872 183.293 117.862 183.348C117.736 183.149 117.72 182.945 117.673 182.756C117.089 180.372 116.341 178.038 115.354 175.783C114.742 174.389 114.064 173.024 113.127 171.798C112.749 171.3 112.345 170.824 111.786 170.507C111.489 170.339 111.177 170.208 110.814 170.299C110.436 170.394 110.215 170.644 110.083 170.983C109.893 171.468 109.846 171.974 109.89 172.481C109.96 173.281 110.073 174.074 110.234 174.862C110.527 176.302 110.963 177.702 111.496 179.075C112.48 181.618 113.61 184.108 114.691 186.616C114.739 186.723 114.815 186.824 114.789 186.952C114.827 186.958 114.846 186.979 114.846 187.013C114.846 187.022 114.824 187.031 114.812 187.04C114.802 187.009 114.796 186.982 114.786 186.952C114.578 186.811 114.48 186.585 114.345 186.396C113.603 185.368 112.84 184.358 112.001 183.403C111.184 182.475 110.335 181.575 109.253 180.922C108.868 180.69 108.474 180.476 107.997 180.479C107.458 180.482 107.092 180.717 106.922 181.221C106.811 181.547 106.783 181.877 106.824 182.228C106.962 183.387 107.461 184.403 108.095 185.365C108.978 186.701 110.001 187.934 111.095 189.115C112.193 190.299 113.436 191.325 114.72 192.307C115.859 193.18 116.979 194.077 118.105 194.962C118.407 195.203 118.719 195.43 119.042 195.643C119.367 195.856 119.714 195.908 120.086 195.807C121.569 195.398 123.026 194.937 124.393 194.23C125.462 193.674 126.456 193.015 127.393 192.267C128.292 191.553 129.156 190.806 129.948 189.982C130.645 189.252 131.302 188.49 131.778 187.602C131.929 187.321 131.999 187.028 131.967 186.714C131.936 186.396 131.686 186.128 131.358 186.097C131.081 186.073 130.8 186.076 130.525 186.161C129.79 186.39 129.172 186.814 128.585 187.278C127.282 188.313 125.989 189.356 124.752 190.464C124.386 190.794 124.005 191.108 123.629 191.428C123.582 191.468 123.534 191.504 123.471 191.511C123.456 191.566 123.433 191.612 123.371 191.63C123.368 191.639 123.364 191.647 123.358 191.654C123.355 191.657 123.345 191.657 123.339 191.657C123.351 191.648 123.364 191.642 123.377 191.633C123.361 191.575 123.383 191.526 123.44 191.486ZM71.3821 197.974C71.4511 197.769 71.5955 197.604 71.7055 197.422C72.5217 196.056 73.2209 194.636 73.7562 193.138C74.0824 192.228 74.4038 191.315 74.6219 190.373C74.8139 189.544 74.9801 188.712 75.0667 187.865C75.112 187.426 75.1549 186.988 75.1701 186.547C75.1787 186.31 75.2197 186.073 75.2005 185.837C75.1635 185.406 75.1767 184.971 75.0601 184.548C75.0386 184.47 75.0168 184.39 74.9844 184.316C74.801 183.883 74.3886 183.796 74.039 184.111C73.8709 184.263 73.7499 184.449 73.6376 184.641C73.1175 185.53 72.6856 186.462 72.3036 187.415C71.7164 188.877 71.1878 190.36 70.6954 191.854C70.6068 192.124 70.5206 192.397 70.3954 192.665C70.3954 192.519 70.3739 192.369 70.3997 192.228C70.4406 192.022 70.4278 191.82 70.4406 191.617C70.5206 190.358 70.5101 189.097 70.4777 187.835C70.4609 187.33 70.4205 186.825 70.3567 186.323C70.3158 185.983 70.2853 185.641 70.2377 185.302C70.0977 184.324 69.9596 183.344 69.5862 182.417C69.5128 182.233 69.4157 182.059 69.2729 181.918C68.9861 181.628 68.6299 181.65 68.3685 181.967C68.1161 182.273 67.9932 182.64 67.8851 183.01C67.7513 183.475 67.6822 183.95 67.6198 184.43C67.5137 185.241 67.4903 186.057 67.4598 186.874C67.4403 187.43 67.4189 187.988 67.436 188.543C67.4555 189.164 67.4536 189.787 67.4879 190.409C67.5226 191.03 67.5441 191.649 67.5765 192.27C67.5765 192.287 67.5722 192.302 67.5656 192.339C67.4793 192.202 67.4684 192.061 67.436 191.93C67.0369 190.28 66.5254 188.664 65.8496 187.102C65.431 186.137 64.9667 185.193 64.3257 184.343C64.0666 183.999 63.7904 183.669 63.4084 183.45C63.2056 183.333 62.9917 183.242 62.7436 183.306C62.4845 183.372 62.3335 183.545 62.2426 183.779C62.1131 184.115 62.0807 184.466 62.1112 184.817C62.1581 185.37 62.2367 185.92 62.3464 186.464C62.547 187.462 62.845 188.431 63.2098 189.382C63.8833 191.142 64.6562 192.865 65.3963 194.602C65.4287 194.676 65.4806 194.746 65.4634 194.834C65.4891 194.839 65.502 194.853 65.502 194.877C65.502 194.883 65.4872 194.889 65.4782 194.896C65.472 194.875 65.4677 194.856 65.4611 194.834C65.3186 194.737 65.2515 194.581 65.1591 194.45C64.6515 193.738 64.1294 193.039 63.5551 192.378C62.996 191.735 62.4155 191.112 61.675 190.66C61.4116 190.499 61.142 190.352 60.8158 190.354C60.4467 190.356 60.1963 190.518 60.08 190.867C60.0056 191.092 59.9827 191.33 60.0129 191.564C60.1081 192.367 60.4491 193.071 60.8829 193.736C61.4873 194.661 62.1865 195.515 62.9356 196.333C63.6866 197.152 64.5372 197.862 65.4158 198.542C66.1949 199.146 66.9612 199.768 67.7318 200.38C67.9389 200.545 68.1508 200.705 68.3728 200.851C68.4748 200.922 68.5924 200.97 68.7164 200.99C68.8404 201.009 68.9674 201.001 69.0876 200.965C70.102 200.682 71.0992 200.363 72.0336 199.873C72.7625 199.487 73.4502 199.032 74.0867 198.515C74.7019 198.02 75.293 197.503 75.8349 196.932C76.3121 196.428 76.7608 195.899 77.087 195.284C77.1915 195.096 77.2365 194.883 77.2165 194.67C77.1946 194.45 77.0241 194.264 76.7998 194.243C76.6098 194.226 76.4178 194.228 76.2298 194.287C75.7269 194.446 75.3039 194.739 74.9025 195.061C74.011 195.777 73.1261 196.499 72.2798 197.266C72.0293 197.494 71.7683 197.712 71.5116 197.934C71.4792 197.961 71.4468 197.987 71.4035 197.991C71.3926 198.029 71.3778 198.06 71.3345 198.073C71.3321 198.079 71.3302 198.086 71.3259 198.09C71.3236 198.092 71.3173 198.092 71.313 198.092C71.3216 198.086 71.3302 198.082 71.3388 198.075C71.3278 198.035 71.3431 198.001 71.3821 197.974ZM292.161 194.117C292.23 193.912 292.375 193.747 292.485 193.565C293.3 192.199 294 190.779 294.535 189.281C294.861 188.37 295.183 187.458 295.401 186.516C295.593 185.688 295.759 184.855 295.845 184.008C295.891 183.568 295.934 183.131 295.949 182.69C295.958 182.453 295.999 182.216 295.979 181.98C295.943 181.549 295.955 181.113 295.839 180.691C295.817 180.613 295.796 180.533 295.764 180.459C295.58 180.026 295.168 179.939 294.818 180.254C294.65 180.406 294.529 180.592 294.417 180.784C293.896 181.674 293.465 182.605 293.083 183.558C292.496 185.02 291.967 186.503 291.475 187.996C291.386 188.267 291.3 188.539 291.174 188.808C291.174 188.662 291.153 188.512 291.179 188.37C291.22 188.166 291.207 187.963 291.22 187.76C291.3 186.501 291.289 185.24 291.256 183.978C291.244 183.475 291.196 182.969 291.135 182.466C291.094 182.126 291.064 181.783 291.017 181.445C290.876 180.467 290.738 179.487 290.365 178.559C290.292 178.376 290.194 178.202 290.052 178.061C289.765 177.771 289.409 177.792 289.148 178.109C288.895 178.416 288.772 178.783 288.664 179.153C288.53 179.618 288.461 180.093 288.399 180.573C288.293 181.384 288.269 182.2 288.239 183.017C288.219 183.573 288.198 184.13 288.215 184.686C288.235 185.307 288.232 185.93 288.267 186.551C288.301 187.173 288.323 187.791 288.356 188.412C288.356 188.43 288.351 188.444 288.345 188.483C288.258 188.345 288.248 188.203 288.215 188.072C287.816 186.423 287.304 184.806 286.629 183.245C286.21 182.28 285.746 181.335 285.105 180.486C284.846 180.142 284.57 179.812 284.187 179.592C283.984 179.476 283.771 179.386 283.522 179.449C283.263 179.514 283.112 179.687 283.022 179.922C282.892 180.258 282.86 180.609 282.89 180.959C282.937 181.513 283.015 182.062 283.125 182.607C283.326 183.604 283.624 184.574 283.989 185.525C284.662 187.284 285.435 189.009 286.175 190.745C286.208 190.819 286.259 190.889 286.242 190.977C286.268 190.981 286.281 190.996 286.281 191.02C286.281 191.026 286.266 191.032 286.257 191.039C286.251 191.017 286.246 190.998 286.24 190.977C286.098 190.88 286.031 190.724 285.938 190.593C285.431 189.881 284.908 189.182 284.334 188.52C283.775 187.878 283.194 187.255 282.454 186.803C282.191 186.642 281.921 186.494 281.595 186.496C281.226 186.499 280.975 186.661 280.859 187.01C280.785 187.235 280.762 187.473 280.792 187.707C280.887 188.51 281.228 189.213 281.662 189.879C282.266 190.804 282.966 191.658 283.715 192.475C284.466 193.295 285.316 194.005 286.195 194.685C286.974 195.289 287.74 195.91 288.511 196.523C288.717 196.69 288.931 196.847 289.152 196.994C289.374 197.142 289.612 197.178 289.866 197.108C290.881 196.825 291.878 196.506 292.813 196.016C293.542 195.63 294.229 195.175 294.865 194.658C295.481 194.163 296.072 193.645 296.614 193.075C297.091 192.57 297.54 192.042 297.866 191.428C297.971 191.239 298.016 191.025 297.995 190.813C297.974 190.593 297.803 190.407 297.579 190.386C297.389 190.369 297.197 190.371 297.009 190.43C296.506 190.589 296.083 190.882 295.682 191.203C294.79 191.919 293.905 192.642 293.059 193.409C292.808 193.637 292.547 193.855 292.29 194.077C292.258 194.104 292.226 194.129 292.183 194.134C292.172 194.172 292.157 194.203 292.113 194.216C292.112 194.222 292.109 194.228 292.105 194.233C292.103 194.235 292.096 194.235 292.092 194.235C292.1 194.229 292.109 194.224 292.118 194.218C292.107 194.178 292.122 194.144 292.161 194.117Z" fill="#111827"/>
<path d="M169.151 69.4949C169.151 69.4949 162.719 68.5144 160.992 79.395C159.073 91.4913 153.949 89.5015 145.811 99.3235C141.055 105.063 146.06 115.198 156.231 114.997C166.402 114.801 175.587 111.983 181.437 113.189C187.288 114.395 187.609 100.034 181.837 95.6033C176.064 91.1726 188.372 78.4494 180.872 72.7835C173.372 67.1176 169.151 69.4949 169.151 69.4949Z" fill="#733426"/>
<path d="M181.898 78.6777C181.975 79.091 181.988 79.5239 181.96 80.0179C181.792 82.9035 181.169 85.7449 180.112 88.4375C179.467 90.0347 178.676 91.6092 177.558 92.9317C177.094 93.481 176.569 93.9879 175.882 94.1838C175.175 94.3789 174.284 94.4067 173.582 94.2312C172.964 96.7768 173.222 101.581 175.431 103.386C176.106 103.933 176.909 104.274 177.712 104.575C179.277 105.175 180.906 105.633 182.537 105.987C184.395 106.386 186.42 106.684 187.725 108.043C187.889 108.211 188.051 108.44 187.985 108.665C187.941 108.809 187.836 108.91 187.711 108.991C186.683 109.82 185.413 110.275 184.143 110.709C181.915 111.458 179.627 112.083 177.301 112.501C174.871 112.938 172.362 113.147 169.901 112.884C167.998 112.669 166.121 112.188 164.394 111.338C162.585 110.445 160.732 109.716 158.86 108.864C157.276 108.14 155.715 107.312 154 107.018C154.811 105.485 156.502 104.625 158.186 104.218C159.869 103.831 161.63 103.796 163.334 103.471C163.895 103.356 164.456 103.221 164.937 102.878C166.257 101.929 165.896 99.8223 165.916 98.4421L165.983 94.0753C165.787 91.9915 164.923 90.2478 164.165 88.3407C163.008 85.4183 162.769 82.0974 163.789 79.1047C164.807 76.1325 167.125 73.5508 170.103 72.5041C173.081 71.4569 176.655 72.0465 178.942 74.2239C180.391 75.6264 181.573 76.8804 181.898 78.6777Z" fill="#F8AE9D"/>
<path d="M173.378 69.0474C176.436 68.7126 179.223 70.1819 181.29 72.46C183.028 74.3697 184.05 76.8903 183.998 79.4229C183.991 79.7844 183.949 80.1786 183.742 80.5036C183.189 81.2824 181.988 80.9957 181.089 80.6489C179.625 80.0938 178.535 79.2827 177.208 78.5986C175.88 77.9145 174.269 78.0144 173.08 77.0699C171.959 76.1596 168.108 74.2415 168.004 72.759C167.873 70.9468 171.257 69.4667 172.671 69.1653C172.874 69.1036 173.109 69.0753 173.378 69.0474Z" fill="#733426"/>
<path d="M165.04 73.2C162.392 74.7782 161.149 77.5428 161.011 80.4806C160.891 82.9468 161.742 85.4415 163.453 87.3038C163.697 87.5695 163.99 87.8394 164.369 87.9581C165.321 88.21 166.085 87.2773 166.57 86.4809C167.365 85.1908 167.696 83.9329 168.298 82.6281C168.901 81.3234 170.246 80.4345 170.566 79.0184C170.855 77.6672 172.647 73.9315 171.752 72.7611C170.661 71.3285 166.999 72.2451 165.678 72.8656C165.477 72.9405 165.272 73.0599 165.04 73.2Z" fill="#733426"/>
<path d="M187.597 107.14C187.993 106.965 188.467 107.093 188.731 107.438C191.69 111.461 192.832 116.5 193.833 121.358C194.968 126.88 195.978 132.42 196.947 137.96C197.005 138.242 197.042 138.544 196.913 138.803C196.785 139.063 196.493 139.199 196.222 139.316C194.512 140.114 192.782 140.892 191.072 141.691C189.227 137.616 187.896 133.339 187.11 128.954C186.012 131.65 184.03 133.992 181.501 135.522C183.385 138.141 185.704 143.38 187.967 145.684C188.313 146.05 190.454 145.479 190.932 145.325C191.23 146.154 189.836 145.269 189.843 146.113C188.557 146.295 186.913 145.547 185.59 145.387C183.999 145.203 182.385 145.199 180.788 145.357C178.134 145.639 175.554 146.445 173.196 147.656C172.024 148.261 170.9 148.95 169.831 149.716C168.91 150.386 166.629 151.959 166.629 151.959C166.461 152.078 165.678 151.905 165.492 151.862C164.951 151.773 164.406 151.705 163.86 151.657C162.488 151.554 161.122 151.379 159.769 151.135C157.065 150.653 154.406 149.911 151.855 148.888C151.61 148.704 152.486 146.949 152.533 146.608C152.486 146.928 147.462 146.533 146.967 146.446C144.985 146.054 142.981 145.844 141 145.433C141.887 137.69 144.322 130.212 146.716 122.793C147.652 119.873 148.608 116.954 149.935 114.201C151.347 111.268 153.17 108.522 155.361 106.083C155.424 106.023 155.528 105.985 155.611 106.006C156.662 106.263 163.076 107.864 166.266 109.016C167.892 109.623 169.539 110.17 171.207 110.716C171.867 110.927 172.547 111.138 173.23 111.128C173.686 111.115 174.142 111.021 174.579 110.927C179.024 109.968 183.47 108.928 187.597 107.14Z" fill="#9C9C9C"/>
<path d="M157.999 122C157.822 123.176 157.584 124.373 157.347 125.549C156.77 128.217 156.03 130.841 155.131 133.405C154.671 134.684 154.193 135.941 153.654 137.197C153.386 137.819 153.11 138.437 152.825 139.05C152.681 139.347 152.536 139.667 152.391 139.965C152.267 140.22 152.124 140.454 152 140.688C152.863 140.659 157.119 140.921 158 141" stroke="white" stroke-width="1.376" stroke-miterlimit="10" stroke-linecap="round"/>
<path d="M159.12 141.494C159.032 142.123 158.925 142.747 158.799 143.368L158.418 145.24C158.293 145.775 158.008 146.441 158 147C158.002 146.888 161.361 146.566 161.677 146.527C165.176 146.139 168.692 145.909 172.189 145.656C174.461 145.494 176.691 145.555 178.96 145.571C179.631 145.583 180.422 145.507 180.785 144.887C181.089 144.355 180.841 143.68 181.084 143.192C181.242 143.239 183.071 143.763 183.051 143.718C183.124 144.189 183.269 145.176 183.7 145.407C183.851 145.471 184.011 145.505 184.172 145.505C184.409 145.508 184.646 145.468 184.884 145.427C184.92 145.427 184.956 145.412 184.983 145.384C185.023 145.34 184.985 145.272 184.946 145.205C184.408 144.303 184.126 143.237 184.138 142.149C183.572 141.713 183.006 141.212 182.52 140.666C182.131 140.212 181.843 139.626 181.414 139.238C180.966 138.805 180.528 139.066 180.033 139.214C179.458 139.361 178.883 139.53 178.328 139.722C177.238 140.106 176.146 140.579 175.227 141.346C174.908 141.609 174.608 141.895 174.232 142.023C173.874 142.151 173.48 142.144 173.105 142.138C170.797 142.075 168.489 141.946 166.203 141.661C163.858 141.374 162.259 141.414 159.187 140.891C159.187 140.913 159.184 141.115 159.12 141.494Z" fill="#F8AE9D"/>
<path d="M233.948 118.059L226.856 150L173 149.174C173.028 147.296 174.56 145.776 176.44 145.805L189.309 146.002L195.723 116.618C195.924 115.661 196.781 114.986 197.731 115L231.982 115.526C233.283 115.566 234.236 116.77 233.948 118.059Z" fill="#6E6C6C"/>
</svg>
