<svg width="453" height="135" viewBox="0 0 453 135" fill="none" xmlns="http://www.w3.org/2000/svg">
<path fill-rule="evenodd" clip-rule="evenodd" d="M415 99C420.34 99 425.56 97.4165 430 94.4497C434.441 91.4829 437.901 87.2661 439.945 82.3325C441.988 77.3989 442.523 71.9701 441.481 66.7326C440.439 61.4951 437.868 56.6842 434.092 52.9081C430.316 49.1321 425.505 46.5606 420.267 45.5188C415.03 44.477 409.601 45.0117 404.668 47.0553C399.734 49.0988 395.517 52.5595 392.55 56.9996C389.584 61.4397 388 66.6599 388 72C388.014 79.1564 390.864 86.0156 395.924 91.0759C400.984 96.1363 407.844 98.9856 415 99Z" fill="#EA580C"/>
<path fill-rule="evenodd" clip-rule="evenodd" d="M404.171 60H426.591V60.0474C428.566 60.2114 430.408 60.8098 431.57 61.8828C434.819 64.8812 433.878 71.7541 432.065 73.8546C428.6 77.9261 416.516 71.2432 417.261 64.9084H412.439C413.182 71.2431 401.105 77.9259 397.63 73.8544C395.818 71.7539 394.887 64.881 398.131 61.8826C399.498 60.6188 401.809 60.0133 404.171 60.0007V60ZM417.835 63.1289C417.811 63.1742 417.787 63.2196 417.764 63.265H411.937C411.914 63.2195 411.89 63.1741 411.866 63.1288C411.554 62.559 411.071 62.0627 410.466 61.6434H419.235C418.63 62.0627 418.146 62.5591 417.835 63.1289ZM429.9 77.7856C430.331 76.8898 429.954 75.8142 429.058 75.3833C428.162 74.9525 427.087 75.3294 426.656 76.2253C423.639 82.4974 416.001 85.6661 408.862 82.6954C407.944 82.3135 406.891 82.7479 406.509 83.6657C406.127 84.5835 406.561 85.6372 407.479 86.0191C416.372 89.72 426.049 85.7927 429.9 77.7856Z" fill="white"/>
<path fill-rule="evenodd" clip-rule="evenodd" d="M340 99C345.34 99 350.56 97.4165 355 94.4497C359.441 91.4829 362.901 87.2661 364.945 82.3325C366.988 77.3989 367.523 71.9701 366.481 66.7326C365.439 61.4951 362.868 56.6842 359.092 52.9081C355.316 49.1321 350.505 46.5606 345.267 45.5188C340.03 44.477 334.601 45.0117 329.668 47.0553C324.734 49.0988 320.517 52.5595 317.55 56.9996C314.584 61.4397 313 66.6599 313 72C313.014 79.1564 315.864 86.0156 320.924 91.0759C325.984 96.1363 332.844 98.9856 340 99Z" fill="#F97316"/>
<path fill-rule="evenodd" clip-rule="evenodd" d="M330.581 69.1988C331.292 69.1988 331.988 68.9877 332.58 68.5922C333.172 68.1967 333.634 67.6345 333.906 66.9768C334.178 66.3191 334.25 65.5954 334.111 64.8972C333.972 64.199 333.629 63.5576 333.126 63.0542C332.622 62.5509 331.981 62.208 331.283 62.0692C330.585 61.9303 329.861 62.0016 329.203 62.274C328.545 62.5464 327.983 63.0078 327.588 63.5997C327.192 64.1916 326.981 64.8875 326.981 65.5994C326.984 66.5531 327.364 67.4669 328.039 68.1413C328.713 68.8157 329.627 69.1958 330.581 69.1988Z" fill="white"/>
<path fill-rule="evenodd" clip-rule="evenodd" d="M348.796 69.1988C349.508 69.1977 350.203 68.9856 350.794 68.5894C351.385 68.1933 351.846 67.6307 352.117 66.9729C352.389 66.3151 352.459 65.5916 352.32 64.8938C352.18 64.1959 351.837 63.5551 351.333 63.0523C350.83 62.5494 350.189 62.2072 349.49 62.0688C348.792 61.9303 348.069 62.0019 347.412 62.2745C346.754 62.5471 346.192 63.0085 345.797 63.6003C345.402 64.192 345.191 64.8877 345.191 65.5994C345.192 66.5545 345.573 67.47 346.249 68.1449C346.925 68.8197 347.841 69.1988 348.796 69.1988Z" fill="white"/>
<path fill-rule="evenodd" clip-rule="evenodd" d="M327.071 76.0334H352.306C347.995 93.0508 332.036 93.3475 327.071 76.0334Z" fill="white"/>
<path fill-rule="evenodd" clip-rule="evenodd" d="M265 99C270.34 99 275.56 97.4165 280 94.4497C284.441 91.4829 287.901 87.2661 289.945 82.3325C291.988 77.3989 292.523 71.9701 291.481 66.7326C290.439 61.4951 287.868 56.6842 284.092 52.9081C280.316 49.1321 275.505 46.5606 270.267 45.5188C265.03 44.477 259.601 45.0117 254.668 47.0553C249.734 49.0988 245.517 52.5595 242.55 56.9996C239.584 61.4397 238 66.6599 238 72C238.014 79.1564 240.864 86.0156 245.924 91.0759C250.984 96.1363 257.844 98.9856 265 99Z" fill="#FB923C"/>
<path d="M253.64 77.194C257.498 85.8464 271.242 85.7251 275.343 77.194" stroke="white" stroke-width="3.6" stroke-linecap="round" stroke-linejoin="round"/>
<path fill-rule="evenodd" clip-rule="evenodd" d="M255.53 69.0983C256.233 69.0983 256.919 68.89 257.503 68.4998C258.086 68.1095 258.541 67.5549 258.81 66.9061C259.078 66.2572 259.148 65.5433 259.011 64.8547C258.873 64.1661 258.535 63.5337 258.038 63.0376C257.541 62.5414 256.908 62.2038 256.219 62.0675C255.531 61.9312 254.817 62.0023 254.168 62.2717C253.52 62.5412 252.966 62.997 252.577 63.5814C252.187 64.1657 251.98 64.8525 251.981 65.5546C251.983 66.495 252.357 67.3963 253.023 68.0607C253.688 68.7251 254.59 69.0983 255.53 69.0983Z" fill="white"/>
<path fill-rule="evenodd" clip-rule="evenodd" d="M273.458 69.0983C274.16 69.0994 274.847 68.892 275.432 68.5024C276.016 68.1129 276.472 67.5586 276.741 66.9099C277.01 66.2611 277.081 65.5471 276.944 64.8581C276.808 64.1691 276.47 63.5362 275.973 63.0395C275.476 62.5428 274.843 62.2047 274.154 62.0679C273.465 61.9312 272.751 62.0019 272.102 62.2712C271.454 62.5405 270.899 62.9963 270.51 63.5808C270.12 64.1653 269.913 64.8522 269.914 65.5546C269.916 66.494 270.289 67.3945 270.954 68.0588C271.618 68.723 272.518 69.0968 273.458 69.0983Z" fill="white"/>
<path fill-rule="evenodd" clip-rule="evenodd" d="M191 99C196.34 99 201.56 97.4165 206 94.4497C210.441 91.4829 213.901 87.2661 215.945 82.3325C217.988 77.3989 218.523 71.9701 217.481 66.7326C216.439 61.4951 213.868 56.6842 210.092 52.9081C206.316 49.1321 201.505 46.5606 196.267 45.5188C191.03 44.477 185.601 45.0117 180.668 47.0553C175.734 49.0988 171.517 52.5595 168.55 56.9996C165.584 61.4397 164 66.6599 164 72C164.014 79.1564 166.864 86.0156 171.924 91.0759C176.984 96.1363 183.844 98.9856 191 99Z" fill="#5F6E86"/>
<path fill-rule="evenodd" clip-rule="evenodd" d="M182.499 69.0245C183.193 69.0234 183.872 68.8165 184.449 68.4299C185.026 68.0433 185.475 67.4944 185.74 66.8525C186.005 66.2107 186.074 65.5046 185.938 64.8237C185.801 64.1427 185.466 63.5174 184.975 63.0268C184.484 62.5361 183.858 62.2022 183.177 62.0671C182.495 61.932 181.79 62.0019 181.148 62.2679C180.507 62.5339 179.958 62.984 179.573 63.5615C179.187 64.139 178.981 64.8178 178.981 65.5122C178.983 66.4442 179.354 67.3376 180.013 67.9961C180.673 68.6546 181.567 69.0245 182.499 69.0245Z" fill="white"/>
<path fill-rule="evenodd" clip-rule="evenodd" d="M200.268 69.0245C200.962 69.0245 201.641 68.8185 202.219 68.4326C202.796 68.0466 203.247 67.4981 203.512 66.8563C203.778 66.2145 203.848 65.5083 203.712 64.827C203.577 64.1457 203.242 63.5199 202.751 63.0287C202.26 62.5375 201.634 62.203 200.953 62.0675C200.271 61.932 199.565 62.0015 198.924 62.2674C198.282 62.5332 197.733 62.9834 197.347 63.5609C196.961 64.1385 196.755 64.8176 196.755 65.5122C196.757 66.4433 197.127 67.3358 197.786 67.9942C198.444 68.6525 199.337 69.023 200.268 69.0245Z" fill="white"/>
<path d="M186.396 81.4383C188.837 82.6742 191.931 82.8558 195.5 80.1598" stroke="white" stroke-width="3.6" stroke-linecap="round" stroke-linejoin="round"/>
<path fill-rule="evenodd" clip-rule="evenodd" d="M114 99C119.34 99 124.56 97.4165 129 94.4497C133.441 91.4829 136.901 87.2661 138.945 82.3325C140.988 77.3989 141.523 71.9701 140.481 66.7326C139.439 61.4951 136.868 56.6842 133.092 52.9081C129.316 49.1321 124.505 46.5606 119.267 45.5188C114.03 44.477 108.601 45.0117 103.668 47.0553C98.7339 49.0988 94.5171 52.5595 91.5503 56.9996C88.5835 61.4397 87 66.6599 87 72C87.0144 79.1564 89.8637 86.0156 94.9241 91.0759C99.9844 96.1363 106.844 98.9856 114 99Z" fill="#374151"/>
<path fill-rule="evenodd" clip-rule="evenodd" d="M105.499 69.0245C106.193 69.0234 106.872 68.8165 107.449 68.4299C108.026 68.0433 108.475 67.4944 108.74 66.8525C109.005 66.2107 109.074 65.5046 108.938 64.8237C108.801 64.1427 108.466 63.5174 107.975 63.0268C107.484 62.5361 106.858 62.2022 106.177 62.0671C105.495 61.932 104.79 62.0019 104.148 62.2679C103.507 62.5339 102.958 62.984 102.573 63.5615C102.187 64.139 101.981 64.8178 101.981 65.5122C101.983 66.4442 102.354 67.3376 103.013 67.9961C103.673 68.6546 104.567 69.0245 105.499 69.0245Z" fill="white"/>
<path fill-rule="evenodd" clip-rule="evenodd" d="M105.499 69.0245C106.193 69.0234 106.872 68.8165 107.449 68.4299C108.026 68.0433 108.475 67.4944 108.74 66.8525C109.005 66.2107 109.074 65.5046 108.938 64.8237C108.801 64.1427 108.466 63.5174 107.975 63.0268C107.484 62.5361 106.858 62.2022 106.177 62.0671C105.495 61.932 104.79 62.0019 104.148 62.2679C103.507 62.5339 102.958 62.984 102.573 63.5615C102.187 64.139 101.981 64.8178 101.981 65.5122C101.983 66.4442 102.354 67.3376 103.013 67.9961C103.673 68.6546 104.567 69.0245 105.499 69.0245Z" fill="white"/>
<path fill-rule="evenodd" clip-rule="evenodd" d="M123.268 69.0245C123.962 69.0245 124.641 68.8185 125.219 68.4326C125.796 68.0466 126.247 67.4981 126.512 66.8563C126.778 66.2145 126.848 65.5083 126.712 64.827C126.577 64.1457 126.242 63.5199 125.751 63.0287C125.26 62.5375 124.634 62.203 123.953 62.0675C123.271 61.932 122.565 62.0015 121.924 62.2674C121.282 62.5332 120.733 62.9834 120.347 63.5609C119.961 64.1385 119.755 64.8176 119.755 65.5122C119.757 66.4433 120.127 67.3358 120.786 67.9942C121.444 68.6525 122.337 69.023 123.268 69.0245Z" fill="white"/>
<path fill-rule="evenodd" clip-rule="evenodd" d="M123.268 69.0245C123.962 69.0245 124.641 68.8185 125.219 68.4326C125.796 68.0466 126.247 67.4981 126.512 66.8563C126.778 66.2145 126.848 65.5083 126.712 64.827C126.577 64.1457 126.242 63.5199 125.751 63.0287C125.26 62.5375 124.634 62.203 123.953 62.0675C123.271 61.932 122.565 62.0015 121.924 62.2674C121.282 62.5332 120.733 62.9834 120.347 63.5609C119.961 64.1385 119.755 64.8176 119.755 65.5122C119.757 66.4433 120.127 67.3358 120.786 67.9942C121.444 68.6525 122.337 69.023 123.268 69.0245Z" fill="white"/>
<path d="M118.179 79.0034C115.502 78.4413 112.466 79.0667 109.717 82.5945" stroke="white" stroke-width="3.6" stroke-linecap="round" stroke-linejoin="round"/>
<path d="M118.179 79.0034C115.502 78.4413 112.466 79.0667 109.717 82.5945" stroke="white" stroke-width="3.6" stroke-linecap="round" stroke-linejoin="round"/>
<path fill-rule="evenodd" clip-rule="evenodd" d="M38 99C43.3401 99 48.5603 97.4165 53.0004 94.4497C57.4405 91.4829 60.9012 87.2661 62.9447 82.3325C64.9883 77.3989 65.523 71.9701 64.4812 66.7326C63.4394 61.4951 60.8679 56.6842 57.0919 52.9081C53.3158 49.1321 48.5049 46.5606 43.2674 45.5188C38.0299 44.477 32.6011 45.0117 27.6675 47.0553C22.7339 49.0988 18.5171 52.5595 15.5503 56.9996C12.5835 61.4397 11 66.6599 11 72C11.0144 79.1564 13.8637 86.0156 18.9241 91.0759C23.9844 96.1363 30.8436 98.9856 38 99Z" fill="#111827"/>
<path fill-rule="evenodd" clip-rule="evenodd" d="M29.1165 68.7712C29.811 68.7701 30.4897 68.5631 31.0667 68.1765C31.6436 67.7898 32.0931 67.2408 32.3581 66.5988C32.6232 65.9568 32.6919 65.2506 32.5558 64.5695C32.4196 63.8885 32.0846 63.263 31.5931 62.7723C31.1016 62.2815 30.4756 61.9475 29.7944 61.8124C29.1131 61.6773 28.407 61.7471 27.7654 62.0132C27.1238 62.2792 26.5755 62.7295 26.1897 63.3071C25.8039 63.8847 25.5981 64.5636 25.5981 65.2582C25.5995 66.1904 25.9708 67.0839 26.6305 67.7426C27.2902 68.4012 28.1843 68.7712 29.1165 68.7712Z" fill="white"/>
<path fill-rule="evenodd" clip-rule="evenodd" d="M46.8888 68.7712C47.5836 68.7712 48.2628 68.5651 48.8405 68.1791C49.4182 67.7931 49.8685 67.2445 50.1344 66.6026C50.4003 65.9607 50.4698 65.2543 50.3343 64.5729C50.1987 63.8914 49.8642 63.2655 49.3729 62.7742C48.8816 62.2829 48.2556 61.9483 47.5742 61.8128C46.8927 61.6772 46.1864 61.7468 45.5445 62.0127C44.9026 62.2786 44.3539 62.7288 43.9679 63.3065C43.5819 63.8842 43.3759 64.5634 43.3759 65.2582C43.3773 66.1894 43.7479 67.0822 44.4064 67.7407C45.0649 68.3992 45.9576 68.7697 46.8888 68.7712Z" fill="white"/>
<path d="M29.1384 82.446L50.97 73.4259" stroke="white" stroke-width="3.6" stroke-linecap="round" stroke-linejoin="round"/>
<rect y="109" width="89" height="26" rx="13" fill="#111827"/>
<rect x="68" y="109" width="101" height="26" rx="13" fill="#1F2937"/>
<rect x="141" y="109" width="98" height="26" rx="13" fill="#5F6E86"/>
<rect x="3" width="70" height="24" rx="12" fill="#111827"/>
<path d="M39.5066 33.7434C39.1217 34.4101 38.1594 34.4101 37.7745 33.7434L31.9358 23.6304C31.5509 22.9637 32.032 22.1304 32.8018 22.1304L44.4793 22.1304C45.2491 22.1304 45.7302 22.9637 45.3453 23.6304L39.5066 33.7434Z" fill="#111827"/>
<path d="M27.9162 10.063C27.4962 10.063 27.1182 9.991 26.7822 9.847C26.4462 9.697 26.1822 9.487 25.9902 9.217C25.7982 8.947 25.7022 8.632 25.7022 8.272H26.8002C26.8242 8.542 26.9292 8.764 27.1152 8.938C27.3072 9.112 27.5742 9.199 27.9162 9.199C28.2702 9.199 28.5462 9.115 28.7442 8.947C28.9422 8.773 29.0412 8.551 29.0412 8.281C29.0412 8.071 28.9782 7.9 28.8522 7.768C28.7322 7.636 28.5792 7.534 28.3932 7.462C28.2132 7.39 27.9612 7.312 27.6372 7.228C27.2292 7.12 26.8962 7.012 26.6382 6.904C26.3862 6.79 26.1702 6.616 25.9902 6.382C25.8102 6.148 25.7202 5.836 25.7202 5.446C25.7202 5.086 25.8102 4.771 25.9902 4.501C26.1702 4.231 26.4222 4.024 26.7462 3.88C27.0702 3.736 27.4452 3.664 27.8712 3.664C28.4772 3.664 28.9722 3.817 29.3562 4.123C29.7462 4.423 29.9622 4.837 30.0042 5.365H28.8702C28.8522 5.137 28.7442 4.942 28.5462 4.78C28.3482 4.618 28.0872 4.537 27.7632 4.537C27.4692 4.537 27.2292 4.612 27.0432 4.762C26.8572 4.912 26.7642 5.128 26.7642 5.41C26.7642 5.602 26.8212 5.761 26.9352 5.887C27.0552 6.007 27.2052 6.103 27.3852 6.175C27.5652 6.247 27.8112 6.325 28.1232 6.409C28.5372 6.523 28.8732 6.637 29.1312 6.751C29.3952 6.865 29.6172 7.042 29.7972 7.282C29.9832 7.516 30.0762 7.831 30.0762 8.227C30.0762 8.545 29.9892 8.845 29.8152 9.127C29.6472 9.409 29.3982 9.637 29.0682 9.811C28.7442 9.979 28.3602 10.063 27.9162 10.063ZM30.9448 7.498C30.9448 7 31.0468 6.559 31.2508 6.175C31.4608 5.791 31.7428 5.494 32.0968 5.284C32.4568 5.068 32.8528 4.96 33.2848 4.96C33.6748 4.96 34.0138 5.038 34.3018 5.194C34.5958 5.344 34.8298 5.533 35.0038 5.761V5.041H36.0388V10H35.0038V9.262C34.8298 9.496 34.5928 9.691 34.2928 9.847C33.9928 10.003 33.6508 10.081 33.2668 10.081C32.8408 10.081 32.4508 9.973 32.0968 9.757C31.7428 9.535 31.4608 9.229 31.2508 8.839C31.0468 8.443 30.9448 7.996 30.9448 7.498ZM35.0038 7.516C35.0038 7.174 34.9318 6.877 34.7878 6.625C34.6498 6.373 34.4668 6.181 34.2388 6.049C34.0108 5.917 33.7648 5.851 33.5008 5.851C33.2368 5.851 32.9908 5.917 32.7628 6.049C32.5348 6.175 32.3488 6.364 32.2048 6.616C32.0668 6.862 31.9978 7.156 31.9978 7.498C31.9978 7.84 32.0668 8.14 32.2048 8.398C32.3488 8.656 32.5348 8.854 32.7628 8.992C32.9968 9.124 33.2428 9.19 33.5008 9.19C33.7648 9.19 34.0108 9.124 34.2388 8.992C34.4668 8.86 34.6498 8.668 34.7878 8.416C34.9318 8.158 35.0038 7.858 35.0038 7.516ZM38.4124 5.779C38.5864 5.539 38.8234 5.344 39.1234 5.194C39.4294 5.038 39.7684 4.96 40.1404 4.96C40.5784 4.96 40.9744 5.065 41.3284 5.275C41.6824 5.485 41.9614 5.785 42.1654 6.175C42.3694 6.559 42.4714 7 42.4714 7.498C42.4714 7.996 42.3694 8.443 42.1654 8.839C41.9614 9.229 41.6794 9.535 41.3194 9.757C40.9654 9.973 40.5724 10.081 40.1404 10.081C39.7564 10.081 39.4144 10.006 39.1144 9.856C38.8204 9.706 38.5864 9.514 38.4124 9.28V10H37.3864V3.34H38.4124V5.779ZM41.4274 7.498C41.4274 7.156 41.3554 6.862 41.2114 6.616C41.0734 6.364 40.8874 6.175 40.6534 6.049C40.4254 5.917 40.1794 5.851 39.9154 5.851C39.6574 5.851 39.4114 5.917 39.1774 6.049C38.9494 6.181 38.7634 6.373 38.6194 6.625C38.4814 6.877 38.4124 7.174 38.4124 7.516C38.4124 7.858 38.4814 8.158 38.6194 8.416C38.7634 8.668 38.9494 8.86 39.1774 8.992C39.4114 9.124 39.6574 9.19 39.9154 9.19C40.1794 9.19 40.4254 9.124 40.6534 8.992C40.8874 8.854 41.0734 8.656 41.2114 8.398C41.3554 8.14 41.4274 7.84 41.4274 7.498ZM48.031 7.399C48.031 7.585 48.019 7.753 47.995 7.903H44.206C44.236 8.299 44.383 8.617 44.647 8.857C44.911 9.097 45.235 9.217 45.619 9.217C46.171 9.217 46.561 8.986 46.789 8.524H47.896C47.746 8.98 47.473 9.355 47.077 9.649C46.687 9.937 46.201 10.081 45.619 10.081C45.145 10.081 44.719 9.976 44.341 9.766C43.969 9.55 43.675 9.25 43.459 8.866C43.249 8.476 43.144 8.026 43.144 7.516C43.144 7.006 43.246 6.559 43.45 6.175C43.66 5.785 43.951 5.485 44.323 5.275C44.701 5.065 45.133 4.96 45.619 4.96C46.087 4.96 46.504 5.062 46.87 5.266C47.236 5.47 47.521 5.758 47.725 6.13C47.929 6.496 48.031 6.919 48.031 7.399ZM46.96 7.075C46.954 6.697 46.819 6.394 46.555 6.166C46.291 5.938 45.964 5.824 45.574 5.824C45.22 5.824 44.917 5.938 44.665 6.166C44.413 6.388 44.263 6.691 44.215 7.075H46.96ZM50.0667 5.761C50.2167 5.509 50.4147 5.314 50.6607 5.176C50.9127 5.032 51.2097 4.96 51.5517 4.96V6.022H51.2907C50.8887 6.022 50.5827 6.124 50.3727 6.328C50.1687 6.532 50.0667 6.886 50.0667 7.39V10H49.0407V5.041H50.0667V5.761ZM17.6307 12.745V19H16.6047V12.745H17.6307ZM21.4797 13.96C21.8697 13.96 22.2177 14.041 22.5237 14.203C22.8357 14.365 23.0787 14.605 23.2527 14.923C23.4267 15.241 23.5137 15.625 23.5137 16.075V19H22.4967V16.228C22.4967 15.784 22.3857 15.445 22.1637 15.211C21.9417 14.971 21.6387 14.851 21.2547 14.851C20.8707 14.851 20.5647 14.971 20.3367 15.211C20.1147 15.445 20.0037 15.784 20.0037 16.228V19H18.9777V14.041H20.0037V14.608C20.1717 14.404 20.3847 14.245 20.6427 14.131C20.9067 14.017 21.1857 13.96 21.4797 13.96ZM26.7395 18.082L28.1435 14.041H29.2325L27.3425 19H26.1185L24.2375 14.041H25.3355L26.7395 18.082ZM34.553 16.399C34.553 16.585 34.541 16.753 34.517 16.903H30.728C30.758 17.299 30.905 17.617 31.169 17.857C31.433 18.097 31.757 18.217 32.141 18.217C32.693 18.217 33.083 17.986 33.311 17.524H34.418C34.268 17.98 33.995 18.355 33.599 18.649C33.209 18.937 32.723 19.081 32.141 19.081C31.667 19.081 31.241 18.976 30.863 18.766C30.491 18.55 30.197 18.25 29.981 17.866C29.771 17.476 29.666 17.026 29.666 16.516C29.666 16.006 29.768 15.559 29.972 15.175C30.182 14.785 30.473 14.485 30.845 14.275C31.223 14.065 31.655 13.96 32.141 13.96C32.609 13.96 33.026 14.062 33.392 14.266C33.758 14.47 34.043 14.758 34.247 15.13C34.451 15.496 34.553 15.919 34.553 16.399ZM33.482 16.075C33.476 15.697 33.341 15.394 33.077 15.166C32.813 14.938 32.486 14.824 32.096 14.824C31.742 14.824 31.439 14.938 31.187 15.166C30.935 15.388 30.785 15.691 30.737 16.075H33.482ZM37.3627 19.081C36.9727 19.081 36.6217 19.012 36.3097 18.874C36.0037 18.73 35.7607 18.538 35.5807 18.298C35.4007 18.052 35.3047 17.779 35.2927 17.479H36.3547C36.3727 17.689 36.4717 17.866 36.6517 18.01C36.8377 18.148 37.0687 18.217 37.3447 18.217C37.6327 18.217 37.8547 18.163 38.0107 18.055C38.1727 17.941 38.2537 17.797 38.2537 17.623C38.2537 17.437 38.1637 17.299 37.9837 17.209C37.8097 17.119 37.5307 17.02 37.1467 16.912C36.7747 16.81 36.4717 16.711 36.2377 16.615C36.0037 16.519 35.7997 16.372 35.6257 16.174C35.4577 15.976 35.3737 15.715 35.3737 15.391C35.3737 15.127 35.4517 14.887 35.6077 14.671C35.7637 14.449 35.9857 14.275 36.2737 14.149C36.5677 14.023 36.9037 13.96 37.2817 13.96C37.8457 13.96 38.2987 14.104 38.6407 14.392C38.9887 14.674 39.1747 15.061 39.1987 15.553H38.1727C38.1547 15.331 38.0647 15.154 37.9027 15.022C37.7407 14.89 37.5217 14.824 37.2457 14.824C36.9757 14.824 36.7687 14.875 36.6247 14.977C36.4807 15.079 36.4087 15.214 36.4087 15.382C36.4087 15.514 36.4567 15.625 36.5527 15.715C36.6487 15.805 36.7657 15.877 36.9037 15.931C37.0417 15.979 37.2457 16.042 37.5157 16.12C37.8757 16.216 38.1697 16.315 38.3977 16.417C38.6317 16.513 38.8327 16.657 39.0007 16.849C39.1687 17.041 39.2557 17.296 39.2617 17.614C39.2617 17.896 39.1837 18.148 39.0277 18.37C38.8717 18.592 38.6497 18.766 38.3617 18.892C38.0797 19.018 37.7467 19.081 37.3627 19.081ZM41.5673 14.878V17.623C41.5673 17.809 41.6093 17.944 41.6933 18.028C41.7833 18.106 41.9333 18.145 42.1433 18.145H42.7733V19H41.9633C41.5013 19 41.1473 18.892 40.9013 18.676C40.6553 18.46 40.5323 18.109 40.5323 17.623V14.878H39.9473V14.041H40.5323V12.808H41.5673V14.041H42.7733V14.878H41.5673ZM44.2409 13.384C44.0549 13.384 43.8989 13.321 43.7729 13.195C43.6469 13.069 43.5839 12.913 43.5839 12.727C43.5839 12.541 43.6469 12.385 43.7729 12.259C43.8989 12.133 44.0549 12.07 44.2409 12.07C44.4209 12.07 44.5739 12.133 44.6999 12.259C44.8259 12.385 44.8889 12.541 44.8889 12.727C44.8889 12.913 44.8259 13.069 44.6999 13.195C44.5739 13.321 44.4209 13.384 44.2409 13.384ZM44.7449 14.041V19H43.7189V14.041H44.7449ZM48.09 13.96C48.474 13.96 48.813 14.038 49.107 14.194C49.407 14.344 49.641 14.533 49.809 14.761V14.041H50.844V19.081C50.844 19.537 50.748 19.942 50.556 20.296C50.364 20.656 50.085 20.938 49.719 21.142C49.359 21.346 48.927 21.448 48.423 21.448C47.751 21.448 47.193 21.289 46.749 20.971C46.305 20.659 46.053 20.233 45.993 19.693H47.01C47.088 19.951 47.253 20.158 47.505 20.314C47.763 20.476 48.069 20.557 48.423 20.557C48.837 20.557 49.17 20.431 49.422 20.179C49.68 19.927 49.809 19.561 49.809 19.081V18.253C49.635 18.487 49.398 18.685 49.098 18.847C48.804 19.003 48.468 19.081 48.09 19.081C47.658 19.081 47.262 18.973 46.902 18.757C46.548 18.535 46.266 18.229 46.056 17.839C45.852 17.443 45.75 16.996 45.75 16.498C45.75 16 45.852 15.559 46.056 15.175C46.266 14.791 46.548 14.494 46.902 14.284C47.262 14.068 47.658 13.96 48.09 13.96ZM49.809 16.516C49.809 16.174 49.737 15.877 49.593 15.625C49.455 15.373 49.272 15.181 49.044 15.049C48.816 14.917 48.57 14.851 48.306 14.851C48.042 14.851 47.796 14.917 47.568 15.049C47.34 15.175 47.154 15.364 47.01 15.616C46.872 15.862 46.803 16.156 46.803 16.498C46.803 16.84 46.872 17.14 47.01 17.398C47.154 17.656 47.34 17.854 47.568 17.992C47.802 18.124 48.048 18.19 48.306 18.19C48.57 18.19 48.816 18.124 49.044 17.992C49.272 17.86 49.455 17.668 49.593 17.416C49.737 17.158 49.809 16.858 49.809 16.516ZM51.8496 16.498C51.8496 16 51.9516 15.559 52.1556 15.175C52.3656 14.791 52.6476 14.494 53.0016 14.284C53.3616 14.068 53.7576 13.96 54.1896 13.96C54.5796 13.96 54.9186 14.038 55.2066 14.194C55.5006 14.344 55.7346 14.533 55.9086 14.761V14.041H56.9436V19H55.9086V18.262C55.7346 18.496 55.4976 18.691 55.1976 18.847C54.8976 19.003 54.5556 19.081 54.1716 19.081C53.7456 19.081 53.3556 18.973 53.0016 18.757C52.6476 18.535 52.3656 18.229 52.1556 17.839C51.9516 17.443 51.8496 16.996 51.8496 16.498ZM55.9086 16.516C55.9086 16.174 55.8366 15.877 55.6926 15.625C55.5546 15.373 55.3716 15.181 55.1436 15.049C54.9156 14.917 54.6696 14.851 54.4056 14.851C54.1416 14.851 53.8956 14.917 53.6676 15.049C53.4396 15.175 53.2536 15.364 53.1096 15.616C52.9716 15.862 52.9026 16.156 52.9026 16.498C52.9026 16.84 52.9716 17.14 53.1096 17.398C53.2536 17.656 53.4396 17.854 53.6676 17.992C53.9016 18.124 54.1476 18.19 54.4056 18.19C54.6696 18.19 54.9156 18.124 55.1436 17.992C55.3716 17.86 55.5546 17.668 55.6926 17.416C55.8366 17.158 55.9086 16.858 55.9086 16.516ZM59.3172 14.761C59.4672 14.509 59.6652 14.314 59.9112 14.176C60.1632 14.032 60.4602 13.96 60.8022 13.96V15.022H60.5412C60.1392 15.022 59.8332 15.124 59.6232 15.328C59.4192 15.532 59.3172 15.886 59.3172 16.39V19H58.2912V14.041H59.3172V14.761Z" fill="white"/>
<rect x="79" width="70" height="24" rx="12" fill="#1F2937"/>
<path d="M117.507 33.7434C117.122 34.4101 116.159 34.4101 115.775 33.7434L109.936 23.6304C109.551 22.9637 110.032 22.1304 110.802 22.1304L122.479 22.1304C123.249 22.1304 123.73 22.9637 123.345 23.6304L117.507 33.7434Z" fill="#1F2937"/>
<path d="M103.916 10.063C103.496 10.063 103.118 9.991 102.782 9.847C102.446 9.697 102.182 9.487 101.99 9.217C101.798 8.947 101.702 8.632 101.702 8.272H102.8C102.824 8.542 102.929 8.764 103.115 8.938C103.307 9.112 103.574 9.199 103.916 9.199C104.27 9.199 104.546 9.115 104.744 8.947C104.942 8.773 105.041 8.551 105.041 8.281C105.041 8.071 104.978 7.9 104.852 7.768C104.732 7.636 104.579 7.534 104.393 7.462C104.213 7.39 103.961 7.312 103.637 7.228C103.229 7.12 102.896 7.012 102.638 6.904C102.386 6.79 102.17 6.616 101.99 6.382C101.81 6.148 101.72 5.836 101.72 5.446C101.72 5.086 101.81 4.771 101.99 4.501C102.17 4.231 102.422 4.024 102.746 3.88C103.07 3.736 103.445 3.664 103.871 3.664C104.477 3.664 104.972 3.817 105.356 4.123C105.746 4.423 105.962 4.837 106.004 5.365H104.87C104.852 5.137 104.744 4.942 104.546 4.78C104.348 4.618 104.087 4.537 103.763 4.537C103.469 4.537 103.229 4.612 103.043 4.762C102.857 4.912 102.764 5.128 102.764 5.41C102.764 5.602 102.821 5.761 102.935 5.887C103.055 6.007 103.205 6.103 103.385 6.175C103.565 6.247 103.811 6.325 104.123 6.409C104.537 6.523 104.873 6.637 105.131 6.751C105.395 6.865 105.617 7.042 105.797 7.282C105.983 7.516 106.076 7.831 106.076 8.227C106.076 8.545 105.989 8.845 105.815 9.127C105.647 9.409 105.398 9.637 105.068 9.811C104.744 9.979 104.36 10.063 103.916 10.063ZM106.945 7.498C106.945 7 107.047 6.559 107.251 6.175C107.461 5.791 107.743 5.494 108.097 5.284C108.457 5.068 108.853 4.96 109.285 4.96C109.675 4.96 110.014 5.038 110.302 5.194C110.596 5.344 110.83 5.533 111.004 5.761V5.041H112.039V10H111.004V9.262C110.83 9.496 110.593 9.691 110.293 9.847C109.993 10.003 109.651 10.081 109.267 10.081C108.841 10.081 108.451 9.973 108.097 9.757C107.743 9.535 107.461 9.229 107.251 8.839C107.047 8.443 106.945 7.996 106.945 7.498ZM111.004 7.516C111.004 7.174 110.932 6.877 110.788 6.625C110.65 6.373 110.467 6.181 110.239 6.049C110.011 5.917 109.765 5.851 109.501 5.851C109.237 5.851 108.991 5.917 108.763 6.049C108.535 6.175 108.349 6.364 108.205 6.616C108.067 6.862 107.998 7.156 107.998 7.498C107.998 7.84 108.067 8.14 108.205 8.398C108.349 8.656 108.535 8.854 108.763 8.992C108.997 9.124 109.243 9.19 109.501 9.19C109.765 9.19 110.011 9.124 110.239 8.992C110.467 8.86 110.65 8.668 110.788 8.416C110.932 8.158 111.004 7.858 111.004 7.516ZM114.412 5.779C114.586 5.539 114.823 5.344 115.123 5.194C115.429 5.038 115.768 4.96 116.14 4.96C116.578 4.96 116.974 5.065 117.328 5.275C117.682 5.485 117.961 5.785 118.165 6.175C118.369 6.559 118.471 7 118.471 7.498C118.471 7.996 118.369 8.443 118.165 8.839C117.961 9.229 117.679 9.535 117.319 9.757C116.965 9.973 116.572 10.081 116.14 10.081C115.756 10.081 115.414 10.006 115.114 9.856C114.82 9.706 114.586 9.514 114.412 9.28V10H113.386V3.34H114.412V5.779ZM117.427 7.498C117.427 7.156 117.355 6.862 117.211 6.616C117.073 6.364 116.887 6.175 116.653 6.049C116.425 5.917 116.179 5.851 115.915 5.851C115.657 5.851 115.411 5.917 115.177 6.049C114.949 6.181 114.763 6.373 114.619 6.625C114.481 6.877 114.412 7.174 114.412 7.516C114.412 7.858 114.481 8.158 114.619 8.416C114.763 8.668 114.949 8.86 115.177 8.992C115.411 9.124 115.657 9.19 115.915 9.19C116.179 9.19 116.425 9.124 116.653 8.992C116.887 8.854 117.073 8.656 117.211 8.398C117.355 8.14 117.427 7.84 117.427 7.498ZM124.031 7.399C124.031 7.585 124.019 7.753 123.995 7.903H120.206C120.236 8.299 120.383 8.617 120.647 8.857C120.911 9.097 121.235 9.217 121.619 9.217C122.171 9.217 122.561 8.986 122.789 8.524H123.896C123.746 8.98 123.473 9.355 123.077 9.649C122.687 9.937 122.201 10.081 121.619 10.081C121.145 10.081 120.719 9.976 120.341 9.766C119.969 9.55 119.675 9.25 119.459 8.866C119.249 8.476 119.144 8.026 119.144 7.516C119.144 7.006 119.246 6.559 119.45 6.175C119.66 5.785 119.951 5.485 120.323 5.275C120.701 5.065 121.133 4.96 121.619 4.96C122.087 4.96 122.504 5.062 122.87 5.266C123.236 5.47 123.521 5.758 123.725 6.13C123.929 6.496 124.031 6.919 124.031 7.399ZM122.96 7.075C122.954 6.697 122.819 6.394 122.555 6.166C122.291 5.938 121.964 5.824 121.574 5.824C121.22 5.824 120.917 5.938 120.665 6.166C120.413 6.388 120.263 6.691 120.215 7.075H122.96ZM126.067 5.761C126.217 5.509 126.415 5.314 126.661 5.176C126.913 5.032 127.21 4.96 127.552 4.96V6.022H127.291C126.889 6.022 126.583 6.124 126.373 6.328C126.169 6.532 126.067 6.886 126.067 7.39V10H125.041V5.041H126.067V5.761ZM97.6818 19L96.2418 16.498H95.4588V19H94.4328V12.745H96.5928C97.0728 12.745 97.4778 12.829 97.8078 12.997C98.1438 13.165 98.3928 13.39 98.5548 13.672C98.7228 13.954 98.8068 14.269 98.8068 14.617C98.8068 15.025 98.6868 15.397 98.4468 15.733C98.2128 16.063 97.8498 16.288 97.3578 16.408L98.9058 19H97.6818ZM95.4588 15.679H96.5928C96.9768 15.679 97.2648 15.583 97.4568 15.391C97.6548 15.199 97.7538 14.941 97.7538 14.617C97.7538 14.293 97.6578 14.041 97.4658 13.861C97.2738 13.675 96.9828 13.582 96.5928 13.582H95.4588V15.679ZM104.664 16.399C104.664 16.585 104.652 16.753 104.628 16.903H100.839C100.869 17.299 101.016 17.617 101.28 17.857C101.544 18.097 101.868 18.217 102.252 18.217C102.804 18.217 103.194 17.986 103.422 17.524H104.529C104.379 17.98 104.106 18.355 103.71 18.649C103.32 18.937 102.834 19.081 102.252 19.081C101.778 19.081 101.352 18.976 100.974 18.766C100.602 18.55 100.308 18.25 100.092 17.866C99.8823 17.476 99.7773 17.026 99.7773 16.516C99.7773 16.006 99.8793 15.559 100.083 15.175C100.293 14.785 100.584 14.485 100.956 14.275C101.334 14.065 101.766 13.96 102.252 13.96C102.72 13.96 103.137 14.062 103.503 14.266C103.869 14.47 104.154 14.758 104.358 15.13C104.562 15.496 104.664 15.919 104.664 16.399ZM103.593 16.075C103.587 15.697 103.452 15.394 103.188 15.166C102.924 14.938 102.597 14.824 102.207 14.824C101.853 14.824 101.55 14.938 101.298 15.166C101.046 15.388 100.896 15.691 100.848 16.075H103.593ZM105.332 16.516C105.332 16.006 105.434 15.559 105.638 15.175C105.848 14.785 106.136 14.485 106.502 14.275C106.868 14.065 107.288 13.96 107.762 13.96C108.362 13.96 108.857 14.104 109.247 14.392C109.643 14.674 109.91 15.079 110.048 15.607H108.941C108.851 15.361 108.707 15.169 108.509 15.031C108.311 14.893 108.062 14.824 107.762 14.824C107.342 14.824 107.006 14.974 106.754 15.274C106.508 15.568 106.385 15.982 106.385 16.516C106.385 17.05 106.508 17.467 106.754 17.767C107.006 18.067 107.342 18.217 107.762 18.217C108.356 18.217 108.749 17.956 108.941 17.434H110.048C109.904 17.938 109.634 18.34 109.238 18.64C108.842 18.934 108.35 19.081 107.762 19.081C107.288 19.081 106.868 18.976 106.502 18.766C106.136 18.55 105.848 18.25 105.638 17.866C105.434 17.476 105.332 17.026 105.332 16.516ZM113.222 19.081C112.754 19.081 112.331 18.976 111.953 18.766C111.575 18.55 111.278 18.25 111.062 17.866C110.846 17.476 110.738 17.026 110.738 16.516C110.738 16.012 110.849 15.565 111.071 15.175C111.293 14.785 111.596 14.485 111.98 14.275C112.364 14.065 112.793 13.96 113.267 13.96C113.741 13.96 114.17 14.065 114.554 14.275C114.938 14.485 115.241 14.785 115.463 15.175C115.685 15.565 115.796 16.012 115.796 16.516C115.796 17.02 115.682 17.467 115.454 17.857C115.226 18.247 114.914 18.55 114.518 18.766C114.128 18.976 113.696 19.081 113.222 19.081ZM113.222 18.19C113.486 18.19 113.732 18.127 113.96 18.001C114.194 17.875 114.383 17.686 114.527 17.434C114.671 17.182 114.743 16.876 114.743 16.516C114.743 16.156 114.674 15.853 114.536 15.607C114.398 15.355 114.215 15.166 113.987 15.04C113.759 14.914 113.513 14.851 113.249 14.851C112.985 14.851 112.739 14.914 112.511 15.04C112.289 15.166 112.112 15.355 111.98 15.607C111.848 15.853 111.782 16.156 111.782 16.516C111.782 17.05 111.917 17.464 112.187 17.758C112.463 18.046 112.808 18.19 113.222 18.19ZM117.836 14.761C117.986 14.509 118.184 14.314 118.43 14.176C118.682 14.032 118.979 13.96 119.321 13.96V15.022H119.06C118.658 15.022 118.352 15.124 118.142 15.328C117.938 15.532 117.836 15.886 117.836 16.39V19H116.81V14.041H117.836V14.761ZM119.922 16.498C119.922 16 120.024 15.559 120.228 15.175C120.438 14.791 120.72 14.494 121.074 14.284C121.434 14.068 121.833 13.96 122.271 13.96C122.595 13.96 122.913 14.032 123.225 14.176C123.543 14.314 123.795 14.5 123.981 14.734V12.34H125.016V19H123.981V18.253C123.813 18.493 123.579 18.691 123.279 18.847C122.985 19.003 122.646 19.081 122.262 19.081C121.83 19.081 121.434 18.973 121.074 18.757C120.72 18.535 120.438 18.229 120.228 17.839C120.024 17.443 119.922 16.996 119.922 16.498ZM123.981 16.516C123.981 16.174 123.909 15.877 123.765 15.625C123.627 15.373 123.444 15.181 123.216 15.049C122.988 14.917 122.742 14.851 122.478 14.851C122.214 14.851 121.968 14.917 121.74 15.049C121.512 15.175 121.326 15.364 121.182 15.616C121.044 15.862 120.975 16.156 120.975 16.498C120.975 16.84 121.044 17.14 121.182 17.398C121.326 17.656 121.512 17.854 121.74 17.992C121.974 18.124 122.22 18.19 122.478 18.19C122.742 18.19 122.988 18.124 123.216 17.992C123.444 17.86 123.627 17.668 123.765 17.416C123.909 17.158 123.981 16.858 123.981 16.516ZM126.021 16.498C126.021 16 126.123 15.559 126.327 15.175C126.537 14.791 126.819 14.494 127.173 14.284C127.533 14.068 127.929 13.96 128.361 13.96C128.751 13.96 129.09 14.038 129.378 14.194C129.672 14.344 129.906 14.533 130.08 14.761V14.041H131.115V19H130.08V18.262C129.906 18.496 129.669 18.691 129.369 18.847C129.069 19.003 128.727 19.081 128.343 19.081C127.917 19.081 127.527 18.973 127.173 18.757C126.819 18.535 126.537 18.229 126.327 17.839C126.123 17.443 126.021 16.996 126.021 16.498ZM130.08 16.516C130.08 16.174 130.008 15.877 129.864 15.625C129.726 15.373 129.543 15.181 129.315 15.049C129.087 14.917 128.841 14.851 128.577 14.851C128.313 14.851 128.067 14.917 127.839 15.049C127.611 15.175 127.425 15.364 127.281 15.616C127.143 15.862 127.074 16.156 127.074 16.498C127.074 16.84 127.143 17.14 127.281 17.398C127.425 17.656 127.611 17.854 127.839 17.992C128.073 18.124 128.319 18.19 128.577 18.19C128.841 18.19 129.087 18.124 129.315 17.992C129.543 17.86 129.726 17.668 129.864 17.416C130.008 17.158 130.08 16.858 130.08 16.516ZM133.489 14.761C133.639 14.509 133.837 14.314 134.083 14.176C134.335 14.032 134.632 13.96 134.974 13.96V15.022H134.713C134.311 15.022 134.005 15.124 133.795 15.328C133.591 15.532 133.489 15.886 133.489 16.39V19H132.463V14.041H133.489V14.761Z" fill="white"/>
<rect x="156" width="70" height="24" rx="12" fill="#374151"/>
<path d="M192.507 33.7434C192.122 34.4101 191.159 34.4101 190.775 33.7434L184.936 23.6304C184.551 22.9637 185.032 22.1304 185.802 22.1304L197.479 22.1304C198.249 22.1304 198.73 22.9637 198.345 23.6304L192.507 33.7434Z" fill="#374151"/>
<path d="M180.416 10.063C179.996 10.063 179.618 9.991 179.282 9.847C178.946 9.697 178.682 9.487 178.49 9.217C178.298 8.947 178.202 8.632 178.202 8.272H179.3C179.324 8.542 179.429 8.764 179.615 8.938C179.807 9.112 180.074 9.199 180.416 9.199C180.77 9.199 181.046 9.115 181.244 8.947C181.442 8.773 181.541 8.551 181.541 8.281C181.541 8.071 181.478 7.9 181.352 7.768C181.232 7.636 181.079 7.534 180.893 7.462C180.713 7.39 180.461 7.312 180.137 7.228C179.729 7.12 179.396 7.012 179.138 6.904C178.886 6.79 178.67 6.616 178.49 6.382C178.31 6.148 178.22 5.836 178.22 5.446C178.22 5.086 178.31 4.771 178.49 4.501C178.67 4.231 178.922 4.024 179.246 3.88C179.57 3.736 179.945 3.664 180.371 3.664C180.977 3.664 181.472 3.817 181.856 4.123C182.246 4.423 182.462 4.837 182.504 5.365H181.37C181.352 5.137 181.244 4.942 181.046 4.78C180.848 4.618 180.587 4.537 180.263 4.537C179.969 4.537 179.729 4.612 179.543 4.762C179.357 4.912 179.264 5.128 179.264 5.41C179.264 5.602 179.321 5.761 179.435 5.887C179.555 6.007 179.705 6.103 179.885 6.175C180.065 6.247 180.311 6.325 180.623 6.409C181.037 6.523 181.373 6.637 181.631 6.751C181.895 6.865 182.117 7.042 182.297 7.282C182.483 7.516 182.576 7.831 182.576 8.227C182.576 8.545 182.489 8.845 182.315 9.127C182.147 9.409 181.898 9.637 181.568 9.811C181.244 9.979 180.86 10.063 180.416 10.063ZM183.445 7.498C183.445 7 183.547 6.559 183.751 6.175C183.961 5.791 184.243 5.494 184.597 5.284C184.957 5.068 185.353 4.96 185.785 4.96C186.175 4.96 186.514 5.038 186.802 5.194C187.096 5.344 187.33 5.533 187.504 5.761V5.041H188.539V10H187.504V9.262C187.33 9.496 187.093 9.691 186.793 9.847C186.493 10.003 186.151 10.081 185.767 10.081C185.341 10.081 184.951 9.973 184.597 9.757C184.243 9.535 183.961 9.229 183.751 8.839C183.547 8.443 183.445 7.996 183.445 7.498ZM187.504 7.516C187.504 7.174 187.432 6.877 187.288 6.625C187.15 6.373 186.967 6.181 186.739 6.049C186.511 5.917 186.265 5.851 186.001 5.851C185.737 5.851 185.491 5.917 185.263 6.049C185.035 6.175 184.849 6.364 184.705 6.616C184.567 6.862 184.498 7.156 184.498 7.498C184.498 7.84 184.567 8.14 184.705 8.398C184.849 8.656 185.035 8.854 185.263 8.992C185.497 9.124 185.743 9.19 186.001 9.19C186.265 9.19 186.511 9.124 186.739 8.992C186.967 8.86 187.15 8.668 187.288 8.416C187.432 8.158 187.504 7.858 187.504 7.516ZM190.912 5.779C191.086 5.539 191.323 5.344 191.623 5.194C191.929 5.038 192.268 4.96 192.64 4.96C193.078 4.96 193.474 5.065 193.828 5.275C194.182 5.485 194.461 5.785 194.665 6.175C194.869 6.559 194.971 7 194.971 7.498C194.971 7.996 194.869 8.443 194.665 8.839C194.461 9.229 194.179 9.535 193.819 9.757C193.465 9.973 193.072 10.081 192.64 10.081C192.256 10.081 191.914 10.006 191.614 9.856C191.32 9.706 191.086 9.514 190.912 9.28V10H189.886V3.34H190.912V5.779ZM193.927 7.498C193.927 7.156 193.855 6.862 193.711 6.616C193.573 6.364 193.387 6.175 193.153 6.049C192.925 5.917 192.679 5.851 192.415 5.851C192.157 5.851 191.911 5.917 191.677 6.049C191.449 6.181 191.263 6.373 191.119 6.625C190.981 6.877 190.912 7.174 190.912 7.516C190.912 7.858 190.981 8.158 191.119 8.416C191.263 8.668 191.449 8.86 191.677 8.992C191.911 9.124 192.157 9.19 192.415 9.19C192.679 9.19 192.925 9.124 193.153 8.992C193.387 8.854 193.573 8.656 193.711 8.398C193.855 8.14 193.927 7.84 193.927 7.498ZM200.531 7.399C200.531 7.585 200.519 7.753 200.495 7.903H196.706C196.736 8.299 196.883 8.617 197.147 8.857C197.411 9.097 197.735 9.217 198.119 9.217C198.671 9.217 199.061 8.986 199.289 8.524H200.396C200.246 8.98 199.973 9.355 199.577 9.649C199.187 9.937 198.701 10.081 198.119 10.081C197.645 10.081 197.219 9.976 196.841 9.766C196.469 9.55 196.175 9.25 195.959 8.866C195.749 8.476 195.644 8.026 195.644 7.516C195.644 7.006 195.746 6.559 195.95 6.175C196.16 5.785 196.451 5.485 196.823 5.275C197.201 5.065 197.633 4.96 198.119 4.96C198.587 4.96 199.004 5.062 199.37 5.266C199.736 5.47 200.021 5.758 200.225 6.13C200.429 6.496 200.531 6.919 200.531 7.399ZM199.46 7.075C199.454 6.697 199.319 6.394 199.055 6.166C198.791 5.938 198.464 5.824 198.074 5.824C197.72 5.824 197.417 5.938 197.165 6.166C196.913 6.388 196.763 6.691 196.715 7.075H199.46ZM202.567 5.761C202.717 5.509 202.915 5.314 203.161 5.176C203.413 5.032 203.71 4.96 204.052 4.96V6.022H203.791C203.389 6.022 203.083 6.124 202.873 6.328C202.669 6.532 202.567 6.886 202.567 7.39V10H201.541V5.041H202.567V5.761ZM162.276 15.859C162.276 15.247 162.417 14.698 162.699 14.212C162.987 13.726 163.374 13.348 163.86 13.078C164.352 12.802 164.889 12.664 165.471 12.664C166.137 12.664 166.728 12.829 167.244 13.159C167.766 13.483 168.144 13.945 168.378 14.545H167.145C166.983 14.215 166.758 13.969 166.47 13.807C166.182 13.645 165.849 13.564 165.471 13.564C165.057 13.564 164.688 13.657 164.364 13.843C164.04 14.029 163.785 14.296 163.599 14.644C163.419 14.992 163.329 15.397 163.329 15.859C163.329 16.321 163.419 16.726 163.599 17.074C163.785 17.422 164.04 17.692 164.364 17.884C164.688 18.07 165.057 18.163 165.471 18.163C165.849 18.163 166.182 18.082 166.47 17.92C166.758 17.758 166.983 17.512 167.145 17.182H168.378C168.144 17.782 167.766 18.244 167.244 18.568C166.728 18.892 166.137 19.054 165.471 19.054C164.883 19.054 164.346 18.919 163.86 18.649C163.374 18.373 162.987 17.992 162.699 17.506C162.417 17.02 162.276 16.471 162.276 15.859ZM171.73 19.081C171.262 19.081 170.839 18.976 170.461 18.766C170.083 18.55 169.786 18.25 169.57 17.866C169.354 17.476 169.246 17.026 169.246 16.516C169.246 16.012 169.357 15.565 169.579 15.175C169.801 14.785 170.104 14.485 170.488 14.275C170.872 14.065 171.301 13.96 171.775 13.96C172.249 13.96 172.678 14.065 173.062 14.275C173.446 14.485 173.749 14.785 173.971 15.175C174.193 15.565 174.304 16.012 174.304 16.516C174.304 17.02 174.19 17.467 173.962 17.857C173.734 18.247 173.422 18.55 173.026 18.766C172.636 18.976 172.204 19.081 171.73 19.081ZM171.73 18.19C171.994 18.19 172.24 18.127 172.468 18.001C172.702 17.875 172.891 17.686 173.035 17.434C173.179 17.182 173.251 16.876 173.251 16.516C173.251 16.156 173.182 15.853 173.044 15.607C172.906 15.355 172.723 15.166 172.495 15.04C172.267 14.914 172.021 14.851 171.757 14.851C171.493 14.851 171.247 14.914 171.019 15.04C170.797 15.166 170.62 15.355 170.488 15.607C170.356 15.853 170.29 16.156 170.29 16.516C170.29 17.05 170.425 17.464 170.695 17.758C170.971 18.046 171.316 18.19 171.73 18.19ZM181.322 13.96C181.712 13.96 182.06 14.041 182.366 14.203C182.678 14.365 182.921 14.605 183.095 14.923C183.275 15.241 183.365 15.625 183.365 16.075V19H182.348V16.228C182.348 15.784 182.237 15.445 182.015 15.211C181.793 14.971 181.49 14.851 181.106 14.851C180.722 14.851 180.416 14.971 180.188 15.211C179.966 15.445 179.855 15.784 179.855 16.228V19H178.838V16.228C178.838 15.784 178.727 15.445 178.505 15.211C178.283 14.971 177.98 14.851 177.596 14.851C177.212 14.851 176.906 14.971 176.678 15.211C176.456 15.445 176.345 15.784 176.345 16.228V19H175.319V14.041H176.345V14.608C176.513 14.404 176.726 14.245 176.984 14.131C177.242 14.017 177.518 13.96 177.812 13.96C178.208 13.96 178.562 14.044 178.874 14.212C179.186 14.38 179.426 14.623 179.594 14.941C179.744 14.641 179.978 14.404 180.296 14.23C180.614 14.05 180.956 13.96 181.322 13.96ZM185.696 14.77C185.87 14.542 186.107 14.35 186.407 14.194C186.707 14.038 187.046 13.96 187.424 13.96C187.856 13.96 188.249 14.068 188.603 14.284C188.963 14.494 189.245 14.791 189.449 15.175C189.653 15.559 189.755 16 189.755 16.498C189.755 16.996 189.653 17.443 189.449 17.839C189.245 18.229 188.963 18.535 188.603 18.757C188.249 18.973 187.856 19.081 187.424 19.081C187.046 19.081 186.71 19.006 186.416 18.856C186.122 18.7 185.882 18.508 185.696 18.28V21.358H184.67V14.041H185.696V14.77ZM188.711 16.498C188.711 16.156 188.639 15.862 188.495 15.616C188.357 15.364 188.171 15.175 187.937 15.049C187.709 14.917 187.463 14.851 187.199 14.851C186.941 14.851 186.695 14.917 186.461 15.049C186.233 15.181 186.047 15.373 185.903 15.625C185.765 15.877 185.696 16.174 185.696 16.516C185.696 16.858 185.765 17.158 185.903 17.416C186.047 17.668 186.233 17.86 186.461 17.992C186.695 18.124 186.941 18.19 187.199 18.19C187.463 18.19 187.709 18.124 187.937 17.992C188.171 17.854 188.357 17.656 188.495 17.398C188.639 17.14 188.711 16.84 188.711 16.498ZM191.796 14.761C191.946 14.509 192.144 14.314 192.39 14.176C192.642 14.032 192.939 13.96 193.281 13.96V15.022H193.02C192.618 15.022 192.312 15.124 192.102 15.328C191.898 15.532 191.796 15.886 191.796 16.39V19H190.77V14.041H191.796V14.761ZM198.769 16.399C198.769 16.585 198.757 16.753 198.733 16.903H194.944C194.974 17.299 195.121 17.617 195.385 17.857C195.649 18.097 195.973 18.217 196.357 18.217C196.909 18.217 197.299 17.986 197.527 17.524H198.634C198.484 17.98 198.211 18.355 197.815 18.649C197.425 18.937 196.939 19.081 196.357 19.081C195.883 19.081 195.457 18.976 195.079 18.766C194.707 18.55 194.413 18.25 194.197 17.866C193.987 17.476 193.882 17.026 193.882 16.516C193.882 16.006 193.984 15.559 194.188 15.175C194.398 14.785 194.689 14.485 195.061 14.275C195.439 14.065 195.871 13.96 196.357 13.96C196.825 13.96 197.242 14.062 197.608 14.266C197.974 14.47 198.259 14.758 198.463 15.13C198.667 15.496 198.769 15.919 198.769 16.399ZM197.698 16.075C197.692 15.697 197.557 15.394 197.293 15.166C197.029 14.938 196.702 14.824 196.312 14.824C195.958 14.824 195.655 14.938 195.403 15.166C195.151 15.388 195.001 15.691 194.953 16.075H197.698ZM202.281 13.96C202.671 13.96 203.019 14.041 203.325 14.203C203.637 14.365 203.88 14.605 204.054 14.923C204.228 15.241 204.315 15.625 204.315 16.075V19H203.298V16.228C203.298 15.784 203.187 15.445 202.965 15.211C202.743 14.971 202.44 14.851 202.056 14.851C201.672 14.851 201.366 14.971 201.138 15.211C200.916 15.445 200.805 15.784 200.805 16.228V19H199.779V14.041H200.805V14.608C200.973 14.404 201.186 14.245 201.444 14.131C201.708 14.017 201.987 13.96 202.281 13.96ZM205.281 16.498C205.281 16 205.383 15.559 205.587 15.175C205.797 14.791 206.079 14.494 206.433 14.284C206.793 14.068 207.192 13.96 207.63 13.96C207.954 13.96 208.272 14.032 208.584 14.176C208.902 14.314 209.154 14.5 209.34 14.734V12.34H210.375V19H209.34V18.253C209.172 18.493 208.938 18.691 208.638 18.847C208.344 19.003 208.005 19.081 207.621 19.081C207.189 19.081 206.793 18.973 206.433 18.757C206.079 18.535 205.797 18.229 205.587 17.839C205.383 17.443 205.281 16.996 205.281 16.498ZM209.34 16.516C209.34 16.174 209.268 15.877 209.124 15.625C208.986 15.373 208.803 15.181 208.575 15.049C208.347 14.917 208.101 14.851 207.837 14.851C207.573 14.851 207.327 14.917 207.099 15.049C206.871 15.175 206.685 15.364 206.541 15.616C206.403 15.862 206.334 16.156 206.334 16.498C206.334 16.84 206.403 17.14 206.541 17.398C206.685 17.656 206.871 17.854 207.099 17.992C207.333 18.124 207.579 18.19 207.837 18.19C208.101 18.19 208.347 18.124 208.575 17.992C208.803 17.86 208.986 17.668 209.124 17.416C209.268 17.158 209.34 16.858 209.34 16.516ZM216.268 16.399C216.268 16.585 216.256 16.753 216.232 16.903H212.443C212.473 17.299 212.62 17.617 212.884 17.857C213.148 18.097 213.472 18.217 213.856 18.217C214.408 18.217 214.798 17.986 215.026 17.524H216.133C215.983 17.98 215.71 18.355 215.314 18.649C214.924 18.937 214.438 19.081 213.856 19.081C213.382 19.081 212.956 18.976 212.578 18.766C212.206 18.55 211.912 18.25 211.696 17.866C211.486 17.476 211.381 17.026 211.381 16.516C211.381 16.006 211.483 15.559 211.687 15.175C211.897 14.785 212.188 14.485 212.56 14.275C212.938 14.065 213.37 13.96 213.856 13.96C214.324 13.96 214.741 14.062 215.107 14.266C215.473 14.47 215.758 14.758 215.962 15.13C216.166 15.496 216.268 15.919 216.268 16.399ZM215.197 16.075C215.191 15.697 215.056 15.394 214.792 15.166C214.528 14.938 214.201 14.824 213.811 14.824C213.457 14.824 213.154 14.938 212.902 15.166C212.65 15.388 212.5 15.691 212.452 16.075H215.197ZM218.304 14.761C218.454 14.509 218.652 14.314 218.898 14.176C219.15 14.032 219.447 13.96 219.789 13.96V15.022H219.528C219.126 15.022 218.82 15.124 218.61 15.328C218.406 15.532 218.304 15.886 218.304 16.39V19H217.278V14.041H218.304V14.761Z" fill="white"/>
<rect x="230" width="70" height="24" rx="12" fill="#FB923C"/>
<path d="M266.507 33.7434C266.122 34.4101 265.159 34.4101 264.775 33.7434L258.936 23.6304C258.551 22.9637 259.032 22.1304 259.802 22.1304L271.479 22.1304C272.249 22.1304 272.73 22.9637 272.345 23.6304L266.507 33.7434Z" fill="#FB923C"/>
<path d="M254.416 10.063C253.996 10.063 253.618 9.991 253.282 9.847C252.946 9.697 252.682 9.487 252.49 9.217C252.298 8.947 252.202 8.632 252.202 8.272H253.3C253.324 8.542 253.429 8.764 253.615 8.938C253.807 9.112 254.074 9.199 254.416 9.199C254.77 9.199 255.046 9.115 255.244 8.947C255.442 8.773 255.541 8.551 255.541 8.281C255.541 8.071 255.478 7.9 255.352 7.768C255.232 7.636 255.079 7.534 254.893 7.462C254.713 7.39 254.461 7.312 254.137 7.228C253.729 7.12 253.396 7.012 253.138 6.904C252.886 6.79 252.67 6.616 252.49 6.382C252.31 6.148 252.22 5.836 252.22 5.446C252.22 5.086 252.31 4.771 252.49 4.501C252.67 4.231 252.922 4.024 253.246 3.88C253.57 3.736 253.945 3.664 254.371 3.664C254.977 3.664 255.472 3.817 255.856 4.123C256.246 4.423 256.462 4.837 256.504 5.365H255.37C255.352 5.137 255.244 4.942 255.046 4.78C254.848 4.618 254.587 4.537 254.263 4.537C253.969 4.537 253.729 4.612 253.543 4.762C253.357 4.912 253.264 5.128 253.264 5.41C253.264 5.602 253.321 5.761 253.435 5.887C253.555 6.007 253.705 6.103 253.885 6.175C254.065 6.247 254.311 6.325 254.623 6.409C255.037 6.523 255.373 6.637 255.631 6.751C255.895 6.865 256.117 7.042 256.297 7.282C256.483 7.516 256.576 7.831 256.576 8.227C256.576 8.545 256.489 8.845 256.315 9.127C256.147 9.409 255.898 9.637 255.568 9.811C255.244 9.979 254.86 10.063 254.416 10.063ZM257.445 7.498C257.445 7 257.547 6.559 257.751 6.175C257.961 5.791 258.243 5.494 258.597 5.284C258.957 5.068 259.353 4.96 259.785 4.96C260.175 4.96 260.514 5.038 260.802 5.194C261.096 5.344 261.33 5.533 261.504 5.761V5.041H262.539V10H261.504V9.262C261.33 9.496 261.093 9.691 260.793 9.847C260.493 10.003 260.151 10.081 259.767 10.081C259.341 10.081 258.951 9.973 258.597 9.757C258.243 9.535 257.961 9.229 257.751 8.839C257.547 8.443 257.445 7.996 257.445 7.498ZM261.504 7.516C261.504 7.174 261.432 6.877 261.288 6.625C261.15 6.373 260.967 6.181 260.739 6.049C260.511 5.917 260.265 5.851 260.001 5.851C259.737 5.851 259.491 5.917 259.263 6.049C259.035 6.175 258.849 6.364 258.705 6.616C258.567 6.862 258.498 7.156 258.498 7.498C258.498 7.84 258.567 8.14 258.705 8.398C258.849 8.656 259.035 8.854 259.263 8.992C259.497 9.124 259.743 9.19 260.001 9.19C260.265 9.19 260.511 9.124 260.739 8.992C260.967 8.86 261.15 8.668 261.288 8.416C261.432 8.158 261.504 7.858 261.504 7.516ZM264.912 5.779C265.086 5.539 265.323 5.344 265.623 5.194C265.929 5.038 266.268 4.96 266.64 4.96C267.078 4.96 267.474 5.065 267.828 5.275C268.182 5.485 268.461 5.785 268.665 6.175C268.869 6.559 268.971 7 268.971 7.498C268.971 7.996 268.869 8.443 268.665 8.839C268.461 9.229 268.179 9.535 267.819 9.757C267.465 9.973 267.072 10.081 266.64 10.081C266.256 10.081 265.914 10.006 265.614 9.856C265.32 9.706 265.086 9.514 264.912 9.28V10H263.886V3.34H264.912V5.779ZM267.927 7.498C267.927 7.156 267.855 6.862 267.711 6.616C267.573 6.364 267.387 6.175 267.153 6.049C266.925 5.917 266.679 5.851 266.415 5.851C266.157 5.851 265.911 5.917 265.677 6.049C265.449 6.181 265.263 6.373 265.119 6.625C264.981 6.877 264.912 7.174 264.912 7.516C264.912 7.858 264.981 8.158 265.119 8.416C265.263 8.668 265.449 8.86 265.677 8.992C265.911 9.124 266.157 9.19 266.415 9.19C266.679 9.19 266.925 9.124 267.153 8.992C267.387 8.854 267.573 8.656 267.711 8.398C267.855 8.14 267.927 7.84 267.927 7.498ZM274.531 7.399C274.531 7.585 274.519 7.753 274.495 7.903H270.706C270.736 8.299 270.883 8.617 271.147 8.857C271.411 9.097 271.735 9.217 272.119 9.217C272.671 9.217 273.061 8.986 273.289 8.524H274.396C274.246 8.98 273.973 9.355 273.577 9.649C273.187 9.937 272.701 10.081 272.119 10.081C271.645 10.081 271.219 9.976 270.841 9.766C270.469 9.55 270.175 9.25 269.959 8.866C269.749 8.476 269.644 8.026 269.644 7.516C269.644 7.006 269.746 6.559 269.95 6.175C270.16 5.785 270.451 5.485 270.823 5.275C271.201 5.065 271.633 4.96 272.119 4.96C272.587 4.96 273.004 5.062 273.37 5.266C273.736 5.47 274.021 5.758 274.225 6.13C274.429 6.496 274.531 6.919 274.531 7.399ZM273.46 7.075C273.454 6.697 273.319 6.394 273.055 6.166C272.791 5.938 272.464 5.824 272.074 5.824C271.72 5.824 271.417 5.938 271.165 6.166C270.913 6.388 270.763 6.691 270.715 7.075H273.46ZM276.567 5.761C276.717 5.509 276.915 5.314 277.161 5.176C277.413 5.032 277.71 4.96 278.052 4.96V6.022H277.791C277.389 6.022 277.083 6.124 276.873 6.328C276.669 6.532 276.567 6.886 276.567 7.39V10H275.541V5.041H276.567V5.761ZM253.41 17.722H250.791L250.341 19H249.27L251.511 12.736H252.699L254.94 19H253.86L253.41 17.722ZM253.122 16.885L252.105 13.978L251.079 16.885H253.122ZM256.941 14.77C257.115 14.542 257.352 14.35 257.652 14.194C257.952 14.038 258.291 13.96 258.669 13.96C259.101 13.96 259.494 14.068 259.848 14.284C260.208 14.494 260.49 14.791 260.694 15.175C260.898 15.559 261 16 261 16.498C261 16.996 260.898 17.443 260.694 17.839C260.49 18.229 260.208 18.535 259.848 18.757C259.494 18.973 259.101 19.081 258.669 19.081C258.291 19.081 257.955 19.006 257.661 18.856C257.367 18.7 257.127 18.508 256.941 18.28V21.358H255.915V14.041H256.941V14.77ZM259.956 16.498C259.956 16.156 259.884 15.862 259.74 15.616C259.602 15.364 259.416 15.175 259.182 15.049C258.954 14.917 258.708 14.851 258.444 14.851C258.186 14.851 257.94 14.917 257.706 15.049C257.478 15.181 257.292 15.373 257.148 15.625C257.01 15.877 256.941 16.174 256.941 16.516C256.941 16.858 257.01 17.158 257.148 17.416C257.292 17.668 257.478 17.86 257.706 17.992C257.94 18.124 258.186 18.19 258.444 18.19C258.708 18.19 258.954 18.124 259.182 17.992C259.416 17.854 259.602 17.656 259.74 17.398C259.884 17.14 259.956 16.84 259.956 16.498ZM263.04 12.34V19H262.014V12.34H263.04ZM264.909 13.384C264.723 13.384 264.567 13.321 264.441 13.195C264.315 13.069 264.252 12.913 264.252 12.727C264.252 12.541 264.315 12.385 264.441 12.259C264.567 12.133 264.723 12.07 264.909 12.07C265.089 12.07 265.242 12.133 265.368 12.259C265.494 12.385 265.557 12.541 265.557 12.727C265.557 12.913 265.494 13.069 265.368 13.195C265.242 13.321 265.089 13.384 264.909 13.384ZM265.413 14.041V19H264.387V14.041H265.413ZM266.418 16.516C266.418 16.006 266.52 15.559 266.724 15.175C266.934 14.785 267.222 14.485 267.588 14.275C267.954 14.065 268.374 13.96 268.848 13.96C269.448 13.96 269.943 14.104 270.333 14.392C270.729 14.674 270.996 15.079 271.134 15.607H270.027C269.937 15.361 269.793 15.169 269.595 15.031C269.397 14.893 269.148 14.824 268.848 14.824C268.428 14.824 268.092 14.974 267.84 15.274C267.594 15.568 267.471 15.982 267.471 16.516C267.471 17.05 267.594 17.467 267.84 17.767C268.092 18.067 268.428 18.217 268.848 18.217C269.442 18.217 269.835 17.956 270.027 17.434H271.134C270.99 17.938 270.72 18.34 270.324 18.64C269.928 18.934 269.436 19.081 268.848 19.081C268.374 19.081 267.954 18.976 267.588 18.766C267.222 18.55 266.934 18.25 266.724 17.866C266.52 17.476 266.418 17.026 266.418 16.516ZM271.815 16.498C271.815 16 271.917 15.559 272.121 15.175C272.331 14.791 272.613 14.494 272.967 14.284C273.327 14.068 273.723 13.96 274.155 13.96C274.545 13.96 274.884 14.038 275.172 14.194C275.466 14.344 275.7 14.533 275.874 14.761V14.041H276.909V19H275.874V18.262C275.7 18.496 275.463 18.691 275.163 18.847C274.863 19.003 274.521 19.081 274.137 19.081C273.711 19.081 273.321 18.973 272.967 18.757C272.613 18.535 272.331 18.229 272.121 17.839C271.917 17.443 271.815 16.996 271.815 16.498ZM275.874 16.516C275.874 16.174 275.802 15.877 275.658 15.625C275.52 15.373 275.337 15.181 275.109 15.049C274.881 14.917 274.635 14.851 274.371 14.851C274.107 14.851 273.861 14.917 273.633 15.049C273.405 15.175 273.219 15.364 273.075 15.616C272.937 15.862 272.868 16.156 272.868 16.498C272.868 16.84 272.937 17.14 273.075 17.398C273.219 17.656 273.405 17.854 273.633 17.992C273.867 18.124 274.113 18.19 274.371 18.19C274.635 18.19 274.881 18.124 275.109 17.992C275.337 17.86 275.52 17.668 275.658 17.416C275.802 17.158 275.874 16.858 275.874 16.516ZM279.283 14.761C279.433 14.509 279.631 14.314 279.877 14.176C280.129 14.032 280.426 13.96 280.768 13.96V15.022H280.507C280.105 15.022 279.799 15.124 279.589 15.328C279.385 15.532 279.283 15.886 279.283 16.39V19H278.257V14.041H279.283V14.761Z" fill="white"/>
<rect x="305" width="70" height="24" rx="12" fill="#F97316"/>
<path d="M341.507 33.7434C341.122 34.4101 340.159 34.4101 339.775 33.7434L333.936 23.6304C333.551 22.9637 334.032 22.1304 334.802 22.1304L346.479 22.1304C347.249 22.1304 347.73 22.9637 347.345 23.6304L341.507 33.7434Z" fill="#F97316"/>
<path d="M329.416 10.063C328.996 10.063 328.618 9.991 328.282 9.847C327.946 9.697 327.682 9.487 327.49 9.217C327.298 8.947 327.202 8.632 327.202 8.272H328.3C328.324 8.542 328.429 8.764 328.615 8.938C328.807 9.112 329.074 9.199 329.416 9.199C329.77 9.199 330.046 9.115 330.244 8.947C330.442 8.773 330.541 8.551 330.541 8.281C330.541 8.071 330.478 7.9 330.352 7.768C330.232 7.636 330.079 7.534 329.893 7.462C329.713 7.39 329.461 7.312 329.137 7.228C328.729 7.12 328.396 7.012 328.138 6.904C327.886 6.79 327.67 6.616 327.49 6.382C327.31 6.148 327.22 5.836 327.22 5.446C327.22 5.086 327.31 4.771 327.49 4.501C327.67 4.231 327.922 4.024 328.246 3.88C328.57 3.736 328.945 3.664 329.371 3.664C329.977 3.664 330.472 3.817 330.856 4.123C331.246 4.423 331.462 4.837 331.504 5.365H330.37C330.352 5.137 330.244 4.942 330.046 4.78C329.848 4.618 329.587 4.537 329.263 4.537C328.969 4.537 328.729 4.612 328.543 4.762C328.357 4.912 328.264 5.128 328.264 5.41C328.264 5.602 328.321 5.761 328.435 5.887C328.555 6.007 328.705 6.103 328.885 6.175C329.065 6.247 329.311 6.325 329.623 6.409C330.037 6.523 330.373 6.637 330.631 6.751C330.895 6.865 331.117 7.042 331.297 7.282C331.483 7.516 331.576 7.831 331.576 8.227C331.576 8.545 331.489 8.845 331.315 9.127C331.147 9.409 330.898 9.637 330.568 9.811C330.244 9.979 329.86 10.063 329.416 10.063ZM332.445 7.498C332.445 7 332.547 6.559 332.751 6.175C332.961 5.791 333.243 5.494 333.597 5.284C333.957 5.068 334.353 4.96 334.785 4.96C335.175 4.96 335.514 5.038 335.802 5.194C336.096 5.344 336.33 5.533 336.504 5.761V5.041H337.539V10H336.504V9.262C336.33 9.496 336.093 9.691 335.793 9.847C335.493 10.003 335.151 10.081 334.767 10.081C334.341 10.081 333.951 9.973 333.597 9.757C333.243 9.535 332.961 9.229 332.751 8.839C332.547 8.443 332.445 7.996 332.445 7.498ZM336.504 7.516C336.504 7.174 336.432 6.877 336.288 6.625C336.15 6.373 335.967 6.181 335.739 6.049C335.511 5.917 335.265 5.851 335.001 5.851C334.737 5.851 334.491 5.917 334.263 6.049C334.035 6.175 333.849 6.364 333.705 6.616C333.567 6.862 333.498 7.156 333.498 7.498C333.498 7.84 333.567 8.14 333.705 8.398C333.849 8.656 334.035 8.854 334.263 8.992C334.497 9.124 334.743 9.19 335.001 9.19C335.265 9.19 335.511 9.124 335.739 8.992C335.967 8.86 336.15 8.668 336.288 8.416C336.432 8.158 336.504 7.858 336.504 7.516ZM339.912 5.779C340.086 5.539 340.323 5.344 340.623 5.194C340.929 5.038 341.268 4.96 341.64 4.96C342.078 4.96 342.474 5.065 342.828 5.275C343.182 5.485 343.461 5.785 343.665 6.175C343.869 6.559 343.971 7 343.971 7.498C343.971 7.996 343.869 8.443 343.665 8.839C343.461 9.229 343.179 9.535 342.819 9.757C342.465 9.973 342.072 10.081 341.64 10.081C341.256 10.081 340.914 10.006 340.614 9.856C340.32 9.706 340.086 9.514 339.912 9.28V10H338.886V3.34H339.912V5.779ZM342.927 7.498C342.927 7.156 342.855 6.862 342.711 6.616C342.573 6.364 342.387 6.175 342.153 6.049C341.925 5.917 341.679 5.851 341.415 5.851C341.157 5.851 340.911 5.917 340.677 6.049C340.449 6.181 340.263 6.373 340.119 6.625C339.981 6.877 339.912 7.174 339.912 7.516C339.912 7.858 339.981 8.158 340.119 8.416C340.263 8.668 340.449 8.86 340.677 8.992C340.911 9.124 341.157 9.19 341.415 9.19C341.679 9.19 341.925 9.124 342.153 8.992C342.387 8.854 342.573 8.656 342.711 8.398C342.855 8.14 342.927 7.84 342.927 7.498ZM349.531 7.399C349.531 7.585 349.519 7.753 349.495 7.903H345.706C345.736 8.299 345.883 8.617 346.147 8.857C346.411 9.097 346.735 9.217 347.119 9.217C347.671 9.217 348.061 8.986 348.289 8.524H349.396C349.246 8.98 348.973 9.355 348.577 9.649C348.187 9.937 347.701 10.081 347.119 10.081C346.645 10.081 346.219 9.976 345.841 9.766C345.469 9.55 345.175 9.25 344.959 8.866C344.749 8.476 344.644 8.026 344.644 7.516C344.644 7.006 344.746 6.559 344.95 6.175C345.16 5.785 345.451 5.485 345.823 5.275C346.201 5.065 346.633 4.96 347.119 4.96C347.587 4.96 348.004 5.062 348.37 5.266C348.736 5.47 349.021 5.758 349.225 6.13C349.429 6.496 349.531 6.919 349.531 7.399ZM348.46 7.075C348.454 6.697 348.319 6.394 348.055 6.166C347.791 5.938 347.464 5.824 347.074 5.824C346.72 5.824 346.417 5.938 346.165 6.166C345.913 6.388 345.763 6.691 345.715 7.075H348.46ZM351.567 5.761C351.717 5.509 351.915 5.314 352.161 5.176C352.413 5.032 352.71 4.96 353.052 4.96V6.022H352.791C352.389 6.022 352.083 6.124 351.873 6.328C351.669 6.532 351.567 6.886 351.567 7.39V10H350.541V5.041H351.567V5.761ZM326.068 17.722H323.449L322.999 19H321.928L324.169 12.736H325.357L327.598 19H326.518L326.068 17.722ZM325.78 16.885L324.763 13.978L323.737 16.885H325.78ZM331.074 13.96C331.464 13.96 331.812 14.041 332.118 14.203C332.43 14.365 332.673 14.605 332.847 14.923C333.021 15.241 333.108 15.625 333.108 16.075V19H332.091V16.228C332.091 15.784 331.98 15.445 331.758 15.211C331.536 14.971 331.233 14.851 330.849 14.851C330.465 14.851 330.159 14.971 329.931 15.211C329.709 15.445 329.598 15.784 329.598 16.228V19H328.572V14.041H329.598V14.608C329.766 14.404 329.979 14.245 330.237 14.131C330.501 14.017 330.78 13.96 331.074 13.96ZM334.075 16.498C334.075 16 334.177 15.559 334.381 15.175C334.591 14.791 334.873 14.494 335.227 14.284C335.587 14.068 335.983 13.96 336.415 13.96C336.805 13.96 337.144 14.038 337.432 14.194C337.726 14.344 337.96 14.533 338.134 14.761V14.041H339.169V19H338.134V18.262C337.96 18.496 337.723 18.691 337.423 18.847C337.123 19.003 336.781 19.081 336.397 19.081C335.971 19.081 335.581 18.973 335.227 18.757C334.873 18.535 334.591 18.229 334.381 17.839C334.177 17.443 334.075 16.996 334.075 16.498ZM338.134 16.516C338.134 16.174 338.062 15.877 337.918 15.625C337.78 15.373 337.597 15.181 337.369 15.049C337.141 14.917 336.895 14.851 336.631 14.851C336.367 14.851 336.121 14.917 335.893 15.049C335.665 15.175 335.479 15.364 335.335 15.616C335.197 15.862 335.128 16.156 335.128 16.498C335.128 16.84 335.197 17.14 335.335 17.398C335.479 17.656 335.665 17.854 335.893 17.992C336.127 18.124 336.373 18.19 336.631 18.19C336.895 18.19 337.141 18.124 337.369 17.992C337.597 17.86 337.78 17.668 337.918 17.416C338.062 17.158 338.134 16.858 338.134 16.516ZM341.543 12.34V19H340.517V12.34H341.543ZM343.412 13.384C343.226 13.384 343.07 13.321 342.944 13.195C342.818 13.069 342.755 12.913 342.755 12.727C342.755 12.541 342.818 12.385 342.944 12.259C343.07 12.133 343.226 12.07 343.412 12.07C343.592 12.07 343.745 12.133 343.871 12.259C343.997 12.385 344.06 12.541 344.06 12.727C344.06 12.913 343.997 13.069 343.871 13.195C343.745 13.321 343.592 13.384 343.412 13.384ZM343.916 14.041V19H342.89V14.041H343.916ZM346.172 18.163H348.422V19H344.984V18.163L347.243 14.878H344.984V14.041H348.422V14.878L346.172 18.163ZM349.157 16.498C349.157 16 349.259 15.559 349.463 15.175C349.673 14.791 349.955 14.494 350.309 14.284C350.669 14.068 351.065 13.96 351.497 13.96C351.887 13.96 352.226 14.038 352.514 14.194C352.808 14.344 353.042 14.533 353.216 14.761V14.041H354.251V19H353.216V18.262C353.042 18.496 352.805 18.691 352.505 18.847C352.205 19.003 351.863 19.081 351.479 19.081C351.053 19.081 350.663 18.973 350.309 18.757C349.955 18.535 349.673 18.229 349.463 17.839C349.259 17.443 349.157 16.996 349.157 16.498ZM353.216 16.516C353.216 16.174 353.144 15.877 353 15.625C352.862 15.373 352.679 15.181 352.451 15.049C352.223 14.917 351.977 14.851 351.713 14.851C351.449 14.851 351.203 14.917 350.975 15.049C350.747 15.175 350.561 15.364 350.417 15.616C350.279 15.862 350.21 16.156 350.21 16.498C350.21 16.84 350.279 17.14 350.417 17.398C350.561 17.656 350.747 17.854 350.975 17.992C351.209 18.124 351.455 18.19 351.713 18.19C351.977 18.19 352.223 18.124 352.451 17.992C352.679 17.86 352.862 17.668 353 17.416C353.144 17.158 353.216 16.858 353.216 16.516ZM356.625 14.761C356.775 14.509 356.973 14.314 357.219 14.176C357.471 14.032 357.768 13.96 358.11 13.96V15.022H357.849C357.447 15.022 357.141 15.124 356.931 15.328C356.727 15.532 356.625 15.886 356.625 16.39V19H355.599V14.041H356.625V14.761Z" fill="white"/>
<rect x="380" width="70" height="24" rx="12" fill="#EA580C"/>
<path d="M416.507 33.7434C416.122 34.4101 415.159 34.4101 414.775 33.7434L408.936 23.6304C408.551 22.9637 409.032 22.1304 409.802 22.1304L421.479 22.1304C422.249 22.1304 422.73 22.9637 422.345 23.6304L416.507 33.7434Z" fill="#EA580C"/>
<path d="M404.416 10.063C403.996 10.063 403.618 9.991 403.282 9.847C402.946 9.697 402.682 9.487 402.49 9.217C402.298 8.947 402.202 8.632 402.202 8.272H403.3C403.324 8.542 403.429 8.764 403.615 8.938C403.807 9.112 404.074 9.199 404.416 9.199C404.77 9.199 405.046 9.115 405.244 8.947C405.442 8.773 405.541 8.551 405.541 8.281C405.541 8.071 405.478 7.9 405.352 7.768C405.232 7.636 405.079 7.534 404.893 7.462C404.713 7.39 404.461 7.312 404.137 7.228C403.729 7.12 403.396 7.012 403.138 6.904C402.886 6.79 402.67 6.616 402.49 6.382C402.31 6.148 402.22 5.836 402.22 5.446C402.22 5.086 402.31 4.771 402.49 4.501C402.67 4.231 402.922 4.024 403.246 3.88C403.57 3.736 403.945 3.664 404.371 3.664C404.977 3.664 405.472 3.817 405.856 4.123C406.246 4.423 406.462 4.837 406.504 5.365H405.37C405.352 5.137 405.244 4.942 405.046 4.78C404.848 4.618 404.587 4.537 404.263 4.537C403.969 4.537 403.729 4.612 403.543 4.762C403.357 4.912 403.264 5.128 403.264 5.41C403.264 5.602 403.321 5.761 403.435 5.887C403.555 6.007 403.705 6.103 403.885 6.175C404.065 6.247 404.311 6.325 404.623 6.409C405.037 6.523 405.373 6.637 405.631 6.751C405.895 6.865 406.117 7.042 406.297 7.282C406.483 7.516 406.576 7.831 406.576 8.227C406.576 8.545 406.489 8.845 406.315 9.127C406.147 9.409 405.898 9.637 405.568 9.811C405.244 9.979 404.86 10.063 404.416 10.063ZM407.445 7.498C407.445 7 407.547 6.559 407.751 6.175C407.961 5.791 408.243 5.494 408.597 5.284C408.957 5.068 409.353 4.96 409.785 4.96C410.175 4.96 410.514 5.038 410.802 5.194C411.096 5.344 411.33 5.533 411.504 5.761V5.041H412.539V10H411.504V9.262C411.33 9.496 411.093 9.691 410.793 9.847C410.493 10.003 410.151 10.081 409.767 10.081C409.341 10.081 408.951 9.973 408.597 9.757C408.243 9.535 407.961 9.229 407.751 8.839C407.547 8.443 407.445 7.996 407.445 7.498ZM411.504 7.516C411.504 7.174 411.432 6.877 411.288 6.625C411.15 6.373 410.967 6.181 410.739 6.049C410.511 5.917 410.265 5.851 410.001 5.851C409.737 5.851 409.491 5.917 409.263 6.049C409.035 6.175 408.849 6.364 408.705 6.616C408.567 6.862 408.498 7.156 408.498 7.498C408.498 7.84 408.567 8.14 408.705 8.398C408.849 8.656 409.035 8.854 409.263 8.992C409.497 9.124 409.743 9.19 410.001 9.19C410.265 9.19 410.511 9.124 410.739 8.992C410.967 8.86 411.15 8.668 411.288 8.416C411.432 8.158 411.504 7.858 411.504 7.516ZM414.912 5.779C415.086 5.539 415.323 5.344 415.623 5.194C415.929 5.038 416.268 4.96 416.64 4.96C417.078 4.96 417.474 5.065 417.828 5.275C418.182 5.485 418.461 5.785 418.665 6.175C418.869 6.559 418.971 7 418.971 7.498C418.971 7.996 418.869 8.443 418.665 8.839C418.461 9.229 418.179 9.535 417.819 9.757C417.465 9.973 417.072 10.081 416.64 10.081C416.256 10.081 415.914 10.006 415.614 9.856C415.32 9.706 415.086 9.514 414.912 9.28V10H413.886V3.34H414.912V5.779ZM417.927 7.498C417.927 7.156 417.855 6.862 417.711 6.616C417.573 6.364 417.387 6.175 417.153 6.049C416.925 5.917 416.679 5.851 416.415 5.851C416.157 5.851 415.911 5.917 415.677 6.049C415.449 6.181 415.263 6.373 415.119 6.625C414.981 6.877 414.912 7.174 414.912 7.516C414.912 7.858 414.981 8.158 415.119 8.416C415.263 8.668 415.449 8.86 415.677 8.992C415.911 9.124 416.157 9.19 416.415 9.19C416.679 9.19 416.925 9.124 417.153 8.992C417.387 8.854 417.573 8.656 417.711 8.398C417.855 8.14 417.927 7.84 417.927 7.498ZM424.531 7.399C424.531 7.585 424.519 7.753 424.495 7.903H420.706C420.736 8.299 420.883 8.617 421.147 8.857C421.411 9.097 421.735 9.217 422.119 9.217C422.671 9.217 423.061 8.986 423.289 8.524H424.396C424.246 8.98 423.973 9.355 423.577 9.649C423.187 9.937 422.701 10.081 422.119 10.081C421.645 10.081 421.219 9.976 420.841 9.766C420.469 9.55 420.175 9.25 419.959 8.866C419.749 8.476 419.644 8.026 419.644 7.516C419.644 7.006 419.746 6.559 419.95 6.175C420.16 5.785 420.451 5.485 420.823 5.275C421.201 5.065 421.633 4.96 422.119 4.96C422.587 4.96 423.004 5.062 423.37 5.266C423.736 5.47 424.021 5.758 424.225 6.13C424.429 6.496 424.531 6.919 424.531 7.399ZM423.46 7.075C423.454 6.697 423.319 6.394 423.055 6.166C422.791 5.938 422.464 5.824 422.074 5.824C421.72 5.824 421.417 5.938 421.165 6.166C420.913 6.388 420.763 6.691 420.715 7.075H423.46ZM426.567 5.761C426.717 5.509 426.915 5.314 427.161 5.176C427.413 5.032 427.71 4.96 428.052 4.96V6.022H427.791C427.389 6.022 427.083 6.124 426.873 6.328C426.669 6.532 426.567 6.886 426.567 7.39V10H425.541V5.041H426.567V5.761ZM402.571 15.859C402.571 15.247 402.712 14.698 402.994 14.212C403.282 13.726 403.669 13.348 404.155 13.078C404.647 12.802 405.184 12.664 405.766 12.664C406.432 12.664 407.023 12.829 407.539 13.159C408.061 13.483 408.439 13.945 408.673 14.545H407.44C407.278 14.215 407.053 13.969 406.765 13.807C406.477 13.645 406.144 13.564 405.766 13.564C405.352 13.564 404.983 13.657 404.659 13.843C404.335 14.029 404.08 14.296 403.894 14.644C403.714 14.992 403.624 15.397 403.624 15.859C403.624 16.321 403.714 16.726 403.894 17.074C404.08 17.422 404.335 17.692 404.659 17.884C404.983 18.07 405.352 18.163 405.766 18.163C406.144 18.163 406.477 18.082 406.765 17.92C407.053 17.758 407.278 17.512 407.44 17.182H408.673C408.439 17.782 408.061 18.244 407.539 18.568C407.023 18.892 406.432 19.054 405.766 19.054C405.178 19.054 404.641 18.919 404.155 18.649C403.669 18.373 403.282 17.992 402.994 17.506C402.712 17.02 402.571 16.471 402.571 15.859ZM410.9 14.761C411.05 14.509 411.248 14.314 411.494 14.176C411.746 14.032 412.043 13.96 412.385 13.96V15.022H412.124C411.722 15.022 411.416 15.124 411.206 15.328C411.002 15.532 410.9 15.886 410.9 16.39V19H409.874V14.041H410.9V14.761ZM417.873 16.399C417.873 16.585 417.861 16.753 417.837 16.903H414.048C414.078 17.299 414.225 17.617 414.489 17.857C414.753 18.097 415.077 18.217 415.461 18.217C416.013 18.217 416.403 17.986 416.631 17.524H417.738C417.588 17.98 417.315 18.355 416.919 18.649C416.529 18.937 416.043 19.081 415.461 19.081C414.987 19.081 414.561 18.976 414.183 18.766C413.811 18.55 413.517 18.25 413.301 17.866C413.091 17.476 412.986 17.026 412.986 16.516C412.986 16.006 413.088 15.559 413.292 15.175C413.502 14.785 413.793 14.485 414.165 14.275C414.543 14.065 414.975 13.96 415.461 13.96C415.929 13.96 416.346 14.062 416.712 14.266C417.078 14.47 417.363 14.758 417.567 15.13C417.771 15.496 417.873 15.919 417.873 16.399ZM416.802 16.075C416.796 15.697 416.661 15.394 416.397 15.166C416.133 14.938 415.806 14.824 415.416 14.824C415.062 14.824 414.759 14.938 414.507 15.166C414.255 15.388 414.105 15.691 414.057 16.075H416.802ZM418.541 16.498C418.541 16 418.643 15.559 418.847 15.175C419.057 14.791 419.339 14.494 419.693 14.284C420.053 14.068 420.449 13.96 420.881 13.96C421.271 13.96 421.61 14.038 421.898 14.194C422.192 14.344 422.426 14.533 422.6 14.761V14.041H423.635V19H422.6V18.262C422.426 18.496 422.189 18.691 421.889 18.847C421.589 19.003 421.247 19.081 420.863 19.081C420.437 19.081 420.047 18.973 419.693 18.757C419.339 18.535 419.057 18.229 418.847 17.839C418.643 17.443 418.541 16.996 418.541 16.498ZM422.6 16.516C422.6 16.174 422.528 15.877 422.384 15.625C422.246 15.373 422.063 15.181 421.835 15.049C421.607 14.917 421.361 14.851 421.097 14.851C420.833 14.851 420.587 14.917 420.359 15.049C420.131 15.175 419.945 15.364 419.801 15.616C419.663 15.862 419.594 16.156 419.594 16.498C419.594 16.84 419.663 17.14 419.801 17.398C419.945 17.656 420.131 17.854 420.359 17.992C420.593 18.124 420.839 18.19 421.097 18.19C421.361 18.19 421.607 18.124 421.835 17.992C422.063 17.86 422.246 17.668 422.384 17.416C422.528 17.158 422.6 16.858 422.6 16.516ZM426.009 14.761C426.159 14.509 426.357 14.314 426.603 14.176C426.855 14.032 427.152 13.96 427.494 13.96V15.022H427.233C426.831 15.022 426.525 15.124 426.315 15.328C426.111 15.532 426.009 15.886 426.009 16.39V19H424.983V14.041H426.009V14.761Z" fill="white"/>
<path d="M27.814 125H26.788L23.701 120.329V125H22.675V118.736H23.701L26.788 123.398V118.736H27.814V125ZM29.6833 119.384C29.4973 119.384 29.3413 119.321 29.2153 119.195C29.0893 119.069 29.0263 118.913 29.0263 118.727C29.0263 118.541 29.0893 118.385 29.2153 118.259C29.3413 118.133 29.4973 118.07 29.6833 118.07C29.8633 118.07 30.0163 118.133 30.1423 118.259C30.2683 118.385 30.3313 118.541 30.3313 118.727C30.3313 118.913 30.2683 119.069 30.1423 119.195C30.0163 119.321 29.8633 119.384 29.6833 119.384ZM30.1873 120.041V125H29.1613V120.041H30.1873ZM33.4514 124.082L34.8554 120.041H35.9444L34.0544 125H32.8304L30.9494 120.041H32.0474L33.4514 124.082ZM41.2649 122.399C41.2649 122.585 41.2529 122.753 41.2289 122.903H37.4399C37.4699 123.299 37.6169 123.617 37.8809 123.857C38.1449 124.097 38.4689 124.217 38.8529 124.217C39.4049 124.217 39.7949 123.986 40.0229 123.524H41.1299C40.9799 123.98 40.7069 124.355 40.3109 124.649C39.9209 124.937 39.4349 125.081 38.8529 125.081C38.3789 125.081 37.9529 124.976 37.5749 124.766C37.2029 124.55 36.9089 124.25 36.6929 123.866C36.4829 123.476 36.3779 123.026 36.3779 122.516C36.3779 122.006 36.4799 121.559 36.6839 121.175C36.8939 120.785 37.1849 120.485 37.5569 120.275C37.9349 120.065 38.3669 119.96 38.8529 119.96C39.3209 119.96 39.7379 120.062 40.1039 120.266C40.4699 120.47 40.7549 120.758 40.9589 121.13C41.1629 121.496 41.2649 121.919 41.2649 122.399ZM40.1939 122.075C40.1879 121.697 40.0529 121.394 39.7889 121.166C39.5249 120.938 39.1979 120.824 38.8079 120.824C38.4539 120.824 38.1509 120.938 37.8989 121.166C37.6469 121.388 37.4969 121.691 37.4489 122.075H40.1939ZM43.3006 118.34V125H42.2746V118.34H43.3006ZM46.7155 119.375V118.439H48.5875V125H47.5525V119.375H46.7155Z" fill="white"/>
<path d="M100.814 125H99.788L96.701 120.329V125H95.675V118.736H96.701L99.788 123.398V118.736H100.814V125ZM102.683 119.384C102.497 119.384 102.341 119.321 102.215 119.195C102.089 119.069 102.026 118.913 102.026 118.727C102.026 118.541 102.089 118.385 102.215 118.259C102.341 118.133 102.497 118.07 102.683 118.07C102.863 118.07 103.016 118.133 103.142 118.259C103.268 118.385 103.331 118.541 103.331 118.727C103.331 118.913 103.268 119.069 103.142 119.195C103.016 119.321 102.863 119.384 102.683 119.384ZM103.187 120.041V125H102.161V120.041H103.187ZM106.451 124.082L107.855 120.041H108.944L107.054 125H105.83L103.949 120.041H105.047L106.451 124.082ZM114.265 122.399C114.265 122.585 114.253 122.753 114.229 122.903H110.44C110.47 123.299 110.617 123.617 110.881 123.857C111.145 124.097 111.469 124.217 111.853 124.217C112.405 124.217 112.795 123.986 113.023 123.524H114.13C113.98 123.98 113.707 124.355 113.311 124.649C112.921 124.937 112.435 125.081 111.853 125.081C111.379 125.081 110.953 124.976 110.575 124.766C110.203 124.55 109.909 124.25 109.693 123.866C109.483 123.476 109.378 123.026 109.378 122.516C109.378 122.006 109.48 121.559 109.684 121.175C109.894 120.785 110.185 120.485 110.557 120.275C110.935 120.065 111.367 119.96 111.853 119.96C112.321 119.96 112.738 120.062 113.104 120.266C113.47 120.47 113.755 120.758 113.959 121.13C114.163 121.496 114.265 121.919 114.265 122.399ZM113.194 122.075C113.188 121.697 113.053 121.394 112.789 121.166C112.525 120.938 112.198 120.824 111.808 120.824C111.454 120.824 111.151 120.938 110.899 121.166C110.647 121.388 110.497 121.691 110.449 122.075H113.194ZM116.301 118.34V125H115.275V118.34H116.301ZM120.418 123.605C120.994 123.107 121.447 122.699 121.777 122.381C122.113 122.057 122.392 121.721 122.614 121.373C122.836 121.025 122.947 120.677 122.947 120.329C122.947 119.969 122.86 119.687 122.686 119.483C122.518 119.279 122.251 119.177 121.885 119.177C121.531 119.177 121.255 119.291 121.057 119.519C120.865 119.741 120.763 120.041 120.751 120.419H119.761C119.779 119.735 119.983 119.213 120.373 118.853C120.769 118.487 121.27 118.304 121.876 118.304C122.53 118.304 123.04 118.484 123.406 118.844C123.778 119.204 123.964 119.684 123.964 120.284C123.964 120.716 123.853 121.133 123.631 121.535C123.415 121.931 123.154 122.288 122.848 122.606C122.548 122.918 122.164 123.281 121.696 123.695L121.291 124.055H124.144V124.91H119.77V124.163L120.418 123.605Z" fill="white"/>
<path d="M174.814 125H173.788L170.701 120.329V125H169.675V118.736H170.701L173.788 123.398V118.736H174.814V125ZM176.683 119.384C176.497 119.384 176.341 119.321 176.215 119.195C176.089 119.069 176.026 118.913 176.026 118.727C176.026 118.541 176.089 118.385 176.215 118.259C176.341 118.133 176.497 118.07 176.683 118.07C176.863 118.07 177.016 118.133 177.142 118.259C177.268 118.385 177.331 118.541 177.331 118.727C177.331 118.913 177.268 119.069 177.142 119.195C177.016 119.321 176.863 119.384 176.683 119.384ZM177.187 120.041V125H176.161V120.041H177.187ZM180.451 124.082L181.855 120.041H182.944L181.054 125H179.83L177.949 120.041H179.047L180.451 124.082ZM188.265 122.399C188.265 122.585 188.253 122.753 188.229 122.903H184.44C184.47 123.299 184.617 123.617 184.881 123.857C185.145 124.097 185.469 124.217 185.853 124.217C186.405 124.217 186.795 123.986 187.023 123.524H188.13C187.98 123.98 187.707 124.355 187.311 124.649C186.921 124.937 186.435 125.081 185.853 125.081C185.379 125.081 184.953 124.976 184.575 124.766C184.203 124.55 183.909 124.25 183.693 123.866C183.483 123.476 183.378 123.026 183.378 122.516C183.378 122.006 183.48 121.559 183.684 121.175C183.894 120.785 184.185 120.485 184.557 120.275C184.935 120.065 185.367 119.96 185.853 119.96C186.321 119.96 186.738 120.062 187.104 120.266C187.47 120.47 187.755 120.758 187.959 121.13C188.163 121.496 188.265 121.919 188.265 122.399ZM187.194 122.075C187.188 121.697 187.053 121.394 186.789 121.166C186.525 120.938 186.198 120.824 185.808 120.824C185.454 120.824 185.151 120.938 184.899 121.166C184.647 121.388 184.497 121.691 184.449 122.075H187.194ZM190.301 118.34V125H189.275V118.34H190.301ZM193.833 120.059C193.869 119.501 194.082 119.066 194.472 118.754C194.868 118.442 195.372 118.286 195.984 118.286C196.404 118.286 196.767 118.361 197.073 118.511C197.379 118.661 197.61 118.865 197.766 119.123C197.922 119.381 198 119.672 198 119.996C198 120.368 197.901 120.686 197.703 120.95C197.505 121.214 197.268 121.391 196.992 121.481V121.517C197.346 121.625 197.622 121.823 197.82 122.111C198.018 122.393 198.117 122.756 198.117 123.2C198.117 123.554 198.036 123.869 197.874 124.145C197.712 124.421 197.472 124.64 197.154 124.802C196.836 124.958 196.455 125.036 196.011 125.036C195.363 125.036 194.829 124.871 194.409 124.541C193.995 124.205 193.773 123.725 193.743 123.101H194.733C194.757 123.419 194.88 123.68 195.102 123.884C195.324 124.082 195.624 124.181 196.002 124.181C196.368 124.181 196.65 124.082 196.848 123.884C197.046 123.68 197.145 123.419 197.145 123.101C197.145 122.681 197.01 122.384 196.74 122.21C196.476 122.03 196.068 121.94 195.516 121.94H195.282V121.094H195.525C196.011 121.088 196.38 121.007 196.632 120.851C196.89 120.695 197.019 120.449 197.019 120.113C197.019 119.825 196.926 119.597 196.74 119.429C196.554 119.255 196.29 119.168 195.948 119.168C195.612 119.168 195.351 119.255 195.165 119.429C194.979 119.597 194.868 119.807 194.832 120.059H193.833Z" fill="white"/>
<rect x="217" y="109" width="99" height="26" rx="13" fill="#FB923C"/>
<rect x="289" y="109" width="99" height="26" rx="13" fill="#F97316"/>
<rect x="363" y="109" width="90" height="26" rx="13" fill="#EA580C"/>
<path d="M251.814 125H250.788L247.701 120.329V125H246.675V118.736H247.701L250.788 123.398V118.736H251.814V125ZM253.683 119.384C253.497 119.384 253.341 119.321 253.215 119.195C253.089 119.069 253.026 118.913 253.026 118.727C253.026 118.541 253.089 118.385 253.215 118.259C253.341 118.133 253.497 118.07 253.683 118.07C253.863 118.07 254.016 118.133 254.142 118.259C254.268 118.385 254.331 118.541 254.331 118.727C254.331 118.913 254.268 119.069 254.142 119.195C254.016 119.321 253.863 119.384 253.683 119.384ZM254.187 120.041V125H253.161V120.041H254.187ZM257.451 124.082L258.855 120.041H259.944L258.054 125H256.83L254.949 120.041H256.047L257.451 124.082ZM265.265 122.399C265.265 122.585 265.253 122.753 265.229 122.903H261.44C261.47 123.299 261.617 123.617 261.881 123.857C262.145 124.097 262.469 124.217 262.853 124.217C263.405 124.217 263.795 123.986 264.023 123.524H265.13C264.98 123.98 264.707 124.355 264.311 124.649C263.921 124.937 263.435 125.081 262.853 125.081C262.379 125.081 261.953 124.976 261.575 124.766C261.203 124.55 260.909 124.25 260.693 123.866C260.483 123.476 260.378 123.026 260.378 122.516C260.378 122.006 260.48 121.559 260.684 121.175C260.894 120.785 261.185 120.485 261.557 120.275C261.935 120.065 262.367 119.96 262.853 119.96C263.321 119.96 263.738 120.062 264.104 120.266C264.47 120.47 264.755 120.758 264.959 121.13C265.163 121.496 265.265 121.919 265.265 122.399ZM264.194 122.075C264.188 121.697 264.053 121.394 263.789 121.166C263.525 120.938 263.198 120.824 262.808 120.824C262.454 120.824 262.151 120.938 261.899 121.166C261.647 121.388 261.497 121.691 261.449 122.075H264.194ZM267.301 118.34V125H266.275V118.34H267.301ZM270.725 123.632V122.858L273.749 118.52H274.991V122.741H275.828V123.632H274.991V125H273.983V123.632H270.725ZM274.028 119.564L271.904 122.741H274.028V119.564Z" fill="white"/>
<path d="M321.814 124H320.788L317.701 119.329V124H316.675V117.736H317.701L320.788 122.398V117.736H321.814V124ZM323.683 118.384C323.497 118.384 323.341 118.321 323.215 118.195C323.089 118.069 323.026 117.913 323.026 117.727C323.026 117.541 323.089 117.385 323.215 117.259C323.341 117.133 323.497 117.07 323.683 117.07C323.863 117.07 324.016 117.133 324.142 117.259C324.268 117.385 324.331 117.541 324.331 117.727C324.331 117.913 324.268 118.069 324.142 118.195C324.016 118.321 323.863 118.384 323.683 118.384ZM324.187 119.041V124H323.161V119.041H324.187ZM327.451 123.082L328.855 119.041H329.944L328.054 124H326.83L324.949 119.041H326.047L327.451 123.082ZM335.265 121.399C335.265 121.585 335.253 121.753 335.229 121.903H331.44C331.47 122.299 331.617 122.617 331.881 122.857C332.145 123.097 332.469 123.217 332.853 123.217C333.405 123.217 333.795 122.986 334.023 122.524H335.13C334.98 122.98 334.707 123.355 334.311 123.649C333.921 123.937 333.435 124.081 332.853 124.081C332.379 124.081 331.953 123.976 331.575 123.766C331.203 123.55 330.909 123.25 330.693 122.866C330.483 122.476 330.378 122.026 330.378 121.516C330.378 121.006 330.48 120.559 330.684 120.175C330.894 119.785 331.185 119.485 331.557 119.275C331.935 119.065 332.367 118.96 332.853 118.96C333.321 118.96 333.738 119.062 334.104 119.266C334.47 119.47 334.755 119.758 334.959 120.13C335.163 120.496 335.265 120.919 335.265 121.399ZM334.194 121.075C334.188 120.697 334.053 120.394 333.789 120.166C333.525 119.938 333.198 119.824 332.808 119.824C332.454 119.824 332.151 119.938 331.899 120.166C331.647 120.388 331.497 120.691 331.449 121.075H334.194ZM337.301 117.34V124H336.275V117.34H337.301ZM345.081 118.321H342.066V120.112C342.192 119.944 342.378 119.803 342.624 119.689C342.876 119.575 343.143 119.518 343.425 119.518C343.929 119.518 344.337 119.626 344.649 119.842C344.967 120.058 345.192 120.331 345.324 120.661C345.462 120.991 345.531 121.339 345.531 121.705C345.531 122.149 345.444 122.545 345.27 122.893C345.102 123.235 344.847 123.505 344.505 123.703C344.169 123.901 343.755 124 343.263 124C342.609 124 342.084 123.838 341.688 123.514C341.292 123.19 341.055 122.761 340.977 122.227H341.976C342.042 122.509 342.189 122.734 342.417 122.902C342.645 123.064 342.93 123.145 343.272 123.145C343.698 123.145 344.016 123.016 344.226 122.758C344.442 122.5 344.55 122.158 344.55 121.732C344.55 121.3 344.442 120.97 344.226 120.742C344.01 120.508 343.692 120.391 343.272 120.391C342.978 120.391 342.729 120.466 342.525 120.616C342.327 120.76 342.183 120.958 342.093 121.21H341.121V117.421H345.081V118.321Z" fill="white"/>
<path d="M399.814 124H398.788L395.701 119.329V124H394.675V117.736H395.701L398.788 122.398V117.736H399.814V124ZM401.683 118.384C401.497 118.384 401.341 118.321 401.215 118.195C401.089 118.069 401.026 117.913 401.026 117.727C401.026 117.541 401.089 117.385 401.215 117.259C401.341 117.133 401.497 117.07 401.683 117.07C401.863 117.07 402.016 117.133 402.142 117.259C402.268 117.385 402.331 117.541 402.331 117.727C402.331 117.913 402.268 118.069 402.142 118.195C402.016 118.321 401.863 118.384 401.683 118.384ZM402.187 119.041V124H401.161V119.041H402.187ZM405.451 123.082L406.855 119.041H407.944L406.054 124H404.83L402.949 119.041H404.047L405.451 123.082ZM413.265 121.399C413.265 121.585 413.253 121.753 413.229 121.903H409.44C409.47 122.299 409.617 122.617 409.881 122.857C410.145 123.097 410.469 123.217 410.853 123.217C411.405 123.217 411.795 122.986 412.023 122.524H413.13C412.98 122.98 412.707 123.355 412.311 123.649C411.921 123.937 411.435 124.081 410.853 124.081C410.379 124.081 409.953 123.976 409.575 123.766C409.203 123.55 408.909 123.25 408.693 122.866C408.483 122.476 408.378 122.026 408.378 121.516C408.378 121.006 408.48 120.559 408.684 120.175C408.894 119.785 409.185 119.485 409.557 119.275C409.935 119.065 410.367 118.96 410.853 118.96C411.321 118.96 411.738 119.062 412.104 119.266C412.47 119.47 412.755 119.758 412.959 120.13C413.163 120.496 413.265 120.919 413.265 121.399ZM412.194 121.075C412.188 120.697 412.053 120.394 411.789 120.166C411.525 119.938 411.198 119.824 410.808 119.824C410.454 119.824 410.151 119.938 409.899 120.166C409.647 120.388 409.497 120.691 409.449 121.075H412.194ZM415.301 117.34V124H414.275V117.34H415.301ZM422.379 118.96C422.313 118.684 422.193 118.477 422.019 118.339C421.845 118.201 421.602 118.132 421.29 118.132C420.816 118.132 420.462 118.315 420.228 118.681C419.994 119.041 419.871 119.641 419.859 120.481C420.015 120.217 420.243 120.013 420.543 119.869C420.843 119.725 421.167 119.653 421.515 119.653C421.911 119.653 422.259 119.74 422.559 119.914C422.865 120.082 423.102 120.328 423.27 120.652C423.444 120.976 423.531 121.363 423.531 121.813C423.531 122.233 423.447 122.608 423.279 122.938C423.117 123.268 422.874 123.529 422.55 123.721C422.226 123.907 421.836 124 421.38 124C420.762 124 420.276 123.865 419.922 123.595C419.574 123.319 419.328 122.932 419.184 122.434C419.046 121.936 418.977 121.315 418.977 120.571C418.977 118.375 419.751 117.277 421.299 117.277C421.899 117.277 422.37 117.439 422.712 117.763C423.06 118.087 423.264 118.486 423.324 118.96H422.379ZM421.29 120.517C420.924 120.517 420.612 120.628 420.354 120.85C420.102 121.066 419.976 121.381 419.976 121.795C419.976 122.209 420.093 122.539 420.327 122.785C420.567 123.025 420.9 123.145 421.326 123.145C421.704 123.145 422.001 123.028 422.217 122.794C422.439 122.56 422.55 122.248 422.55 121.858C422.55 121.45 422.442 121.126 422.226 120.886C422.016 120.64 421.704 120.517 421.29 120.517Z" fill="white"/>
</svg>
