<svg id="Capa_1" data-name="Capa 1" xmlns="http://www.w3.org/2000/svg" viewBox="0 0 325.2 163.64"><defs><style>.cls-1{fill:#ff4700;}.cls-2{fill:#1d1d1b;}</style></defs><path class="cls-1" d="M6.8,84.22c-.17,1.55-.17,3.69-.17,5.23v1.89H1.74v7.81H6.63v37.48H18.47V99.15h9.34V91.34H18.47V89.11a32.45,32.45,0,0,1,.16-3.94c.44-3.86,4.38-5.41,10-4.38V72.56a24.48,24.48,0,0,0-5.23-.6C12.55,72,7.49,76.5,6.8,84.22Z" transform="translate(-1.74 -2.08)"/><path class="cls-1" d="M71.64,110.3c0-2.49-.09-4.89-.26-7C70.7,95.37,65.89,89.8,53.11,89.8c-10.89,0-19.21,5.83-19.55,16.12l11.49-.08c.34-5,2.92-7.72,7.63-7.72s6.7,2.31,7,5.49a37.57,37.57,0,0,1,.17,4.29v.94H57c-16.55,0-25.13,5.66-25.13,15.69,0,8.66,6.78,13.29,14.67,13.29a19.82,19.82,0,0,0,11.32-3l2.23-4.89.86,6.69H72.49a79.67,79.67,0,0,1-.85-11.58Zm-11.75,9.51c0,6.35-4,9.7-8.84,9.7-4.2,0-6.94-1.89-6.94-5.92,0-6,6.35-8.15,15.78-7.47Z" transform="translate(-1.74 -2.08)"/><path class="cls-1" d="M100.37,98.12c4.89,0,8.32,2.74,9.43,9.34h11.67C120.61,97.35,113,89.8,100.63,89.8c-12.53,0-22.82,8.75-22.82,24.35,0,15.79,9.35,23.67,21.79,23.67,11.41,0,19.81-5.74,21.78-17H109.55c-1.2,5.75-4.63,8.67-9.26,8.67-5.92,0-10.21-4.8-10.21-16.13C90.08,103,94.37,98.12,100.37,98.12Z" transform="translate(-1.74 -2.08)"/><path class="cls-1" d="M131.93,123.7c0,2.58,0,4.54.17,6.61.52,6.43,3.68,9.35,12.52,9.35a47.8,47.8,0,0,0,7.81-.61v-7.72c-6.6.51-8.23-.51-8.58-5-.08-1.2-.08-2.49-.08-4V101.23h9.43V93.42h-9.43V82.19H131.93V93.42h-6.69v7.81h6.69Z" transform="translate(-1.74 -2.08)"/><path class="cls-1" d="M180.39,139.9c15.18,0,23.67-10.2,23.67-24s-8.49-24-23.67-24-23.67,10.12-23.67,24S165.21,139.9,180.39,139.9Zm0-39.7c7.12,0,11.4,5.83,11.4,15.69s-4.28,15.7-11.4,15.7S169,125.67,169,115.89,173.27,100.2,180.39,100.2Z" transform="translate(-1.74 -2.08)"/><path class="cls-1" d="M223.61,117.78c0-12.26,4.89-16.64,14.75-16V92.31A12.73,12.73,0,0,0,235,92a11.92,11.92,0,0,0-7.8,3.09l-3.61,6.35V93.08H211.78v45.63h11.83Z" transform="translate(-1.74 -2.08)"/><rect class="cls-1" x="242.63" y="91" width="11.84" height="45.63"/><path class="cls-1" d="M290.6,136.91l2.23-4.89.86,6.69h11.57a79.58,79.58,0,0,1-.85-11.58V112.38c0-2.49-.09-4.89-.26-7-.69-7.89-5.49-13.46-18.27-13.46-10.89,0-19.21,5.83-19.56,16.12l11.5-.08c.34-5,2.92-7.72,7.64-7.72s6.68,2.31,7,5.49a35.5,35.5,0,0,1,.18,4.29v.94h-2.92c-16.56,0-25.13,5.66-25.13,15.69,0,8.67,6.77,13.29,14.67,13.29A19.84,19.84,0,0,0,290.6,136.91Zm-13.73-11.24c0-6,6.35-8.15,15.79-7.46v3.69c0,6.34-4,9.69-8.84,9.69C279.62,131.59,276.87,129.7,276.87,125.67Z" transform="translate(-1.74 -2.08)"/><path class="cls-1" d="M315.47,2.08H279.08c-3.82,0-13.37,2.33-18.09,4.49h40.36c6.6,0,12,5,12,11.12V63c0,6.14-5.38,11.13-12,11.13H262.91L244.26,87.18h10.57l26.92-8.56h33.72c6.32,0,11.47-6.65,11.47-12.46V12.61C326.94,6.8,321.79,2.08,315.47,2.08Z" transform="translate(-1.74 -2.08)"/><path class="cls-1" d="M296.09,61.88a5.69,5.69,0,0,1-2.13-.42,7.91,7.91,0,0,1-2-1.25l-1,3.18a12.58,12.58,0,0,0,1.16.66,6.37,6.37,0,0,0,1.2.47,8.82,8.82,0,0,0,1.38.29,14.85,14.85,0,0,0,1.73.09,8,8,0,0,0,3-.54,6.71,6.71,0,0,0,2.29-1.48,6.39,6.39,0,0,0,1.44-2.26,8.14,8.14,0,0,0,.5-2.88,7.45,7.45,0,0,0-.46-2.69A6.24,6.24,0,0,0,301.88,53a5.81,5.81,0,0,0-2-1.36,7,7,0,0,0-2.64-.48,5,5,0,0,0-1.29.08l.38-3.42H303l.16-3.15h-9.93l-1.27,10.44a14.91,14.91,0,0,1,1.91-.65,7.08,7.08,0,0,1,1.84-.23,3.87,3.87,0,0,1,2.93,1,3.81,3.81,0,0,1,1,2.8,4,4,0,0,1-1,2.83A3.34,3.34,0,0,1,296.09,61.88Z" transform="translate(-1.74 -2.08)"/><polygon class="cls-1" points="287.65 45.65 287.78 42.55 277.31 42.55 277.31 62.5 281.08 62.5 281.08 53.59 286.68 53.59 286.68 50.44 281.08 50.44 281.08 45.65 287.65 45.65"/><path class="cls-2" d="M5.65,152.76a13.62,13.62,0,0,1,3.52-.53q5,0,5,4.39A4.45,4.45,0,0,1,13,160a5.51,5.51,0,0,1-3.84,1.11H7v4.39H5.65Zm3.28,7.16q1.1,0,1.77-.06A6.3,6.3,0,0,0,12,159.6a4.84,4.84,0,0,0,.77-2.92,3,3,0,0,0-.93-2.46,4.21,4.21,0,0,0-2.71-.75A9.17,9.17,0,0,0,7,153.7v6.22Z" transform="translate(-1.74 -2.08)"/><path class="cls-2" d="M22.53,159.2A8.89,8.89,0,0,1,23.79,154c.84-1.17,2.24-1.75,4.22-1.75a4.52,4.52,0,0,1,3.85,1.64,8.06,8.06,0,0,1,1.24,4.9,8.84,8.84,0,0,1-1.26,5.2c-.84,1.17-2.24,1.75-4.22,1.75Q22.54,165.72,22.53,159.2Zm6.86,5.12a4.93,4.93,0,0,0,1.2-.35,9.34,9.34,0,0,0,.85-2.2,11,11,0,0,0,.32-2.7,7.68,7.68,0,0,0-.92-4.25,3.51,3.51,0,0,0-3.13-1.33,7.75,7.75,0,0,0-1.52.14A4.14,4.14,0,0,0,25,154a9.89,9.89,0,0,0-1.11,4.9,7.6,7.6,0,0,0,.91,4.24,3.53,3.53,0,0,0,3.14,1.32A7.18,7.18,0,0,0,29.39,164.32Z" transform="translate(-1.74 -2.08)"/><path class="cls-2" d="M41.62,152.55l1.45-.17q.95,5.12,2.67,11.55h.15q1.55-3.92,3.13-9c-.21-.86-.37-1.6-.47-2.24l1.34-.15c.41,2,.89,3.87,1.42,5.7s1.13,3.73,1.78,5.7h.19c1.1-4.09,2-7.94,2.67-11.55l1.44.17q-1.47,6.63-3.36,13H52.34q-1.62-4.56-2.64-8.21h-.23c-1,3.07-2,5.81-3,8.21H45Q43.05,159.07,41.62,152.55Z" transform="translate(-1.74 -2.08)"/><path class="cls-2" d="M67.6,165.32c-.78-.27-1.17-.73-1.17-1.37V152.44h7.91v1.24H67.75v4.69h6v1.19h-6v4.67a17.11,17.11,0,0,0,3.11.25,15.19,15.19,0,0,0,3.41-.34l.3,1.18a15,15,0,0,1-3.77.4A10.15,10.15,0,0,1,67.6,165.32Z" transform="translate(-1.74 -2.08)"/><path class="cls-2" d="M91.94,165.48a1.35,1.35,0,0,1-.51-.63l-1.3-2.94a6.51,6.51,0,0,0-.53-1,1.61,1.61,0,0,0-.7-.57,3,3,0,0,0-1.25-.21H85.31v5.41H84V152.74a12.55,12.55,0,0,1,3.49-.51,5.43,5.43,0,0,1,3.51,1,3.56,3.56,0,0,1,1.14,2.91A3.72,3.72,0,0,1,90,159.63v.17a2.49,2.49,0,0,1,.79.56,3.31,3.31,0,0,1,.55.91l1.49,3.3,1.07.17v.77a4,4,0,0,1-1.13.17A1.52,1.52,0,0,1,91.94,165.48Zm-2.71-6.58a3.45,3.45,0,0,0,1.15-1.13,3.24,3.24,0,0,0,.36-1.64,2.48,2.48,0,0,0-.78-2,4.21,4.21,0,0,0-2.56-.61,10.36,10.36,0,0,0-2.09.21v5.22Z" transform="translate(-1.74 -2.08)"/><path class="cls-2" d="M103.79,165.32c-.78-.27-1.18-.73-1.18-1.37V152.44h7.91v1.24h-6.58v4.69h6v1.19h-6v4.67a17,17,0,0,0,3.11.25,15.25,15.25,0,0,0,3.41-.34l.3,1.18a15.15,15.15,0,0,1-3.78.4A10.08,10.08,0,0,1,103.79,165.32Z" transform="translate(-1.74 -2.08)"/><path class="cls-2" d="M120.15,152.64a15.85,15.85,0,0,1,3.58-.41q3.12,0,4.48,1.66a7.59,7.59,0,0,1,1.36,4.9,10.88,10.88,0,0,1-.51,3.57,4.39,4.39,0,0,1-1.84,2.32,6.82,6.82,0,0,1-3.7.85h-3.37Zm3.35,11.65a13,13,0,0,0,3.54-.42,6,6,0,0,0,.88-2.08,12.14,12.14,0,0,0,.31-2.87,9.2,9.2,0,0,0-.44-3.09,3.3,3.3,0,0,0-1.44-1.78,5.33,5.33,0,0,0-2.7-.58,15.19,15.19,0,0,0-2.15.17v10.65Z" transform="translate(-1.74 -2.08)"/><path class="cls-2" d="M145.15,152.7a13.2,13.2,0,0,1,3.41-.47,5.35,5.35,0,0,1,3.42.91,3.24,3.24,0,0,1,1.12,2.69,3.31,3.31,0,0,1-1.73,3v.1a3,3,0,0,1,2.37,2.94,4,4,0,0,1-.46,2,3,3,0,0,1-1.58,1.21,8.74,8.74,0,0,1-3.08.43h-3.47Zm5.5,5.63a3.16,3.16,0,0,0,1.13-2.48A2.08,2.08,0,0,0,151,154a4.4,4.4,0,0,0-2.48-.55,12.26,12.26,0,0,0-2,.19v4.67Zm-2.18,6a8.94,8.94,0,0,0,2.42-.25,2,2,0,0,0,1.2-.77,2.47,2.47,0,0,0,.33-1.36,2.18,2.18,0,0,0-.75-1.74,3.27,3.27,0,0,0-2.19-.65h-3v4.77Z" transform="translate(-1.74 -2.08)"/><path class="cls-2" d="M167,160.82h-.43a33.44,33.44,0,0,1-2.51-3.74,38.91,38.91,0,0,1-2.15-4.38l1.34-.36a34.76,34.76,0,0,0,1.9,4,30.77,30.77,0,0,0,2.15,3.42H168a33,33,0,0,0,2.15-3.43,36.25,36.25,0,0,0,1.88-4l1.34.36a38.93,38.93,0,0,1-2.14,4.38,29.86,29.86,0,0,1-2.52,3.74h-.41v4.71H167Z" transform="translate(-1.74 -2.08)"/><path class="cls-2" d="M187.79,164.59l.79-2a8.41,8.41,0,0,0,4,1,10.92,10.92,0,0,0,2.15-.19,3.72,3.72,0,0,0,.22-1.32,1.48,1.48,0,0,0-.52-1.23,4.9,4.9,0,0,0-1.85-.74,12.45,12.45,0,0,1-2.37-.77,3.74,3.74,0,0,1-1.49-1.22,3.41,3.41,0,0,1-.55-2,3.75,3.75,0,0,1,1.15-2.83,5,5,0,0,1,3.54-1.09,9.24,9.24,0,0,1,2.27.24,7,7,0,0,1,1.71.69v.77a7.35,7.35,0,0,1-.1,1.15,6.71,6.71,0,0,1-.26,1.07h-1.81l-.24-1.73a12,12,0,0,0-1.68-.13,2.81,2.81,0,0,0-1.7.41,1.54,1.54,0,0,0-.54,1.32,1.37,1.37,0,0,0,.57,1.19,6.17,6.17,0,0,0,2.1.75,7.18,7.18,0,0,1,3.13,1.31,3.22,3.22,0,0,1,1,2.57,3.71,3.71,0,0,1-1.15,2.86,5.31,5.31,0,0,1-3.71,1.08A9.7,9.7,0,0,1,187.79,164.59Z" transform="translate(-1.74 -2.08)"/><path class="cls-2" d="M206.35,152.36h2.35v13.17h-2.35Z" transform="translate(-1.74 -2.08)"/><path class="cls-2" d="M218.54,152.36h3l2.66,7.2h.15l2.68-7.2H230l.51,13.17h-2.37l-.23-6.63,0-3.32-.17-.05-2.56,6.4h-1.81l-2.56-6.4-.17.05,0,3.32-.25,6.63H218Z" transform="translate(-1.74 -2.08)"/><path class="cls-2" d="M239.75,152.78a14,14,0,0,1,4.07-.59c3.61,0,5.41,1.5,5.41,4.52a4.55,4.55,0,0,1-1.38,3.63,6.46,6.46,0,0,1-4.29,1.2h-1.47v4h-2.34Zm3.51,6.65c.71,0,1.31,0,1.78-.06a8,8,0,0,0,1.31-.21,4.49,4.49,0,0,0,.56-2.35,2.23,2.23,0,0,0-.76-1.91,3.67,3.67,0,0,0-2.27-.58,8,8,0,0,0-1.79.17v4.94Z" transform="translate(-1.74 -2.08)"/><path class="cls-2" d="M257.75,152.36h2.35v11h5.82v2.17h-8.17Z" transform="translate(-1.74 -2.08)"/><path class="cls-2" d="M275.16,164.05a7.33,7.33,0,0,1-1.4-4.87,8.14,8.14,0,0,1,1.45-5.3,5.6,5.6,0,0,1,4.54-1.73q5.56,0,5.56,6.54a8.06,8.06,0,0,1-1.46,5.27,5.61,5.61,0,0,1-4.55,1.74A5.12,5.12,0,0,1,275.16,164.05Zm6.95-.89a10.06,10.06,0,0,0,.86-4.11,9.41,9.41,0,0,0-.32-2.69,2.76,2.76,0,0,0-1.1-1.53,3.92,3.92,0,0,0-2.16-.51,6.92,6.92,0,0,0-2.52.38,10.09,10.09,0,0,0-.79,4.12,9.08,9.08,0,0,0,.33,2.69,2.76,2.76,0,0,0,1.11,1.54,4,4,0,0,0,2.14.5A6.44,6.44,0,0,0,282.11,163.16Z" transform="translate(-1.74 -2.08)"/><path class="cls-2" d="M294.24,152.36h2.87l5.48,10.19.17-.05-.23-3.39v-6.75h2.36v13.17H302l-5.5-10.19-.17,0,.23,3.41v6.74h-2.34Z" transform="translate(-1.74 -2.08)"/></svg>