<svg width="35" height="35" viewBox="0 0 35 35" fill="none" xmlns="http://www.w3.org/2000/svg">
<path d="M29.5416 0H14.4452C12.8604 0 8.89858 0.958284 6.94048 1.84665H23.6839C26.422 1.84665 28.6622 3.90306 28.6622 6.42009V25.0552C28.6622 27.5805 26.4303 29.6328 23.6839 29.6328H7.737L0 35H4.38499L15.5528 31.4794H29.5416C32.1635 31.4794 34.3 28.7444 34.3 26.3549V4.33079C34.3 1.94125 32.1635 0 29.5416 0Z" fill="#FF4700"/>
<path d="M21.5791 24.6458C21.2974 24.6449 21.0184 24.5857 20.7574 24.4714C20.4775 24.3408 20.2174 24.1659 19.9858 23.9524L19.6 25.2727C19.7445 25.3725 19.8939 25.464 20.0475 25.5468C20.1953 25.6285 20.3504 25.6939 20.5105 25.7419C20.6847 25.7973 20.8627 25.8375 21.0429 25.8623C21.2645 25.8887 21.4873 25.9012 21.7103 25.8997C22.1059 25.9055 22.4988 25.8294 22.8677 25.6755C23.1982 25.5379 23.4989 25.3287 23.7512 25.061C23.9959 24.794 24.1853 24.4741 24.3068 24.1226C24.4376 23.7398 24.5029 23.3347 24.4997 22.9268C24.5049 22.5459 24.4447 22.1672 24.3222 21.8099C24.2061 21.4929 24.033 21.2036 23.8129 20.9587C23.5954 20.7143 23.3325 20.5219 23.0413 20.394C22.7169 20.2575 22.3711 20.1898 22.0228 20.1947C21.8563 20.1826 21.689 20.1937 21.5251 20.2279L21.6717 18.8079H24.245L24.3068 17.5H20.4758L19.9858 21.8348C20.2255 21.727 20.4717 21.6369 20.7227 21.5649C20.9544 21.4997 21.193 21.4676 21.4325 21.4694C21.6374 21.4512 21.8435 21.4786 22.038 21.5501C22.2325 21.6215 22.4112 21.7354 22.5629 21.8846C22.6964 22.0407 22.7993 22.224 22.8656 22.4237C22.9318 22.6235 22.9601 22.8355 22.9487 23.0472C22.9667 23.4779 22.8284 23.8993 22.5629 24.2222C22.4362 24.3639 22.283 24.4748 22.1134 24.5479C21.9437 24.6209 21.7616 24.6543 21.5791 24.6458Z" fill="#FF4700"/>
<path d="M18.8479 18.8053L18.9 17.5H14.7V25.9H16.2123V22.1484H18.4587V20.8221H16.2123V18.8053H18.8479Z" fill="#FF4700"/>
</svg>
