<svg id="Capa_1" data-name="Capa 1" xmlns="http://www.w3.org/2000/svg" viewBox="0 0 325.2 163.69"><defs><style>.cls-1{fill:#fff;}</style></defs><path class="cls-1" d="M5.06,82.14c-.17,1.55-.17,3.69-.17,5.23v1.89H0v7.81H4.89v37.48H16.73V97.07h9.34V89.26H16.73V87a32.37,32.37,0,0,1,.16-3.94c.44-3.86,4.38-5.41,10-4.38V70.48a24.25,24.25,0,0,0-5.23-.6C10.81,69.92,5.75,74.42,5.06,82.14Z" transform="translate(0 0)"/><path class="cls-1" d="M69.9,108.22c0-2.49-.09-4.89-.26-7-.68-7.93-5.49-13.5-18.27-13.5-10.89,0-19.21,5.83-19.55,16.12l11.49-.08c.34-5,2.92-7.72,7.63-7.72s6.7,2.31,7,5.49a36.2,36.2,0,0,1,.17,4.29v.94H55.26c-16.55,0-25.13,5.66-25.13,15.69,0,8.66,6.78,13.29,14.67,13.29a19.83,19.83,0,0,0,11.32-3l2.23-4.89.86,6.69H70.75A80,80,0,0,1,69.9,123Zm-11.75,9.51c0,6.35-4,9.7-8.84,9.7-4.2,0-6.94-1.89-6.94-5.92,0-6,6.35-8.15,15.78-7.47Z" transform="translate(0 0)"/><path class="cls-1" d="M98.63,96c4.89,0,8.32,2.74,9.43,9.34h11.67c-.86-10.11-8.47-17.66-20.84-17.66-12.53,0-22.82,8.75-22.82,24.35,0,15.79,9.35,23.67,21.79,23.67,11.41,0,19.81-5.74,21.78-17H107.81c-1.2,5.75-4.63,8.67-9.26,8.67-5.92,0-10.21-4.8-10.21-16.13C88.34,100.92,92.63,96,98.63,96Z" transform="translate(0 0)"/><path class="cls-1" d="M130.19,121.62c0,2.58,0,4.54.17,6.61.52,6.43,3.68,9.35,12.52,9.35a47.45,47.45,0,0,0,7.81-.61v-7.72c-6.6.51-8.23-.51-8.58-5-.08-1.2-.08-2.49-.08-4V99.15h9.43V91.34H142V80.11H130.19V91.34H123.5v7.81h6.69Z" transform="translate(0 0)"/><path class="cls-1" d="M178.65,137.82c15.18,0,23.67-10.2,23.67-24s-8.49-24-23.67-24S155,99.94,155,113.82,163.47,137.82,178.65,137.82Zm0-39.7c7.12,0,11.4,5.83,11.4,15.69s-4.28,15.7-11.4,15.7-11.39-5.92-11.39-15.7S171.53,98.12,178.65,98.12Z" transform="translate(0 0)"/><path class="cls-1" d="M221.87,115.7c0-12.26,4.89-16.64,14.75-16V90.23a12.64,12.64,0,0,0-3.36-.31,11.92,11.92,0,0,0-7.8,3.09l-3.61,6.35V91H210v45.63h11.83Z" transform="translate(0 0)"/><rect class="cls-1" x="242.63" y="91" width="11.84" height="45.63"/><path class="cls-1" d="M288.86,134.83l2.23-4.89.86,6.69h11.57a80,80,0,0,1-.85-11.58V110.3c0-2.49-.09-4.89-.26-7-.69-7.89-5.49-13.46-18.27-13.46-10.89,0-19.21,5.83-19.56,16.12l11.5-.08c.34-5,2.92-7.72,7.64-7.72s6.68,2.31,7,5.49a34.21,34.21,0,0,1,.18,4.29v.94H288c-16.56,0-25.13,5.66-25.13,15.69,0,8.67,6.77,13.29,14.67,13.29A19.82,19.82,0,0,0,288.86,134.83Zm-13.73-11.24c0-6,6.35-8.15,15.79-7.46v3.69c0,6.34-4,9.69-8.84,9.69C277.88,129.51,275.13,127.62,275.13,123.59Z" transform="translate(0 0)"/><path class="cls-1" d="M313.73,0H277.34C273.52,0,264,2.33,259.25,4.49h40.36c6.6,0,12,5,12,11.12V60.92c0,6.14-5.38,11.13-12,11.13H261.17l-18.65,13h10.57L280,76.54h33.72c6.32,0,11.47-6.65,11.47-12.46V10.53C325.2,4.72,320.05,0,313.73,0Z" transform="translate(0 0)"/><path class="cls-1" d="M294.35,59.8a5.58,5.58,0,0,1-2.13-.42,7.82,7.82,0,0,1-2-1.25l-1,3.18a12,12,0,0,0,1.16.66,6.5,6.5,0,0,0,1.2.47,9.14,9.14,0,0,0,1.38.29,16.56,16.56,0,0,0,1.73.09,8.09,8.09,0,0,0,3-.54A6.69,6.69,0,0,0,300,60.8a6.33,6.33,0,0,0,1.44-2.26,8.09,8.09,0,0,0,.5-2.88,7.46,7.46,0,0,0-.46-2.69,6.27,6.27,0,0,0-1.32-2,5.83,5.83,0,0,0-2-1.36,7,7,0,0,0-2.64-.48,5.06,5.06,0,0,0-1.29.08l.38-3.42h6.67l.16-3.15h-9.93L290.22,53a14.32,14.32,0,0,1,1.91-.65,7.14,7.14,0,0,1,1.84-.23,3.85,3.85,0,0,1,2.93,1,3.8,3.8,0,0,1,1,2.8,4,4,0,0,1-1,2.83A3.33,3.33,0,0,1,294.35,59.8Z" transform="translate(0 0)"/><polygon class="cls-1" points="287.65 45.65 287.78 42.55 277.31 42.55 277.31 62.5 281.08 62.5 281.08 53.59 286.68 53.59 286.68 50.44 281.08 50.44 281.08 45.65 287.65 45.65"/><path class="cls-1" d="M3.91,150.68a13.57,13.57,0,0,1,3.52-.53q5,0,5,4.39a4.43,4.43,0,0,1-1.17,3.38A5.53,5.53,0,0,1,7.42,159H5.26v4.39H3.91Zm3.28,7.16q1.09,0,1.77-.06a6.37,6.37,0,0,0,1.3-.26A4.87,4.87,0,0,0,11,154.6a3,3,0,0,0-.93-2.46,4.22,4.22,0,0,0-2.71-.75,9,9,0,0,0-2.13.23v6.22Z" transform="translate(0 0)"/><path class="cls-1" d="M20.79,157.12a9,9,0,0,1,1.26-5.2c.84-1.17,2.24-1.75,4.22-1.75a4.53,4.53,0,0,1,3.85,1.64,8.08,8.08,0,0,1,1.24,4.9,8.8,8.8,0,0,1-1.26,5.2c-.84,1.17-2.24,1.75-4.22,1.75C22.49,163.65,20.8,161.47,20.79,157.12Zm6.86,5.12a5,5,0,0,0,1.2-.35,9,9,0,0,0,.85-2.2A10.67,10.67,0,0,0,30,157a7.67,7.67,0,0,0-.92-4.25A3.5,3.5,0,0,0,26,151.41a7.75,7.75,0,0,0-1.52.14,4.21,4.21,0,0,0-1.19.37,9.82,9.82,0,0,0-1.11,4.9,7.62,7.62,0,0,0,.91,4.24,3.52,3.52,0,0,0,3.14,1.32,7.06,7.06,0,0,0,1.45-.14Z" transform="translate(0 0)"/><path class="cls-1" d="M39.88,150.47l1.45-.17q.95,5.12,2.67,11.55h.15q1.55-3.91,3.13-9c-.21-.86-.37-1.6-.47-2.24l1.34-.15c.41,2,.89,3.87,1.42,5.7s1.13,3.73,1.78,5.7h.19c1.1-4.09,2-7.94,2.67-11.55l1.44.17q-1.47,6.63-3.36,13H50.6Q49,158.92,48,155.27h-.23q-1.5,4.6-3,8.21H43.26Q41.31,157,39.88,150.47Z" transform="translate(0 0)"/><path class="cls-1" d="M65.86,163.24c-.78-.27-1.17-.73-1.17-1.37V150.36H72.6v1.24H66v4.69h6v1.19H66v4.67a17.1,17.1,0,0,0,3.11.25,15,15,0,0,0,3.41-.34l.3,1.18a14.92,14.92,0,0,1-3.77.4A10.19,10.19,0,0,1,65.86,163.24Z" transform="translate(0 0)"/><path class="cls-1" d="M90.2,163.4a1.32,1.32,0,0,1-.51-.63l-1.3-2.94a6.38,6.38,0,0,0-.53-1,1.63,1.63,0,0,0-.7-.57,3,3,0,0,0-1.25-.21H83.57v5.41H82.26v-12.8a12.49,12.49,0,0,1,3.49-.51,5.43,5.43,0,0,1,3.51,1,3.55,3.55,0,0,1,1.14,2.91,3.71,3.71,0,0,1-2.14,3.49v.17a2.32,2.32,0,0,1,.79.56,3.25,3.25,0,0,1,.55.91l1.49,3.3,1.07.17v.77a4,4,0,0,1-1.13.17A1.59,1.59,0,0,1,90.2,163.4Zm-2.71-6.58a3.45,3.45,0,0,0,1.15-1.13,3.23,3.23,0,0,0,.36-1.64,2.47,2.47,0,0,0-.78-2,4.19,4.19,0,0,0-2.56-.61,10.51,10.51,0,0,0-2.09.21v5.22Z" transform="translate(0 0)"/><path class="cls-1" d="M102.05,163.24c-.78-.27-1.18-.73-1.18-1.37V150.36h7.91v1.24H102.2v4.69h6v1.19h-6v4.67a17.1,17.1,0,0,0,3.11.25,15,15,0,0,0,3.41-.34l.3,1.18a15,15,0,0,1-3.78.4A10.13,10.13,0,0,1,102.05,163.24Z" transform="translate(0 0)"/><path class="cls-1" d="M118.41,150.56a15.92,15.92,0,0,1,3.58-.41q3.12,0,4.48,1.66a7.64,7.64,0,0,1,1.36,4.9,10.79,10.79,0,0,1-.51,3.57,4.45,4.45,0,0,1-1.84,2.32,6.83,6.83,0,0,1-3.7.85h-3.37Zm3.35,11.65a13.24,13.24,0,0,0,3.54-.42,6.08,6.08,0,0,0,.88-2.08,12,12,0,0,0,.31-2.87,9.25,9.25,0,0,0-.44-3.09,3.26,3.26,0,0,0-1.44-1.78,5.26,5.26,0,0,0-2.7-.58,15.45,15.45,0,0,0-2.15.17v10.65Z" transform="translate(0 0)"/><path class="cls-1" d="M143.41,150.62a13.55,13.55,0,0,1,3.41-.47,5.38,5.38,0,0,1,3.42.91,3.25,3.25,0,0,1,1.12,2.69,3.3,3.3,0,0,1-1.73,3v.1a3,3,0,0,1,2.37,2.94,4.08,4.08,0,0,1-.46,2A3,3,0,0,1,150,163a8.7,8.7,0,0,1-3.08.43h-3.47Zm5.5,5.63a3.16,3.16,0,0,0,1.13-2.48,2.09,2.09,0,0,0-.78-1.85,4.46,4.46,0,0,0-2.48-.55,12.2,12.2,0,0,0-2,.19v4.67Zm-2.18,6a9,9,0,0,0,2.42-.25,2,2,0,0,0,1.2-.77,2.48,2.48,0,0,0,.33-1.36,2.19,2.19,0,0,0-.75-1.74,3.32,3.32,0,0,0-2.19-.65h-3v4.77Z" transform="translate(0 0)"/><path class="cls-1" d="M165.26,158.74h-.43a33.44,33.44,0,0,1-2.51-3.74,37.79,37.79,0,0,1-2.15-4.38l1.34-.36a34.83,34.83,0,0,0,1.9,4,30.22,30.22,0,0,0,2.15,3.42h.7a32.85,32.85,0,0,0,2.15-3.43,34.69,34.69,0,0,0,1.88-4l1.34.36a39.4,39.4,0,0,1-2.14,4.38,29.49,29.49,0,0,1-2.52,3.74h-.41v4.71h-1.3Z" transform="translate(0 0)"/><path class="cls-1" d="M186.05,162.51l.79-2a8.44,8.44,0,0,0,4,1,11.09,11.09,0,0,0,2.15-.19,3.7,3.7,0,0,0,.22-1.32,1.48,1.48,0,0,0-.52-1.23,5,5,0,0,0-1.85-.74,12.38,12.38,0,0,1-2.37-.77A3.76,3.76,0,0,1,187,156a3.37,3.37,0,0,1-.55-2,3.73,3.73,0,0,1,1.15-2.83,5,5,0,0,1,3.54-1.09,9.62,9.62,0,0,1,2.27.24,7,7,0,0,1,1.71.69v.77A7.34,7.34,0,0,1,195,153a6.67,6.67,0,0,1-.26,1.07h-1.81l-.24-1.73a11.88,11.88,0,0,0-1.68-.13,2.82,2.82,0,0,0-1.7.41,1.53,1.53,0,0,0-.54,1.32,1.36,1.36,0,0,0,.57,1.19,6.08,6.08,0,0,0,2.1.75,7.18,7.18,0,0,1,3.13,1.31,3.22,3.22,0,0,1,1,2.57,3.7,3.7,0,0,1-1.15,2.86,5.32,5.32,0,0,1-3.71,1.08A9.7,9.7,0,0,1,186.05,162.51Z" transform="translate(0 0)"/><path class="cls-1" d="M204.61,150.28H207v13.17h-2.35Z" transform="translate(0 0)"/><path class="cls-1" d="M216.8,150.28h3l2.66,7.2h.15l2.68-7.2h3l.51,13.17H226.4l-.23-6.63V153.5l-.17-.05-2.56,6.4h-1.81l-2.56-6.4-.17.05v3.32l-.25,6.63h-2.39Z" transform="translate(0 0)"/><path class="cls-1" d="M238,150.7a14,14,0,0,1,4.07-.59c3.61,0,5.41,1.5,5.41,4.52a4.52,4.52,0,0,1-1.38,3.63,6.44,6.44,0,0,1-4.29,1.2h-1.47v4H238Zm3.51,6.65a15.39,15.39,0,0,0,1.78-.06,7.3,7.3,0,0,0,1.31-.21,4.49,4.49,0,0,0,.56-2.35,2.23,2.23,0,0,0-.76-1.91,3.64,3.64,0,0,0-2.27-.58,8.29,8.29,0,0,0-1.79.17v4.94Z" transform="translate(0 0)"/><path class="cls-1" d="M256,150.28h2.35v11h5.82v2.17H256Z" transform="translate(0 0)"/><path class="cls-1" d="M273.42,162a7.32,7.32,0,0,1-1.4-4.87,8.14,8.14,0,0,1,1.45-5.3,5.6,5.6,0,0,1,4.54-1.73q5.57,0,5.56,6.54a8.05,8.05,0,0,1-1.46,5.27,5.63,5.63,0,0,1-4.55,1.74A5.14,5.14,0,0,1,273.42,162Zm6.95-.89a10,10,0,0,0,.86-4.11,9.4,9.4,0,0,0-.32-2.69,2.83,2.83,0,0,0-1.1-1.53,4,4,0,0,0-2.16-.51,7,7,0,0,0-2.52.38,10,10,0,0,0-.79,4.12,9.06,9.06,0,0,0,.33,2.69,2.79,2.79,0,0,0,1.11,1.54,4,4,0,0,0,2.14.5,6.39,6.39,0,0,0,2.45-.39Z" transform="translate(0 0)"/><path class="cls-1" d="M292.5,150.28h2.87l5.48,10.19.17-.05-.23-3.39v-6.75h2.36v13.17h-2.89l-5.5-10.19h-.17l.23,3.41v6.74h-2.34Z" transform="translate(0 0)"/></svg>