<?xml version="1.0" encoding="UTF-8" standalone="no"?>
<svg
   xmlns:dc="http://purl.org/dc/elements/1.1/"
   xmlns:cc="http://creativecommons.org/ns#"
   xmlns:rdf="http://www.w3.org/1999/02/22-rdf-syntax-ns#"
   xmlns:svg="http://www.w3.org/2000/svg"
   xmlns="http://www.w3.org/2000/svg"
   xmlns:sodipodi="http://sodipodi.sourceforge.net/DTD/sodipodi-0.dtd"
   xmlns:inkscape="http://www.inkscape.org/namespaces/inkscape"
   width="361"
   height="240"
   viewBox="0 0 361 240"
   fill="none"
   version="1.1"
   id="svg16"
   sodipodi:docname="agregareditartopic.svg"
   inkscape:version="1.0.2 (e86c870879, 2021-01-15)">
  <metadata
     id="metadata22">
    <rdf:RDF>
      <cc:Work
         rdf:about="">
        <dc:format>image/svg+xml</dc:format>
        <dc:type
           rdf:resource="http://purl.org/dc/dcmitype/StillImage" />
      </cc:Work>
    </rdf:RDF>
  </metadata>
  <defs
     id="defs20" />
  <sodipodi:namedview
     pagecolor="#ffffff"
     bordercolor="#666666"
     borderopacity="1"
     objecttolerance="10"
     gridtolerance="10"
     guidetolerance="10"
     inkscape:pageopacity="0"
     inkscape:pageshadow="2"
     inkscape:window-width="778"
     inkscape:window-height="480"
     id="namedview18"
     showgrid="false"
     inkscape:zoom="2.2083333"
     inkscape:cx="180.5"
     inkscape:cy="87.732348"
     inkscape:window-x="0"
     inkscape:window-y="0"
     inkscape:window-maximized="0"
     inkscape:current-layer="svg16" />
  <path
     fill-rule="evenodd"
     clip-rule="evenodd"
     d="m 168.91,63.827 v 12.7024 h 0.004 c -1.839,-0.3713 -3.744,-0.2473 -5.52,0.3592 -1.624,0.5556 -3.083,1.5089 -4.245,2.7732 -1.161,1.2644 -1.988,2.7994 -2.405,4.4654 -0.394,1.5395 -0.43,3.1485 -0.107,4.7043 0.322,1.5558 0.996,3.0172 1.969,4.2727 0.974,1.2555 2.221,2.2719 3.646,2.9716 1.426,0.6998 2.992,1.0643 4.58,1.0659 0.699,-0.0012 1.396,-0.0712 2.082,-0.209 v 12.7023 c 0,2.209 -0.877,4.327 -2.438,5.889 -1.561,1.562 -3.677,2.439 -5.885,2.439 h -12.694 v 0.004 c 0.371,-1.841 0.248,-3.747 -0.359,-5.523 -0.555,-1.625 -1.508,-3.086 -2.771,-4.248 -1.264,-1.162 -2.798,-1.99 -4.463,-2.407 -1.538,-0.394 -3.146,-0.43 -4.701,-0.107 -1.554,0.323 -3.015,0.997 -4.269,1.971 -1.255,0.974 -2.271,2.222 -2.97,3.648 -0.7,1.427 -1.064,2.994 -1.066,4.583 0.001,0.699 0.071,1.397 0.209,2.083 l -12.69,-0.004 c -4.595,0.001 -8.321,-3.726 -8.323,-8.324 V 96.9363 c -0.685,0.138 -1.382,0.2081 -2.081,0.2094 -1.588,-0.0019 -3.154,-0.3667 -4.579701,-1.0665 -1.4254,-0.6998 -2.6723,-1.7162 -3.6455,-2.9716 -0.9732,-1.2554 -1.646899,-2.7167 -1.969899,-4.2724 -0.3229,-1.5556 -0.2865,-3.1645 0.1064,-4.704 0.4171,-1.666 1.244099,-3.2011 2.405699,-4.4654 1.1616,-1.2643 2.6209,-2.2177 4.245001,-2.7732 1.776,-0.6065 3.68,-0.7305 5.519,-0.3592 H 106.49 V 63.831 c 0,-2.2087 0.877,-4.3269 2.438,-5.8887 1.561,-1.5618 3.678,-2.4391 5.885,-2.4391 h 12.694 c -0.138,-0.6858 -0.208,-1.3835 -0.209,-2.083 0.002,-1.5889 0.367,-3.1564 1.066,-4.5828 0.699,-1.4265 1.715,-2.6742 2.97,-3.648 1.254,-0.9738 2.715,-1.648 4.269,-1.971 1.555,-0.3231 3.163,-0.2864 4.701,0.107 1.664,0.4185 3.198,1.2465 4.461,2.4086 1.264,1.1622 2.217,2.6218 2.773,4.2463 0.607,1.7767 0.73,3.6826 0.359,5.5229 h 12.694 c 2.207,0 4.324,0.8773 5.885,2.4391 1.561,1.5618 2.438,3.68 2.438,5.8887 m -0.004,78.029 v 12.702 h 0.004 c -1.839,-0.371 -3.744,-0.247 -5.52,0.36 -1.624,0.555 -3.083,1.509 -4.245,2.773 -1.161,1.264 -1.988,2.8 -2.405,4.466 -0.437,1.711 -0.433,3.505 0.012,5.214 0.445,1.709 1.317,3.277 2.533,4.557 1.217,1.28 2.738,2.229 4.421,2.76 1.684,0.531 3.474,0.625 5.204,0.274 v 12.702 c 0,2.209 -0.877,4.327 -2.438,5.889 -1.561,1.562 -3.678,2.439 -5.885,2.439 H 147.897 V 196 c 0.371,-1.84 0.248,-3.746 -0.359,-5.523 -0.555,-1.625 -1.508,-3.085 -2.771,-4.248 -1.264,-1.162 -2.798,-1.99 -4.463,-2.407 -1.538,-0.394 -3.146,-0.431 -4.701,-0.108 -1.555,0.323 -3.015,0.998 -4.27,1.972 -1.254,0.973 -2.27,2.221 -2.969,3.648 -0.7,1.426 -1.064,2.994 -1.066,4.583 0.001,0.699 0.071,1.397 0.209,2.083 l -12.69,-0.004 c -4.595,0.001 -8.321,-3.726 -8.323,-8.324 V 174.97 c -0.685,0.138 -1.382,0.208 -2.081,0.209 -1.588,-0.002 -3.154,-0.367 -4.579701,-1.067 -1.4254,-0.7 -2.6723,-1.716 -3.6455,-2.971 -0.9732,-1.256 -1.646899,-2.717 -1.969899,-4.273 -0.3229,-1.555 -0.2865,-3.164 0.1064,-4.704 0.4171,-1.666 1.244099,-3.201 2.405699,-4.465 1.1617,-1.264 2.6209,-2.218 4.245001,-2.773 1.776,-0.607 3.68,-0.731 5.519,-0.36 h -0.004 v -12.702 c 0,-2.209 0.877,-4.327 2.438,-5.889 1.561,-1.561 3.678,-2.439 5.885,-2.439 h 12.694 c -0.138,-0.686 -0.208,-1.383 -0.209,-2.083 0.002,-1.589 0.366,-3.156 1.065,-4.583 0.7,-1.427 1.715,-2.674 2.97,-3.648 1.255,-0.974 2.715,-1.648 4.27,-1.971 1.555,-0.323 3.163,-0.286 4.701,0.107 1.664,0.419 3.198,1.247 4.461,2.409 1.264,1.162 2.217,2.622 2.773,4.246 0.607,1.777 0.73,3.683 0.359,5.523 h 12.694 c 2.207,0 4.324,0.878 5.885,2.439 1.561,1.562 2.438,3.68 2.438,5.889 M 251.996,63.8266 V 76.5294 H 252 c -1.839,-0.3716 -3.744,-0.2478 -5.519,0.3588 -1.624,0.5556 -3.084,1.509 -4.245,2.7734 -1.162,1.2644 -1.98899,2.7995 -2.406,4.4656 -0.393,1.5395 -0.42999,3.1485 -0.107,4.7042 0.323,1.5558 0.997,3.0172 1.97,4.2726 0.973,1.2555 2.22,2.2719 3.646,2.9717 1.425,0.6997 2.992,1.0643 4.579,1.066 0.7,-0.0013 1.397,-0.0714 2.082,-0.2094 v 12.7027 c 0,1.094 -0.215,2.177 -0.633,3.187 -0.418,1.01 -1.031,1.929 -1.804,2.702 -0.773,0.773 -1.691,1.387 -2.7,1.805 -1.01,0.418 -2.092,0.634 -3.185,0.634 h -12.695 v 0.004 c 0.372,-1.841 0.248,-3.747 -0.358,-5.523 -0.556,-1.626 -1.50799,-3.086 -2.77199,-4.248 -1.26401,-1.163 -2.79801,-1.99 -4.463,-2.407 -1.53801,-0.394 -3.146,-0.431 -4.70101,-0.108 -1.55399,0.323 -3.015,0.998 -4.26899,1.971 -1.255,0.974 -2.271,2.222 -2.97,3.649 -0.699,1.426 -1.064,2.994 -1.065,4.583 0.001,0.699 0.071,1.397 0.208,2.083 l -12.69,-0.004 c -4.595,0 -8.321,-3.726 -8.322,-8.324 V 96.9363 c -0.686,0.1378 -1.383,0.2078 -2.082,0.209 -1.588,-0.0016 -3.154,-0.3661 -4.58,-1.0658 -1.425,-0.6998 -2.672,-1.7161 -3.645,-2.9716 -0.974,-1.2554 -1.647,-2.7168 -1.97,-4.2725 -0.323,-1.5558 -0.287,-3.1647 0.107,-4.7042 0.417,-1.666 1.244,-3.2011 2.406,-4.4655 1.161,-1.2644 2.621,-2.2178 4.245,-2.7735 1.775,-0.6066 3.68,-0.7304 5.519,-0.3588 h -0.004 V 63.8306 c 0,-1.0937 0.215,-2.1766 0.633,-3.1871 0.418,-1.0105 1.031,-1.9286 1.804,-2.7019 0.773,-0.7733 1.69,-1.3867 2.7,-1.8051 1.01,-0.4184 2.092,-0.6336 3.185,-0.6333 h 12.694 c -0.137,-0.6858 -0.207,-1.3835 -0.208,-2.083 0.001,-1.589 0.366,-3.1565 1.065,-4.5831 0.699,-1.4265 1.715,-2.6743 2.97,-3.6482 1.25399,-0.9739 2.715,-1.6481 4.26899,-1.9711 1.55501,-0.323 3.163,-0.2863 4.70101,0.1072 1.66499,0.4185 3.198,1.2465 4.462,2.4088 1.263,1.1622 2.21599,2.6219 2.77299,4.2465 0.606,1.7767 0.73,3.6826 0.358,5.5229 h 12.695 c 1.093,-3e-4 2.175,0.2149 3.185,0.6333 1.01,0.4184 1.927,1.0318 2.7,1.8051 0.773,0.7733 1.386,1.6914 1.804,2.7019 0.418,1.0105 0.633,2.0934 0.633,3.1871 m -0.004,78.0294 v 12.702 H 252 c -1.839,-0.371 -3.744,-0.247 -5.519,0.36 -1.624,0.555 -3.084,1.509 -4.245,2.773 -1.162,1.264 -1.98899,2.8 -2.406,4.466 -0.437,1.711 -0.433,3.505 0.012,5.214 0.446,1.709 1.317,3.277 2.534,4.557 1.216,1.28 2.737,2.229 4.42,2.76 1.684,0.531 3.474,0.625 5.204,0.274 v 12.702 c 0,1.094 -0.215,2.177 -0.633,3.187 -0.419,1.011 -1.032,1.929 -1.804,2.702 -0.773,0.773 -1.691,1.387 -2.7,1.805 -1.01,0.419 -2.092,0.634 -3.185,0.634 H 230.983 V 196 c 0.372,-1.84 0.248,-3.746 -0.358,-5.523 -0.556,-1.625 -1.50799,-3.086 -2.77199,-4.248 -1.26301,-1.162 -2.79801,-1.99 -4.463,-2.407 -1.53801,-0.394 -3.146,-0.43 -4.70001,-0.107 -1.55499,0.323 -3.015,0.997 -4.26999,1.971 -1.255,0.974 -2.27,2.222 -2.97,3.648 -0.699,1.427 -1.064,2.994 -1.065,4.583 0.001,0.699 0.071,1.397 0.208,2.083 l -12.69,-0.004 c -4.595,0.001 -8.321,-3.726 -8.322,-8.324 V 174.97 c -0.686,0.138 -1.383,0.208 -2.082,0.209 -1.588,-0.002 -3.154,-0.367 -4.579,-1.067 -1.426,-0.699 -2.673,-1.716 -3.646,-2.971 -0.973,-1.256 -1.647,-2.717 -1.97,-4.273 -0.323,-1.555 -0.286,-3.164 0.107,-4.704 0.417,-1.666 1.244,-3.201 2.406,-4.465 1.161,-1.264 2.621,-2.218 4.245,-2.773 1.775,-0.607 3.68,-0.731 5.519,-0.36 h -0.004 v -12.702 c 0,-1.094 0.215,-2.177 0.633,-3.187 0.418,-1.011 1.031,-1.929 1.804,-2.702 0.773,-0.774 1.69,-1.387 2.7,-1.805 1.01,-0.419 2.092,-0.634 3.185,-0.634 h 12.694 c -0.137,-0.686 -0.207,-1.383 -0.208,-2.083 0.001,-1.589 0.366,-3.156 1.065,-4.583 0.699,-1.426 1.715,-2.674 2.97,-3.648 1.25399,-0.974 2.715,-1.648 4.26899,-1.971 1.55501,-0.323 3.163,-0.286 4.70101,0.107 1.66499,0.419 3.198,1.247 4.462,2.409 1.263,1.162 2.21599,2.622 2.77299,4.246 0.606,1.777 0.73,3.683 0.358,5.523 h 12.695 c 1.093,0 2.175,0.216 3.185,0.634 1.009,0.419 1.927,1.032 2.7,1.805 0.772,0.774 1.385,1.692 1.804,2.702 0.418,1.011 0.633,2.093 0.633,3.187"
     fill="#ff5733"
     id="path2"
     style="stroke-width:1" />
  <path
     d="M267.173 77.531C270.352 73.6689 276.759 74.0075 276.759 74.0075C276.759 74.0075 278.007 80.6072 274.824 84.4671C271.645 88.3287 265.241 87.9926 265.241 87.9926C265.241 87.9926 263.993 81.393 267.173 77.531Z"
     fill="black"
     id="path4" />
  <path
     d="M75.5 100C76.8807 100 78 98.8807 78 97.5C78 96.1193 76.8807 95 75.5 95C74.1193 95 73 96.1193 73 97.5C73 98.8807 74.1193 100 75.5 100Z"
     fill="#858484"
     id="path6" />
  <path
     d="M276 118C278.209 118 280 119.567 280 121.5C280 123.433 278.209 125 276 125C273.791 125 272 123.433 272 121.5C272 119.567 273.791 118 276 118Z"
     fill="#858484"
     id="path8" />
  <path
     d="M136.5 203C138.433 203 140 204.567 140 206.5C140 208.433 138.433 210 136.5 210C134.567 210 133 208.433 133 206.5C133 204.567 134.567 203 136.5 203Z"
     fill="#6E6C6C"
     id="path10" />
  <path
     d="M174 37.5C174 34.4624 176.686 32 180 32C183.314 32 186 34.4624 186 37.5C186 40.5376 183.314 43 180 43C176.686 43 174 40.5376 174 37.5Z"
     fill="#6E6C6C"
     id="path12" />
  <path
     d="M199.501 218H199.431C199.016 211.978 194.651 211.885 194.651 211.885C194.651 211.885 199.464 211.789 199.464 204.83C199.464 211.789 204.278 211.885 204.278 211.885C204.278 211.885 199.915 211.978 199.501 218ZM59.5161 130.365C58.7601 129.992 58.2843 129.172 58.3484 128.354C58.4149 127.471 59.0185 126.707 59.8737 126.46C60.1086 126.392 60.3578 126.367 60.603 126.341C62.0718 126.174 63.5429 126.035 64.9869 125.691C65.6256 125.537 66.2538 125.64 66.8204 126C67.5701 126.478 67.9037 127.181 67.8109 128.046C67.7158 128.915 67.2066 129.51 66.3868 129.821C66.2323 129.878 66.0719 129.919 65.9086 129.942C64.2233 130.191 62.5404 130.466 60.8387 130.593C60.3729 130.628 59.9322 130.573 59.5161 130.365ZM66.3088 136.368C65.993 137.018 65.4556 137.455 64.7839 137.624C63.1316 138.033 61.4626 138.413 59.7546 138.481C58.1951 138.54 57.1552 137.077 57.6668 135.624C57.9594 134.792 58.6024 134.32 59.4616 134.23C60.5696 134.115 61.6454 133.87 62.7391 133.691C63.0874 133.634 63.4107 133.512 63.7428 133.405C64.5832 133.136 65.4667 133.398 66.0313 134.061C66.5791 134.706 66.6858 135.604 66.3088 136.368ZM71.1346 132.016C71.4129 131.449 71.8624 131.087 72.4616 130.908C73.3661 130.634 74.2831 130.418 75.2079 130.237C75.6304 130.155 76.0341 130.038 76.4258 129.842C76.706 129.701 77.0121 129.62 77.3251 129.603C77.638 129.586 77.9512 129.634 78.2449 129.743C78.5387 129.852 78.8068 130.021 79.0325 130.238C79.2582 130.456 79.4367 130.717 79.5568 131.007C80.0469 132.189 79.4593 133.486 78.2167 133.951C78.0459 134.015 77.8667 134.075 77.6852 134.107C76.3132 134.348 74.9535 134.657 73.5979 134.978C72.757 135.175 72.0093 134.981 71.4244 134.318C70.8539 133.667 70.7492 132.796 71.1346 132.016ZM73.5103 137.756C74.4148 138.234 74.7708 138.963 74.7831 139.865C74.7951 140.757 74.389 141.444 73.6038 141.881C73.3176 142.041 73.0042 142.153 72.6873 142.231C71.5686 142.5 70.4558 142.778 69.337 143.047C68.6243 143.216 67.9423 143.138 67.3535 142.668C66.7065 142.149 66.4286 141.459 66.5795 140.643C66.7364 139.784 67.2679 139.206 68.1064 138.951C68.7553 138.755 69.4126 138.595 70.0759 138.443C70.5768 138.328 71.0442 138.186 71.4834 137.875C72.1343 137.407 72.8637 137.442 73.5103 137.756ZM86.8117 140.099C86.5891 140.554 86.2555 140.912 85.7916 141.128C85.5301 141.25 85.2641 141.359 84.9882 141.427C84.053 141.659 83.1257 141.916 82.1984 142.174C80.7934 142.562 79.5082 141.662 79.4326 140.27C79.3852 139.397 79.8757 138.612 80.7329 138.217C81.3695 137.923 82.0475 137.752 82.7252 137.592C83.0879 137.505 83.4235 137.39 83.7472 137.196C84.6227 136.671 85.6097 136.8 86.353 137.496C87.0573 138.157 87.2448 139.214 86.8117 140.099ZM47.234 128.794C47.4816 128.341 47.8133 128.017 48.254 127.816C48.555 127.678 48.8683 127.577 49.1976 127.546C50.0735 127.464 50.953 127.353 51.8329 127.314C53.4274 127.247 54.5127 128.66 54.0095 130.149C53.7475 130.929 53.1622 131.388 52.3608 131.549C52.1036 131.6 51.8317 131.598 51.5677 131.631C50.857 131.713 50.14 131.746 49.4293 131.859C48.5888 131.994 47.8905 131.681 47.4004 130.983C46.9039 130.287 46.894 129.535 47.234 128.794ZM72.0443 120.215C72.8808 120.643 73.3216 121.41 73.2575 122.258C73.187 123.17 72.7068 123.78 71.8664 124.111C71.6788 124.187 71.4706 124.243 71.2708 124.251C70.4926 124.291 69.7136 124.314 68.9345 124.318C68.4957 124.32 68.088 124.178 67.7233 123.919C67.0023 123.393 66.6794 122.536 66.8896 121.694C67.1062 120.839 67.7799 120.183 68.6454 120.101C69.5002 120.019 70.3654 120.019 71.2246 120C71.5124 119.995 71.7961 120.069 72.0443 120.215ZM282.473 171.35C281.717 170.977 281.241 170.157 281.306 169.34C281.372 168.456 281.976 167.692 282.83 167.446C283.065 167.377 283.315 167.353 283.56 167.326C285.029 167.16 286.5 167.02 287.944 166.677C288.583 166.523 289.211 166.626 289.777 166.986C290.527 167.464 290.86 168.167 290.768 169.032C290.673 169.9 290.164 170.495 289.344 170.806C289.189 170.864 289.029 170.905 288.866 170.928C287.18 171.176 285.497 171.452 283.796 171.579C283.33 171.614 282.889 171.558 282.473 171.35ZM289.266 177.353C288.95 178.004 288.412 178.44 287.741 178.609C286.088 179.019 284.419 179.399 282.712 179.466C281.152 179.526 280.112 178.063 280.624 176.609C280.916 175.778 281.559 175.306 282.418 175.216C283.527 175.1 284.602 174.856 285.696 174.677C286.044 174.619 286.368 174.498 286.7 174.391C287.54 174.121 288.424 174.383 288.988 175.046C289.536 175.691 289.643 176.589 289.266 177.353ZM294.092 173.001C294.37 172.435 294.819 172.072 295.419 171.893C296.323 171.62 297.24 171.404 298.165 171.223C298.587 171.141 298.991 171.023 299.383 170.828C299.663 170.687 299.969 170.606 300.282 170.589C300.595 170.572 300.908 170.619 301.202 170.728C301.495 170.838 301.764 171.006 301.989 171.224C302.215 171.441 302.393 171.703 302.514 171.992C303.004 173.175 302.416 174.472 301.174 174.937C301.003 175.001 300.823 175.06 300.642 175.093C299.27 175.334 297.91 175.642 296.555 175.963C295.714 176.161 294.966 175.967 294.382 175.303C293.811 174.653 293.706 173.781 294.092 173.001ZM296.467 178.742C297.372 179.22 297.728 179.949 297.74 180.851C297.752 181.743 297.346 182.43 296.561 182.867C296.274 183.027 295.961 183.138 295.644 183.216C294.525 183.486 293.413 183.764 292.294 184.033C291.581 184.201 290.9 184.123 290.31 183.653C289.664 183.134 289.386 182.444 289.536 181.629C289.693 180.77 290.225 180.191 291.063 179.936C291.712 179.741 292.369 179.581 293.033 179.428C293.534 179.313 294.001 179.171 294.44 178.86C295.091 178.393 295.82 178.428 296.467 178.742ZM309.769 181.085C309.546 181.54 309.212 181.898 308.749 182.114C308.487 182.236 308.221 182.345 307.945 182.412C307.01 182.645 306.082 182.902 305.156 183.159C303.75 183.548 302.465 182.648 302.389 181.255C302.342 180.382 302.833 179.598 303.69 179.203C304.326 178.908 305.004 178.738 305.682 178.577C306.045 178.491 306.381 178.375 306.704 178.182C307.58 177.657 308.566 177.785 309.31 178.481C310.014 179.143 310.202 180.199 309.769 181.085ZM270.191 169.779C270.438 169.326 270.77 169.003 271.211 168.801C271.512 168.663 271.825 168.563 272.155 168.532C273.03 168.45 273.91 168.339 274.79 168.3C276.384 168.232 277.47 169.645 276.966 171.134C276.704 171.915 276.119 172.374 275.318 172.534C275.06 172.585 274.788 172.583 274.524 172.616C273.814 172.698 273.097 172.731 272.386 172.844C271.546 172.98 270.847 172.667 270.357 171.969C269.861 171.272 269.851 170.521 270.191 169.779ZM295.002 161.2C295.838 161.629 296.278 162.395 296.214 163.244C296.144 164.156 295.664 164.766 294.823 165.097C294.636 165.173 294.427 165.229 294.228 165.237C293.447 165.274 292.67 165.302 291.892 165.304C291.453 165.306 291.045 165.164 290.68 164.904C289.959 164.379 289.636 163.522 289.846 162.68C290.063 161.825 290.737 161.168 291.602 161.086C292.457 161.004 293.323 161.004 294.181 160.986C294.469 160.981 294.753 161.055 295.002 161.2Z"
     fill="#111827"
     id="path14" />
</svg>
