<svg width="380" height="253" viewBox="0 0 380 253" fill="none" xmlns="http://www.w3.org/2000/svg">
<path d="M287.971 146.681C289.399 172.995 237.955 226.502 174.547 206.697C145.057 197.485 147.555 182.196 125.13 162.046C111.764 150.037 92.5594 140.955 87.2181 123.498C82.604 108.43 85.4336 92.234 93.4331 81.6996C111.424 58.0083 147.746 41.7852 183.533 79.113C219.321 116.44 284.281 78.8153 287.971 146.681Z" fill="#EA580C"/>
<path d="M272.706 88.2116C267.899 96.8256 257.37 98.0094 240.503 96.3725C227.818 95.1389 216.25 94.1845 203.564 87.2398C194.684 82.3826 187.656 75.8107 182.526 69.4275C176.967 62.5129 169.207 54.6215 173.011 46.7813C178.238 36.0113 208.468 26.9408 237.822 41.7739C270.068 58.0733 277.409 79.7926 272.706 88.2116Z" fill="#EA580C"/>
<path d="M144.949 200.874C132.438 183.097 119.624 164.203 102.849 154.898C85.5455 145.295 82.3544 151.213 81.1566 160.623C79.9587 170.032 85.2974 192.327 108.912 205.012C132.532 217.701 156.656 217.511 144.949 200.874Z" fill="#EA580C"/>
<path d="M290.163 91.4574C287.381 86.2115 290.465 79 290.465 79C290.465 79 298.058 80.2972 300.836 85.5457C303.618 90.7911 300.538 98 300.538 98C300.538 98 292.945 96.7028 290.163 91.4574Z" fill="#6E6C6C"/>
<path d="M145.648 49.7645C151.721 53.9153 161 51.0139 161 51.0139C161 51.0139 160.425 41.3837 154.348 37.2368C148.274 33.086 139 35.9839 139 35.9839C139 35.9839 139.574 45.6138 145.648 49.7645Z" fill="#6E6C6C"/>
<path d="M238.089 69.701C244.617 76.2614 256.823 74.8784 256.823 74.8784C256.823 74.8784 258.438 62.8584 251.905 56.3023C245.377 49.742 233.177 51.1208 233.177 51.1208C233.177 51.1208 231.562 63.1407 238.089 69.701Z" fill="#9C9C9C"/>
<path d="M266 153C263.239 153 261 155.239 261 158C261 160.761 263.239 163 266 163C268.761 163 271 160.761 271 158C271 155.239 268.761 153 266 153Z" fill="#FB9E55"/>
<path d="M194.5 188C191.462 188 189 190.239 189 193C189 195.761 191.462 198 194.5 198C197.538 198 200 195.761 200 193C200 190.239 197.538 188 194.5 188Z" fill="black"/>
<path d="M111.5 177C107.91 177 105 179.91 105 183.5C105 187.09 107.91 190 111.5 190C115.09 190 118 187.09 118 183.5C118 179.91 115.09 177 111.5 177Z" fill="black"/>
<path d="M94.5 107C93.1193 107 92 106.105 92 105C92 103.895 93.1193 103 94.5 103C95.8807 103 97 103.895 97 105C97 106.105 95.8807 107 94.5 107Z" fill="#FB9E55"/>
<path d="M207.5 60C205.015 60 203 58.2091 203 56C203 53.7909 205.015 52 207.5 52C209.985 52 212 53.7909 212 56C212 58.2091 209.985 60 207.5 60Z" fill="black"/>
<path d="M260.5 202C258.015 202 256 200.209 256 198C256 195.791 258.015 194 260.5 194C262.985 194 265 195.791 265 198C265 200.209 262.985 202 260.5 202Z" fill="#6E6C6C"/>
<path d="M72.5 148C70.0147 148 68 145.985 68 143.5C68 141.015 70.0147 139 72.5 139C74.9853 139 77 141.015 77 143.5C77 145.985 74.9853 148 72.5 148Z" fill="#9C9C9C"/>
<path d="M128 202C126.343 202 125 200.657 125 199C125 197.343 126.343 196 128 196C129.657 196 131 197.343 131 199C131 200.657 129.657 202 128 202Z" fill="#9C9C9C"/>
<path d="M234 57C232.895 57 232 56.3284 232 55.5C232 54.6716 232.895 54 234 54C235.105 54 236 54.6716 236 55.5C236 56.3284 235.105 57 234 57Z" fill="#6E6C6C"/>
<path d="M103.899 127.901C104.188 128.982 103.547 130.094 102.465 130.384C101.383 130.674 100.272 130.032 99.982 128.95C99.6922 127.869 100.334 126.757 101.416 126.467C102.497 126.177 103.609 126.819 103.899 127.901Z" fill="#E1E4E5"/>
<path d="M104.5 85C103.119 85 102 83.8807 102 82.5C102 81.1193 103.119 80 104.5 80C105.881 80 107 81.1193 107 82.5C107 83.8807 105.881 85 104.5 85Z" fill="#E1E4E5"/>
<path d="M269.5 132C268.672 132 268 131.105 268 130C268 128.895 268.672 128 269.5 128C270.328 128 271 128.895 271 130C271 131.105 270.328 132 269.5 132Z" fill="#E1E4E5"/>
<path d="M185.35 37.7335C185.9 39.7843 184.683 41.8923 182.632 42.4418C180.581 42.9913 178.473 41.7743 177.923 39.7235C177.374 37.6727 178.591 35.5647 180.642 35.0151C182.693 34.4656 184.801 35.6827 185.35 37.7335Z" fill="#9C9C9C"/>
<path d="M299.23 129.947H299.284C299.606 134.516 303 134.586 303 134.586C303 134.586 299.258 134.66 299.258 139.939C299.258 134.66 295.516 134.586 295.516 134.586C295.516 134.586 298.908 134.516 299.23 129.947ZM295.518 154.124H295.56C295.814 157.725 298.489 157.781 298.489 157.781C298.489 157.781 295.54 157.838 295.54 162C295.54 157.838 292.59 157.781 292.59 157.781C292.59 157.781 295.264 157.725 295.518 154.124ZM76.8492 64H76.9202C77.3406 70.0607 81.771 70.1542 81.771 70.1542C81.771 70.1542 76.8855 70.2511 76.8855 77.2545C76.8855 70.2511 72 70.1542 72 70.1542C72 70.1542 76.4287 70.0607 76.8492 64Z" fill="black"/>
<path d="M85 157.698V81.3022C85 75.6131 89.5921 71 95.2591 71H250.741C256.453 71 261 75.6617 261 81.3022V157.698C261 163.386 256.41 168 250.741 168H95.2574C89.5407 168 85 163.332 85 157.698Z" fill="#111827"/>
<path fill-rule="evenodd" clip-rule="evenodd" d="M139 131.195V133.097C139 134.148 138.104 135 137 135H113C111.896 135 111 134.148 111 133.097V131.164C111 125.407 117.916 121.667 125 121.667C132.084 121.667 139 125.409 139 131.164M130.022 104.953C132.795 107.556 132.795 111.777 130.022 114.38C127.248 116.984 122.752 116.984 119.978 114.38C117.205 111.777 117.205 107.556 119.978 104.953C122.752 102.349 127.248 102.349 130.022 104.953Z" fill="white"/>
<path d="M241.159 103H152.841C151.272 103 150 103.895 150 105C150 106.105 151.272 107 152.841 107H241.159C242.728 107 244 106.105 244 105C244 103.895 242.728 103 241.159 103Z" fill="white"/>
<path d="M241.159 116H152.841C151.272 116 150 117.343 150 119C150 120.657 151.272 122 152.841 122H241.159C242.728 122 244 120.657 244 119C244 117.343 242.728 116 241.159 116Z" fill="white"/>
<path d="M241.159 130H152.841C151.272 130 150 131.119 150 132.5C150 133.881 151.272 135 152.841 135H241.159C242.728 135 244 133.881 244 132.5C244 131.119 242.728 130 241.159 130Z" fill="white"/>
</svg>
