<svg width="361" height="240" viewBox="0 0 361 240" fill="none" xmlns="http://www.w3.org/2000/svg">
<path fill-rule="evenodd" clip-rule="evenodd" d="M168.91 63.827V76.5294H168.914C167.075 76.1581 165.17 76.2821 163.394 76.8886C161.77 77.4442 160.311 78.3975 159.149 79.6618C157.988 80.9262 157.161 82.4612 156.744 84.1272C156.35 85.6667 156.314 87.2757 156.637 88.8315C156.959 90.3873 157.633 91.8487 158.606 93.1042C159.58 94.3597 160.827 95.3761 162.252 96.0758C163.678 96.7756 165.244 97.1401 166.832 97.1417C167.531 97.1405 168.228 97.0705 168.914 96.9327V109.635C168.914 111.844 168.037 113.962 166.476 115.524C164.915 117.086 162.799 117.963 160.591 117.963H147.897V117.967C148.268 116.126 148.145 114.22 147.538 112.444C146.983 110.819 146.03 109.358 144.767 108.196C143.503 107.034 141.969 106.206 140.304 105.789C138.766 105.395 137.158 105.359 135.603 105.682C134.049 106.005 132.588 106.679 131.334 107.653C130.079 108.627 129.063 109.875 128.364 111.301C127.664 112.728 127.3 114.295 127.298 115.884C127.299 116.583 127.369 117.281 127.507 117.967L114.817 117.963C110.222 117.964 106.496 114.237 106.494 109.639V96.9363C105.809 97.0743 105.112 97.1444 104.413 97.1457C102.825 97.1438 101.259 96.779 99.8333 96.0792C98.4079 95.3794 97.161 94.363 96.1878 93.1076C95.2146 91.8522 94.5409 90.3909 94.2179 88.8352C93.895 87.2796 93.9314 85.6707 94.3243 84.1312C94.7414 82.4652 95.5684 80.9301 96.73 79.6658C97.8916 78.4015 99.3509 77.4481 100.975 76.8926C102.751 76.2861 104.655 76.1621 106.494 76.5334H106.49V63.831C106.49 61.6223 107.367 59.5041 108.928 57.9423C110.489 56.3805 112.606 55.5032 114.813 55.5032H127.507C127.369 54.8174 127.299 54.1197 127.298 53.4202C127.3 51.8313 127.665 50.2638 128.364 48.8374C129.063 47.4109 130.079 46.1632 131.334 45.1894C132.588 44.2156 134.049 43.5414 135.603 43.2184C137.158 42.8953 138.766 42.932 140.304 43.3254C141.968 43.7439 143.502 44.5719 144.765 45.734C146.029 46.8962 146.982 48.3558 147.538 49.9803C148.145 51.757 148.268 53.6629 147.897 55.5032H160.591C162.798 55.5032 164.915 56.3805 166.476 57.9423C168.037 59.5041 168.914 61.6223 168.914 63.831M168.91 141.86V154.562H168.914C167.075 154.191 165.17 154.315 163.394 154.922C161.77 155.477 160.311 156.431 159.149 157.695C157.988 158.959 157.161 160.495 156.744 162.161C156.307 163.872 156.311 165.666 156.756 167.375C157.201 169.084 158.073 170.652 159.289 171.932C160.506 173.212 162.027 174.161 163.71 174.692C165.394 175.223 167.184 175.317 168.914 174.966V187.668C168.914 189.877 168.037 191.995 166.476 193.557C164.915 195.119 162.798 195.996 160.591 195.996H147.897V196C148.268 194.16 148.145 192.254 147.538 190.477C146.983 188.852 146.03 187.392 144.767 186.229C143.503 185.067 141.969 184.239 140.304 183.822C138.766 183.428 137.158 183.391 135.603 183.714C134.048 184.037 132.588 184.712 131.333 185.686C130.079 186.659 129.063 187.907 128.364 189.334C127.664 190.76 127.3 192.328 127.298 193.917C127.299 194.616 127.369 195.314 127.507 196L114.817 195.996C110.222 195.997 106.496 192.27 106.494 187.672V174.97C105.809 175.108 105.112 175.178 104.413 175.179C102.825 175.177 101.259 174.812 99.8333 174.112C98.4079 173.412 97.161 172.396 96.1878 171.141C95.2146 169.885 94.5409 168.424 94.2179 166.868C93.895 165.313 93.9314 163.704 94.3243 162.164C94.7414 160.498 95.5684 158.963 96.73 157.699C97.8917 156.435 99.3509 155.481 100.975 154.926C102.751 154.319 104.655 154.195 106.494 154.566H106.49V141.864C106.49 139.655 107.367 137.537 108.928 135.975C110.489 134.414 112.606 133.536 114.813 133.536H127.507C127.369 132.85 127.299 132.153 127.298 131.453C127.3 129.864 127.664 128.297 128.363 126.87C129.063 125.443 130.078 124.196 131.333 123.222C132.588 122.248 134.048 121.574 135.603 121.251C137.158 120.928 138.766 120.965 140.304 121.358C141.968 121.777 143.502 122.605 144.765 123.767C146.029 124.929 146.982 126.389 147.538 128.013C148.145 129.79 148.268 131.696 147.897 133.536H160.591C162.798 133.536 164.915 134.414 166.476 135.975C168.037 137.537 168.914 139.655 168.914 141.864M251.996 63.8266V76.5294H252C250.161 76.1578 248.256 76.2816 246.481 76.8882C244.857 77.4438 243.397 78.3972 242.236 79.6616C241.074 80.926 240.247 82.4611 239.83 84.1272C239.437 85.6667 239.4 87.2757 239.723 88.8314C240.046 90.3872 240.72 91.8486 241.693 93.104C242.666 94.3595 243.913 95.3759 245.339 96.0757C246.764 96.7754 248.331 97.14 249.918 97.1417C250.618 97.1404 251.315 97.0703 252 96.9323V109.635C252 110.729 251.785 111.812 251.367 112.822C250.949 113.832 250.336 114.751 249.563 115.524C248.79 116.297 247.872 116.911 246.863 117.329C245.853 117.747 244.771 117.963 243.678 117.963H230.983V117.967C231.355 116.126 231.231 114.22 230.625 112.444C230.069 110.818 229.117 109.358 227.853 108.196C226.589 107.033 225.055 106.206 223.39 105.789C221.852 105.395 220.244 105.358 218.689 105.681C217.135 106.004 215.674 106.679 214.42 107.652C213.165 108.626 212.149 109.874 211.45 111.301C210.751 112.727 210.386 114.295 210.385 115.884C210.386 116.583 210.456 117.281 210.593 117.967L197.903 117.963C193.308 117.963 189.582 114.237 189.581 109.639V96.9363C188.895 97.0741 188.198 97.1441 187.499 97.1453C185.911 97.1437 184.345 96.7792 182.919 96.0795C181.494 95.3797 180.247 94.3634 179.274 93.1079C178.3 91.8525 177.627 90.3911 177.304 88.8354C176.981 87.2796 177.017 85.6707 177.411 84.1312C177.828 82.4652 178.655 80.9301 179.817 79.6657C180.978 78.4013 182.438 77.4479 184.062 76.8922C185.837 76.2856 187.742 76.1618 189.581 76.5334H189.577V63.8306C189.577 62.7369 189.792 61.654 190.21 60.6435C190.628 59.633 191.241 58.7149 192.014 57.9416C192.787 57.1683 193.704 56.5549 194.714 56.1365C195.724 55.7181 196.806 55.5029 197.899 55.5032H210.593C210.456 54.8174 210.386 54.1197 210.385 53.4202C210.386 51.8312 210.751 50.2637 211.45 48.8371C212.149 47.4106 213.165 46.1628 214.42 45.1889C215.674 44.215 217.135 43.5408 218.689 43.2178C220.244 42.8948 221.852 42.9315 223.39 43.325C225.055 43.7435 226.588 44.5715 227.852 45.7338C229.115 46.896 230.068 48.3557 230.625 49.9803C231.231 51.757 231.355 53.6629 230.983 55.5032H243.678C244.771 55.5029 245.853 55.7181 246.863 56.1365C247.873 56.5549 248.79 57.1683 249.563 57.9416C250.336 58.7149 250.949 59.633 251.367 60.6435C251.785 61.654 252 62.7369 252 63.8306M251.996 141.86V154.562H252C250.161 154.191 248.256 154.315 246.481 154.922C244.857 155.477 243.397 156.431 242.236 157.695C241.074 158.959 240.247 160.495 239.83 162.161C239.393 163.872 239.397 165.666 239.842 167.375C240.288 169.084 241.159 170.652 242.376 171.932C243.592 173.212 245.113 174.161 246.796 174.692C248.48 175.223 250.27 175.317 252 174.966V187.668C252 188.762 251.785 189.845 251.367 190.855C250.948 191.866 250.335 192.784 249.563 193.557C248.79 194.33 247.872 194.944 246.863 195.362C245.853 195.781 244.771 195.996 243.678 195.996H230.983V196C231.355 194.16 231.231 192.254 230.625 190.477C230.069 188.852 229.117 187.391 227.853 186.229C226.59 185.067 225.055 184.239 223.39 183.822C221.852 183.428 220.244 183.392 218.69 183.715C217.135 184.038 215.675 184.712 214.42 185.686C213.165 186.66 212.15 187.908 211.45 189.334C210.751 190.761 210.386 192.328 210.385 193.917C210.386 194.616 210.456 195.314 210.593 196L197.903 195.996C193.308 195.997 189.582 192.27 189.581 187.672V174.97C188.895 175.108 188.198 175.178 187.499 175.179C185.911 175.177 184.345 174.812 182.92 174.112C181.494 173.413 180.247 172.396 179.274 171.141C178.301 169.885 177.627 168.424 177.304 166.868C176.981 165.313 177.018 163.704 177.411 162.164C177.828 160.498 178.655 158.963 179.817 157.699C180.978 156.435 182.438 155.481 184.062 154.926C185.837 154.319 187.742 154.195 189.581 154.566H189.577V141.864C189.577 140.77 189.792 139.687 190.21 138.677C190.628 137.666 191.241 136.748 192.014 135.975C192.787 135.201 193.704 134.588 194.714 134.17C195.724 133.751 196.806 133.536 197.899 133.536H210.593C210.456 132.85 210.386 132.153 210.385 131.453C210.386 129.864 210.751 128.297 211.45 126.87C212.149 125.444 213.165 124.196 214.42 123.222C215.674 122.248 217.135 121.574 218.689 121.251C220.244 120.928 221.852 120.965 223.39 121.358C225.055 121.777 226.588 122.605 227.852 123.767C229.115 124.929 230.068 126.389 230.625 128.013C231.231 129.79 231.355 131.696 230.983 133.536H243.678C244.771 133.536 245.853 133.752 246.863 134.17C247.872 134.589 248.79 135.202 249.563 135.975C250.335 136.749 250.948 137.667 251.367 138.677C251.785 139.688 252 140.77 252 141.864" fill="#FF5733"/>
<path d="M267.173 77.531C270.352 73.6689 276.759 74.0075 276.759 74.0075C276.759 74.0075 278.007 80.6072 274.824 84.4671C271.645 88.3287 265.241 87.9926 265.241 87.9926C265.241 87.9926 263.993 81.393 267.173 77.531Z" fill="black"/>
<path d="M75.5 100C76.8807 100 78 98.8807 78 97.5C78 96.1193 76.8807 95 75.5 95C74.1193 95 73 96.1193 73 97.5C73 98.8807 74.1193 100 75.5 100Z" fill="#858484"/>
<path d="M276 118C278.209 118 280 119.567 280 121.5C280 123.433 278.209 125 276 125C273.791 125 272 123.433 272 121.5C272 119.567 273.791 118 276 118Z" fill="#858484"/>
<path d="M136.5 203C138.433 203 140 204.567 140 206.5C140 208.433 138.433 210 136.5 210C134.567 210 133 208.433 133 206.5C133 204.567 134.567 203 136.5 203Z" fill="#6E6C6C"/>
<path d="M174 37.5C174 34.4624 176.686 32 180 32C183.314 32 186 34.4624 186 37.5C186 40.5376 183.314 43 180 43C176.686 43 174 40.5376 174 37.5Z" fill="#6E6C6C"/>
<path d="M199.501 218H199.431C199.016 211.978 194.651 211.885 194.651 211.885C194.651 211.885 199.464 211.789 199.464 204.83C199.464 211.789 204.278 211.885 204.278 211.885C204.278 211.885 199.915 211.978 199.501 218ZM59.5161 130.365C58.7601 129.992 58.2843 129.172 58.3484 128.354C58.4149 127.471 59.0185 126.707 59.8737 126.46C60.1086 126.392 60.3578 126.367 60.603 126.341C62.0718 126.174 63.5429 126.035 64.9869 125.691C65.6256 125.537 66.2538 125.64 66.8204 126C67.5701 126.478 67.9037 127.181 67.8109 128.046C67.7158 128.915 67.2066 129.51 66.3868 129.821C66.2323 129.878 66.0719 129.919 65.9086 129.942C64.2233 130.191 62.5404 130.466 60.8387 130.593C60.3729 130.628 59.9322 130.573 59.5161 130.365ZM66.3088 136.368C65.993 137.018 65.4556 137.455 64.7839 137.624C63.1316 138.033 61.4626 138.413 59.7546 138.481C58.1951 138.54 57.1552 137.077 57.6668 135.624C57.9594 134.792 58.6024 134.32 59.4616 134.23C60.5696 134.115 61.6454 133.87 62.7391 133.691C63.0874 133.634 63.4107 133.512 63.7428 133.405C64.5832 133.136 65.4667 133.398 66.0313 134.061C66.5791 134.706 66.6858 135.604 66.3088 136.368ZM71.1346 132.016C71.4129 131.449 71.8624 131.087 72.4616 130.908C73.3661 130.634 74.2831 130.418 75.2079 130.237C75.6304 130.155 76.0341 130.038 76.4258 129.842C76.706 129.701 77.0121 129.62 77.3251 129.603C77.638 129.586 77.9512 129.634 78.2449 129.743C78.5387 129.852 78.8068 130.021 79.0325 130.238C79.2582 130.456 79.4367 130.717 79.5568 131.007C80.0469 132.189 79.4593 133.486 78.2167 133.951C78.0459 134.015 77.8667 134.075 77.6852 134.107C76.3132 134.348 74.9535 134.657 73.5979 134.978C72.757 135.175 72.0093 134.981 71.4244 134.318C70.8539 133.667 70.7492 132.796 71.1346 132.016ZM73.5103 137.756C74.4148 138.234 74.7708 138.963 74.7831 139.865C74.7951 140.757 74.389 141.444 73.6038 141.881C73.3176 142.041 73.0042 142.153 72.6873 142.231C71.5686 142.5 70.4558 142.778 69.337 143.047C68.6243 143.216 67.9423 143.138 67.3535 142.668C66.7065 142.149 66.4286 141.459 66.5795 140.643C66.7364 139.784 67.2679 139.206 68.1064 138.951C68.7553 138.755 69.4126 138.595 70.0759 138.443C70.5768 138.328 71.0442 138.186 71.4834 137.875C72.1343 137.407 72.8637 137.442 73.5103 137.756ZM86.8117 140.099C86.5891 140.554 86.2555 140.912 85.7916 141.128C85.5301 141.25 85.2641 141.359 84.9882 141.427C84.053 141.659 83.1257 141.916 82.1984 142.174C80.7934 142.562 79.5082 141.662 79.4326 140.27C79.3852 139.397 79.8757 138.612 80.7329 138.217C81.3695 137.923 82.0475 137.752 82.7252 137.592C83.0879 137.505 83.4235 137.39 83.7472 137.196C84.6227 136.671 85.6097 136.8 86.353 137.496C87.0573 138.157 87.2448 139.214 86.8117 140.099ZM47.234 128.794C47.4816 128.341 47.8133 128.017 48.254 127.816C48.555 127.678 48.8683 127.577 49.1976 127.546C50.0735 127.464 50.953 127.353 51.8329 127.314C53.4274 127.247 54.5127 128.66 54.0095 130.149C53.7475 130.929 53.1622 131.388 52.3608 131.549C52.1036 131.6 51.8317 131.598 51.5677 131.631C50.857 131.713 50.14 131.746 49.4293 131.859C48.5888 131.994 47.8905 131.681 47.4004 130.983C46.9039 130.287 46.894 129.535 47.234 128.794ZM72.0443 120.215C72.8808 120.643 73.3216 121.41 73.2575 122.258C73.187 123.17 72.7068 123.78 71.8664 124.111C71.6788 124.187 71.4706 124.243 71.2708 124.251C70.4926 124.291 69.7136 124.314 68.9345 124.318C68.4957 124.32 68.088 124.178 67.7233 123.919C67.0023 123.393 66.6794 122.536 66.8896 121.694C67.1062 120.839 67.7799 120.183 68.6454 120.101C69.5002 120.019 70.3654 120.019 71.2246 120C71.5124 119.995 71.7961 120.069 72.0443 120.215ZM282.473 171.35C281.717 170.977 281.241 170.157 281.306 169.34C281.372 168.456 281.976 167.692 282.83 167.446C283.065 167.377 283.315 167.353 283.56 167.326C285.029 167.16 286.5 167.02 287.944 166.677C288.583 166.523 289.211 166.626 289.777 166.986C290.527 167.464 290.86 168.167 290.768 169.032C290.673 169.9 290.164 170.495 289.344 170.806C289.189 170.864 289.029 170.905 288.866 170.928C287.18 171.176 285.497 171.452 283.796 171.579C283.33 171.614 282.889 171.558 282.473 171.35ZM289.266 177.353C288.95 178.004 288.412 178.44 287.741 178.609C286.088 179.019 284.419 179.399 282.712 179.466C281.152 179.526 280.112 178.063 280.624 176.609C280.916 175.778 281.559 175.306 282.418 175.216C283.527 175.1 284.602 174.856 285.696 174.677C286.044 174.619 286.368 174.498 286.7 174.391C287.54 174.121 288.424 174.383 288.988 175.046C289.536 175.691 289.643 176.589 289.266 177.353ZM294.092 173.001C294.37 172.435 294.819 172.072 295.419 171.893C296.323 171.62 297.24 171.404 298.165 171.223C298.587 171.141 298.991 171.023 299.383 170.828C299.663 170.687 299.969 170.606 300.282 170.589C300.595 170.572 300.908 170.619 301.202 170.728C301.495 170.838 301.764 171.006 301.989 171.224C302.215 171.441 302.393 171.703 302.514 171.992C303.004 173.175 302.416 174.472 301.174 174.937C301.003 175.001 300.823 175.06 300.642 175.093C299.27 175.334 297.91 175.642 296.555 175.963C295.714 176.161 294.966 175.967 294.382 175.303C293.811 174.653 293.706 173.781 294.092 173.001ZM296.467 178.742C297.372 179.22 297.728 179.949 297.74 180.851C297.752 181.743 297.346 182.43 296.561 182.867C296.274 183.027 295.961 183.138 295.644 183.216C294.525 183.486 293.413 183.764 292.294 184.033C291.581 184.201 290.9 184.123 290.31 183.653C289.664 183.134 289.386 182.444 289.536 181.629C289.693 180.77 290.225 180.191 291.063 179.936C291.712 179.741 292.369 179.581 293.033 179.428C293.534 179.313 294.001 179.171 294.44 178.86C295.091 178.393 295.82 178.428 296.467 178.742ZM309.769 181.085C309.546 181.54 309.212 181.898 308.749 182.114C308.487 182.236 308.221 182.345 307.945 182.412C307.01 182.645 306.082 182.902 305.156 183.159C303.75 183.548 302.465 182.648 302.389 181.255C302.342 180.382 302.833 179.598 303.69 179.203C304.326 178.908 305.004 178.738 305.682 178.577C306.045 178.491 306.381 178.375 306.704 178.182C307.58 177.657 308.566 177.785 309.31 178.481C310.014 179.143 310.202 180.199 309.769 181.085ZM270.191 169.779C270.438 169.326 270.77 169.003 271.211 168.801C271.512 168.663 271.825 168.563 272.155 168.532C273.03 168.45 273.91 168.339 274.79 168.3C276.384 168.232 277.47 169.645 276.966 171.134C276.704 171.915 276.119 172.374 275.318 172.534C275.06 172.585 274.788 172.583 274.524 172.616C273.814 172.698 273.097 172.731 272.386 172.844C271.546 172.98 270.847 172.667 270.357 171.969C269.861 171.272 269.851 170.521 270.191 169.779ZM295.002 161.2C295.838 161.629 296.278 162.395 296.214 163.244C296.144 164.156 295.664 164.766 294.823 165.097C294.636 165.173 294.427 165.229 294.228 165.237C293.447 165.274 292.67 165.302 291.892 165.304C291.453 165.306 291.045 165.164 290.68 164.904C289.959 164.379 289.636 163.522 289.846 162.68C290.063 161.825 290.737 161.168 291.602 161.086C292.457 161.004 293.323 161.004 294.181 160.986C294.469 160.981 294.753 161.055 295.002 161.2Z" fill="#111827"/>
</svg>
