<svg width="376" height="251" viewBox="0 0 376 251" fill="none" xmlns="http://www.w3.org/2000/svg">
<path d="M73.5002 135C75.9854 135 78 132.762 78 130C78 127.238 75.9854 125 73.5002 125C71.0146 125 69 127.238 69 130C69 132.762 71.0146 135 73.5002 135Z" stroke="#E1E4E5" stroke-width="5.5" stroke-linecap="round" stroke-linejoin="round"/>
<path d="M210.837 33.3981C210.837 33.3981 215.738 32.6093 217.054 41.3615C218.516 51.0908 222.42 49.4901 228.62 57.3905C232.244 62.0068 228.43 70.1594 220.681 69.9976C212.932 69.84 205.934 67.5731 201.476 68.5431C197.019 69.5131 196.774 57.9621 201.172 54.3982C205.57 50.8343 196.193 40.6006 201.907 36.0431C207.621 31.486 210.837 33.3981 210.837 33.3981Z" fill="#7C4F2C"/>
<path d="M156 141.732C169.052 137.714 182.674 135.704 196.316 135.307C203.117 135.108 209.938 135.347 216.68 136.162C222.813 136.918 229.044 138.032 234.902 140.101C240.012 141.891 245.438 145.313 244.946 151.54C244.966 151.361 244.985 151.202 244.985 151.023L245.104 150.247C246.46 142.11 247.836 133.994 249.192 125.857C249.369 124.982 249.389 124.842 249.251 125.419C249.29 125.26 249.33 125.081 249.369 124.922C248.367 128.563 246.008 131.527 243.708 134.411C241.447 137.236 239.108 140.081 237.497 143.344C236.671 145.035 236.062 146.666 235.668 148.496C234.528 153.828 233.781 159.398 232.897 164.769C232.17 169.146 231.226 173.602 230.852 178.039C230.558 181.5 231.54 184.763 233.84 187.369C238.617 192.78 246.283 194.272 253.143 194.292C260.318 194.292 267.591 192.999 274.706 194.451C278.343 195.207 281.881 196.739 284.437 199.524C287.012 202.329 289.469 206.527 289.193 210.485C289.213 210.306 289.233 210.147 289.233 209.968C289.528 208.019 289.842 206.089 290.137 204.14C291.336 197.236 292.515 190.313 293.715 183.41C293.695 183.51 293.675 183.589 293.655 183.689C293.695 183.529 293.734 183.35 293.773 183.191C292.142 189.557 284.771 190.432 279.385 190.751C279.247 190.751 278.481 195.466 278.598 194.869C278.009 198.191 277.439 201.513 276.888 204.856C276.338 208.178 275.768 211.52 275.257 214.842C275.198 215.26 274.706 219 274.667 219C277.97 218.801 281.449 218.622 284.417 217.031C285.675 216.354 286.835 215.419 287.719 214.265C289.075 212.475 289.331 210.326 289.724 208.158C290.923 201.513 292.044 194.849 293.105 188.185C293.459 185.936 294.088 183.549 293.99 181.242C293.911 179.57 293.341 177.959 292.633 176.467C291.238 173.583 289.312 170.897 286.658 169.086C281.272 165.446 274.313 165.346 268.082 165.625C261.497 165.923 254.735 166.719 248.288 164.869C244.829 163.874 241.428 162.143 238.932 159.478C236.435 156.812 235.334 153.45 235.629 149.789C235.609 149.968 235.59 150.128 235.59 150.307C236.081 145.671 235.373 149.829 233.467 162.76C231.049 175.612 230.361 179.749 231.403 175.214C231.363 175.373 231.324 175.552 231.285 175.711C232.346 171.493 234.803 167.933 237.457 164.571C240.012 161.328 243 158.125 244.376 154.126C245.045 152.176 245.32 150.068 245.674 148.059C247.089 140.121 248.622 132.124 249.625 124.126C249.86 122.177 249.723 120.267 248.838 118.496C247.423 115.691 244.632 113.901 241.84 112.687C238.499 111.215 234.862 110.36 231.305 109.584C226.894 108.63 222.431 107.952 217.938 107.555C208.935 106.719 199.854 106.878 190.851 107.694C180.669 108.609 170.565 110.499 160.776 113.503C160.541 113.583 159.892 118.118 159.99 117.621C159.4 120.943 158.83 124.265 158.28 127.608C157.73 130.93 157.16 134.272 156.648 137.594C156.531 138.33 156.413 139.067 156.314 139.803C156.138 140.419 156.059 141.076 156 141.732Z" fill="#111827"/>
<path d="M249.51 125.043C248.392 128.332 246.254 131.111 244.156 133.807C242.312 136.198 240.39 138.588 238.88 141.223C238.88 141.223 238.9 141.223 238.9 141.244H238.86C238.527 141.816 238.233 142.388 237.939 142.98C237.115 144.717 236.546 146.535 236.154 148.415C236.154 148.456 236.134 148.517 236.134 148.558C236.115 148.803 236.095 149.191 236.037 149.743C235.781 153.441 236.86 156.852 239.331 159.57C239.799 160.078 240.297 160.555 240.822 161C242.43 158.875 243.901 156.628 244.744 154.074C245.411 152.072 245.685 149.906 246.038 147.843C247.451 139.691 248.98 131.478 249.981 123.265C250 123.184 250 123.082 250 123C249.863 123.674 249.667 124.369 249.51 125.043ZM249.686 124.593C249.725 124.409 249.745 124.307 249.765 124.267C249.725 124.368 249.706 124.491 249.686 124.593Z" fill="#111827"/>
<path d="M293.806 183.34C293.786 183.4 293.786 183.44 293.767 183.5C293.786 183.4 293.806 183.32 293.825 183.22C293.825 183.26 293.825 183.3 293.806 183.34C293.825 183.22 293.864 183.1 293.884 183C292.273 189.4 284.995 190.28 279.677 190.6C279.541 190.6 278.784 195.34 278.901 194.74C278.862 194.98 278.823 195.2 278.784 195.44C278.823 195.46 278.881 195.48 278.92 195.5C278.901 195.52 278.881 195.54 278.862 195.54C278.823 195.56 278.784 195.6 278.746 195.62C278.217 198.671 277.699 201.725 277.193 204.78C276.65 208.12 276.087 211.48 275.582 214.82C275.524 215.24 275.039 219 275 219C278.26 218.8 281.696 218.62 284.626 217.02C285.868 216.34 287.013 215.4 287.886 214.24C289.226 212.44 289.478 210.28 289.866 208.1C291.05 201.42 292.156 194.72 293.204 188.02C293.456 186.42 293.825 184.76 294 183.12C293.942 183.24 293.884 183.36 293.806 183.48V183.34Z" fill="#111827"/>
<path d="M222 181.268C208.853 185.286 195.133 187.296 181.392 187.693C174.541 187.892 167.671 187.653 160.88 186.838C154.703 186.082 148.426 184.968 142.526 182.899C137.379 181.109 131.914 177.687 132.409 171.46C132.39 171.639 132.37 171.798 132.37 171.977L132.251 172.753C130.884 180.89 129.499 189.006 128.133 197.143C127.955 198.018 127.934 198.158 128.073 197.581C128.034 197.74 127.994 197.919 127.955 198.078C128.964 194.437 131.34 191.473 133.656 188.589C135.933 185.764 138.29 182.919 139.913 179.656C140.745 177.965 141.359 176.334 141.755 174.504C142.903 169.172 143.655 163.602 144.546 158.231C145.279 153.854 146.229 149.398 146.605 144.961C146.902 141.5 145.912 138.237 143.595 135.631C138.784 130.22 131.063 128.728 124.153 128.708C116.926 128.708 109.601 130.001 102.433 128.549C98.7706 127.793 95.2068 126.261 92.6327 123.476C90.0391 120.671 87.5643 116.473 87.8414 112.515C87.8217 112.694 87.8017 112.853 87.8017 113.032C87.505 114.981 87.1884 116.911 86.8913 118.86C85.6833 125.764 84.4954 132.687 83.2878 139.59C83.3074 139.49 83.3275 139.411 83.3471 139.311C83.3074 139.471 83.2678 139.65 83.2281 139.809C84.8717 133.443 92.2964 132.568 97.7212 132.249C97.8597 132.249 98.6321 127.534 98.5132 128.131C99.1073 124.809 99.6815 121.487 100.236 118.144C100.79 114.822 101.364 111.48 101.879 108.158C101.938 107.74 102.433 104 102.473 104C99.147 104.199 95.6424 104.378 92.6528 105.969C91.3856 106.646 90.2172 107.581 89.3264 108.735C87.9603 110.525 87.7028 112.673 87.3069 114.842C86.1029 121.488 84.9678 128.146 83.9016 134.815C83.5453 137.064 82.9115 139.451 83.0103 141.758C83.0896 143.43 83.6638 145.041 84.3769 146.533C85.7826 149.417 87.7229 152.103 90.3954 153.914C95.8206 157.554 102.829 157.654 109.106 157.375C115.738 157.077 122.549 156.281 129.043 158.131C132.528 159.126 135.953 160.857 138.468 163.522C140.982 166.188 142.091 169.55 141.794 173.21C141.814 173.032 141.833 172.872 141.833 172.693C141.338 177.329 142.051 173.171 143.972 160.24C146.407 147.388 147.1 143.251 146.051 147.786C146.09 147.627 146.13 147.448 146.17 147.289C145.1 151.507 142.625 155.067 139.953 158.429C137.379 161.672 134.369 164.875 132.983 168.874C132.31 170.823 132.033 172.932 131.676 174.941C130.251 182.879 128.707 190.876 127.697 198.874C127.459 200.823 127.598 202.733 128.489 204.504C129.914 207.309 132.726 209.099 135.537 210.313C138.903 211.785 142.566 212.64 146.15 213.416C150.592 214.37 155.088 215.048 159.613 215.445C168.681 216.281 177.828 216.122 186.896 215.306C197.152 214.391 207.329 212.501 217.189 209.497C217.426 209.417 218.08 204.882 217.981 205.379C218.575 202.057 219.149 198.735 219.703 195.392C220.258 192.07 220.832 188.728 221.347 185.406C221.465 184.67 221.584 183.933 221.683 183.197C221.861 182.581 221.94 181.924 222 181.268Z" fill="#111827"/>
<path d="M128.49 197.011C129.608 193.808 131.746 191.103 133.844 188.477C135.688 186.15 137.609 183.822 139.12 181.256C139.12 181.256 139.1 181.256 139.1 181.236H139.139C139.473 180.679 139.767 180.122 140.061 179.545C140.885 177.855 141.453 176.084 141.846 174.254C141.846 174.214 141.865 174.154 141.865 174.115C141.885 173.876 141.905 173.498 141.964 172.961C142.218 169.361 141.14 166.038 138.669 163.393C138.201 162.898 137.703 162.433 137.178 162C135.57 164.069 134.099 166.257 133.256 168.744C132.589 170.693 132.315 172.802 131.962 174.811C130.55 182.748 129.02 190.745 128.02 198.742C128 198.821 128 198.92 128 199C128.137 198.344 128.333 197.667 128.49 197.011ZM128.314 197.449C128.275 197.628 128.255 197.727 128.236 197.767C128.275 197.667 128.294 197.548 128.314 197.449Z" fill="#111827"/>
<path d="M83.2046 138.67C83.2248 138.611 83.2248 138.572 83.2455 138.514C83.2248 138.611 83.2046 138.689 83.184 138.786C83.184 138.747 83.184 138.708 83.2046 138.67C83.184 138.786 83.1432 138.903 83.123 139C84.8185 132.778 92.479 131.922 98.0767 131.611C98.2195 131.611 99.0165 127.003 98.8936 127.586C98.9344 127.353 98.9752 127.139 99.0165 126.905C98.9752 126.886 98.9142 126.867 98.8734 126.847C98.8936 126.828 98.9142 126.809 98.9344 126.809C98.9757 126.789 99.0165 126.75 99.0573 126.73C99.6138 123.764 100.158 120.796 100.691 117.825C101.264 114.578 101.856 111.311 102.387 108.064C102.448 107.656 102.959 104 103 104C99.5681 104.194 95.9522 104.369 92.8672 105.925C91.5598 106.586 90.3544 107.5 89.4352 108.628C88.0256 110.378 87.7599 112.478 87.3515 114.597C86.1052 121.092 84.941 127.606 83.8379 134.119C83.5722 135.675 83.184 137.289 83 138.883C83.0615 138.767 83.123 138.65 83.2046 138.533V138.67Z" fill="#111827"/>
<path d="M197.5 189C223.734 189 245 167.734 245 141.5C245 115.266 223.734 94 197.5 94C171.266 94 150 115.266 150 141.5C150 167.734 171.266 189 197.5 189Z" fill="#9C9C9C"/>
<path d="M160.152 126.379C157.018 125.319 154.302 123.06 152.716 120.164C152.269 119.364 151.903 118.447 152.023 117.538C152.054 117.353 152.101 117.134 152.267 117.048C152.417 116.962 152.618 117.009 152.787 117.057C158.02 118.471 163.554 120.855 169.047 120.603C169.298 120.6 169.55 120.579 169.769 120.676C170.039 120.79 170.21 121.039 170.331 121.306C170.747 122.172 171.107 123.812 170.971 124.788C170.804 125.948 169.684 126.117 168.699 126.366C165.894 127.081 162.948 127.327 160.152 126.379Z" fill="#F8AE9D"/>
<path d="M159.438 120.322C159.018 120.166 158.582 120.009 158.131 120C157.681 119.991 157.184 120.205 157.041 120.591C156.945 120.858 157.033 121.138 157.154 121.387C157.482 122.033 158.058 122.557 158.667 123.021C160.998 124.762 163.985 125.815 167.041 125.981C168.393 126.051 169.809 125.943 171 125.381C170.405 124.739 170.523 123.822 170.459 123.01C170.268 120.635 167.982 121.537 166.147 121.532C163.845 121.489 161.553 121.091 159.438 120.322Z" fill="#F8AE9D"/>
<path d="M226.336 100.413L226.436 100.707C227.135 102.8 227.675 104.962 227.898 107.177C228.308 111.247 227.535 116.01 224.573 118.966C220.624 122.907 214.287 123.516 209.137 122.578C207.029 122.197 205.044 121.285 203.358 119.924C201.679 121.495 199.875 123.216 198.375 124.966C195.36 123.876 192.49 122.397 189.834 120.563C183.549 123.539 177.138 125.546 170.369 127C169.595 125.011 169.052 122.933 168.751 120.812C168.698 120.468 172.917 117.525 173.404 117.106C174.864 115.834 177.906 112.926 177.906 112.926C177.906 112.926 174.072 109.551 172.395 107.967C170.62 106.32 168.918 104.591 167.293 102.787C165.951 101.295 164.64 99.7213 163.818 97.8604C162.996 96.0157 162.693 93.8346 163.381 91.9167C165.551 85.9489 174.312 88.0469 178.382 90.1033C181.746 91.8095 184.693 94.2945 187.529 96.8142C188.673 97.8154 189.801 98.8496 190.913 99.8679C191.79 98.9336 192.758 97.7185 193.587 96.7353C194.477 95.6694 195.496 94.6674 196.728 94.0399C198.022 93.3619 199.216 93.4583 200.596 93.2556C201.215 93.1639 201.816 92.9736 202.419 92.8656C204.227 92.5249 206.141 92.8891 207.729 93.8505C209.238 94.7638 210.462 95.846 212.232 96.1962C214.242 96.5922 216.576 96.3582 218.591 96.08C220.4 95.8212 222.239 95.3981 224.041 95.7642C224.791 95.9167 225.077 96.9972 225.325 97.6178C225.656 98.517 226.004 99.4483 226.336 100.413Z" fill="#111827"/>
<path d="M239.633 71.6593C240.081 70.7176 240.054 69.6233 239.892 68.6024C239.192 64.2199 236.188 60.5573 232.745 57.8738C229.29 55.183 225.337 53.2622 221.702 50.851C220.759 50.2232 219.814 49.5469 218.73 49.2077C217.648 48.8681 216.389 48.905 215.495 49.6189C214.863 50.12 214.499 50.8943 214.286 51.6694C213.821 53.3658 213.999 55.1624 214.283 56.8832C214.638 59.0537 215.159 61.2019 216.014 63.1967C216.7 64.8062 217.816 66.4623 219.494 66.7775C219.979 68.7009 220.979 70.5034 222.381 71.8825C223.984 73.4636 226.017 74.4975 228.126 75.22C230.07 75.8864 232.196 76.3219 234.151 75.6996C235.312 75.3373 236.334 74.6397 237.334 73.9283C238.225 73.3219 239.151 72.6585 239.633 71.6593ZM222.066 68.7368L220.918 66.8743C221.161 66.8961 221.4 66.9538 221.627 67.0456C222.257 67.3244 222.636 68.339 222.066 68.7368Z" fill="#7C4F2C"/>
<path d="M200.846 41.0493C200.785 41.3616 200.774 41.689 200.796 42.0623C200.929 44.2441 201.425 46.3925 202.264 48.4284C202.777 49.636 203.404 50.8265 204.292 51.8265C204.661 52.2416 205.078 52.6251 205.623 52.7729C206.185 52.9208 206.892 52.9419 207.45 52.8091C207.941 54.7335 207.736 58.3664 205.981 59.7312C205.445 60.1439 204.808 60.4026 204.17 60.6297C202.927 61.0838 201.633 61.4295 200.338 61.6975C198.863 61.9989 197.254 62.2248 196.218 63.2524C196.089 63.3787 195.96 63.5518 196.012 63.7224C196.046 63.8312 196.13 63.9076 196.23 63.9685C197.046 64.5957 198.055 64.9393 199.063 65.2675C200.832 65.8341 202.649 66.3065 204.496 66.6225C206.426 66.9531 208.419 67.1115 210.373 66.9121C211.884 66.75 213.375 66.3857 214.746 65.7431C216.183 65.068 217.654 64.5173 219.141 63.8726C220.398 63.3251 221.638 62.6996 223 62.4774C222.356 61.3182 221.014 60.6679 219.676 60.36C218.339 60.0675 216.941 60.0411 215.588 59.7958C215.143 59.7085 214.697 59.6061 214.314 59.3466C213.267 58.6297 213.554 57.0362 213.537 55.9927L213.484 52.6913C213.639 51.1153 214.326 49.7972 214.928 48.3553C215.846 46.1452 216.036 43.6346 215.227 41.3718C214.418 39.1248 212.577 37.1727 210.212 36.381C207.848 35.5894 205.009 36.0354 203.193 37.6816C202.042 38.7417 201.103 39.6906 200.846 41.0493Z" fill="#F8AE9D"/>
<path d="M208.303 33.0395C206.2 32.7606 204.284 33.985 202.864 35.8834C201.668 37.4747 200.966 39.5751 201.001 41.6855C201.006 41.9872 201.035 42.3152 201.178 42.5864C201.557 43.2353 202.383 42.9964 203.001 42.7075C204.008 42.2447 204.757 41.569 205.67 40.9988C206.583 40.4287 207.691 40.512 208.508 39.7248C209.279 38.9662 211.926 37.3677 211.997 36.1323C212.087 34.6225 209.761 33.389 208.789 33.1382C208.65 33.0864 208.488 33.0627 208.303 33.0395Z" fill="#7C4F2C"/>
<path d="M215.062 36.9749C216.988 38.2571 217.892 40.5036 217.992 42.8904C218.079 44.8944 217.46 46.9214 216.216 48.4346C216.038 48.6507 215.825 48.8697 215.55 48.966C214.857 49.1705 214.302 48.4128 213.949 47.7659C213.371 46.7178 213.13 45.6957 212.692 44.6355C212.254 43.5754 211.276 42.8532 211.043 41.7023C210.832 40.6045 209.53 37.5695 210.181 36.6185C210.974 35.4544 213.637 36.1992 214.598 36.7032C214.744 36.7639 214.893 36.8615 215.062 36.9749Z" fill="#7C4F2C"/>
<path d="M198.221 62.9175C197.916 62.7768 197.552 62.8792 197.35 63.1573C195.078 66.3923 194.2 70.4461 193.432 74.3528C192.561 78.7946 191.785 83.2508 191.041 87.7066C190.996 87.9337 190.968 88.1765 191.067 88.385C191.165 88.5936 191.39 88.7036 191.598 88.7972C192.911 89.4394 194.239 90.0655 195.552 90.7077C196.969 87.4301 197.99 83.9901 198.594 80.4629C199.437 82.6318 200.959 84.5154 202.901 85.7459C201.454 87.8528 199.673 92.0663 197.937 93.9196C197.671 94.2145 196.027 93.7548 195.659 93.6313C195.431 94.2976 196.501 93.5858 196.495 94.2647C197.483 94.4113 198.746 93.81 199.761 93.6811C200.986 93.5356 202.222 93.5274 203.448 93.6566C205.486 93.8837 207.467 94.5318 209.278 95.5057C210.178 95.9928 211.042 96.5467 211.862 97.163C212.569 97.7015 214.321 98.9674 214.321 98.9674C214.449 99.0622 215.051 98.9236 215.193 98.889C215.606 98.8182 216.018 98.7634 216.447 98.7242C217.5 98.641 218.549 98.5007 219.588 98.3041C221.664 97.9164 223.706 97.3193 225.665 96.4972C225.853 96.3489 225.18 94.9368 225.144 94.6629C225.18 94.9208 229.038 94.6026 229.418 94.5323C230.94 94.2179 232.479 94.0485 234 93.7181C233.319 87.49 231.449 81.4747 229.611 75.5074C228.892 73.1586 228.158 70.8106 227.139 68.5962C226.055 66.2368 224.655 64.0283 222.973 62.0663C222.924 62.0187 222.844 61.9875 222.781 62.0048C221.973 62.2113 217.049 63.4995 214.599 64.4261C213.351 64.9141 212.086 65.354 210.805 65.7939C210.299 65.9633 209.777 66.1327 209.252 66.1247C208.902 66.1142 208.552 66.0388 208.217 65.9629C204.803 65.1914 201.389 64.3553 198.221 62.9175Z" fill="#FF7634"/>
<path d="M220.001 76C220.149 76.8668 220.346 77.7489 220.544 78.6149C221.025 80.5806 221.642 82.5143 222.391 84.4035C222.774 85.3461 223.173 86.2723 223.622 87.1984C223.847 87.6533 224.071 88.1081 224.313 88.563C224.433 88.7826 224.553 89.0178 224.674 89.2374C224.777 89.4253 224.897 89.5975 225 89.7697C224.281 89.7487 220.734 89.9419 220 90" stroke="white" stroke-width="1.376" stroke-miterlimit="10" stroke-linecap="round"/>
<path d="M220.088 90.5586C220.159 90.9494 220.246 91.3395 220.349 91.7295L220.659 92.9001C220.762 93.2344 220.994 93.6508 221 94C220.999 93.9304 218.261 93.7288 218.004 93.704C215.153 93.4623 212.287 93.3183 209.438 93.1601C207.587 93.0587 205.77 93.0966 203.921 93.1072C203.374 93.1145 202.73 93.0671 202.434 92.6792C202.187 92.3471 202.389 91.9249 202.19 91.6202C202.062 91.6497 200.572 91.9771 200.588 91.9486C200.528 92.2432 200.411 92.86 200.059 93.0044C199.931 93.0481 199.803 93.0638 199.674 93.0653C199.481 93.0678 199.288 93.0427 199.095 93.0172C199.065 93.017 199.036 93.0074 199.014 92.9902C198.981 92.9628 199.013 92.9202 199.044 92.8779C199.482 92.3144 199.712 91.6478 199.702 90.9676C200.164 90.696 200.625 90.3821 201.021 90.0416C201.337 89.7577 201.572 89.3909 201.922 89.1488C202.287 88.8783 202.644 89.0413 203.047 89.1339C203.515 89.2248 203.978 89.3306 204.436 89.4511C205.325 89.6909 206.215 89.987 206.963 90.4664C207.223 90.6308 207.467 90.8094 207.774 90.8892C208.065 90.9691 208.387 90.9651 208.692 90.9611C210.573 90.9221 212.454 90.8411 214.316 90.6628C216.227 90.4839 217.53 90.5086 220.033 90.182C220.033 90.1959 220.035 90.3216 220.088 90.5586Z" fill="#F8AE9D"/>
<path d="M200 76C199.099 77.6486 198.431 79.3182 198 81" stroke="white" stroke-width="1.376" stroke-miterlimit="10" stroke-linecap="round"/>
<path d="M162.04 72.36L167.505 97L209 96.3629C208.978 94.9146 207.798 93.7415 206.35 93.7638L196.434 93.9161L191.492 71.2478C191.416 70.8915 191.22 70.5727 190.938 70.3453C190.656 70.118 190.305 69.996 189.945 70.0001L163.555 70.4055C162.552 70.437 161.818 71.3658 162.04 72.36Z" fill="#6E6C6C"/>
<path d="M215.929 131.939C215.742 130.896 215.21 129.828 214.712 128.894C212.655 125.07 208.978 122.374 205.019 120.52C204.61 120.331 204.202 120.143 203.778 120C203.81 120.044 203.842 120.088 203.874 120.148L203.875 120.163L203.89 120.162C203.843 120.133 203.811 120.104 203.764 120.075C202.164 121.458 200.457 122.976 199 124.506C199.963 125.254 201.361 125.861 202.055 126.359C203.695 127.515 205.274 128.747 206.975 129.828C209.26 131.304 211.695 132.374 214.416 132.842C215.463 133.021 216.012 133.207 216 132.431C215.982 132.311 215.964 132.147 215.929 131.939Z" fill="#F8AE9D"/>
<path d="M213.616 128.669C212.497 126.692 210.758 125.187 208.858 123.855C207.525 122.916 206.11 122.071 204.761 121.21C204.379 120.969 203.627 120.315 202.979 120C201.63 121.147 200.249 122.356 199 123.609C203.125 125.96 206.8 129.028 211.325 130.694C211.74 130.842 212.171 130.991 212.616 131C213.061 131.009 213.536 130.832 213.794 130.489C214.197 129.958 213.939 129.236 213.616 128.669Z" fill="#F8AE9D"/>
<path d="M270.089 143.826C265.672 144.812 261 141.283 261 141.283C261 141.283 263.493 136.157 267.912 135.174C272.329 134.188 277 137.714 277 137.714C277 137.714 274.507 142.84 270.089 143.826Z" fill="#9C9C9C"/>
<path d="M243.533 212.422C247.674 215.352 254 213.304 254 213.304C254 213.304 253.608 206.506 249.464 203.579C245.323 200.649 239 202.695 239 202.695C239 202.695 239.391 209.492 243.533 212.422Z" fill="#6E6C6C"/>
<path d="M63.0896 162.143C69.6168 168.157 81.8232 166.888 81.8232 166.888C81.8232 166.888 83.4383 155.87 76.9049 149.86C70.3773 143.846 58.177 145.111 58.177 145.111C58.177 145.111 56.5619 156.129 63.0896 162.143Z" fill="#9C9C9C"/>
<path d="M302.5 125C298.91 125 296 127.91 296 131.5C296 135.09 298.91 138 302.5 138C306.09 138 309 135.09 309 131.5C309 127.91 306.09 125 302.5 125Z" fill="#EA580C"/>
<path d="M118.5 164C115.462 164 113 166.462 113 169.5C113 172.538 115.462 175 118.5 175C121.538 175 124 172.538 124 169.5C124 166.462 121.538 164 118.5 164Z" fill="#EA580C"/>
<path d="M105 94C102.239 94 100 91.7614 100 89C100 86.2386 102.239 84 105 84C107.761 84 110 86.2386 110 89C110 91.7614 107.761 94 105 94Z" fill="#EA580C"/>
<path d="M258 98C254.686 98 252 95.3137 252 92C252 88.6863 254.686 86 258 86C261.314 86 264 88.6863 264 92C264 95.3137 261.314 98 258 98Z" fill="#EA580C"/>
<path d="M286.5 155C285.119 155 284 153.881 284 152.5C284 151.119 285.119 150 286.5 150C287.881 150 289 151.119 289 152.5C289 153.881 287.881 155 286.5 155Z" fill="#6E6C6C"/>
<path d="M96.5 176C94.567 176 93 174.209 93 172C93 169.791 94.567 168 96.5 168C98.433 168 100 169.791 100 172C100 174.209 98.433 176 96.5 176Z" fill="#6E6C6C"/>
<path d="M288 103C286.343 103 285 101.881 285 100.5C285 99.1193 286.343 98 288 98C289.657 98 291 99.1193 291 100.5C291 101.881 289.657 103 288 103Z" fill="#6E6C6C"/>
<path d="M279.5 67C277.015 67 275 65.2091 275 63C275 60.7909 277.015 59 279.5 59C281.985 59 284 60.7909 284 63C284 65.2091 281.985 67 279.5 67Z" fill="#9C9C9C"/>
<path d="M134.27 112.639C134.663 114.106 133.793 115.614 132.327 116.008C130.861 116.401 129.354 115.53 128.961 114.062C128.568 112.595 129.438 111.087 130.904 110.693C132.37 110.3 133.877 111.171 134.27 112.639Z" fill="#9C9C9C"/>
<path d="M80.5 104C79.1193 104 78 102.881 78 101.5C78 100.119 79.1193 99 80.5 99C81.8807 99 83 100.119 83 101.5C83 102.881 81.8807 104 80.5 104Z" fill="#6E6C6C"/>
<path d="M316.9 76.7652H316.974C317.409 82.9087 322 83.0031 322 83.0031C322 83.0031 316.938 83.1017 316.938 90.2004C316.938 83.1017 311.875 83.0031 311.875 83.0031C311.875 83.0031 316.464 82.9087 316.9 76.7652ZM251.35 45.564H251.424C251.859 51.7075 256.45 51.8019 256.45 51.8019C256.45 51.8019 251.388 51.9005 251.388 58.9992C251.388 51.9005 246.325 51.8019 246.325 51.8019C246.325 51.8019 250.914 51.7075 251.35 45.564ZM254.675 145.313H254.749C255.184 151.457 259.775 151.552 259.775 151.552C259.775 151.552 254.713 151.65 254.713 158.748C254.713 151.65 249.65 151.552 249.65 151.552C249.65 151.552 254.239 151.457 254.675 145.313ZM113.065 188.806H113.109C113.375 192.553 116.175 192.61 116.175 192.61C116.175 192.61 113.088 192.671 113.088 197C113.088 192.671 110 192.61 110 192.61C110 192.61 112.799 192.553 113.065 188.806ZM137.349 82.438H137.423C137.859 88.5815 142.45 88.6763 142.45 88.6763C142.45 88.6763 137.387 88.7745 137.387 95.8731C137.387 88.7745 132.325 88.6763 132.325 88.6763C132.325 88.6763 136.914 88.5815 137.349 82.438ZM134.418 38H134.505C135.016 45.3498 140.4 45.463 140.4 45.463C140.4 45.463 134.463 45.5806 134.463 54.0732C134.463 45.5806 128.525 45.463 128.525 45.463C128.525 45.463 133.907 45.3498 134.418 38Z" fill="black"/>
</svg>
