<svg width="346" height="231" viewBox="0 0 346 231" fill="none" xmlns="http://www.w3.org/2000/svg">
<path d="M106.092 158.467C109.951 180.415 162.531 214.637 210.934 186.186C233.446 172.952 228.465 160.837 243.068 139.947C251.772 127.496 265.843 116.34 266.9 100.938C267.815 87.6438 262.388 74.8455 253.788 67.7003C234.447 51.6309 201.447 45.2224 179.13 82.8193C156.814 120.416 96.147 101.862 106.092 158.467Z" fill="#111827"/>
<path d="M155 130H250V206H155V130Z" fill="#6E6C6C" stroke="#6E6C6C" stroke-width="2.026"/>
<path d="M198 146H264V206H198V146Z" fill="#6E6C6C" stroke="#6E6C6C" stroke-width="2.026"/>
<path d="M224 160H282V206H224V160Z" fill="#6E6C6C" stroke="#6E6C6C" stroke-width="2.026"/>
<path d="M238.757 175H296V206H238.757V175ZM122 182.835H238.154V206H122V182.835Z" fill="#6E6C6C" stroke="#6E6C6C" stroke-width="2.026"/>
<path d="M50 190H131V206H50V190Z" fill="#9C9C9C" stroke="#6E6C6C" stroke-width="2.026"/>
<path d="M72 175H154V190H72V175Z" fill="#9C9C9C" stroke="#6E6C6C" stroke-width="2.026"/>
<path d="M106 160H190V175H106V160Z" fill="#9C9C9C" stroke="#6E6C6C" stroke-width="2.026"/>
<path d="M129 146H212V160H129V146Z" fill="#9C9C9C" stroke="#6E6C6C" stroke-width="2.026"/>
<path d="M152 130H235V146H152V130Z" fill="#9C9C9C" stroke="#6E6C6C" stroke-width="2.026"/>
<path fill-rule="evenodd" clip-rule="evenodd" d="M197.2 102H186.8C175.313 102 166 92.6317 166 81.0767V39.2305C166 36.3432 168.329 34 171.2 34H212.8C215.671 34 218 36.3432 218 39.2305V81.0767C218 92.6317 208.687 102 197.2 102Z" fill="#FF7634" stroke="#FF7634" stroke-width="7"/>
<path d="M192 97V117" stroke="#FF7634" stroke-width="20.335"/>
<path d="M176 117H207" stroke="#FF7634" stroke-width="20.335" stroke-linecap="round" stroke-linejoin="round"/>
<path d="M168 125H216" stroke="#7C4F2C" stroke-width="8" stroke-linecap="round" stroke-linejoin="round"/>
<path d="M215.082 50H230.77C233.657 50 236 52.3149 236 55.1668V65.5C236 74.0614 228.977 81 220.312 81H215.082M169.918 50H154.23C151.343 50 149 52.3149 149 55.1668V65.5C149 74.0614 156.023 81 164.689 81H169.918" stroke="#FF7634" stroke-width="7" stroke-linecap="round" stroke-linejoin="round"/>
<path fill-rule="evenodd" clip-rule="evenodd" d="M191.997 73.2329L198.238 76.79C199.451 77.4818 200.873 76.3645 200.64 74.8966L199.448 67.3606L204.498 62.0282C205.481 60.9886 204.939 59.1762 203.58 58.9636L196.604 57.8634L193.484 51.0025C192.877 49.6658 191.123 49.6658 190.513 51.0025L187.395 57.8634L180.42 58.9636C179.06 59.1762 178.519 60.9886 179.502 62.0282L184.552 67.3606L183.36 74.8966C183.127 76.3645 184.549 77.4818 185.762 76.79L192.003 73.2329H191.997Z" fill="white"/>
<path d="M241.485 33.7127H241.567C242.054 40.1701 247.186 40.2694 247.186 40.2694C247.186 40.2694 241.527 40.3729 241.527 47.8336C241.527 40.3729 235.868 40.2694 235.868 40.2694C235.868 40.2694 240.998 40.1701 241.485 33.7127ZM142.042 87.198H142.119C142.573 93.2192 147.359 93.3119 147.359 93.3119C147.359 93.3119 142.081 93.4081 142.081 100.366C142.081 93.4081 136.804 93.3119 136.804 93.3119C136.804 93.3119 141.588 93.2192 142.042 87.198ZM224.033 101.696H224.083C224.379 105.619 227.497 105.679 227.497 105.679C227.497 105.679 224.059 105.742 224.059 110.274C224.059 105.742 220.621 105.679 220.621 105.679C220.621 105.679 223.737 105.619 224.033 101.696ZM130.162 43.6273H130.211C130.507 47.55 133.625 47.6103 133.625 47.6103C133.625 47.6103 130.187 47.6733 130.187 52.2056C130.187 47.6733 126.749 47.6103 126.749 47.6103C126.749 47.6103 129.866 47.55 130.162 43.6273ZM89.09 105.825H89.1399C89.4355 109.748 92.5535 109.808 92.5535 109.808C92.5535 109.808 89.1153 109.871 89.1153 114.404C89.1153 109.871 85.6775 109.808 85.6775 109.808C85.6775 109.808 88.794 109.748 89.09 105.825ZM61.4124 120.422H61.4624C61.758 124.344 64.8759 124.405 64.8759 124.405C64.8759 124.405 61.4378 124.467 61.4378 129C61.4378 124.467 58 124.405 58 124.405C58 124.405 61.1164 124.344 61.4124 120.422ZM154.078 25H154.128C154.424 28.9223 157.542 28.983 157.542 28.983C157.542 28.983 154.103 29.0456 154.103 33.5783C154.103 29.0456 150.666 28.983 150.666 28.983C150.666 28.983 153.782 28.9223 154.078 25ZM116.466 76.7672H116.516C116.812 80.69 119.93 80.7502 119.93 80.7502C119.93 80.7502 116.491 80.8128 116.491 85.3455C116.491 80.8128 113.054 80.7502 113.054 80.7502C113.054 80.7502 116.17 80.69 116.466 76.7672ZM95.3236 65.1776H95.3735C95.6691 69.1003 98.7871 69.1605 98.7871 69.1605C98.7871 69.1605 95.3489 69.2231 95.3489 73.7559C95.3489 69.2231 91.9111 69.1605 91.9111 69.1605C91.9111 69.1605 95.0276 69.1003 95.3236 65.1776ZM166.993 107.021H167.031C167.254 109.982 169.607 110.027 169.607 110.027C169.607 110.027 167.012 110.075 167.012 113.496C167.012 110.075 164.417 110.027 164.417 110.027C164.417 110.027 166.77 109.982 166.993 107.021ZM241.433 80.8823H241.471C241.694 83.8435 244.047 83.8891 244.047 83.8891C244.047 83.8891 241.452 83.9362 241.452 87.3575C241.452 83.9362 238.857 83.8891 238.857 83.8891C238.857 83.8891 241.21 83.8435 241.433 80.8823ZM272.386 82.1758H272.423C272.647 85.1365 275 85.1821 275 85.1821C275 85.1821 272.405 85.2296 272.405 88.6509C272.405 85.2296 269.81 85.1821 269.81 85.1821C269.81 85.1821 272.162 85.1365 272.386 82.1758ZM269.907 115.265H269.945C270.168 118.226 272.521 118.272 272.521 118.272C272.521 118.272 269.926 118.319 269.926 121.74C269.926 118.319 267.331 118.272 267.331 118.272C267.331 118.272 269.684 118.226 269.907 115.265ZM224.691 25H224.729C224.952 27.9608 227.306 28.0064 227.306 28.0064C227.306 28.0064 224.711 28.0539 224.711 31.4752C224.711 28.0539 222.116 28.0064 222.116 28.0064C222.116 28.0064 224.468 27.9608 224.691 25ZM253.165 59.3827H253.203C253.426 62.3435 255.779 62.3891 255.779 62.3891C255.779 62.3891 253.185 62.4366 253.185 65.8579C253.185 62.4366 250.59 62.3891 250.59 62.3891C250.59 62.3891 252.942 62.3435 253.165 59.3827Z" fill="black"/>
</svg>
