<svg width="296" height="197" viewBox="0 0 296 197" fill="none" xmlns="http://www.w3.org/2000/svg">
<path d="M237.82 77.0484C233.437 84.8424 223.838 85.9132 208.459 84.4323C196.893 83.3162 186.346 82.4527 174.779 76.1693C166.683 71.7747 160.274 65.8285 155.597 60.0538C150.528 53.7974 143.454 46.6574 146.922 39.5639C151.688 29.8196 179.25 21.613 206.014 35.0338C235.415 49.7807 242.108 69.4312 237.82 77.0484Z" fill="#EA580C"/>
<path d="M267.917 94.3856C259.359 98.6254 248 93.1736 248 93.1736C248 93.1736 250.524 80.8497 259.087 76.6156C267.645 72.3757 279 77.8215 279 77.8215C279 77.8215 276.475 90.1454 267.917 94.3856Z" fill="black"/>
<path d="M32.1143 123.935C43.1569 130.528 59 124.433 59 124.433C59 124.433 56.9283 107.653 45.879 101.067C34.836 94.4746 19 100.561 19 100.561C19 100.561 21.0717 117.342 32.1143 123.935Z" fill="black"/>
<path d="M251.5 62C249.015 62 247 64.0147 247 66.5C247 68.9853 249.015 71 251.5 71C253.985 71 256 68.9853 256 66.5C256 64.0147 253.985 62 251.5 62Z" fill="#858484"/>
<path d="M81 87C78.2386 87 76 89.4624 76 92.5C76 95.5376 78.2386 98 81 98C83.7614 98 86 95.5376 86 92.5C86 89.4624 83.7614 87 81 87Z" fill="#FB9E55"/>
<path d="M47 66C44.7909 66 43 64.2091 43 62C43 59.7909 44.7909 58 47 58C49.2091 58 51 59.7909 51 62C51 64.2091 49.2091 66 47 66Z" fill="#6E6C6C"/>
<path d="M212.5 86C211.672 86 211 85.1046 211 84C211 82.8954 211.672 82 212.5 82C213.328 82 214 82.8954 214 84C214 85.1046 213.328 86 212.5 86Z" fill="#FB9E55"/>
<path d="M224.5 175C223.119 175 222 173.881 222 172.5C222 171.119 223.119 170 224.5 170C225.881 170 227 171.119 227 172.5C227 173.881 225.881 175 224.5 175Z" fill="#EA580C"/>
<path d="M46 150C43.7909 150 42 148.433 42 146.5C42 144.567 43.7909 143 46 143C48.2091 143 50 144.567 50 146.5C50 148.433 48.2091 150 46 150Z" fill="#EA580C"/>
<path d="M88 55C86.3431 55 85 53.6569 85 52C85 50.3431 86.3431 49 88 49C89.6569 49 91 50.3431 91 52C91 53.6569 89.6569 55 88 55Z" fill="#EA580C"/>
<path d="M225 56C223.343 56 222 54.433 222 52.5C222 50.567 223.343 49 225 49C226.657 49 228 50.567 228 52.5C228 54.433 226.657 56 225 56Z" fill="#858484"/>
<path d="M57.1274 87.3595C57.5273 88.852 56.6416 90.3861 55.1491 90.786C53.6567 91.1859 52.1226 90.3002 51.7226 88.8077C51.3227 87.3153 52.2084 85.7812 53.7009 85.3812C55.1934 84.9813 56.7275 85.867 57.1274 87.3595Z" fill="#858484"/>
<path d="M125 32C122.791 32 121 30.433 121 28.5C121 26.567 122.791 25 125 25C127.209 25 129 26.567 129 28.5C129 30.433 127.209 32 125 32Z" fill="#E1E4E5"/>
<path d="M244 126C242.343 126 241 124.881 241 123.5C241 122.119 242.343 121 244 121C245.657 121 247 122.119 247 123.5C247 124.881 245.657 126 244 126Z" fill="#6E6C6C"/>
<path d="M195.777 27.023C196.61 30.129 194.766 33.3216 191.66 34.1539C188.554 34.9861 185.362 33.1429 184.529 30.0369C183.697 26.9309 185.54 23.7383 188.646 22.906C191.752 22.0737 194.945 23.917 195.777 27.023Z" fill="#6E6C6C"/>
<path d="M265.807 108H265.882C266.326 114.324 271 114.421 271 114.421C271 114.421 265.846 114.523 265.846 121.83C265.846 114.523 260.692 114.421 260.692 114.421C260.692 114.421 265.364 114.324 265.807 108ZM77.5394 169.482H77.6058C77.9995 175.207 82.1469 175.294 82.1469 175.294C82.1469 175.294 77.5736 175.386 77.5736 182C77.5736 175.386 73 175.294 73 175.294C73 175.294 77.1457 175.207 77.5394 169.482Z" fill="#EA580C"/>
<path d="M176.777 140.365C179.577 140.449 182.404 139.421 184.542 137.282C188.655 133.165 188.655 126.491 184.542 122.375C180.428 118.259 173.759 118.259 169.645 122.375C167.866 124.15 166.783 126.505 166.592 129.011C166.421 131.219 165.954 133.523 164.389 135.089C163.807 135.67 163.019 135.997 162.197 135.997C161.375 135.997 160.586 135.67 160.005 135.089L151.024 126.102C148.968 124.044 145.633 124.044 143.576 126.102L135.164 134.52C133.461 136.224 133.78 137.908 136.188 137.922C138.863 137.937 141.535 138.966 143.576 141.009C147.69 145.125 147.69 151.799 143.576 155.916C139.462 160.032 132.793 160.032 128.679 155.916C126.862 154.102 125.772 151.685 125.615 149.122C125.591 148.742 125.639 148.342 125.703 147.942C126.051 145.787 123.936 145.755 122.393 147.299L117.507 152.189C115.45 154.247 115.45 157.584 117.507 159.643L147.3 189.456C149.357 191.515 152.692 191.515 154.748 189.456L159.202 184.998L180.817 163.369C182.874 161.31 182.874 157.973 180.817 155.915L172.639 147.732C170.985 146.077 170.985 143.394 172.639 141.739C173.708 140.67 175.266 140.319 176.777 140.365ZM119.223 56.6352C116.423 56.5516 113.596 57.5792 111.458 59.7178C107.345 63.8343 107.345 70.5084 111.458 74.6248C115.572 78.7413 122.241 78.7413 126.355 74.6248C128.134 72.8498 129.217 70.495 129.408 67.9884C129.579 65.7804 130.046 63.4775 131.611 61.9114C132.822 60.6998 134.785 60.6998 135.995 61.9114L144.976 70.8982C147.032 72.9565 150.367 72.9565 152.424 70.8982L160.836 62.4803C162.539 60.7762 162.22 59.0918 159.812 59.0784C157.136 59.0633 154.465 58.034 152.424 55.9912C148.31 51.8747 148.31 45.2006 152.424 41.0841C156.538 36.9676 163.207 36.9676 167.32 41.0841C169.138 42.8974 170.228 45.3142 170.385 47.8776C170.409 48.2576 170.361 48.6576 170.296 49.0574C169.949 51.213 172.063 51.2448 173.606 49.7007L178.493 44.811C180.549 42.7528 180.549 39.4157 178.493 37.3575L148.7 7.54368C146.643 5.48544 143.308 5.48544 141.251 7.54368L136.798 12.0015L115.183 33.6315C113.126 35.6898 113.126 39.0265 115.183 41.0848L123.361 49.2685C125.014 50.9231 125.014 53.6057 123.361 55.2603C122.292 56.3296 120.734 56.6804 119.223 56.6352ZM187.4 72.6279C187.484 69.8257 186.457 66.9962 184.32 64.8576C180.206 60.7412 173.537 60.7412 169.423 64.8576C165.309 68.9738 165.309 75.6479 169.423 79.7644C171.197 81.5447 173.55 82.6289 176.055 82.8201C178.261 82.9909 180.563 83.4585 182.128 85.0246C183.338 86.2358 183.338 88.2 182.128 89.4116L173.147 98.3981C171.09 100.456 171.09 103.793 173.147 105.852L181.559 114.269C183.262 115.974 184.945 115.655 184.959 113.245C184.974 110.567 186.002 107.894 188.044 105.852C192.157 101.735 198.827 101.735 202.94 105.852C207.054 109.968 207.054 116.642 202.94 120.759C201.128 122.577 198.713 123.668 196.151 123.825C195.772 123.849 195.372 123.801 194.973 123.737C192.818 123.388 192.787 125.505 194.33 127.049L199.216 131.939C201.273 133.997 204.608 133.997 206.664 131.939L236.457 102.125C238.514 100.067 238.514 96.7297 236.457 94.6714L232.003 90.2146L210.388 68.5849C208.331 66.5267 204.996 66.5267 202.94 68.5849L194.762 76.7687C193.108 78.4233 190.427 78.4233 188.774 76.7687C187.705 75.699 187.355 74.1395 187.4 72.6279ZM108.6 124.372C108.516 127.174 109.543 130.004 111.68 132.142C115.794 136.259 122.463 136.259 126.577 132.142C130.691 128.026 130.691 121.352 126.577 117.235C124.803 115.455 122.45 114.371 119.945 114.18C117.739 114.009 115.437 113.542 113.872 111.975C112.662 110.764 112.662 108.8 113.872 107.588L122.853 98.6017C124.91 96.5434 124.91 93.2064 122.853 91.1481L114.441 82.7306C112.738 81.0265 111.055 81.3449 111.041 83.7549C111.026 86.4326 109.998 89.1053 107.956 91.1481C103.843 95.2646 97.1733 95.2646 93.0597 91.1481C88.946 87.032 88.946 80.3579 93.0597 76.2414C94.8716 74.4227 97.2868 73.3316 99.8484 73.1745C100.228 73.1509 100.628 73.1988 101.027 73.2634C103.181 73.6113 103.213 71.495 101.67 69.9509L96.7837 65.0613C94.7269 63.003 91.3925 63.003 89.3357 65.0613L59.5426 94.8751C57.4858 96.9333 57.4858 100.27 59.5426 102.329L63.9973 106.785L85.6123 128.415C87.6691 130.473 91.0035 130.473 93.0603 128.415L101.238 120.231C102.892 118.577 105.573 118.577 107.226 120.231C108.295 121.301 108.645 122.861 108.6 124.372Z" fill="#111827"/>
<path fill-rule="evenodd" clip-rule="evenodd" d="M158.39 99.1482H156.993C156.831 99.1481 156.676 99.0818 156.562 98.9639C156.447 98.846 156.383 98.6862 156.383 98.5194V97.0787C156.383 96.7301 156.658 96.4497 156.993 96.4497H158.39C158.725 96.4497 159 96.7333 159 97.0787V98.5194C159 98.6021 158.985 98.6839 158.954 98.7602C158.923 98.8366 158.878 98.906 158.822 98.9644C158.765 99.0228 158.698 99.0691 158.624 99.1007C158.55 99.1322 158.47 99.1483 158.39 99.1482ZM153.546 99.1482H152.149C151.987 99.1476 151.832 99.0812 151.718 98.9634C151.604 98.8456 151.539 98.686 151.539 98.5194V97.0787C151.539 96.7301 151.814 96.4497 152.149 96.4497H153.546C153.881 96.4497 154.156 96.7333 154.156 97.0787V98.5194C154.155 98.686 154.091 98.8456 153.976 98.9634C153.862 99.0812 153.707 99.1476 153.546 99.1482ZM148.699 99.1482H147.302C147.14 99.1476 146.985 99.0812 146.871 98.9634C146.757 98.8456 146.692 98.686 146.692 98.5194V97.0787C146.692 96.7301 146.967 96.4497 147.302 96.4497H148.699C149.034 96.4497 149.309 96.7333 149.309 97.0787V98.5194C149.309 98.6021 149.293 98.6839 149.263 98.7603C149.232 98.8366 149.187 98.906 149.13 98.9644C149.074 99.0228 149.006 99.0691 148.932 99.1007C148.858 99.1322 148.779 99.1483 148.699 99.1482ZM143.854 99.1482H142.457C142.296 99.1476 142.141 99.0812 142.027 98.9634C141.912 98.8456 141.848 98.686 141.847 98.5194V97.0787C141.847 96.7301 142.122 96.4497 142.457 96.4497H143.854C144.192 96.4497 144.467 96.7333 144.467 97.0787V98.5194C144.465 98.6862 144.4 98.8455 144.286 98.9631C144.171 99.0807 144.016 99.1472 143.854 99.1482ZM139.01 99.1482H137.613C137.451 99.1482 137.295 99.082 137.181 98.9642C137.066 98.8464 137.001 98.6865 137 98.5194V97.0787C137 96.7301 137.275 96.4497 137.613 96.4497H139.01C139.345 96.4497 139.62 96.7333 139.62 97.0787V98.5194C139.619 98.686 139.555 98.8456 139.44 98.9634C139.326 99.0812 139.171 99.1476 139.01 99.1482ZM153.368 93.7014H151.971C151.809 93.7007 151.655 93.6342 151.541 93.5164C151.426 93.3986 151.362 93.2389 151.361 93.0723V91.6287C151.362 91.4622 151.426 91.3026 151.541 91.1848C151.655 91.067 151.81 91.0006 151.971 91H153.368C153.706 91 153.978 91.2833 153.978 91.6287V93.0695C153.979 93.1524 153.963 93.2345 153.933 93.3112C153.902 93.3879 153.857 93.4576 153.801 93.5163C153.744 93.5751 153.677 93.6217 153.602 93.6534C153.528 93.6852 153.449 93.7015 153.368 93.7014ZM148.524 93.7014H147.127C146.965 93.7007 146.81 93.6342 146.696 93.5164C146.582 93.3986 146.518 93.2389 146.517 93.0723V91.6287C146.518 91.4622 146.582 91.3026 146.696 91.1848C146.81 91.067 146.965 91.0006 147.127 91H148.524C148.859 91 149.134 91.2833 149.134 91.6287V93.0695C149.134 93.1524 149.119 93.2345 149.088 93.3112C149.058 93.3879 149.013 93.4576 148.956 93.5163C148.9 93.5751 148.832 93.6217 148.758 93.6534C148.684 93.6852 148.604 93.7015 148.524 93.7014ZM143.68 93.7014H142.283C142.121 93.7013 141.965 93.6351 141.85 93.5172C141.736 93.3994 141.671 93.2394 141.67 93.0723V91.6287C141.67 91.2833 141.945 91 142.283 91H143.68C143.841 91.0006 143.996 91.067 144.11 91.1848C144.224 91.3026 144.289 91.4622 144.289 91.6287V93.0695C144.289 93.2365 144.225 93.3968 144.111 93.5152C143.997 93.6336 143.842 93.7006 143.68 93.7014ZM148.699 105H147.302C147.14 104.999 146.985 104.933 146.871 104.815C146.757 104.697 146.692 104.538 146.692 104.371V102.931C146.692 102.582 146.967 102.302 147.302 102.302H148.699C149.034 102.302 149.309 102.585 149.309 102.931V104.371C149.309 104.454 149.293 104.536 149.263 104.612C149.232 104.688 149.187 104.758 149.13 104.816C149.074 104.875 149.006 104.921 148.932 104.952C148.858 104.984 148.779 105 148.699 105ZM153.455 105H152.058C151.897 104.999 151.742 104.933 151.628 104.815C151.513 104.697 151.449 104.538 151.448 104.371V102.931C151.448 102.582 151.723 102.302 152.058 102.302H153.455C153.79 102.302 154.065 102.585 154.065 102.931V104.371C154.066 104.454 154.05 104.536 154.019 104.612C153.989 104.689 153.944 104.758 153.887 104.816C153.83 104.875 153.763 104.921 153.689 104.953C153.615 104.984 153.535 105 153.455 105ZM143.854 105H142.457C142.296 104.999 142.141 104.933 142.027 104.815C141.912 104.697 141.848 104.538 141.847 104.371V102.931C141.847 102.582 142.122 102.302 142.457 102.302H143.854C144.192 102.302 144.467 102.585 144.467 102.931V104.371C144.465 104.538 144.4 104.697 144.286 104.815C144.171 104.933 144.016 104.999 143.854 105Z" fill="#EA580C"/>
</svg>
