<svg width="336" height="224" viewBox="0 0 336 224" fill="none" xmlns="http://www.w3.org/2000/svg">
<path d="M228.042 145.936L115.196 184.877C107.387 185.356 99.6628 184.509 92.7619 181.081C88.3631 178.895 84.3996 175.594 82.2693 171.222C80.1416 166.848 80.1209 161.325 82.9039 157.397L82.9046 157.396C83.2234 156.943 83.5782 156.517 83.9657 156.121C91.4458 148.516 91.6989 136.393 84.5848 128.451L84.5818 128.448L84.5053 128.363L84.5046 128.363L84.4251 128.275C83.457 127.203 82.4816 126.137 81.4991 125.079C79.2154 122.608 76.9266 120.13 74.8543 117.523C71.8962 113.801 69.4063 109.845 68.0536 105.337C65.312 96.1982 68.0532 85.6806 74.7383 78.8518C81.4233 72.0234 91.7318 69.0412 101.089 70.9952H101.089C105.244 71.8622 109.106 73.5896 112.869 75.6378C114.751 76.6616 116.605 77.7641 118.458 78.8774L119.22 79.3358C120.818 80.2975 122.419 81.2602 124.033 82.1775C131.509 86.4253 140.374 89.9018 148.787 87.5551C155.957 85.5542 161.307 79.7251 165.9 74.0221C166.287 73.5415 166.674 73.0583 167.06 72.5747C171.282 67.2969 175.549 61.9618 181.46 58.957C184.665 57.3291 188.537 56.6647 192.091 57.1613C195.642 57.6578 198.846 59.3079 200.77 62.2782C203.191 66.0139 203.026 70.6118 202.808 75.3716L202.797 75.6156C202.583 80.2494 202.363 85.0229 204.726 88.9908C206.101 91.2989 208.136 92.9701 210.356 94.4102C211.466 95.13 212.629 95.7966 213.782 96.4555L213.88 96.5109C215.003 97.1528 216.115 97.788 217.176 98.4671C230.357 106.907 236.434 124.976 231.033 139.671C230.228 141.859 229.213 143.941 228.042 145.936Z" fill="#9C9C9C" stroke="#9C9C9C" stroke-width="1.833"/>
<path d="M228.57 120.931L120.328 160.789C112.795 161.41 105.32 160.751 98.5883 157.59C94.2957 155.573 90.4037 152.476 88.2591 148.31L228.57 120.931ZM228.57 120.931C229.658 118.988 230.593 116.964 231.325 114.842C236.238 100.573 230 83.2878 217.101 75.4258C216.062 74.7931 214.974 74.2031 213.876 73.6072L213.781 73.556C212.653 72.9445 211.515 72.3252 210.426 71.6528C208.25 70.3087 206.245 68.7363 204.866 66.5331C202.496 62.7478 202.611 58.1327 202.723 53.6624L202.728 53.423C202.842 48.8268 202.906 44.3992 200.495 40.8553C198.581 38.0387 195.459 36.516 192.023 36.111C188.585 35.7055 184.863 36.424 181.803 38.0569C176.159 41.0728 172.148 46.2998 168.176 51.4767C167.812 51.9508 167.448 52.4242 167.084 52.8957C162.762 58.4888 157.707 64.227 150.809 66.3062C142.715 68.7448 134.067 65.5685 126.755 61.6247C125.176 60.7733 123.609 59.8774 122.045 58.983L121.299 58.5564C119.485 57.5205 117.672 56.4957 115.833 55.5471C112.155 53.6498 108.391 52.0644 104.361 51.314C95.2873 49.6232 85.3966 52.7071 79.0832 59.4215C72.7695 66.1362 70.3388 76.3239 73.1723 85.0711C74.5701 89.3851 77.055 93.1458 79.9893 96.673C82.0447 99.144 84.3061 101.485 86.563 103.821C87.5614 104.85 88.5525 105.885 89.5363 106.928L89.5367 106.928L89.6126 107.008L89.6156 107.011C96.6635 114.535 96.6676 126.248 89.5843 133.746C89.2191 134.134 88.8858 134.552 88.5879 134.994L88.5875 134.994C85.9854 138.828 86.1171 144.143 88.2591 148.31L228.57 120.931Z" fill="#9C9C9C"/>
<path d="M228.57 120.931L120.328 160.789C112.795 161.41 105.32 160.751 98.5883 157.59C94.2957 155.573 90.4037 152.476 88.2591 148.31M228.57 120.931L88.2591 148.31M228.57 120.931C229.658 118.988 230.593 116.964 231.325 114.842C236.238 100.573 230 83.2878 217.101 75.4258C216.062 74.7931 214.974 74.2031 213.876 73.6072L213.781 73.556C212.653 72.9445 211.515 72.3252 210.426 71.6528C208.25 70.3087 206.245 68.7363 204.866 66.5331C202.496 62.7478 202.611 58.1327 202.723 53.6624L202.728 53.423C202.842 48.8268 202.906 44.3992 200.495 40.8553C198.581 38.0387 195.459 36.516 192.023 36.111C188.585 35.7055 184.863 36.424 181.803 38.0569C176.159 41.0728 172.148 46.2998 168.176 51.4767C167.812 51.9508 167.448 52.4242 167.084 52.8957C162.762 58.4888 157.707 64.227 150.809 66.3062C142.715 68.7448 134.067 65.5685 126.755 61.6247C125.176 60.7733 123.609 59.8774 122.045 58.983L121.299 58.5564C119.485 57.5205 117.672 56.4957 115.833 55.5471C112.155 53.6498 108.391 52.0644 104.361 51.314C95.2873 49.6232 85.3966 52.7071 79.0832 59.4215C72.7695 66.1362 70.3388 76.3239 73.1723 85.0711C74.5701 89.3851 77.055 93.1458 79.9893 96.673C82.0447 99.144 84.3061 101.485 86.563 103.821C87.5614 104.85 88.5525 105.885 89.5363 106.928L89.5367 106.928L89.6126 107.008L89.6156 107.011C96.6635 114.535 96.6676 126.248 89.5843 133.746C89.2191 134.134 88.8858 134.552 88.5879 134.994L88.5875 134.994C85.9854 138.828 86.1171 144.143 88.2591 148.31" stroke="#9C9C9C" stroke-width="1.914"/>
<path d="M112.694 67L227.89 70.3262C235.101 72.5518 241.779 75.941 246.835 81.3708C250.059 84.8339 252.508 89.1482 252.94 93.8007C253.368 98.454 251.508 103.421 247.671 106.001L247.671 106.002C247.23 106.299 246.767 106.561 246.285 106.785C236.911 111.103 232.537 121.968 236.264 131.57L236.266 131.574L236.306 131.676L236.307 131.677C236.829 133.009 237.361 134.338 237.903 135.663C239.122 138.667 240.344 141.676 241.326 144.729C242.729 149.088 243.627 153.494 243.312 158.009C242.673 167.161 236.621 175.692 228.268 179.563C219.915 183.434 209.603 182.613 201.83 177.674C198.377 175.482 195.481 172.614 192.781 169.489C191.431 167.926 190.133 166.302 188.839 164.668L188.306 163.995C187.191 162.584 186.073 161.171 184.927 159.795C179.621 153.42 172.788 147.255 164.368 146.504C157.192 145.864 150.36 149.304 144.266 152.879C143.752 153.181 143.239 153.484 142.725 153.788C137.109 157.108 131.444 160.458 125.091 161.152C121.649 161.527 117.934 160.809 114.902 159.156C111.872 157.505 109.551 154.937 108.83 151.621C107.92 147.447 109.63 143.374 111.451 139.156L111.547 138.934C113.318 134.835 115.15 130.596 114.366 126.202C113.91 123.644 112.636 121.438 111.12 119.382C110.362 118.354 109.538 117.357 108.721 116.37L108.652 116.287C107.856 115.326 107.068 114.376 106.343 113.404C97.3268 101.327 97.9984 82.9993 107.875 71.6115C109.343 69.9197 110.962 68.3942 112.694 67Z" fill="#6E6C6C"/>
<path d="M164.368 146.504C172.788 147.255 179.621 153.42 184.927 159.795C186.073 161.171 187.191 162.584 188.306 163.995L188.839 164.668C190.133 166.302 191.431 167.926 192.781 169.489C195.481 172.614 198.377 175.482 201.83 177.674C209.603 182.613 219.915 183.434 228.268 179.563C236.621 175.692 242.673 167.161 243.312 158.009C243.627 153.494 242.729 149.088 241.326 144.729C240.344 141.676 239.122 138.667 237.903 135.663C237.361 134.338 236.829 133.009 236.307 131.677L236.306 131.676L236.266 131.574L236.264 131.57C232.537 121.968 236.911 111.103 246.285 106.785C246.767 106.561 247.23 106.299 247.671 106.002L247.671 106.001C251.508 103.421 253.368 98.454 252.94 93.8007C252.508 89.1482 250.059 84.8339 246.835 81.3708C241.779 75.941 235.101 72.5518 227.89 70.3262L112.694 67C110.962 68.3942 109.343 69.9197 107.875 71.6115C97.9984 82.9993 97.3268 101.327 106.343 113.404C107.068 114.376 107.856 115.326 108.652 116.287L108.721 116.37C109.538 117.357 110.362 118.354 111.12 119.382C112.636 121.438 113.91 123.644 114.366 126.202C115.15 130.596 113.318 134.835 111.547 138.934L111.451 139.156C109.63 143.374 107.92 147.447 108.83 151.621C109.551 154.937 111.872 157.505 114.902 159.156C117.934 160.809 121.649 161.527 125.091 161.152C131.444 160.458 137.109 157.108 142.725 153.788C143.239 153.484 143.752 153.181 144.266 152.879C150.36 149.304 157.192 145.864 164.368 146.504ZM164.368 146.504L164.335 146.875" stroke="#6E6C6C" stroke-width="2"/>
<path d="M224.516 35H114.484C110.351 35 107 38.34 107 42.4603V187.54C107 191.66 110.351 195 114.484 195H224.516C228.649 195 232 191.66 232 187.54V42.4603C232 38.34 228.649 35 224.516 35Z" fill="#111827"/>
<path d="M213.594 43H125.888C121.798 43 118.482 46.3265 118.482 50.4301V132.148C118.482 136.251 121.798 139.578 125.888 139.578H213.594C217.684 139.578 221 136.251 221 132.148V50.4301C221 46.3265 217.684 43 213.594 43ZM135.808 162.274H121.85C119.724 162.274 118 164.004 118 166.137C118 168.271 119.724 170 121.85 170H135.808C137.935 170 139.659 168.271 139.659 166.137C139.659 164.004 137.935 162.274 135.808 162.274ZM217.149 162.274H147.36C145.233 162.274 143.509 164.004 143.509 166.137C143.509 168.271 145.233 170 147.36 170H217.149C219.276 170 221 168.271 221 166.137C221 164.004 219.276 162.274 217.149 162.274ZM217.39 147.787H121.61C119.616 147.787 118 149.409 118 151.409C118 152.37 118.381 153.291 119.058 153.97C119.735 154.649 120.653 155.031 121.61 155.031H217.39C218.347 155.031 219.265 154.649 219.942 153.97C220.619 153.291 221 152.37 221 151.409C221 149.409 219.384 147.787 217.39 147.787Z" fill="white"/>
<path fill-rule="evenodd" clip-rule="evenodd" d="M194 111.076V114.538C194 116.449 192.432 118 190.5 118H148.5C146.568 118 145 116.449 145 114.538V111.021C145 100.545 157.103 93.7395 169.5 93.7395C181.897 93.7395 194 100.549 194 111.021M177.905 68.6074C182.652 73.4177 182.652 81.2162 177.905 86.0265C173.158 90.8364 165.462 90.8364 160.715 86.0265C155.968 81.2162 155.968 73.4177 160.715 68.6074C165.462 63.7975 173.158 63.7975 177.905 68.6074Z" fill="#FF7634"/>
<path fill-rule="evenodd" clip-rule="evenodd" d="M62.5512 36.6457H63.8143C64.1196 36.6457 64.3655 36.8943 64.3655 37.1973V38.4602C64.3655 38.7659 64.117 39.0115 63.8143 39.0115H62.5512C62.4051 39.011 62.2652 38.9527 62.162 38.8495C62.0587 38.7462 62.0005 38.6063 62 38.4602V37.1973C61.9998 37.1249 62.0139 37.0531 62.0415 36.9861C62.0692 36.9191 62.1098 36.8582 62.161 36.807C62.2122 36.7557 62.273 36.7151 62.34 36.6874C62.4069 36.6597 62.4787 36.6456 62.5512 36.6457ZM66.9303 36.6457H68.1931C68.4961 36.6457 68.7447 36.8943 68.7447 37.1973V38.4602C68.7447 38.7659 68.4961 39.0115 68.1931 39.0115H66.9303C66.7843 39.011 66.6444 38.9527 66.5411 38.8495C66.4379 38.7462 66.3796 38.6063 66.3791 38.4602V37.1973C66.3791 36.8943 66.6273 36.6457 66.9303 36.6457ZM71.3117 36.6457H72.5749C72.8775 36.6457 73.126 36.8943 73.126 37.1973V38.4602C73.126 38.7659 72.8775 39.0115 72.5749 39.0115H71.3117C71.1657 39.011 71.0258 38.9527 70.9225 38.8495C70.8192 38.7462 70.761 38.6063 70.7605 38.4602V37.1973C70.7603 37.1249 70.7744 37.0531 70.8021 36.9861C70.8297 36.9191 70.8703 36.8582 70.9215 36.807C70.9727 36.7557 71.0335 36.7151 71.1005 36.6874C71.1675 36.6597 71.2392 36.6456 71.3117 36.6457ZM75.6912 36.6457H76.9544C77.257 36.6457 77.5055 36.8943 77.5055 37.1973V38.4602C77.5055 38.7659 77.257 39.0115 76.9544 39.0115H75.6912C75.5448 39.0115 75.4043 38.9535 75.3005 38.8502C75.1968 38.7469 75.1381 38.6067 75.1374 38.4602V37.1973C75.139 37.0511 75.1979 36.9114 75.3015 36.8082C75.4051 36.705 75.545 36.6467 75.6912 36.6457ZM80.0703 36.6457H81.3331C81.6388 36.6457 81.8869 36.8943 81.8869 37.1973V38.4602C81.8869 38.7659 81.6388 39.0115 81.3331 39.0115H80.0703C79.9243 39.011 79.7843 38.9528 79.681 38.8495C79.5777 38.7462 79.5194 38.6063 79.5188 38.4602V37.1973C79.5188 36.8943 79.7673 36.6457 80.0703 36.6457ZM67.0908 41.4213H68.3536C68.6566 41.4213 68.9051 41.6698 68.9051 41.9729V43.2384C68.9051 43.5414 68.6566 43.7896 68.3536 43.7896H67.0908C66.9446 43.7895 66.8045 43.7314 66.7011 43.6281C66.5978 43.5247 66.5397 43.3846 66.5396 43.2384V41.9755C66.5392 41.9028 66.5531 41.8308 66.5806 41.7636C66.6081 41.6963 66.6486 41.6352 66.6999 41.5837C66.7511 41.5321 66.812 41.4913 66.8791 41.4634C66.9462 41.4355 67.0181 41.4212 67.0908 41.4213ZM71.4699 41.4213H72.7331C73.0357 41.4213 73.2843 41.6698 73.2843 41.9729V43.2384C73.2843 43.5414 73.0357 43.7896 72.7331 43.7896H71.4699C71.3239 43.7891 71.184 43.7309 71.0807 43.6276C70.9775 43.5244 70.9192 43.3844 70.9187 43.2384V41.9755C70.9183 41.9028 70.9322 41.8308 70.9597 41.7636C70.9872 41.6963 71.0278 41.6352 71.079 41.5837C71.1302 41.5321 71.1911 41.4913 71.2582 41.4634C71.3253 41.4355 71.3973 41.4212 71.4699 41.4213ZM75.8494 41.4213H77.1122C77.4175 41.4213 77.666 41.6698 77.666 41.9729V43.2384C77.666 43.5414 77.4175 43.7896 77.1122 43.7896H75.8494C75.7034 43.7891 75.5634 43.7309 75.4601 43.6277C75.3568 43.5244 75.2985 43.3845 75.2979 43.2384V41.9755C75.2979 41.6698 75.5464 41.4213 75.8494 41.4213ZM71.3117 31.5156H72.5749C72.8775 31.5156 73.126 31.7642 73.126 32.0672V33.3302C73.126 33.6358 72.8775 33.8814 72.5749 33.8814H71.3117C71.1657 33.8808 71.0258 33.8225 70.9226 33.7193C70.8194 33.616 70.7611 33.4762 70.7605 33.3302V32.0672C70.7603 31.9948 70.7744 31.923 70.8021 31.856C70.8297 31.789 70.8703 31.7281 70.9215 31.6769C70.9727 31.6256 71.0335 31.585 71.1005 31.5573C71.1675 31.5297 71.2392 31.5155 71.3117 31.5156ZM75.6912 31.5156H76.9544C77.257 31.5156 77.5055 31.7642 77.5055 32.0672V33.3302C77.5055 33.6358 77.257 33.8814 76.9544 33.8814H75.6912C75.5448 33.8814 75.4043 33.8234 75.3005 33.7201C75.1968 33.6168 75.1381 33.4766 75.1374 33.3302V32.0672C75.139 31.921 75.1979 31.7813 75.3015 31.6781C75.4051 31.575 75.545 31.5166 75.6912 31.5156ZM277.538 94.0209H276.482C276.226 94.0209 276.02 94.2287 276.02 94.4822V95.5394C276.02 95.7951 276.228 96.0007 276.482 96.0007H277.538C277.661 96.0004 277.778 95.9518 277.864 95.8653C277.951 95.7789 278 95.6617 278 95.5394V94.4822C278 94.4215 277.988 94.3615 277.965 94.3054C277.942 94.2494 277.908 94.1985 277.865 94.1556C277.822 94.1128 277.771 94.0788 277.715 94.0557C277.659 94.0326 277.599 94.0207 277.538 94.0209ZM273.873 94.0209H272.816C272.694 94.0213 272.577 94.07 272.49 94.1564C272.404 94.2428 272.355 94.3599 272.355 94.4822V95.5394C272.355 95.7951 272.563 96.0007 272.816 96.0007H273.873C273.995 96.0003 274.112 95.9516 274.199 95.8652C274.285 95.7788 274.334 95.6617 274.334 95.5394V94.4822C274.334 94.3599 274.285 94.2428 274.199 94.1564C274.112 94.07 273.995 94.0213 273.873 94.0209ZM270.206 94.0209H269.149C269.027 94.0213 268.909 94.07 268.823 94.1564C268.737 94.2428 268.688 94.3599 268.688 94.4822V95.5394C268.688 95.7951 268.895 96.0007 269.149 96.0007H270.206C270.328 96.0003 270.445 95.9516 270.532 95.8652C270.618 95.7788 270.667 95.6617 270.667 95.5394V94.4822C270.667 94.4215 270.656 94.3615 270.632 94.3054C270.609 94.2494 270.575 94.1985 270.532 94.1556C270.49 94.1128 270.439 94.0788 270.383 94.0557C270.327 94.0326 270.267 94.0207 270.206 94.0209ZM266.541 94.0209H265.484C265.362 94.0213 265.245 94.07 265.159 94.1564C265.072 94.2428 265.023 94.3599 265.023 94.4822V95.5394C265.023 95.7951 265.231 96.0007 265.484 96.0007H266.541C266.797 96.0007 267.005 95.7929 267.005 95.5394V94.4822C267.004 94.3599 266.954 94.243 266.868 94.1567C266.781 94.0704 266.664 94.0217 266.541 94.0209ZM262.876 94.0209H261.819C261.564 94.0209 261.356 94.2287 261.356 94.4822V95.5394C261.356 95.7951 261.564 96.0007 261.819 96.0007H262.876C263.13 96.0007 263.338 95.7929 263.338 95.5394V94.4822C263.338 94.2287 263.13 94.0209 262.876 94.0209ZM273.74 98.0179H272.683C272.56 98.0183 272.443 98.067 272.357 98.1534C272.271 98.2399 272.222 98.357 272.221 98.4792V99.5387C272.222 99.6609 272.271 99.778 272.357 99.8645C272.443 99.9509 272.56 99.9996 272.683 100H273.74C273.996 100 274.201 99.7921 274.201 99.5387V98.4814C274.202 98.4206 274.19 98.3604 274.167 98.3041C274.144 98.2478 274.11 98.1967 274.067 98.1536C274.024 98.1105 273.973 98.0763 273.917 98.053C273.861 98.0297 273.801 98.0178 273.74 98.0179ZM270.074 98.0179H269.017C268.764 98.0179 268.555 98.2258 268.555 98.4792V99.5387C268.555 99.7921 268.764 100 269.017 100H270.074C270.196 99.9997 270.313 99.951 270.4 99.8646C270.486 99.7782 270.535 99.661 270.535 99.5387V98.4814C270.536 98.4206 270.524 98.3603 270.501 98.3041C270.478 98.2478 270.444 98.1966 270.401 98.1536C270.358 98.1105 270.307 98.0763 270.251 98.053C270.195 98.0297 270.135 98.0178 270.074 98.0179ZM266.409 98.0179H265.352C265.097 98.0179 264.888 98.2258 264.888 98.4792V99.5387C264.888 99.7921 265.097 100 265.352 100H266.409C266.531 99.9996 266.648 99.9509 266.735 99.8645C266.821 99.778 266.87 99.6609 266.87 99.5387V98.4814C266.87 98.2258 266.662 98.0179 266.409 98.0179ZM270.206 89.7275H269.149C269.027 89.7279 268.909 89.7766 268.823 89.8631C268.737 89.9495 268.688 90.0666 268.688 90.1888V91.2461C268.688 91.5017 268.895 91.7074 269.149 91.7074H270.206C270.328 91.707 270.445 91.6582 270.532 91.5718C270.618 91.4854 270.667 91.3683 270.667 91.2461V90.1888C270.667 90.1282 270.656 90.0681 270.632 90.0121C270.609 89.9561 270.575 89.9052 270.532 89.8623C270.49 89.8194 270.439 89.7855 270.383 89.7623C270.327 89.7392 270.267 89.7274 270.206 89.7275ZM266.541 89.7275H265.484C265.362 89.7279 265.245 89.7766 265.159 89.8631C265.072 89.9495 265.023 90.0666 265.023 90.1888V91.2461C265.023 91.5017 265.231 91.7074 265.484 91.7074H266.541C266.797 91.7074 267.005 91.4995 267.005 91.2461V90.1888C267.004 90.0665 266.954 89.9496 266.868 89.8633C266.781 89.7771 266.664 89.7283 266.541 89.7275ZM242.727 33.5545V35.1831H244.428C245.138 35.1831 245.721 35.7418 245.721 36.4214C245.721 37.101 245.138 37.6597 244.428 37.6597H242.727V39.2884C242.727 39.968 242.143 40.5267 241.433 40.5267C240.723 40.5267 240.14 39.968 240.14 39.2884V37.6664H238.432C237.722 37.6664 237.138 37.1077 237.138 36.4281C237.138 35.7485 237.722 35.1898 238.432 35.1898H240.133V33.5545C240.133 32.8749 240.716 32.3162 241.433 32.3162C242.143 32.3162 242.727 32.8749 242.727 33.5545ZM228.737 21.7451V24.0403H231.178C232.196 24.0403 233.033 24.8274 233.033 25.7851C233.033 26.7427 232.196 27.5298 231.178 27.5298H228.737V29.825C228.737 30.7827 227.9 31.5697 226.881 31.5697C225.863 31.5697 225.026 30.7827 225.026 29.825V27.5391H222.575C221.556 27.5391 220.719 26.7517 220.719 25.794C220.719 24.8364 221.556 24.0493 222.575 24.0493H225.016V21.7447C225.016 20.7871 225.853 20 226.881 20C227.9 20 228.737 20.7875 228.737 21.7451Z" fill="black"/>
<path d="M247.878 56H238M253 49H238M246.78 63H238" stroke="#FF7634" stroke-width="4.557" stroke-linecap="round" stroke-linejoin="round"/>
<path d="M75.5578 133.406H75.6392C76.1211 140.079 81.1992 140.182 81.1992 140.182C81.1992 140.182 75.5996 140.289 75.5996 148C75.5996 140.289 70 140.182 70 140.182C70 140.182 75.0759 140.079 75.5578 133.406ZM257.735 70.1635H257.811C258.26 75.126 263 75.2023 263 75.2023C263 75.2023 257.774 75.2816 257.774 81.0157C257.774 75.2816 252.547 75.2023 252.547 75.2023C252.547 75.2023 257.285 75.126 257.735 70.1635ZM98.5233 29H98.5909C98.9926 33.9621 103.224 34.0388 103.224 34.0388C103.224 34.0388 98.558 34.1181 98.558 39.8522C98.558 34.1181 93.8917 34.0388 93.8917 34.0388C93.8917 34.0388 98.1216 33.9624 98.5233 29Z" fill="#FF7634"/>
<path d="M245.388 194H94.6124C93.1696 194 92 195.343 92 197C92 198.657 93.1696 200 94.6124 200H245.388C246.83 200 248 198.657 248 197C248 195.343 246.83 194 245.388 194Z" fill="url(#paint0_linear_64_272)"/>
<path fill-rule="evenodd" clip-rule="evenodd" d="M71.9998 89C63.7163 89 57 82.5076 57 74.5002C57 66.4924 63.7163 60 71.9998 60C80.2837 60 87 66.4924 87 74.5002C87 82.5076 80.2837 89 71.9998 89Z" fill="#FF7634"/>
<path d="M77 72L71.3761 79L68 74.8006" stroke="white" stroke-width="6" stroke-linecap="round" stroke-linejoin="round"/>
<defs>
<linearGradient id="paint0_linear_64_272" x1="173.326" y1="203.364" x2="173.319" y2="187.471" gradientUnits="userSpaceOnUse">
<stop stop-color="#9C9C9C"/>
<stop offset="1" stop-color="#EEEEEE"/>
</linearGradient>
</defs>
</svg>
