<svg width="391" height="260" viewBox="0 0 391 260" fill="none" xmlns="http://www.w3.org/2000/svg">
<path fill-rule="evenodd" clip-rule="evenodd" d="M107.515 68.3575C88.9695 68.3575 73.7974 83.4773 73.7974 101.96C73.7974 120.443 88.9695 135.563 107.515 135.563C111.236 135.563 114.283 138.6 114.283 142.308C114.283 146.016 111.236 149.052 107.515 149.052H89.8723C80.8245 149.052 73.4211 156.431 73.4211 165.447C73.4211 174.463 80.8245 181.842 89.8723 181.842C97.697 181.842 104.1 188.223 104.1 196.021C104.1 210.249 115.781 221.889 130.057 221.889H282.435C300.981 221.889 316.153 206.769 316.153 188.286C316.153 169.803 300.981 154.684 282.435 154.684H279.173C275.453 154.684 272.405 151.651 272.405 147.939C272.405 144.231 275.449 141.194 279.173 141.194H301.128C310.176 141.194 317.579 133.816 317.579 124.8C317.579 115.794 310.194 108.424 301.162 108.405H283.496C275.671 108.405 269.268 102.024 269.268 94.2262C269.268 79.9986 257.587 68.3575 243.311 68.3575H107.515Z" fill="#9C9C9C"/>
<path d="M258.472 39.1044H129.796C126.861 39.1044 124.482 41.4776 124.482 44.405V87.0896C124.482 90.017 126.861 92.3901 129.796 92.3901H258.472C261.406 92.3901 263.786 90.017 263.786 87.0896V44.405C263.786 41.4776 261.406 39.1044 258.472 39.1044Z" fill="#111827"/>
<path d="M235.046 81.5984C239.341 81.5984 242.823 78.1256 242.823 73.8418C242.823 69.5579 239.341 66.0851 235.046 66.0851C230.751 66.0851 227.27 69.5579 227.27 73.8418C227.27 78.1256 230.751 81.5984 235.046 81.5984Z" fill="white"/>
<path fill-rule="evenodd" clip-rule="evenodd" d="M242.026 80.7109C243.839 78.8825 244.855 76.4133 244.852 73.8413C244.855 71.2692 243.839 68.8001 242.026 66.9716C243.14 66.3872 244.381 66.0828 245.641 66.0846C249.936 66.0846 253.417 69.5573 253.417 73.8413C253.417 78.1252 249.936 81.5979 245.641 81.5979C244.336 81.5979 243.106 81.2777 242.026 80.7109Z" fill="white"/>
<path d="M202.249 51.2456H142.064C138.703 51.2456 135.978 53.9635 135.978 57.3162C135.978 60.6689 138.703 63.3867 142.064 63.3867H202.249C205.61 63.3867 208.335 60.6689 208.335 57.3162C208.335 53.9635 205.61 51.2456 202.249 51.2456Z" fill="white"/>
<path d="M179.933 68.7826H142.064C138.703 68.7826 135.978 71.5005 135.978 74.8532C135.978 78.2058 138.703 80.9237 142.064 80.9237H179.933C183.294 80.9237 186.019 78.2058 186.019 74.8532C186.019 71.5005 183.294 68.7826 179.933 68.7826Z" fill="white"/>
<path d="M258.472 175.075H129.796C126.861 175.075 124.482 177.448 124.482 180.375V223.06C124.482 225.987 126.861 228.361 129.796 228.361H258.472C261.406 228.361 263.786 225.987 263.786 223.06V180.375C263.786 177.448 261.406 175.075 258.472 175.075Z" fill="#111827"/>
<path d="M235.046 217.568C239.341 217.568 242.823 214.096 242.823 209.812C242.823 205.528 239.341 202.055 235.046 202.055C230.751 202.055 227.27 205.528 227.27 209.812C227.27 214.096 230.751 217.568 235.046 217.568Z" fill="white"/>
<path fill-rule="evenodd" clip-rule="evenodd" d="M242.026 216.681C243.839 214.853 244.855 212.384 244.852 209.812C244.855 207.24 243.839 204.771 242.026 202.942C243.14 202.358 244.381 202.053 245.641 202.055C249.936 202.055 253.417 205.528 253.417 209.812C253.417 214.096 249.936 217.568 245.641 217.568C244.336 217.568 243.106 217.248 242.026 216.681Z" fill="white"/>
<path d="M202.249 187.216H142.064C138.703 187.216 135.978 189.933 135.978 193.286C135.978 196.639 138.703 199.357 142.064 199.357H202.249C205.61 199.357 208.335 196.639 208.335 193.286C208.335 189.933 205.61 187.216 202.249 187.216Z" fill="white"/>
<path d="M179.933 204.753H142.064C138.703 204.753 135.978 207.471 135.978 210.823C135.978 214.176 138.703 216.894 142.064 216.894H179.933C183.294 216.894 186.019 214.176 186.019 210.823C186.019 207.471 183.294 204.753 179.933 204.753Z" fill="white"/>
<path d="M295.057 107.09H166.382C163.447 107.09 161.068 109.463 161.068 112.39V155.075C161.068 158.002 163.447 160.375 166.382 160.375H295.057C297.992 160.375 300.371 158.002 300.371 155.075V112.39C300.371 109.463 297.992 107.09 295.057 107.09Z" fill="#EA580C"/>
<path d="M271.632 149.584C275.926 149.584 279.408 146.111 279.408 141.827C279.408 137.543 275.926 134.07 271.632 134.07C267.337 134.07 263.855 137.543 263.855 141.827C263.855 146.111 267.337 149.584 271.632 149.584Z" fill="white"/>
<path fill-rule="evenodd" clip-rule="evenodd" d="M278.611 148.696C280.425 146.867 281.44 144.398 281.437 141.826C281.44 139.254 280.424 136.785 278.611 134.956C279.726 134.372 280.966 134.068 282.226 134.069C286.521 134.069 290.002 137.542 290.002 141.826C290.002 146.11 286.521 149.583 282.226 149.583C280.921 149.583 279.691 149.262 278.611 148.696Z" fill="white"/>
<path d="M238.835 119.23H178.65C175.289 119.23 172.564 121.948 172.564 125.301C172.564 128.654 175.289 131.371 178.65 131.371H238.835C242.196 131.371 244.921 128.654 244.921 125.301C244.921 121.948 242.196 119.23 238.835 119.23Z" fill="white"/>
<path d="M216.519 136.768H178.65C175.289 136.768 172.564 139.486 172.564 142.838C172.564 146.191 175.289 148.909 178.65 148.909H216.519C219.88 148.909 222.605 146.191 222.605 142.838C222.605 139.486 219.88 136.768 216.519 136.768Z" fill="white"/>
<path fill-rule="evenodd" clip-rule="evenodd" d="M138.531 117.401H136.963C136.584 117.401 136.278 117.094 136.278 116.719V115.154C136.278 114.776 136.587 114.471 136.963 114.471H138.531C138.907 114.471 139.216 114.779 139.216 115.154V116.719C139.216 116.808 139.199 116.897 139.164 116.98C139.13 117.063 139.079 117.138 139.016 117.202C138.952 117.265 138.877 117.316 138.794 117.35C138.71 117.384 138.621 117.401 138.531 117.401ZM133.094 117.401H131.526C131.15 117.401 130.841 117.094 130.841 116.719V115.154C130.841 114.776 131.15 114.471 131.526 114.471H133.094C133.47 114.471 133.779 114.779 133.779 115.154V116.719C133.779 117.094 133.47 117.401 133.094 117.401ZM127.653 117.401H126.085C125.709 117.401 125.401 117.094 125.401 116.719V115.154C125.401 114.776 125.709 114.471 126.085 114.471H127.653C128.03 114.471 128.338 114.779 128.338 115.154V116.719C128.338 116.808 128.321 116.897 128.286 116.98C128.252 117.063 128.201 117.138 128.138 117.202C128.074 117.265 127.999 117.316 127.915 117.35C127.832 117.384 127.743 117.401 127.653 117.401ZM122.216 117.401H120.647C120.272 117.401 119.963 117.094 119.963 116.719V115.154C119.963 114.776 120.272 114.471 120.647 114.471H122.216C122.595 114.471 122.904 114.779 122.904 115.154V116.719C122.902 116.9 122.828 117.073 122.7 117.2C122.571 117.328 122.397 117.4 122.216 117.401ZM116.778 117.401H115.21C114.831 117.401 114.522 117.094 114.522 116.719V115.154C114.522 114.776 114.831 114.471 115.21 114.471H116.778C117.154 114.471 117.463 114.779 117.463 115.154V116.719C117.463 117.094 117.154 117.401 116.778 117.401ZM132.894 111.487H131.326C130.95 111.487 130.642 111.179 130.642 110.805V109.237C130.642 108.862 130.95 108.554 131.326 108.554H132.894C133.274 108.554 133.579 108.862 133.579 109.237V110.801C133.58 110.891 133.562 110.98 133.528 111.064C133.494 111.147 133.444 111.223 133.38 111.286C133.316 111.35 133.241 111.401 133.157 111.435C133.074 111.47 132.985 111.487 132.894 111.487ZM127.457 111.487H125.889C125.513 111.487 125.204 111.179 125.204 110.805V109.237C125.204 108.862 125.513 108.554 125.889 108.554H127.457C127.833 108.554 128.142 108.862 128.142 109.237V110.801C128.142 110.891 128.125 110.98 128.091 111.064C128.057 111.147 128.006 111.222 127.943 111.286C127.879 111.35 127.803 111.401 127.72 111.435C127.637 111.47 127.548 111.487 127.457 111.487ZM122.02 111.487H120.452C120.072 111.487 119.764 111.179 119.764 110.805V109.237C119.764 108.862 120.072 108.554 120.452 108.554H122.02C122.396 108.554 122.704 108.862 122.704 109.237V110.801C122.704 111.179 122.396 111.487 122.02 111.487ZM127.653 123.754H126.085C125.709 123.754 125.401 123.446 125.401 123.071V121.507C125.401 121.129 125.709 120.824 126.085 120.824H127.653C128.03 120.824 128.338 121.132 128.338 121.507V123.071C128.338 123.161 128.321 123.25 128.286 123.333C128.252 123.416 128.201 123.491 128.138 123.555C128.074 123.618 127.999 123.668 127.915 123.702C127.832 123.737 127.743 123.754 127.653 123.754ZM122.216 123.754H120.647C120.272 123.754 119.963 123.446 119.963 123.071V121.507C119.963 121.129 120.272 120.824 120.647 120.824H122.216C122.595 120.824 122.904 121.132 122.904 121.507V123.071C122.902 123.252 122.828 123.425 122.7 123.553C122.571 123.681 122.397 123.753 122.216 123.754Z" fill="black"/>
<path d="M293.211 92.4217C300.806 92.4217 306.963 86.2806 306.963 78.705C306.963 71.1295 300.806 64.9883 293.211 64.9883C285.616 64.9883 279.459 71.1295 279.459 78.705C279.459 86.2806 285.616 92.4217 293.211 92.4217Z" fill="black"/>
</svg>
