<svg width="355" height="237" viewBox="0 0 355 237" fill="none" xmlns="http://www.w3.org/2000/svg">
<path fill-rule="evenodd" clip-rule="evenodd" d="M87 197.287C104.161 212.341 129.98 211.53 146.207 194.852C162.434 178.174 163.224 151.637 148.576 134L87 197.287Z" fill="#6E6C6C"/>
<path d="M168.414 146.972H229V207H168.414V146.972ZM140.827 79L163.968 102.096L141.14 124.879L118 101.783L140.827 79Z" fill="black"/>
<path d="M199.5 146C215.792 146 229 132.792 229 116.5C229 100.208 215.792 87 199.5 87C183.208 87 170 100.208 170 116.5C170 132.792 183.208 146 199.5 146Z" fill="#FF7634"/>
<path d="M150.5 71C161.27 71 170 62.7173 170 52.5C170 42.2827 161.27 34 150.5 34C139.73 34 131 42.2827 131 52.5C131 62.7173 139.73 71 150.5 71Z" fill="#FF7634"/>
<path d="M107.5 95C115.508 95 122 88.2843 122 80C122 71.7157 115.508 65 107.5 65C99.4919 65 93 71.7157 93 80C93 88.2843 99.4919 95 107.5 95Z" fill="#111827"/>
<path d="M104 132C110.075 132 115 127.299 115 121.5C115 115.701 110.075 111 104 111C97.9249 111 93 115.701 93 121.5C93 127.299 97.9249 132 104 132Z" fill="#6E6C6C"/>
<path d="M224.904 22L245 98L170 77.6361L224.904 22Z" fill="#111827"/>
<path d="M52 130L96 141.79L63.7897 174L52 130Z" fill="#FF7634"/>
<path d="M288.911 56.6924C289.174 57.7363 288.825 58.8218 288.249 59.7336C287.842 60.3776 287.274 59.6661 286.444 59.5525C285.161 59.3738 284.349 58.0266 284.071 54.7434C283.942 52.3453 284.003 51.149 284.138 50.9396C284.617 50.1902 285.849 49.9396 286.822 50.0119" fill="#7C4F2C"/>
<path fill-rule="evenodd" clip-rule="evenodd" d="M285.762 195.039C285.762 195.039 285.84 199.436 282.786 200.997C279.732 202.559 275 205.461 275 205.461L293 206L292.487 195L285.762 195.039Z" fill="#F8AE9D"/>
<path fill-rule="evenodd" clip-rule="evenodd" d="M293.071 200.18L293.35 207.925H289.364L289.091 206.927C289.091 206.927 287.59 206.866 286.723 207.296C285.806 207.752 285.683 207.973 285.683 207.973L273.037 208C273.037 208 272.414 205.497 276.268 203.686C280.123 201.875 282.929 199.305 283.462 199.042C283.999 198.777 285.083 198.627 285.846 199.25C286.609 199.872 287.212 201.509 288.941 201.56C291.166 201.626 292.445 198.87 293.071 200.18ZM298 117C298 117 293.316 157.221 293.17 160.018C293.024 162.814 294.674 167.639 294.642 172.869C294.61 178.098 294.04 196.531 294.04 196.531L283.706 196.702C283.706 196.702 279.363 163.392 279.316 158.398C279.27 153.403 278.871 117.481 278.871 117.481L298 117Z" fill="#111827"/>
<path fill-rule="evenodd" clip-rule="evenodd" d="M311.896 194.185L314 206L306.246 205.964L306 194L311.896 194.185Z" fill="#F8AE9D"/>
<path fill-rule="evenodd" clip-rule="evenodd" d="M312.419 199.394C312.673 199.45 312.901 199.59 313.067 199.793C313.234 199.996 313.328 200.25 313.337 200.514L313.408 202.707C314.462 203.9 314.954 207.369 314.998 207.686C315 207.702 315.001 207.719 314.999 207.735C314.888 209.427 303.978 209.397 303.094 207.792C303.067 207.738 303.059 207.677 303.072 207.618C303.169 207.01 303.769 203.533 304.942 202.596L304.95 200.426C304.951 200.166 305.036 199.914 305.192 199.707C305.347 199.501 305.566 199.353 305.813 199.285L307.25 198.892C308.328 197.288 309.797 197.345 311.056 199.092L312.419 199.394ZM307.667 117.378C307.667 117.378 310.952 144.782 310.908 150.03C310.863 155.278 309.897 157.583 311.272 161.347C312.648 165.112 313.821 195.161 313.821 195.161L303.648 196.023C303.648 196.023 297.149 163.869 296.442 159.411C295.735 154.953 287 117 287 117L307.667 117.378Z" fill="#111827"/>
<path fill-rule="evenodd" clip-rule="evenodd" d="M256.031 69.0099C256.031 69.0099 256.897 63.8795 256.586 62.8409C256.32 61.9429 253.804 60.6482 253.804 60.6482C253.804 60.6482 249.429 53.3059 248.471 54.0534C247.692 54.6595 250.75 60.0725 250.75 60.0725C250.75 60.0725 247.962 63.1799 248 64.569C248.04 65.958 252.551 70.3067 252.551 70.3067L256.031 69.0099ZM301 70.2153C301 70.2153 298.118 69.4968 298.018 64.481C297.919 59.4652 297.989 57.7531 297.989 57.7531L291.157 57.6313C291.157 57.6313 291.088 63.2212 291.087 65.2433C291.085 69.645 288.007 70.8344 288.007 70.8344C288.007 70.8344 288.263 75.6476 294.014 75.9913C298.505 76.2596 301 70.2153 301 70.2153Z" fill="#F8AE9D"/>
<path fill-rule="evenodd" clip-rule="evenodd" d="M298.202 55.2768C300.887 55.1745 300.449 59.0489 297.66 59.0437C297.66 59.0437 294.662 64.9844 289.957 65C287.69 65.0074 286.95 63.017 286.27 61.6196C285.59 60.2225 285.092 58.1325 285.05 56.8529C285.006 55.4884 285 51.0059 285 51.0059L298.307 51L298.202 55.2768Z" fill="#F8AE9D"/>
<path fill-rule="evenodd" clip-rule="evenodd" d="M288.773 69.5303C288.773 69.5303 281.504 71.8002 279.752 74.5121C274.109 79.4716 267.052 86.2826 267.052 86.2826C267.052 86.2826 260.33 69.4053 258.133 67.4809C256.629 66.1642 253.633 67.7924 253.075 69.4653C252.358 71.6145 256.962 84.2191 259.136 90.1722L259.136 90.1733C259.558 91.3263 259.887 92.2294 260.07 92.7591C261.396 96.6071 264.622 98.8144 268.547 96.3685C270.13 95.3824 274.839 92.1518 278.857 89.2229C278.919 92.2995 279.026 95.5415 279.126 98.6204V98.6216C279.37 106.103 279.583 112.622 279.072 113.469C276.537 117.668 279.907 120.55 291.062 121.609C302.216 122.668 312.113 121.801 310.317 116.197C309.942 115.03 309.947 112.517 310.134 109.252C311.227 109.193 312.319 109.122 313.41 109.036C318.065 108.669 321.508 106.667 321.988 101.47C322.325 97.8306 315.394 80.7437 312.795 75.1252C312.187 73.8108 311.247 72.9924 310.182 72.5846C309.934 72.3076 309.655 72.1133 309.341 72.0098C307.432 71.3803 300.587 68.5035 300.587 68.5035L292.445 73.8332L288.773 69.5303ZM310.888 99.6077L310.906 99.6551L310.884 99.6578L310.888 99.6077Z" fill="#FF7634"/>
<path fill-rule="evenodd" clip-rule="evenodd" d="M292.478 104.78C292.478 104.78 289.798 104.258 288.701 103.424C287.604 102.59 284.282 102 284.282 102L285.345 104.168C285.345 104.168 277.204 103.428 277.011 104.205C276.818 104.984 279.173 105.829 279.173 105.829C279.173 105.829 280.334 107.931 281.458 109.149C282.522 110.301 287.806 110.164 289.659 109.445C291.259 108.823 293 109.134 293 109.134L292.478 104.78Z" fill="#F8AE9D"/>
<path d="M297.01 50.5038C296.626 51.0304 295.949 51.1464 295.391 51.2509C294.642 51.3904 294.271 51.6822 293.882 52.4643C293.635 52.9643 293.389 53.5117 292.948 53.7823C292.589 54.0039 292.6 53.4434 292.546 53.0102C292.542 52.9697 292.534 52.9296 292.524 52.8903C292.438 52.5437 292.087 52.6019 291.986 52.9435C291.892 53.253 291.692 53.5147 291.438 53.6605C291.396 53.6844 291.353 53.7052 291.309 53.6959C291.249 53.6871 291.202 53.6277 291.163 53.5741C291.082 53.4627 291.002 53.3216 290.919 53.1721C290.644 52.6775 290.121 52.851 289.814 53.3243C289.622 53.6188 289.394 53.9222 289.08 53.9908C288.979 54.0143 288.852 53.9966 288.805 53.8925C288.745 53.7645 288.839 53.6366 288.823 53.5059C288.81 53.3837 288.761 53.3301 288.707 53.226C288.494 52.8244 288.002 52.8097 287.702 53.1443C287.493 53.3771 287.275 53.6009 287.049 53.815C286.953 53.9045 286.813 53.9935 286.717 53.9045C286.665 53.8567 286.652 53.7765 286.642 53.699C286.587 53.3212 286.535 52.9435 286.481 52.5657C286.45 52.3545 286.343 52.0777 286.162 52.1313C286.074 52.1579 286.022 52.2562 285.972 52.3456C285.913 52.4586 284.847 53.7468 284.826 53.6485C284.66 52.9165 284.32 52.2504 284.154 51.5184C283.08 46.8091 287.845 43.0218 291.485 43.001C292.294 42.9952 293.033 43.0091 293.819 43.2084C294.657 43.4227 295.542 43.7627 296.302 44.2418C297.368 44.911 298.175 46.1279 297.967 47.5796" fill="#7C4F2C"/>
<path d="M294.717 50.2729C294.204 50.8769 294.068 51.7262 294.02 52.5285C293.95 53.7385 294.045 54.9957 294.584 56.0698C294.737 56.3756 294.85 57.8891 295.087 57.8055C295.162 57.7793 295.15 56.6057 295.349 55.9733C295.655 54.9931 297.069 54.6195 297.706 55.2387C298.722 56.2242 298.126 57.4213 297.789 58.1661C297.588 58.6158 297.268 59.1203 297.213 59.5956C297.145 60.2049 297.125 62.4239 297.507 62.9412C297.826 63.375 298.166 61.279 298.456 60.8661C300.596 57.7899 302.649 49.9568 298.994 48.2579C298.438 47.999 296.722 47.8658 296.201 48.1951" fill="#7C4F2C"/>
<path d="M112.311 154.912C113.832 153.392 113.832 150.927 112.311 149.407C110.791 147.886 108.326 147.886 106.806 149.407L94.3388 161.874C92.8186 163.394 92.8186 165.859 94.3388 167.379C95.859 168.899 98.3238 168.899 99.844 167.379L112.311 154.912Z" fill="#9C9C9C"/>
<path d="M89.3603 104.996C90.5481 103.808 90.5482 101.883 89.3605 100.695C88.1728 99.5074 86.2471 99.5074 85.0593 100.695L76.9644 108.79C75.7766 109.978 75.7766 111.904 76.9643 113.091C78.152 114.279 80.0777 114.279 81.2655 113.091L89.3603 104.996Z" fill="#9C9C9C"/>
<path d="M124.167 46.0441C125.309 44.9022 125.309 43.0511 124.167 41.9093C123.025 40.7676 121.174 40.7677 120.032 41.9095L111.75 50.1915C110.608 51.3333 110.608 53.1845 111.75 54.3262C112.892 55.4679 114.743 55.4679 115.885 54.3261L124.167 46.0441Z" fill="#9C9C9C"/>
<path d="M195.949 35.4623L195.949 35.462C194.712 34.2246 192.705 34.2246 191.468 35.462L183.426 43.5044C182.188 44.7419 182.188 46.7482 183.426 47.9856L183.426 47.9859C184.663 49.2233 186.67 49.2233 187.907 47.9859L195.949 39.9435C197.187 38.7061 197.187 36.6998 195.949 35.4623Z" fill="#9C9C9C"/>
<path d="M156.023 202.077C157.956 201.639 160 203.208 160 203.208C160 203.208 158.909 205.486 156.976 205.923C155.043 206.361 153 204.794 153 204.794C153 204.794 154.091 202.515 156.023 202.077Z" fill="#6E6C6C"/>
<path d="M168.885 88.6574C166.952 87.4368 164 88.2899 164 88.2899C164 88.2899 164.183 91.1226 166.117 92.3421C168.049 93.563 171 92.7106 171 92.7106C171 92.7106 170.817 89.8783 168.885 88.6574Z" fill="#6E6C6C"/>
<path d="M254.667 131.429C251.676 128.422 246.081 129.056 246.081 129.056C246.081 129.056 245.341 134.565 248.335 137.57C251.327 140.576 256.919 139.945 256.919 139.945C256.919 139.945 257.659 134.436 254.667 131.429Z" fill="#6E6C6C"/>
<path d="M78.5 94C82.0899 94 85 91.7614 85 89C85 86.2386 82.0899 84 78.5 84C74.9102 84 72 86.2386 72 89C72 91.7614 74.9102 94 78.5 94Z" fill="#FF7634"/>
<path d="M246.5 43C250.09 43 253 40.5376 253 37.5C253 34.4624 250.09 32 246.5 32C242.91 32 240 34.4624 240 37.5C240 40.5376 242.91 43 246.5 43Z" fill="#FF7634"/>
<path d="M78 175C81.3137 175 84 177.462 84 180.5C84 183.538 81.3137 186 78 186C74.6863 186 72 183.538 72 180.5C72 177.462 74.6863 175 78 175Z" fill="#FF7634"/>
<path d="M164 81C165.657 81 167 82.1193 167 83.5C167 84.8807 165.657 86 164 86C162.343 86 161 84.8807 161 83.5C161 82.1193 162.343 81 164 81Z" fill="#6E6C6C"/>
<path d="M201.5 28C202.881 28 204 29.3431 204 31C204 32.6569 202.881 34 201.5 34C200.119 34 199 32.6569 199 31C199 29.3431 200.119 28 201.5 28Z" fill="#9C9C9C"/>
<path d="M129.5 129C130.328 129 131 129.672 131 130.5C131 131.328 130.328 132 129.5 132C128.672 132 128 131.328 128 130.5C128 129.672 128.672 129 129.5 129Z" fill="#9C9C9C"/>
<path d="M158 202C159.105 202 160 203.119 160 204.5C160 205.881 159.105 207 158 207C156.895 207 156 205.881 156 204.5C156 203.119 156.895 202 158 202Z" fill="#6E6C6C"/>
<path d="M235 113C235 111.343 236.119 110 237.5 110C238.881 110 240 111.343 240 113C240 114.657 238.881 116 237.5 116C236.119 116 235 114.657 235 113Z" fill="#9C9C9C"/>
<path d="M246 164C247.657 164 249 165.343 249 167C249 168.657 247.657 170 246 170C244.343 170 243 168.657 243 167C243 165.343 244.343 164 246 164Z" fill="#9C9C9C"/>
<path d="M54.3697 112.585C56.2422 110.68 58.9789 110.335 60.4823 111.813C61.9856 113.292 61.6864 116.034 59.814 117.938C57.9415 119.842 55.2049 120.188 53.7015 118.709C52.1981 117.231 52.4973 114.489 54.3697 112.585Z" fill="#9C9C9C"/>
<path d="M159.396 129.602C158.998 128.115 159.88 126.587 161.366 126.189C162.852 125.791 164.38 126.673 164.779 128.159C165.177 129.646 164.295 131.174 162.808 131.572C161.322 131.97 159.794 131.088 159.396 129.602Z" fill="#6E6C6C"/>
<path d="M124.474 148H124.438C124.227 145.022 122 144.976 122 144.976C122 144.976 124.455 144.928 124.455 141.487C124.455 144.928 126.911 144.976 126.911 144.976C126.911 144.976 124.685 145.022 124.474 148ZM242.141 53.7922H242.1C241.852 50.229 239.24 50.1742 239.24 50.1742C239.24 50.1742 242.12 50.1171 242.12 46C242.12 50.1171 245 50.1742 245 50.1742C245 50.1742 242.39 50.229 242.141 53.7922Z" fill="#9C9C9C"/>
</svg>
