<svg width="390" height="260" viewBox="0 0 390 260" fill="none" xmlns="http://www.w3.org/2000/svg">
<path d="M224.845 193H68.1541C63.6515 193 60 189.364 60 184.88V87.1199C60 82.636 63.6515 79 68.1541 79H224.845C229.348 79 233 82.636 233 87.1199V184.88C233 189.364 229.348 193 224.845 193Z" fill="black" stroke="#9C9C9C" stroke-width="3"/>
<path d="M233 90H60V87.4894C60 82.8014 63.6515 79 68.1541 79H224.845C229.348 79 233 82.8014 233 87.4894V90Z" fill="white" stroke="#9C9C9C" stroke-width="3"/>
<path d="M67.5652 85.9997C67.9803 85.9997 68.3784 85.7891 68.672 85.4142C68.9655 85.0393 69.1304 84.5308 69.1304 84.0005C69.1304 83.4703 68.9655 82.9618 68.672 82.5869C68.3784 82.2119 67.9803 82.0013 67.5652 82.0013C67.1501 82.0013 66.752 82.2119 66.4584 82.5869C66.1649 82.9618 66 83.4703 66 84.0005C66 84.5308 66.1649 85.0393 66.4584 85.4142C66.752 85.7891 67.1501 85.9997 67.5652 85.9997ZM73.826 85.9997C74.0337 86.004 74.24 85.9555 74.4329 85.8569C74.6258 85.7583 74.8014 85.6117 74.9495 85.4256C75.0976 85.2395 75.2152 85.0176 75.2954 84.7728C75.3757 84.5281 75.4171 84.2654 75.4171 84C75.4171 83.7346 75.3757 83.4719 75.2954 83.2272C75.2152 82.9824 75.0976 82.7605 74.9495 82.5744C74.8014 82.3883 74.6258 82.2417 74.4329 82.1431C74.24 82.0445 74.0337 81.996 73.826 82.0003C73.4151 82.0087 73.0234 82.2231 72.7352 82.5972C72.447 82.9713 72.2854 83.4752 72.2854 84C72.2854 84.5248 72.447 85.0287 72.7352 85.4028C73.0234 85.7769 73.4151 85.9913 73.826 85.9997ZM80.2609 85.9997C81.2216 85.9997 82 85.1044 82 84.0003C82 82.8961 81.2216 82.0008 80.2609 82.0008C79.3006 82.0008 78.5218 82.8961 78.5218 84.0003C78.5218 85.1044 79.3006 85.9997 80.2609 85.9997Z" fill="#FF7634"/>
<path d="M291.94 160H137.06C132.609 160 129 156.332 129 151.809V53.1911C129 48.6679 132.609 45 137.06 45H291.94C296.391 45 300 48.6679 300 53.1911V151.809C300 156.332 296.391 160 291.94 160Z" fill="black" stroke="#9C9C9C" stroke-width="3"/>
<path d="M300 58H129V55.2612C129 50.147 132.609 46 137.06 46H291.94C296.391 46 300 50.147 300 55.2612V58Z" fill="white" stroke="#9C9C9C" stroke-width="3"/>
<path d="M136.663 54C137.104 54 137.527 53.842 137.839 53.5607C138.151 53.2794 138.326 52.8978 138.326 52.5C138.326 52.1022 138.151 51.7206 137.839 51.4393C137.527 51.158 137.104 51 136.663 51C136.222 51 135.799 51.158 135.487 51.4393C135.175 51.7206 135 52.1022 135 52.5C135 52.8978 135.175 53.2794 135.487 53.5607C135.799 53.842 136.222 54 136.663 54ZM143.315 54C143.534 54 143.75 53.9613 143.952 53.8859C144.153 53.8105 144.337 53.7001 144.491 53.5608C144.646 53.4215 144.768 53.2562 144.852 53.0742C144.935 52.8922 144.978 52.6972 144.978 52.5002C144.978 52.3032 144.935 52.1082 144.852 51.9262C144.768 51.7442 144.646 51.5788 144.491 51.4395C144.337 51.3002 144.154 51.1897 143.952 51.1143C143.75 51.0389 143.534 51 143.316 51C142.874 50.9999 142.451 51.1579 142.14 51.4392C141.828 51.7205 141.652 52.102 141.652 52.4998C141.652 52.8976 141.827 53.2792 142.139 53.5605C142.451 53.8419 142.874 53.9999 143.315 54ZM150.152 54C151.173 54 152 53.3286 152 52.5002C152 51.6717 151.173 51 150.152 51C149.132 51 148.304 51.6717 148.304 52.5002C148.304 53.3286 149.132 54 150.152 54Z" fill="#FF7634"/>
<path fill-rule="evenodd" clip-rule="evenodd" d="M187.707 216H67.6359C66.7361 216 66 216.7 66 217.556C66 218.411 66.7361 219.111 67.6359 219.111H72.9074C73.4068 219.111 73.8159 219.5 73.8159 219.975C73.8159 220.45 73.4068 220.839 72.9074 220.839H71.3167C70.6927 220.839 70.1802 221.326 70.1802 221.919C70.1802 222.515 70.6927 223 71.3167 223H320.882C321.505 223 322.015 222.513 322.015 221.919C322.015 221.326 321.505 220.839 320.882 220.839H318.87C318.373 220.839 317.965 220.45 317.965 219.975C317.965 219.5 318.373 219.111 318.87 219.111H324.37C325.267 219.111 326 218.411 326 217.556C326 216.7 325.267 216 324.37 216H187.707ZM69.5797 221.962C69.5797 222.533 69.0889 223 68.4883 223C67.8878 223 67.397 222.533 67.397 221.962V221.876C67.397 221.305 67.8878 220.839 68.4883 220.839C69.0889 220.839 69.5797 221.305 69.5797 221.876V221.962Z" fill="#9C9C9C"/>
<path d="M67.1181 217.473H186.931V214.006H67.1181V217.473ZM67.2191 217.39C67.2188 217.41 67.2113 217.429 67.1979 217.444C67.1759 217.463 67.1475 217.474 67.1181 217.473V214.006C65.2453 214.006 63.7524 215.543 63.7524 217.39H67.2191ZM67.1181 217.307C67.1475 217.307 67.1759 217.317 67.1979 217.337C67.2113 217.351 67.2188 217.37 67.2191 217.39H63.7524C63.7524 219.237 65.2453 220.774 67.1181 220.774V217.307ZM72.3784 217.307H67.1181V220.774H72.3784V217.307ZM75.0182 219.957C75.0182 218.514 73.8517 217.307 72.3784 217.307V220.774C72.2703 220.775 72.1631 220.755 72.063 220.714C71.9628 220.674 71.8717 220.614 71.7948 220.538C71.718 220.462 71.6569 220.371 71.6152 220.272C71.5734 220.172 71.5518 220.065 71.5516 219.957H75.0182ZM72.3784 222.607C73.8517 222.607 75.0182 221.4 75.0182 219.957H71.5516C71.5519 219.849 71.5735 219.742 71.6153 219.642C71.657 219.543 71.7181 219.452 71.795 219.376C71.8718 219.3 71.9629 219.24 72.0631 219.2C72.1632 219.159 72.2703 219.139 72.3784 219.14V222.607ZM70.7911 222.607H72.3784V219.14H70.7911V222.607ZM71.3904 222.02C71.3904 222.329 71.1434 222.607 70.7911 222.607V219.14C69.1929 219.14 67.9237 220.451 67.9237 222.02H71.3904ZM70.7911 221.433C71.1412 221.433 71.3904 221.711 71.3904 222.02H67.9237C67.9237 223.593 69.1951 224.9 70.7911 224.9V221.433ZM187.779 221.433H70.7911V224.9H187.779V221.433ZM190.591 221.433H187.779V224.9H190.591V221.433ZM200.479 221.433H190.591V224.9H200.479V221.433ZM319.82 221.433H200.479V224.9H319.82V221.433ZM319.217 222.02C319.217 221.716 319.46 221.433 319.82 221.433V224.9C321.422 224.9 322.684 223.583 322.684 222.02H319.217ZM319.82 222.607C319.742 222.608 319.664 222.594 319.591 222.566C319.519 222.537 319.452 222.494 319.396 222.44C319.34 222.385 319.295 222.32 319.264 222.248C319.234 222.176 319.218 222.098 319.217 222.02H322.684C322.684 220.457 321.422 219.14 319.82 219.14V222.607ZM317.813 222.607H319.82V219.14H317.813V222.607ZM315.176 219.957C315.176 221.394 316.335 222.607 317.813 222.607V219.14C318.297 219.14 318.643 219.527 318.643 219.957H315.176ZM317.813 217.307C316.335 217.307 315.176 218.52 315.176 219.957H318.643C318.643 220.387 318.297 220.774 317.813 220.774V217.307ZM323.3 217.307H317.813V220.774H323.3V217.307ZM323.194 217.39C323.194 217.37 323.203 217.351 323.215 217.339C323.238 217.318 323.269 217.307 323.3 217.307V220.774C325.176 220.774 326.661 219.231 326.661 217.39H323.194ZM323.3 217.473C323.269 217.474 323.238 217.462 323.215 217.441C323.202 217.427 323.194 217.409 323.194 217.39H326.661C326.661 215.549 325.176 214.006 323.3 214.006V217.473ZM203.972 217.473H323.3V214.006H203.972V217.473ZM186.931 217.473H203.972V214.006H186.931V217.473ZM67.9688 224.9C69.5431 224.9 70.7911 223.611 70.7911 222.065H67.3244C67.3244 221.732 67.5931 221.433 67.9688 221.433V224.9ZM65.1465 222.065C65.1465 223.611 66.3945 224.9 67.9688 224.9V221.433C68.3445 221.433 68.6131 221.732 68.6131 222.065H65.1465ZM65.1465 221.974V222.065H68.6131V221.974H65.1465ZM67.9688 219.14C66.3945 219.14 65.1465 220.429 65.1465 221.974H68.6131C68.6131 222.308 68.3445 222.607 67.9688 222.607V219.14ZM70.7911 221.974C70.7911 220.429 69.5431 219.14 67.9688 219.14V222.607C67.5931 222.607 67.3244 222.308 67.3244 221.974H70.7911ZM70.7911 222.065V221.974H67.3244V222.065H70.7911Z" fill="#9C9C9C"/>
<path d="M108.564 203H175L164.436 154H98L108.564 203Z" fill="#6F6C6C"/>
<path d="M106.565 203H173L162.435 154H96L106.565 203Z" fill="#9C9C9C"/>
<path d="M129.05 176C129.395 178.21 131.444 180 133.626 180C135.809 180 137.295 178.21 136.95 176C136.605 173.79 134.556 172 132.374 172C130.191 172 128.705 173.79 129.05 176Z" fill="white"/>
<path d="M125 217H157V213.467L125 212V217Z" fill="#9C9C9C"/>
<path d="M116 217H133.475L144 189H126.525L116 217Z" fill="#9C9C9C"/>
<path d="M114 217H131.477L142 189H124.523L114 217Z" fill="#6F6C6C"/>
<path d="M204 148.719C205.238 150.711 208.473 153.031 210.767 153C218.583 152.853 221.156 147.395 222 145.407C221.841 145.368 221.574 145.336 221.385 145.312C219.945 145.098 218.475 143.638 218.045 141.992C217.492 139.85 216.811 135.662 216.893 133L207.007 138.609C207.022 139.378 207.072 140.219 207.142 141.068C207.192 141.584 207.242 142.092 207.301 142.583C207.354 143.055 207.417 143.503 207.475 143.916C207.656 145.304 207.053 146.681 205.911 147.446L204 148.719Z" fill="#F8AE9D"/>
<path d="M202.713 126.693C203.215 128.223 203.004 129.96 202.495 131.485C202.135 132.562 201.334 131.611 200.338 131.632C198.796 131.662 197.592 129.799 196.661 124.859C196.068 121.234 195.918 119.396 196.038 119.045C196.464 117.79 197.868 117.118 199.025 117" fill="#7C4F2C"/>
<path d="M200.602 116.947C197.974 120.187 197.018 129.306 199.237 135.659C200.814 140.176 202.648 143.091 204.788 142.998C208.038 142.857 214.337 140.123 216.386 137.841C220.081 133.731 219.007 125.671 218.243 120.598C217.551 115.988 215.442 110.002 209.781 111.141C206.059 111.886 202.959 114.036 200.602 116.947Z" fill="#F8AE9D"/>
<path d="M215.515 120.233C214.939 120.951 213.924 121.109 213.087 121.251C211.963 121.441 211.406 121.839 210.822 122.906C210.453 123.587 210.083 124.334 209.422 124.703C208.884 125.004 208.905 124.235 208.818 123.639C208.811 123.586 208.8 123.535 208.785 123.484C208.654 123.008 208.132 123.09 207.978 123.559C207.838 123.981 207.538 124.338 207.157 124.537C207.095 124.569 207.029 124.598 206.963 124.586C206.873 124.573 206.803 124.492 206.745 124.419C206.622 124.266 206.5 124.071 206.375 123.865C205.962 123.189 205.182 123.432 204.721 124.079C204.433 124.48 204.091 124.894 203.62 124.987C203.468 125.02 203.278 124.995 203.208 124.853C203.118 124.679 203.258 124.504 203.235 124.326C203.216 124.159 203.141 124.087 203.06 123.944C202.739 123.393 202.006 123.373 201.555 123.831C201.241 124.149 200.913 124.455 200.574 124.748C200.429 124.869 200.219 124.991 200.075 124.869C199.998 124.805 199.978 124.695 199.963 124.59C199.881 124.074 199.803 123.559 199.721 123.044C199.675 122.756 199.515 122.379 199.243 122.452C199.11 122.488 199.033 122.622 198.959 122.744C198.869 122.898 197.27 124.655 197.239 124.52C196.99 123.523 196.48 122.614 196.231 121.616C194.62 115.194 201.768 110.03 207.227 110.001C208.441 109.993 209.55 110.012 210.729 110.284C211.986 110.576 213.313 111.04 214.453 111.693C216.052 112.606 217.262 114.265 216.951 116.245" fill="#7C4F2C"/>
<path d="M193.276 215.563C192.934 215.619 191.443 215.551 191.085 215.563C189.183 215.623 186.371 215.876 184.514 215.563C182.88 215.286 182.981 212.693 183.014 210.747C183.298 195.332 185.595 179.958 189.724 165.09C190.354 162.818 191.041 160.531 192.248 158.5C194.308 155.037 199.039 152.047 202.668 150.369C203.18 150.133 205.302 151.465 205.818 151.236C206.269 151.036 206.668 150.722 207.123 150.526C208.456 149.952 209.35 151.152 210.464 151.654C211.041 151.911 211.683 152.075 212.317 152.047C212.833 152.027 213.3 151.718 213.772 151.959C215.893 153.042 221.161 145 221.161 145L223.449 147.348L230.127 154.254L246.814 176.956C246.814 176.956 249.842 195.561 251.923 207.757C252.285 209.86 253.716 214.407 254 216C253.939 215.655 239.755 215.563 238.991 215.563H210.082C208.46 215.563 204.099 216.241 202.961 215.065C201.559 213.62 199.937 206.991 199.852 205.133C199.572 198.884 200.007 192.684 200.092 186.399C200.055 188.956 199.311 191.267 198.994 193.771C198.584 196.994 197.998 200.213 197.47 203.419C197.048 205.995 196.641 208.58 196.316 211.172C196.17 212.34 196.357 213.034 195.357 213.492C194.516 213.873 194.259 215.398 193.276 215.563Z" fill="#111827"/>
<path d="M187.311 217H209.417C211.305 217 208.573 210.794 201.691 208.411C194.805 206.029 185.14 214.671 187.311 217Z" fill="#9C9C9C"/>
<path d="M196 217C195.846 216.297 195.639 215.619 195.413 214.959C195.183 214.3 194.904 213.665 194.579 213.06C194.269 212.447 193.877 211.899 193.451 211.381L193.121 211.001L192.76 210.656C192.534 210.401 192.25 210.237 192 210C192.587 210.28 193.182 210.626 193.658 211.139C194.151 211.629 194.573 212.202 194.906 212.84C195.578 214.1 195.977 215.545 196 217Z" fill="#6E6C6C"/>
<path d="M193 211C192.406 211.382 191.818 211.778 191.237 212.187C190.659 212.6 190.088 213.017 189.546 213.481C189 213.936 188.48 214.434 188.02 215C187.571 215.57 187.161 216.213 187 217C187.018 216.179 187.374 215.408 187.808 214.779C188.25 214.14 188.778 213.609 189.334 213.132C190.462 212.204 191.697 211.477 193 211Z" fill="#6E6C6C"/>
<path d="M197.77 207.723C198.557 207.387 203.413 206.129 205.603 205.654C206.75 205.408 211.951 204 213.155 204C214.36 204 216 205.797 216 205.797L215.565 211.978C214.406 211.857 212.853 212.483 212.021 212.604C211.189 212.725 208.361 212.742 206.622 211.831C206.523 211.779 206.432 211.723 206.341 211.667C205.641 212.315 204.763 212.945 203.79 212.997C203.79 212.997 203.028 212.915 203.103 212.595C203.136 212.44 203.641 211.637 204.146 210.85C203.401 211.641 202.184 212.924 200.78 212.997C200.78 212.997 200.018 212.915 200.093 212.595C200.134 212.405 200.863 211.269 201.451 210.367C201.442 210.375 201.43 210.38 201.426 210.389C200.809 210.954 199.343 212.906 197.608 212.997C197.608 212.997 196.846 212.915 196.921 212.595C196.946 212.479 197.236 211.999 197.588 211.442C197.074 211.854 196.524 212.212 195.944 212.513C194.068 213.481 193 212.747 193 212.513C192.996 212.276 196.983 208.06 197.77 207.723Z" fill="#F8AE9D"/>
<path d="M214.627 201C214.627 201 211.761 202.873 212.016 206.854C212.271 210.835 213.308 215.449 217.634 214.965C221.96 214.486 214.627 201 214.627 201Z" fill="#7C4F2C"/>
<path d="M216.887 214.483C227.4 218.205 241.466 214.65 250.383 208.469C255.97 204.605 259.535 199.699 258.934 194.906C257.379 182.454 247.785 153.916 239.484 149.752C233.842 146.92 226.998 145.747 223.182 145.276C221.391 145.052 220.273 145 220.273 145L221.658 148.985L228.59 168.92C228.848 180.75 237.149 187.775 235.497 190.531C233.846 193.278 220.806 196.245 213.959 200.949C212.065 202.255 209.661 211.708 216.887 214.483Z" fill="#111827"/>
<path d="M229.283 169C229.275 171.2 229.594 173.404 230.191 175.536C230.792 177.668 231.671 179.725 232.691 181.706C233.202 182.692 233.74 183.666 234.304 184.626C234.856 185.588 235.424 186.543 235.888 187.522C236.116 188.011 236.315 188.516 236.394 189.014C236.415 189.256 236.435 189.507 236.365 189.718C236.348 189.833 236.278 189.921 236.237 190.024C236.157 190.116 236.104 190.215 236.004 190.303C235.262 191.014 234.2 191.496 233.193 191.961C229.055 193.771 224.659 195.112 220.471 196.918C218.377 197.821 216.304 198.796 214.376 200.013L214.019 200.244C213.899 200.323 213.787 200.427 213.671 200.518C213.455 200.721 213.269 200.944 213.12 201.186C212.813 201.668 212.605 202.193 212.443 202.726C212.137 203.796 212.008 204.898 212 206C212.075 204.906 212.265 203.812 212.601 202.774C212.958 201.743 213.509 200.741 214.542 200.259C216.478 199.106 218.555 198.187 220.662 197.339C222.773 196.504 224.908 195.713 227.052 194.945C229.195 194.165 231.352 193.421 233.458 192.498C234.495 192.005 235.56 191.54 236.444 190.684C236.556 190.581 236.647 190.438 236.742 190.314C236.813 190.163 236.908 190.02 236.933 189.861C237.033 189.543 237 189.228 236.97 188.93C236.871 188.341 236.647 187.808 236.406 187.299C235.913 186.281 235.336 185.33 234.777 184.371C234.217 183.412 233.653 182.462 233.118 181.495C230.983 177.644 229.498 173.407 229.283 169Z" fill="white"/>
<path d="M201 150.667C202.01 151.699 206.508 155 210.797 155C211.511 155 212.265 154.934 213.062 154.781C216.662 154.103 219.693 151.629 221.465 148.796C221.788 148.274 222.073 147.729 222.319 147.164C222.629 146.482 222.858 145.763 223 145.024C221.196 144.797 219.472 144.33 219.192 144C218.887 146.164 216.293 150.072 212.365 150.807C211.902 150.896 211.433 150.944 210.962 150.952H210.954C209.464 150.985 207.996 150.573 206.728 149.766C206.72 149.766 204.848 148.246 204.84 148.238L201 150.667Z" fill="#CA6738"/>
<path d="M199.048 196.953C199.057 196.753 199.037 196.555 199.043 196.355C199.049 196.139 199.067 195.928 199.08 195.712L199.172 194.475C199.231 193.633 199.29 192.791 199.339 191.948C199.437 190.278 199.504 188.602 199.539 186.928C199.606 183.58 199.568 180.223 199.394 176.882C199.346 175.946 199.285 175.014 199.218 174.08C199.181 173.601 199.143 173.123 199.103 172.644C199.064 172.175 199.005 171.709 199 171.234C198.997 170.939 199.34 170.92 199.392 171.193C199.543 172.006 199.565 172.879 199.63 173.709C199.692 174.544 199.747 175.378 199.796 176.216C199.891 177.904 199.953 179.593 199.984 181.284C200.04 184.65 199.947 188.017 199.725 191.375C199.662 192.319 199.589 193.259 199.501 194.197C199.456 194.675 199.407 195.153 199.353 195.629C199.328 195.84 199.306 196.051 199.275 196.258C199.235 196.5 199.166 196.724 199.127 196.967C199.105 197.022 199.043 197.002 199.048 196.953Z" fill="white"/>
<path d="M282 198L280.655 216H271.348L270 198H282Z" fill="#DBDBDB"/>
<path d="M282 195.176H268V198H282V195.176ZM281.041 195.176H268.959L269.665 192H280.332L281.041 195.176Z" fill="black"/>
<path d="M278 206.5C278 206.96 277.935 207.415 277.81 207.84C277.684 208.264 277.5 208.65 277.268 208.975C277.036 209.3 276.76 209.558 276.457 209.734C276.153 209.91 275.828 210 275.5 210C275.172 210 274.846 209.91 274.543 209.734C274.24 209.558 273.964 209.3 273.732 208.975C273.5 208.65 273.316 208.264 273.19 207.839C273.065 207.415 273 206.96 273 206.5C273 206.04 273.065 205.585 273.19 205.161C273.316 204.736 273.5 204.35 273.732 204.025C273.964 203.7 274.24 203.442 274.543 203.266C274.846 203.09 275.172 203 275.5 203C275.828 203 276.153 203.09 276.457 203.266C276.76 203.442 277.036 203.7 277.268 204.025C277.5 204.35 277.684 204.736 277.81 205.16C277.935 205.585 278 206.04 278 206.5Z" fill="#FF7634"/>
<path d="M83.7673 103.302L79.2126 108.111L77 105.779M93.6348 101H107.096M93.7398 108.059H116M83.7673 119.772L79.2126 124.582L77 122.25M93.6348 117.471H107.096M93.7398 124.529H116M116 141H93.6348M116 133.941H93.7398" stroke="#E1E4E5" stroke-width="5.5" stroke-linecap="round" stroke-linejoin="round"/>
<path d="M80.5002 143C82.9854 143 85 140.762 85 138C85 135.238 82.9854 133 80.5002 133C78.0146 133 76 135.238 76 138C76 140.762 78.0146 143 80.5002 143Z" stroke="#E1E4E5" stroke-width="5.5" stroke-linecap="round" stroke-linejoin="round"/>
<path d="M251.94 91.1292L247.269 95.5775L245 93.4208M262.061 89H275.867M262.169 95.5295H285M251.94 106.364L247.269 110.813L245 108.656M262.061 104.235H275.867M262.169 110.765H285M285 126H262.061M285 119.471H262.169" stroke="#E1E4E5" stroke-width="5.5" stroke-linecap="round" stroke-linejoin="round"/>
<path d="M248.5 129C251.538 129 254 126.762 254 124C254 121.239 251.538 119 248.5 119C245.462 119 243 121.239 243 124C243 126.762 245.462 129 248.5 129Z" stroke="#E1E4E5" stroke-width="5.5" stroke-linecap="round" stroke-linejoin="round"/>
<path d="M148.868 74.3637L144.246 79.0377L142 76.7718M158.883 72.1272H172.544M201.663 72.1272H215.325M243.836 72H267.934M158.989 78.9868H181.582M201.77 78.9868H224.362M243.836 78.86H284M148.868 90.3703L144.246 95.0443L142 92.7784M158.883 88.1338H172.544M201.663 88.1338H215.325M158.989 94.9938H181.582M201.77 94.9938H224.362M181.581 111H158.883M181.582 104.14H158.989" stroke="#E1E4E5" stroke-width="5.5" stroke-linecap="round" stroke-linejoin="round"/>
<path d="M145.5 113C147.985 113 150 110.985 150 108.5C150 106.015 147.985 104 145.5 104C143.015 104 141 106.015 141 108.5C141 110.985 143.015 113 145.5 113Z" stroke="#E1E4E5" stroke-width="5.5" stroke-linecap="round" stroke-linejoin="round"/>
<path fill-rule="evenodd" clip-rule="evenodd" d="M154.612 133.656H153.723C153.62 133.656 153.522 133.618 153.449 133.551C153.376 133.483 153.335 133.392 153.335 133.297V132.474C153.335 132.379 153.376 132.287 153.449 132.22C153.522 132.152 153.62 132.115 153.723 132.114H154.612C154.825 132.114 155 132.276 155 132.474V133.297C155 133.344 154.99 133.391 154.971 133.434C154.951 133.478 154.923 133.518 154.887 133.551C154.851 133.585 154.808 133.611 154.761 133.629C154.713 133.647 154.663 133.656 154.612 133.656ZM151.529 133.656H150.64C150.537 133.656 150.439 133.618 150.366 133.551C150.293 133.483 150.252 133.392 150.252 133.297V132.474C150.252 132.379 150.293 132.287 150.366 132.22C150.439 132.152 150.537 132.115 150.64 132.114H151.529C151.743 132.114 151.917 132.276 151.917 132.474V133.297C151.917 133.392 151.876 133.483 151.803 133.551C151.731 133.618 151.632 133.656 151.529 133.656ZM148.445 133.656H147.555C147.453 133.656 147.354 133.618 147.281 133.55C147.209 133.483 147.168 133.392 147.167 133.297V132.474C147.167 132.379 147.208 132.287 147.281 132.22C147.354 132.152 147.452 132.115 147.555 132.114H148.445C148.658 132.114 148.833 132.276 148.833 132.474V133.297C148.833 133.344 148.823 133.391 148.803 133.434C148.784 133.478 148.755 133.518 148.719 133.551C148.683 133.584 148.64 133.611 148.593 133.629C148.546 133.647 148.496 133.656 148.445 133.656ZM145.362 133.656H144.473C144.37 133.656 144.271 133.618 144.199 133.551C144.126 133.483 144.085 133.392 144.085 133.297V132.474C144.085 132.379 144.126 132.287 144.199 132.22C144.271 132.152 144.37 132.115 144.473 132.114H145.362C145.577 132.114 145.752 132.276 145.752 132.474V133.297C145.751 133.392 145.709 133.483 145.636 133.55C145.564 133.618 145.465 133.656 145.362 133.656ZM142.279 133.656H141.39C141.287 133.656 141.188 133.618 141.115 133.551C141.042 133.484 141.001 133.392 141 133.297V132.474C141 132.275 141.175 132.114 141.39 132.114H142.279C142.492 132.114 142.667 132.276 142.667 132.474V133.297C142.667 133.392 142.626 133.483 142.553 133.551C142.48 133.618 142.382 133.656 142.279 133.656ZM151.416 130.544H150.527C150.425 130.543 150.326 130.505 150.253 130.438C150.18 130.371 150.139 130.28 150.139 130.184V129.359C150.139 129.162 150.314 129 150.527 129H151.416C151.519 129 151.618 129.038 151.691 129.105C151.763 129.173 151.804 129.264 151.804 129.359V130.183C151.805 130.23 151.795 130.277 151.775 130.321C151.756 130.365 151.727 130.404 151.691 130.438C151.655 130.471 151.612 130.498 151.565 130.516C151.518 130.534 151.467 130.544 151.416 130.544ZM148.334 130.544H147.444C147.342 130.543 147.243 130.505 147.17 130.438C147.098 130.371 147.057 130.28 147.056 130.184V129.359C147.056 129.162 147.231 129 147.444 129H148.334C148.547 129 148.722 129.162 148.722 129.359V130.183C148.722 130.23 148.712 130.277 148.693 130.321C148.673 130.365 148.645 130.404 148.609 130.438C148.573 130.471 148.53 130.498 148.483 130.516C148.435 130.534 148.385 130.544 148.334 130.544ZM145.251 130.544H144.362C144.259 130.544 144.16 130.506 144.087 130.439C144.014 130.371 143.972 130.28 143.972 130.184V129.359C143.972 129.162 144.147 129 144.362 129H145.251C145.464 129 145.639 129.162 145.639 129.359V130.183C145.639 130.278 145.598 130.37 145.525 130.437C145.452 130.505 145.354 130.543 145.251 130.544ZM148.445 137H147.555C147.453 137 147.354 136.962 147.281 136.894C147.209 136.827 147.168 136.736 147.167 136.641V135.818C147.167 135.722 147.208 135.631 147.281 135.564C147.354 135.496 147.452 135.458 147.555 135.458H148.445C148.658 135.458 148.833 135.62 148.833 135.818V136.641C148.833 136.688 148.823 136.735 148.803 136.778C148.784 136.822 148.755 136.862 148.719 136.895C148.683 136.928 148.64 136.955 148.593 136.973C148.546 136.991 148.496 137 148.445 137ZM145.362 137H144.473C144.37 137 144.271 136.962 144.199 136.894C144.126 136.827 144.085 136.736 144.085 136.641V135.818C144.085 135.722 144.126 135.631 144.199 135.564C144.271 135.496 144.37 135.458 144.473 135.458H145.362C145.577 135.458 145.752 135.62 145.752 135.818V136.641C145.751 136.736 145.709 136.827 145.636 136.894C145.564 136.962 145.465 136.999 145.362 137Z" fill="#E1E4E5"/>
<path d="M322.803 169.044L307.537 184.31C306.981 184.866 306.981 185.767 307.537 186.323C308.093 186.879 308.994 186.879 309.55 186.323L324.816 171.057C325.372 170.501 325.372 169.6 324.816 169.044C324.26 168.488 323.359 168.488 322.803 169.044Z" fill="#FF7634" stroke="#FF7634" stroke-width="3"/>
<path d="M321.309 179.974L316.906 184.376C316.35 184.932 316.35 185.834 316.906 186.39C317.462 186.946 318.363 186.946 318.919 186.39L323.322 181.987C323.878 181.431 323.878 180.53 323.322 179.974C322.766 179.418 321.865 179.418 321.309 179.974Z" fill="#FF7634" stroke="#FF7634" stroke-width="3"/>
<path d="M320.162 159.466C322.935 160.79 322.461 164.963 319.476 165.608H319.475L307.278 168.249L306.81 168.351L306.65 168.81L302.125 181.831C301.096 184.782 297.003 184.7 296.087 181.717L286.152 149.243C285.323 146.529 288.036 144.121 290.533 145.313L320.162 159.466Z" fill="#FF7634" stroke="#FF7634" stroke-width="3"/>
<path d="M213.127 116.485C212.32 117.411 212.107 118.713 212.032 119.944C211.921 121.799 212.072 123.727 212.917 125.374C213.159 125.843 213.337 128.163 213.708 128.035C213.827 127.995 213.807 126.195 214.119 125.226C214.601 123.723 216.823 123.15 217.824 124.099C219.421 125.61 218.484 127.446 217.954 128.588C217.637 129.277 217.135 130.051 217.048 130.78C216.942 131.714 216.91 135.116 217.511 135.91C218.013 136.575 218.547 133.361 219.001 132.728C222.365 128.011 225.592 116 219.848 113.395C218.974 112.999 216.278 112.794 215.46 113.299" fill="#7C4F2C"/>
</svg>
